<svg width="64" height="64" viewBox="0 0 64 64" fill="none" xmlns="http://www.w3.org/2000/svg">
<g clip-path="url(#clip0)">
<path d="M36.8 0.4C35.2 0.2 33.6 0 32 0L29.5 7.5L32 16.7C33.7 16.7 35.3 17 36.8 17.5L39.3 8.8L36.8 0.4Z" fill="#DDEDEB"/>
<path d="M4.2 19.4999C3.8 19.1999 3.5 18.8999 3.1 18.5999C-1.1 14.3999 -1.1 7.4999 3.1 3.2999C7.3 -0.900098 14.2 -0.900098 18.4 3.2999C18.7 3.5999 19.1 3.9999 19.3 4.3999L16.3 6.6999C16.1 6.4999 15.9 6.1999 15.7 5.9999C12.9 3.1999 8.4 3.1999 5.7 5.9999C2.9 8.7999 2.9 13.2999 5.7 15.9999C5.9 16.1999 6.2 16.3999 6.4 16.5999L4.2 19.4999Z" fill="url(#paint0_linear)"/>
<path d="M59.8 19.4998L57.5 16.4998C57.7 16.2998 58 16.0998 58.2 15.8998C61 13.0998 61 8.5998 58.2 5.8998C55.4 3.0998 50.9 3.0998 48.2 5.8998C48 6.0998 47.8 6.3998 47.6 6.5998L44.6 4.2998C44.9 3.8998 45.2 3.5998 45.5 3.1998C49.7 -1.0002 56.6 -1.0002 60.8 3.1998C65 7.3998 65 14.2998 60.8 18.4998C60.5 18.8998 60.1 19.1998 59.8 19.4998Z" fill="url(#paint1_linear)"/>
<path d="M53.2 64C50.4 64 47.6 62.9 45.5 60.8C45.2 60.5 44.8 60.1 44.6 59.7L47.6 57.4C47.8 57.6 48 57.9 48.2 58.1C51 60.9 55.5 60.9 58.2 58.1C61 55.3 61 50.8 58.2 48.1C58 47.9 57.7 47.7 57.5 47.5L59.8 44.5C60.2 44.8 60.5 45.1 60.9 45.4C65.1 49.6 65.1 56.5 60.9 60.7C58.7 62.9 55.9 64 53.2 64Z" fill="url(#paint2_linear)"/>
<path d="M10.8 64.0001C8 64.0001 5.2 62.9001 3.1 60.8001C-1.1 56.6001 -1.1 49.7001 3.1 45.5001C3.4 45.2001 3.8 44.8001 4.2 44.6001L6.5 47.6001C6.3 47.8001 6 48.0001 5.8 48.2001C3 51.0001 3 55.5001 5.8 58.2001C8.6 61.0001 13.1 61.0001 15.8 58.2001C16 58.0001 16.2 57.7001 16.4 57.5001L19.4 59.8001C19.1 60.2001 18.8 60.5001 18.5 60.9001C16.4 62.9001 13.6 64.0001 10.8 64.0001Z" fill="url(#paint3_linear)"/>
<path d="M32 0C30.4 0 28.8 0.1 27.2 0.4L24.7 9.4L27.2 17.5C28.7 17 30.3 16.7 32 16.7V0Z" fill="#DDEDEB"/>
<path d="M27.2 17.4999V0.399902C20.5 1.3999 14.3 4.4999 9.4 9.3999C4.5 14.2999 1.4 20.4999 0.4 27.1999L9.7 29.6999L17.5 27.1999C19 22.5999 22.6 18.9999 27.2 17.4999Z" fill="url(#paint4_linear)"/>
<path d="M17.5 27.2002H0.4C0.2 28.8002 0 30.4002 0 32.0002C0 33.6002 0.1 35.2002 0.4 36.8002L9.2 39.3002L17.5 36.8002C17 35.3002 16.7 33.7002 16.7 32.0002C16.7 30.3002 17 28.7002 17.5 27.2002Z" fill="#DDEDEB"/>
<path d="M9.4 54.5998C14.3 59.4998 20.5 62.5998 27.2 63.5998L29.7 54.5998L27.2 46.4998C22.6 44.9998 19 41.3998 17.5 36.7998H0.4C1.4 43.4998 4.5 49.6998 9.4 54.5998Z" fill="url(#paint5_linear)"/>
<path d="M27.2 46.5V63.6C28.8 63.8 30.4 64 32 64L34.5 54.7L32 47.3C30.3 47.3 28.7 47 27.2 46.5Z" fill="#DDEDEB"/>
<path d="M36.8 63.6L39.3 54.3L36.8 46.5C35.3 47 33.7 47.3 32 47.3V64C33.6 64 35.2 63.8 36.8 63.6Z" fill="#DDEDEB"/>
<path d="M36.8 46.4998V63.5998C43.5 62.5998 49.7 59.4998 54.6 54.5998C59.5 49.6998 62.6 43.4998 63.6 36.7998L53.9 34.2998L46.5 36.7998C45 41.3998 41.4 44.9998 36.8 46.4998Z" fill="url(#paint6_linear)"/>
<path d="M63.6 27.2002L54.6 24.7002L46.5 27.2002C47 28.7002 47.3 30.3002 47.3 32.0002C47.3 33.7002 47 35.3002 46.5 36.8002H63.6C63.8 35.2002 64 33.6002 64 32.0002C64 30.4002 63.8 28.8002 63.6 27.2002Z" fill="#DDEDEB"/>
<path d="M54.6 9.3999C49.7 4.4999 43.5 1.3999 36.8 0.399902V17.4999C41.4 18.9999 45 22.5999 46.5 27.1999H63.6C62.6 20.4999 59.5 14.2999 54.6 9.3999Z" fill="url(#paint7_linear)"/>
</g>
<defs>
<linearGradient id="paint0_linear" x1="0.000315708" y1="9.7297" x2="19.4596" y2="9.7297" gradientUnits="userSpaceOnUse">
<stop stop-color="#FFD400"/>
<stop offset="1" stop-color="#ECAF11"/>
</linearGradient>
<linearGradient id="paint1_linear" x1="44.5406" y1="9.72971" x2="64.0003" y2="9.72971" gradientUnits="userSpaceOnUse">
<stop stop-color="#FFD400"/>
<stop offset="1" stop-color="#ECAF11"/>
</linearGradient>
<linearGradient id="paint2_linear" x1="44.5406" y1="54.2702" x2="64.0003" y2="54.2702" gradientUnits="userSpaceOnUse">
<stop stop-color="#FFD400"/>
<stop offset="1" stop-color="#ECAF11"/>
</linearGradient>
<linearGradient id="paint3_linear" x1="4.49281e-08" y1="54.2703" x2="19.4596" y2="54.2703" gradientUnits="userSpaceOnUse">
<stop stop-color="#FFD400"/>
<stop offset="1" stop-color="#ECAF11"/>
</linearGradient>
<linearGradient id="paint4_linear" x1="-14.9999" y1="15.0612" x2="62.5001" y2="15.0612" gradientUnits="userSpaceOnUse">
<stop stop-color="#01A7A3"/>
<stop offset="1" stop-color="#73D483"/>
</linearGradient>
<linearGradient id="paint5_linear" x1="-14.9999" y1="50.1897" x2="62.5001" y2="50.1897" gradientUnits="userSpaceOnUse">
<stop stop-color="#01A7A3"/>
<stop offset="1" stop-color="#73D483"/>
</linearGradient>
<linearGradient id="paint6_linear" x1="51.2501" y1="48.9385" x2="3.2501" y2="48.9385" gradientUnits="userSpaceOnUse">
<stop stop-color="#01A7A3"/>
<stop offset="1" stop-color="#73D483"/>
</linearGradient>
<linearGradient id="paint7_linear" x1="51.2501" y1="13.81" x2="3.2501" y2="13.81" gradientUnits="userSpaceOnUse">
<stop stop-color="#01A7A3"/>
<stop offset="1" stop-color="#73D483"/>
</linearGradient>
<clipPath id="clip0">
<rect width="64" height="64" fill="white"/>
</clipPath>
</defs>
</svg>
