<svg width="88" height="67" viewBox="0 0 88 67" fill="none" xmlns="http://www.w3.org/2000/svg">
<g clip-path="url(#clip0)">
<path d="M80.645 26.7374H74.1554L66.1082 10.47C65.4159 9.08551 64.0315 8.22021 62.474 8.22021H6.2301C4.32646 8.22021 2.76894 9.77774 2.76894 11.6814V50.7925H85.2311V31.3235C85.2311 28.8141 83.1544 26.7374 80.645 26.7374Z" fill="url(#paint0_linear)"/>
<path d="M85.2311 35.3901H2.76894V40.1492H85.2311V35.3901Z" fill="#DDEDEB"/>
<path d="M29.3334 19.5557H24.6608V14.8832C24.6608 14.4505 24.3147 14.1909 23.9686 14.1909H20.4209C19.9882 14.1909 19.7286 14.537 19.7286 14.8832V19.5557H15.0561C14.6234 19.5557 14.3638 19.9018 14.3638 20.248V23.7956C14.3638 24.2283 14.7099 24.4879 15.0561 24.4879H19.7286V29.1604C19.7286 29.5931 20.0747 29.8527 20.4209 29.8527H23.9686C24.4012 29.8527 24.6608 29.5066 24.6608 29.1604V24.4879H29.3334C29.766 24.4879 30.0256 24.1418 30.0256 23.7956V20.248C30.0256 19.8153 29.6795 19.5557 29.3334 19.5557Z" fill="#DDEDEB"/>
<path d="M56.6765 8.22026H47.1583V3.54769C47.1583 1.55752 48.7158 0 50.706 0H53.2154C55.2055 0 56.763 1.55752 56.763 3.54769L56.6765 8.22026Z" fill="url(#paint1_linear)"/>
<path d="M87.0482 56.1574H0.951819C0.432645 56.1574 0 55.7247 0 55.2055V47.591C0 47.0718 0.432645 46.6392 0.951819 46.6392H86.9616C87.4808 46.6392 87.9135 47.0718 87.9135 47.591V55.119C88 55.7247 87.5674 56.1574 87.0482 56.1574Z" fill="url(#paint2_linear)"/>
<path d="M75.7129 56.6765C75.7129 62.2144 71.2134 66.7139 65.6755 66.7139C60.1377 66.7139 55.6382 62.2144 55.6382 56.6765C55.6382 51.1387 60.1377 46.6392 65.6755 46.6392C71.2134 46.6392 75.7129 51.1387 75.7129 56.6765Z" fill="url(#paint3_linear)"/>
<path d="M27.0836 56.6765C27.0836 62.2144 22.5841 66.7139 17.0462 66.7139C11.5084 66.7139 7.00885 62.2144 7.00885 56.6765C7.00885 51.1387 11.5084 46.6392 17.0462 46.6392C22.5841 46.6392 27.0836 51.1387 27.0836 56.6765Z" fill="url(#paint4_linear)"/>
<path d="M66.3678 52.523C68.704 52.8691 70.2616 55.0323 69.8289 57.3686C69.4828 59.7049 67.3196 61.2624 64.9833 60.8298C62.647 60.4836 61.0895 58.3204 61.5221 55.9841C61.8682 53.7344 64.0315 52.0903 66.3678 52.523Z" fill="#E8E9EA"/>
<path d="M17.7384 52.523C20.0747 52.8691 21.6322 55.0323 21.1996 57.3686C20.8535 59.7049 18.6903 61.2624 16.354 60.8298C14.0177 60.4836 12.4602 58.3204 12.8928 55.9841C13.2389 53.7344 15.4022 52.0903 17.7384 52.523Z" fill="#E8E9EA"/>
<path d="M85.2311 41.6203H76.8377C76.232 41.6203 75.7994 41.1011 75.7994 40.582V35.1306C75.7994 34.5249 76.3186 34.0923 76.8377 34.0923H85.2311V41.6203Z" fill="url(#paint5_linear)"/>
<path d="M60.6568 13.6714H45.0816C44.4759 13.6714 44.0433 14.104 44.0433 14.7097V25.6989C44.0433 26.3046 44.4759 26.7373 45.0816 26.7373H66.1082C66.8869 26.7373 67.4061 25.872 67.06 25.1797L61.6086 14.1906C61.4356 13.931 61.0029 13.6714 60.6568 13.6714Z" fill="white"/>
</g>
<defs>
<linearGradient id="paint0_linear" x1="43.9956" y1="57.9744" x2="43.9956" y2="26.3913" gradientUnits="userSpaceOnUse">
<stop stop-color="#01A7A3"/>
<stop offset="1" stop-color="#73D483"/>
</linearGradient>
<linearGradient id="paint1_linear" x1="47.0936" y1="4.12726" x2="56.6549" y2="4.12726" gradientUnits="userSpaceOnUse">
<stop stop-color="#FFD400"/>
<stop offset="1" stop-color="#ECAF11"/>
</linearGradient>
<linearGradient id="paint2_linear" x1="43.9956" y1="57.9745" x2="43.9956" y2="26.3914" gradientUnits="userSpaceOnUse">
<stop stop-color="#01A7A3"/>
<stop offset="1" stop-color="#73D483"/>
</linearGradient>
<linearGradient id="paint3_linear" x1="65.7004" y1="70.0885" x2="65.7004" y2="50.6195" gradientUnits="userSpaceOnUse">
<stop stop-color="#01A7A3"/>
<stop offset="1" stop-color="#73D483"/>
</linearGradient>
<linearGradient id="paint4_linear" x1="17.0412" y1="70.0885" x2="17.0412" y2="50.6195" gradientUnits="userSpaceOnUse">
<stop stop-color="#01A7A3"/>
<stop offset="1" stop-color="#73D483"/>
</linearGradient>
<linearGradient id="paint5_linear" x1="75.7526" y1="37.7772" x2="85.2057" y2="37.7772" gradientUnits="userSpaceOnUse">
<stop stop-color="#FFD400"/>
<stop offset="1" stop-color="#ECAF11"/>
</linearGradient>
<clipPath id="clip0">
<rect width="88" height="66.7139" fill="white"/>
</clipPath>
</defs>
</svg>
