<svg width="86" height="58" viewBox="0 0 86 58" fill="none" xmlns="http://www.w3.org/2000/svg">
<g clip-path="url(#clip0)">
<path d="M75.4415 17.5405H67.3524V9.79202C67.3524 7.57816 69.1406 5.79004 71.3544 5.79004C73.5683 5.79004 75.3564 7.57816 75.3564 9.79202V17.5405H75.4415Z" fill="url(#paint0_linear)"/>
<path d="M12.2614 3.74658H4.68317V12.2614H12.2614V3.74658Z" fill="#DDEDEB"/>
<path d="M85.6594 24.2675L82.2535 16.0081C81.5723 14.3902 80.0396 13.3685 78.2515 13.3685H61.2218C60.2 13.3685 59.3485 14.2199 59.3485 15.2417V28.2694H52.9624V12.1764C52.9624 11.0694 52.0257 10.1328 50.9188 10.1328H2.04356C0.936634 10.218 0 11.0694 0 12.1764V38.8279V49.216C0 50.4932 1.02178 51.515 2.29901 51.515H52.9624H59.3485H83.7861C85.0634 51.515 86.0852 50.4932 86.0852 49.216V38.8279V25.8853C86 25.3744 85.9149 24.7784 85.6594 24.2675Z" fill="url(#paint1_linear)"/>
<path d="M65.5644 28.61V20.9467C65.5644 20.1803 66.1604 19.6694 66.8416 19.6694H76.0376C76.5485 19.6694 77.0594 20.01 77.2297 20.5209L79.6139 26.2259C79.699 26.3962 79.699 26.5665 79.699 26.7368V28.7803C79.699 29.5467 79.103 30.0576 78.4218 30.0576H66.8416C66.1604 29.8873 65.5644 29.2912 65.5644 28.61Z" fill="#DDEDEB"/>
<path d="M32.6119 29.121C32.6119 28.4398 32.0158 27.8438 31.3347 27.8438H25.9703V21.2874H31.3347C32.0158 21.2874 32.6119 20.6913 32.6119 20.0101C32.6119 19.3289 32.0158 18.7329 31.3347 18.7329H0V21.2874H4.85347V27.8438H0V30.3983H31.3347C32.0158 30.3983 32.6119 29.8022 32.6119 29.121ZM10.9842 27.7587H7.40792V21.2874H10.9842V27.7587ZM17.2 27.7587H13.6238V21.2874H17.2V27.7587ZM23.3307 27.7587H19.7545V21.2874H23.3307V27.7587Z" fill="#DDEDEB"/>
<path d="M64.2871 4.00221H56.6238C55.9426 4.00221 55.3465 3.40617 55.3465 2.72498C55.3465 2.04379 55.9426 1.44775 56.6238 1.44775H64.2871C64.9683 1.44775 65.5644 2.04379 65.5644 2.72498C65.5644 3.49132 64.9683 4.00221 64.2871 4.00221Z" fill="#DDEDEB"/>
<path d="M58.0713 5.4495H0.766337C0.340594 5.4495 0 5.10891 0 4.76832V0.766337C0 0.340594 0.340594 0 0.766337 0H58.0713C58.497 0 58.7525 0.340594 58.7525 0.766337V4.76832C58.7525 5.10891 58.497 5.4495 58.0713 5.4495Z" fill="url(#paint2_linear)"/>
<path d="M86 36.2734H81.2316C80.4653 36.2734 79.7841 36.9546 79.7841 37.721V38.4873C79.7841 40.9566 81.7425 42.915 84.2118 42.915H86V36.2734Z" fill="url(#paint3_linear)"/>
<path d="M13.6238 57.9012C9.96237 57.9012 6.89702 54.921 6.89702 51.1745C6.89702 47.4279 9.87722 44.4478 13.6238 44.4478C17.2851 44.4478 20.3505 47.4279 20.3505 51.1745C20.3505 54.921 17.3703 57.9012 13.6238 57.9012Z" fill="url(#paint4_linear)"/>
<path d="M69.8217 57.9012C66.1604 57.9012 63.095 54.921 63.095 51.1745C63.095 47.4279 66.0752 44.4478 69.8217 44.4478C73.4831 44.4478 76.5485 47.4279 76.5485 51.1745C76.5485 54.921 73.4831 57.9012 69.8217 57.9012Z" fill="url(#paint5_linear)"/>
<path d="M72.1208 51.1745C72.1208 52.4517 71.0991 53.4735 69.8218 53.4735C68.5446 53.4735 67.5228 52.4517 67.5228 51.1745C67.5228 49.8973 68.5446 48.8755 69.8218 48.8755C71.0991 48.8755 72.1208 49.8973 72.1208 51.1745Z" fill="#D8D8D8"/>
<path d="M16.0079 51.1745C16.0079 52.4517 14.9862 53.4735 13.7089 53.4735C12.4317 53.4735 11.4099 52.4517 11.4099 51.1745C11.4099 49.8973 12.4317 48.8755 13.7089 48.8755C14.9862 48.8755 16.0079 49.8973 16.0079 51.1745Z" fill="#D8D8D8"/>
</g>
<defs>
<linearGradient id="paint0_linear" x1="67.4008" y1="11.6483" x2="75.4672" y2="11.6483" gradientUnits="userSpaceOnUse">
<stop stop-color="#FFD400"/>
<stop offset="1" stop-color="#ECAF11"/>
</linearGradient>
<linearGradient id="paint1_linear" x1="16.8454" y1="30.8309" x2="103.732" y2="30.8309" gradientUnits="userSpaceOnUse">
<stop stop-color="#01A7A3"/>
<stop offset="1" stop-color="#73D483"/>
</linearGradient>
<linearGradient id="paint2_linear" x1="0" y1="2.73344" x2="58.7924" y2="2.73344" gradientUnits="userSpaceOnUse">
<stop stop-color="#01A7A3"/>
<stop offset="1" stop-color="#73D483"/>
</linearGradient>
<linearGradient id="paint3_linear" x1="79.7661" y1="39.585" x2="86" y2="39.585" gradientUnits="userSpaceOnUse">
<stop stop-color="#FFD400"/>
<stop offset="1" stop-color="#ECAF11"/>
</linearGradient>
<linearGradient id="paint4_linear" x1="13.6536" y1="55.7745" x2="13.6536" y2="45.8003" gradientUnits="userSpaceOnUse">
<stop stop-color="#01A7A3"/>
<stop offset="1" stop-color="#73D483"/>
</linearGradient>
<linearGradient id="paint5_linear" x1="69.7923" y1="55.7745" x2="69.7923" y2="45.8003" gradientUnits="userSpaceOnUse">
<stop stop-color="#01A7A3"/>
<stop offset="1" stop-color="#73D483"/>
</linearGradient>
<clipPath id="clip0">
<rect width="86" height="57.901" fill="white"/>
</clipPath>
</defs>
</svg>
