<svg width="96" height="69" viewBox="0 0 96 69" fill="none" xmlns="http://www.w3.org/2000/svg">
<g clip-path="url(#clip0)">
<path d="M45.9832 15.9551H38.0056C36.93 15.9551 36.0336 16.8514 36.0336 17.9271V24.6498C36.0336 25.7254 36.93 26.6217 38.0056 26.6217H45.9832C47.0588 26.6217 47.9552 25.7254 47.9552 24.6498V17.9271C47.9552 16.8514 47.0588 15.9551 45.9832 15.9551Z" fill="url(#paint0_linear)"/>
<path d="M13.9832 38.095C13.9832 38.095 21.423 24.1118 42.0392 24.1118C62.6555 24.1118 70.0056 38.095 70.0056 38.095C94.028 38.095 94.028 38.095 94.028 60.0558H10.0392C6.36415 60.0558 2.06163 56.1118 2.06163 56.1118V42.1286L6.09524 38.095H13.9832Z" fill="url(#paint1_linear)"/>
<path d="M68.6611 36.123C65.7031 32.2687 57.7255 24.1118 41.9496 24.1118C26.2633 24.1118 18.1961 32.2687 15.2381 36.123H68.6611Z" fill="#DDEDEB"/>
<path d="M9.94958 62.1175C5.64706 62.1175 1.16527 58.0839 0.627451 57.6357C0.179272 57.2772 0 56.7394 0 56.2015V42.1287C0 41.5909 0.179272 41.0531 0.627451 40.6945L4.66106 36.6609C5.01961 36.3024 5.55742 36.0335 6.09524 36.0335H12.9076C13.8039 34.5993 15.7759 31.9999 19.0924 29.4901C23.395 26.0839 30.8347 22.0503 42.1289 22.0503C53.3333 22.0503 60.8627 26.0839 65.0756 29.4901C68.3025 32.0895 70.2745 34.6889 71.1709 36.0335C82.9132 36.0335 88.9188 36.1231 92.4146 39.2604C96.0896 42.5769 96.0896 48.4032 96.0896 59.9663C96.0896 61.0419 95.1933 61.9382 94.1177 61.9382L9.94958 62.1175ZM4.03361 55.2156C5.37815 56.2912 8.06723 58.0839 9.94958 58.0839H91.8768C91.8768 49.2996 91.6975 44.3696 89.5462 42.308C87.1261 40.0671 81.0308 40.0671 69.916 40.0671C69.1989 40.0671 68.4818 39.6189 68.1233 38.9915C68.1233 38.9915 66.3305 35.6749 62.2073 32.5377C56.7395 28.2352 49.9272 26.0839 41.8599 26.0839C33.8824 26.0839 26.9804 28.2352 21.5126 32.5377C17.3894 35.7646 15.5966 38.9915 15.5966 38.9915C15.2381 39.6189 14.6106 40.0671 13.8039 40.0671H6.81233L3.94398 42.9354L4.03361 55.2156Z" fill="url(#paint2_linear)"/>
<path d="M21.9608 48.1343C16.4034 48.1343 11.9216 52.6161 11.9216 58.0839C11.9216 63.6413 16.4034 68.1231 21.9608 68.1231C27.4286 68.1231 32 63.6413 32 58.0839C32 52.6161 27.5182 48.1343 21.9608 48.1343Z" fill="url(#paint3_linear)"/>
<path d="M73.9496 48.1343C68.4818 48.1343 64 52.6161 64 58.0839C64 63.6413 68.4818 68.1231 73.9496 68.1231C79.507 68.1231 83.9888 63.6413 83.9888 58.0839C83.9888 52.6161 79.507 48.1343 73.9496 48.1343Z" fill="url(#paint4_linear)"/>
<path d="M19.9888 58.174C19.9888 59.2496 20.8852 60.146 21.9608 60.146C23.0364 60.146 23.9328 59.2496 23.9328 58.174C23.9328 57.0983 23.0364 56.202 21.9608 56.202C20.8852 56.1123 19.9888 57.0087 19.9888 58.174Z" fill="#F5F7FA"/>
<path d="M71.9776 58.174C71.9776 59.2496 72.874 60.146 73.9496 60.146C75.0252 60.146 75.9216 59.2496 75.9216 58.174C75.9216 57.0983 75.0252 56.202 73.9496 56.202C72.874 56.1123 71.9776 57.0087 71.9776 58.174Z" fill="#F5F7FA"/>
<path d="M95.4622 46.0729C95.1933 44.5491 94.8348 43.2942 94.2969 42.1289H87.9328C86.8572 42.1289 85.9608 43.0253 85.9608 44.1009C85.9608 45.1765 86.8572 46.0729 87.9328 46.0729H94.9244C95.1037 46.0729 95.2829 46.0729 95.4622 46.0729Z" fill="url(#paint5_linear)"/>
<path d="M41.9496 12.0112C40.874 12.0112 39.9776 11.1148 39.9776 10.0392V1.97199C39.9776 0.896358 40.874 0 41.9496 0C43.0252 0 43.9216 0.896358 43.9216 1.97199V9.94958C43.9216 11.1148 43.1149 12.0112 41.9496 12.0112Z" fill="url(#paint6_linear)"/>
<path d="M33.972 14.969C33.6134 14.969 33.2549 14.8794 32.986 14.7001L26.084 10.7561C25.098 10.2183 24.8291 8.96341 25.3669 8.06705C25.9048 7.08105 27.1597 6.81214 28.056 7.34996L34.958 11.3836C35.944 11.9214 36.2129 13.1763 35.6751 14.0727C35.3165 14.6105 34.6891 14.969 33.972 14.969Z" fill="url(#paint7_linear)"/>
<path d="M50.0168 14.9693C49.2997 14.9693 48.6723 14.6107 48.3137 13.9833C47.7759 12.9973 48.1344 11.832 49.0308 11.2942L55.9328 7.2606C56.9188 6.72279 58.084 6.9917 58.6218 7.97769C59.1596 8.96369 58.8907 10.129 57.9047 10.6668L51.0028 14.7004C50.6442 14.8797 50.2857 14.9693 50.0168 14.9693Z" fill="url(#paint8_linear)"/>
<path d="M53.8711 46.8795C53.6022 46.1624 52.9748 45.6246 52.2577 45.5349L49.1204 45.0868L47.7759 42.3081C47.4174 41.591 46.7003 41.2324 45.9832 41.2324C45.2661 41.2324 44.549 41.6806 44.1905 42.3081L42.8459 45.0868L39.7087 45.5349C38.9916 45.6246 38.3641 46.1624 38.0952 46.8795C37.8263 47.5966 38.0952 48.4033 38.633 48.9411L40.8739 51.0924L40.3361 54.2296C40.2465 54.9467 40.5154 55.7534 41.1428 56.2016C41.5014 56.4705 41.8599 56.5602 42.3081 56.5602C42.6667 56.5602 42.9356 56.4705 43.2045 56.2912L45.9832 54.8571L48.7619 56.2912C49.0308 56.4705 49.3893 56.5602 49.6583 56.5602C50.7339 56.5602 51.6302 55.6638 51.6302 54.5882C51.6302 54.4089 51.6302 54.3193 51.5406 54.14L51.0924 51.0924L53.3333 48.9411C53.9608 48.4033 54.14 47.5966 53.8711 46.8795Z" fill="#DDEDEB"/>
<path d="M17.8375 36.1233C18.7339 35.0477 19.9888 33.7928 21.6022 32.5379C27.07 28.2354 33.972 26.0841 41.9496 26.0841C49.9272 26.0841 56.8291 28.2354 62.2969 32.5379C63.9104 33.7928 65.1653 35.0477 66.0616 36.1233H71.0812C70.1849 34.6892 68.2129 32.0897 64.986 29.5799C60.6835 26.1737 53.2437 22.1401 42.0392 22.1401C30.8347 22.1401 23.3053 26.1737 19.0028 29.5799C15.7759 32.1794 13.8039 34.7788 12.8179 36.1233H17.8375Z" fill="url(#paint9_linear)"/>
</g>
<defs>
<linearGradient id="paint0_linear" x1="35.9853" y1="21.3696" x2="47.9843" y2="21.3696" gradientUnits="userSpaceOnUse">
<stop stop-color="#FFD400"/>
<stop offset="1" stop-color="#ECAF11"/>
</linearGradient>
<linearGradient id="paint1_linear" x1="1.99897" y1="42.1107" x2="93.9712" y2="42.1107" gradientUnits="userSpaceOnUse">
<stop stop-color="#01A7A3"/>
<stop offset="1" stop-color="#73D483"/>
</linearGradient>
<linearGradient id="paint2_linear" x1="0" y1="42.1121" x2="95.9686" y2="42.1121" gradientUnits="userSpaceOnUse">
<stop stop-color="#01A7A3"/>
<stop offset="1" stop-color="#73D483"/>
</linearGradient>
<linearGradient id="paint3_linear" x1="21.9925" y1="66.3304" x2="21.9925" y2="47.0586" gradientUnits="userSpaceOnUse">
<stop stop-color="#01A7A3"/>
<stop offset="1" stop-color="#73D483"/>
</linearGradient>
<linearGradient id="paint4_linear" x1="73.9766" y1="66.3304" x2="73.9766" y2="47.0586" gradientUnits="userSpaceOnUse">
<stop stop-color="#01A7A3"/>
<stop offset="1" stop-color="#73D483"/>
</linearGradient>
<linearGradient id="paint5_linear" x1="85.9467" y1="44.1099" x2="95.4181" y2="44.1099" gradientUnits="userSpaceOnUse">
<stop stop-color="#FFD400"/>
<stop offset="1" stop-color="#ECAF11"/>
</linearGradient>
<linearGradient id="paint6_linear" x1="39.9668" y1="5.99807" x2="43.966" y2="5.99807" gradientUnits="userSpaceOnUse">
<stop stop-color="#FFD400"/>
<stop offset="1" stop-color="#ECAF11"/>
</linearGradient>
<linearGradient id="paint7_linear" x1="25.0639" y1="10.9961" x2="35.9898" y2="10.9961" gradientUnits="userSpaceOnUse">
<stop stop-color="#FFD400"/>
<stop offset="1" stop-color="#ECAF11"/>
</linearGradient>
<linearGradient id="paint8_linear" x1="47.9843" y1="10.9964" x2="58.9108" y2="10.9964" gradientUnits="userSpaceOnUse">
<stop stop-color="#FFD400"/>
<stop offset="1" stop-color="#ECAF11"/>
</linearGradient>
<linearGradient id="paint9_linear" x1="12.8351" y1="29.1206" x2="71.1005" y2="29.1206" gradientUnits="userSpaceOnUse">
<stop stop-color="#01A7A3"/>
<stop offset="1" stop-color="#73D483"/>
</linearGradient>
<clipPath id="clip0">
<rect width="96" height="68.1232" fill="white"/>
</clipPath>
</defs>
</svg>
