<svg width="36" height="36" viewBox="0 0 36 36" fill="none" xmlns="http://www.w3.org/2000/svg">
<path d="M18 36C27.9411 36 36 27.9411 36 18C36 8.05887 27.9411 0 18 0C8.05887 0 0 8.05887 0 18C0 27.9411 8.05887 36 18 36Z" fill="#EBEEF0"/>
<path d="M19.8 20.3999H16.2C13.3 20.3999 11 22.6999 11 25.5999V27.5999C12.9 29.0999 15.4 29.9999 18 29.9999C20.6 29.9999 23.1 29.0999 25 27.5999V25.5999C25 22.7999 22.7 20.3999 19.8 20.3999Z" fill="#617882" fill-opacity="0.5"/>
<path d="M18 9.2998C15.1 9.2998 12.8 11.5998 12.8 14.4998C12.8 17.3998 15.1 19.6998 18 19.6998C20.9 19.6998 23.2 17.3998 23.2 14.4998C23.2 11.5998 20.9 9.2998 18 9.2998Z" fill="#617882" fill-opacity="0.5"/>
</svg>
