<svg width="355" height="237" viewBox="0 0 355 237" fill="none" xmlns="http://www.w3.org/2000/svg">
<g clip-path="url(#clip0)">
<path d="M290.535 155.936C290.535 83.088 231.636 24.0986 159.037 24.0986C86.4374 24.0986 27.5383 83.1493 27.5383 155.936C27.5383 186.534 37.9359 214.618 55.3059 237H262.707C280.138 214.618 290.535 186.473 290.535 155.936Z" fill="#0FA070"/>
<path d="M83.0121 28.023H35.6115C34.7552 28.023 34.0212 27.3485 34.0212 26.4287V13.1837C34.0212 12.3252 34.694 11.5894 35.6115 11.5894H83.0121C83.8684 11.5894 84.6023 12.2639 84.6023 13.1837V26.49C84.5411 27.3485 83.8684 28.023 83.0121 28.023Z" fill="#E3CC55"/>
<path d="M41.5442 17.2308H73.8989" stroke="#FCFBFF" stroke-width="1.9364" stroke-miterlimit="10" stroke-linecap="round" stroke-linejoin="round"/>
<path d="M41.5442 21.6458H53.5319" stroke="#FCFBFF" stroke-width="1.9364" stroke-miterlimit="10" stroke-linecap="round" stroke-linejoin="round"/>
<path d="M76.5289 26.2448V32.0088C76.5289 32.1927 76.3454 32.2541 76.2231 32.1927L68.8225 26.3061H76.5289V26.2448Z" fill="#E3CC55"/>
<path d="M41.8501 180.279H9.43417C6.3149 180.279 3.74609 177.704 3.74609 174.577V144.407C3.74609 142.016 5.70328 140.054 8.0886 140.054H41.8501C44.2354 140.054 46.1926 142.016 46.1926 144.407V175.926C46.1314 178.317 44.1742 180.279 41.8501 180.279Z" fill="#00D386"/>
<path d="M31.4527 155.506C29.8625 153.912 27.2936 153.973 25.7034 155.568L24.6637 156.61L23.6239 155.568C22.0337 153.973 19.4649 154.035 17.8747 155.629C16.2845 157.223 16.3456 159.799 17.9358 161.393L21.8502 165.256C22.4618 165.869 23.2569 166.237 24.052 166.36C25.2753 166.544 26.6209 166.176 27.5383 165.195L31.3915 161.209C33.104 159.615 33.0429 157.039 31.4527 155.506Z" fill="white"/>
<path d="M309.312 154.832H273.104C269.557 154.832 266.743 151.95 266.743 148.455V114.729C266.743 112.031 268.884 109.885 271.575 109.885H309.312C312.003 109.885 314.144 112.031 314.144 114.729V150.049C314.144 152.686 312.003 154.832 309.312 154.832Z" fill="#E3A155"/>
<path d="M287.783 139.195C291.147 139.257 294.511 139.318 297.569 139.073C298.547 139.011 299.404 137.478 298.18 136.988C298.67 136.743 299.159 136.497 299.404 135.945C299.587 135.393 299.342 134.719 298.792 134.535C299.954 134.842 300.382 133.002 299.526 132.389C300.015 131.96 300.382 131.469 300.505 130.795C300.627 130.181 300.321 129.446 299.771 129.139C299.404 128.955 298.975 128.955 298.547 128.955C297.141 128.955 295.734 128.955 294.388 128.894C294.755 126.686 294.878 124.356 293.777 122.394C293.471 121.842 292.553 121.106 291.82 121.597C291.147 122.026 291.33 123.068 291.391 123.681C291.514 126.38 289.985 129.139 287.599 130.427C287.661 130.427 287.844 136.252 287.783 139.195Z" fill="#F9F9F9"/>
<path d="M286.621 130.427H281.544V139.134H286.621V130.427Z" fill="#F9F9F9"/>
<path d="M274.878 18.1506C277.276 18.1506 279.22 16.2014 279.22 13.7969C279.22 11.3924 277.276 9.44321 274.878 9.44321C272.479 9.44321 270.535 11.3924 270.535 13.7969C270.535 16.2014 272.479 18.1506 274.878 18.1506Z" stroke="#FCFBFF" stroke-width="1.7845" stroke-miterlimit="10"/>
<path d="M354.449 118.224C354.449 119.818 353.165 121.106 351.575 121.106C349.985 121.106 348.7 119.818 348.7 118.224C348.7 116.63 349.985 115.342 351.575 115.342C353.165 115.342 354.449 116.63 354.449 118.224Z" stroke="#FCFBFF" stroke-width="1.7845" stroke-miterlimit="10"/>
<path d="M-7.50772 36.2398C-7.50772 36.2398 -8.97561 38.6926 -6.95726 40.1643C-4.93891 41.636 -3.22637 38.8766 -1.02454 40.5935C1.1773 42.2492 -0.657563 44.334 -0.657563 44.334" stroke="#FCFBFF" stroke-width="1.7845" stroke-miterlimit="10"/>
<path d="M335.306 170.223C335.306 170.223 334.205 173.596 337.018 174.822C339.832 176.048 341.239 172.247 344.358 173.718C347.538 175.19 345.826 178.133 345.826 178.133" stroke="#FCFBFF" stroke-width="1.7845" stroke-miterlimit="10"/>
<path d="M318.425 54.6357C318.425 56.7206 316.774 58.3762 314.694 58.3762C312.615 58.3762 310.963 56.7206 310.963 54.6357C310.963 52.5508 312.615 50.8952 314.694 50.8952C316.774 50.8952 318.425 52.5508 318.425 54.6357Z" fill="#E3CC55"/>
<path d="M311.758 202.232C311.758 203.826 310.474 205.114 308.884 205.114C307.293 205.114 306.009 203.826 306.009 202.232C306.009 200.638 307.293 199.35 308.884 199.35C310.474 199.35 311.758 200.638 311.758 202.232Z" fill="#00D386"/>
<path d="M136.346 2.88202C136.346 4.47633 135.061 5.76404 133.471 5.76404C131.881 5.76404 130.596 4.47633 130.596 2.88202C130.596 1.28771 131.881 0 133.471 0C135.061 0 136.346 1.28771 136.346 2.88202Z" fill="#E3A155"/>
<path d="M309.74 91.4274H334.511" stroke="#FCFBFF" stroke-width="1.9364" stroke-miterlimit="10" stroke-linecap="round" stroke-linejoin="round"/>
<path d="M-25 84.6823H18.7309" stroke="#FCFBFF" stroke-width="1.9364" stroke-miterlimit="10"/>
<path d="M157.936 2.88202H184.235" stroke="#FCFBFF" stroke-width="1.9364" stroke-miterlimit="10" stroke-linecap="round" stroke-linejoin="round"/>
</g>
<defs>
<clipPath id="clip0">
<rect width="380" height="237" fill="white" transform="translate(-25)"/>
</clipPath>
</defs>
</svg>
