<svg width="375" height="789" viewBox="0 0 375 789" fill="none" xmlns="http://www.w3.org/2000/svg">
<g clip-path="url(#clip0)">
<path d="M-44 722.867C-44 722.867 14.427 784.2 102.98 760.689C191.534 737.178 213.444 706.511 273.697 700.378C333.949 694.244 396.028 697.311 454.455 750.467C512.882 803.622 606 23.6667 606 23.6667L-12.9607 -53L-44 722.867Z" fill="#0F8E70"/>
<path opacity="0.38" d="M489.146 821C458.107 794.422 410.635 754.555 369.554 741.267C328.472 727.978 280.087 720.822 244.483 725.933C208.879 731.044 173.275 744.333 111.197 747.4C49.1182 750.467 179.666 521.489 179.666 521.489L567.658 610.422L489.146 821Z" fill="#0F8E70"/>
</g>
<defs>
<clipPath id="clip0">
<rect width="650" height="874" fill="white" transform="translate(-44 -85)"/>
</clipPath>
</defs>
</svg>
