<svg width="375" height="812" viewBox="0 0 375 812" fill="none" xmlns="http://www.w3.org/2000/svg">
<g clip-path="url(#clip0)">
<rect width="375" height="812" fill="#EE0033"/>
<path d="M-44 691.867C-44 691.867 14.427 753.2 102.98 729.689C191.534 706.178 213.444 675.511 273.697 669.378C333.949 663.245 396.028 666.311 454.455 719.467C512.882 772.622 606 -7.33333 606 -7.33333L-12.9607 -84L-44 691.867Z" fill="white"/>
<path opacity="0.38" d="M489.146 790C458.107 763.422 410.635 723.556 369.553 710.267C328.472 696.978 280.087 689.822 244.483 694.933C208.879 700.044 173.275 713.333 111.197 716.4C49.1179 719.467 179.666 490.489 179.666 490.489L567.657 579.422L489.146 790Z" fill="white"/>
<path opacity="0.35" d="M336.5 19.6383C336.5 18.4417 337.47 17.4716 338.667 17.4716H355.333C356.53 17.4716 357.5 18.4417 357.5 19.6383V24.8092C357.5 26.0058 356.53 26.9759 355.333 26.9759H338.667C337.47 26.9759 336.5 26.0058 336.5 24.8092V19.6383Z" stroke="white"/>
<path opacity="0.4" d="M359 20.3701V24.0774C359.805 23.7634 360.328 23.033 360.328 22.2237C360.328 21.4145 359.805 20.684 359 20.3701Z" fill="white"/>
<path d="M338 20.1587C338 19.4223 338.597 18.8253 339.333 18.8253H354.667C355.403 18.8253 356 19.4223 356 20.1587V24.2889C356 25.0252 355.403 25.6222 354.667 25.6222H339.333C338.597 25.6222 338 25.0252 338 24.2889V20.1587Z" fill="white"/>
</g>
<defs>
<clipPath id="clip0">
<rect width="375" height="812" fill="white"/>
</clipPath>
</defs>
</svg>
