<svg width="137" height="37" viewBox="0 0 137 37" fill="none" xmlns="http://www.w3.org/2000/svg">
<g clip-path="url(#clip0)">
<path d="M31.1229 23.2584C31.1229 23.2584 28.6361 26.8076 26.9029 28.3179C25.1696 29.7527 22.4567 31.9426 20.196 32.7733C17.9353 33.604 16.2774 32.9999 14.921 32.2447C13.5645 31.5651 11.0777 30.2058 8.13876 27.1097C5.1998 24.0136 3.54193 20.993 3.16514 19.5582C2.78835 18.1234 3.01442 16.6131 3.91872 14.8763C4.89837 13.1394 6.6316 10.2699 8.74162 8.38201C10.8516 6.49414 12.2834 5.36141 12.9617 4.98384C12.9617 4.98384 11.3791 3.92663 11.6052 2.34082C11.6052 2.34082 7.53589 4.60627 4.89837 8.07995C2.26085 11.5536 -0.753469 15.858 0.0754673 19.4072C0.979762 22.9564 3.84336 26.8076 3.84336 26.8076C3.84336 26.8076 2.3362 31.112 2.03477 32.0182C1.73334 32.9243 1.05512 33.9815 1.65798 34.4346C2.26084 34.8877 2.26085 34.7367 3.99408 34.1326C5.72731 33.5285 9.26912 32.1692 9.26912 32.1692C9.26912 32.1692 11.9066 34.1326 13.866 35.0388C15.7499 35.9449 19.141 37.3042 23.5871 34.3591C28.0332 31.414 30.8968 29.1486 33.7604 24.4667C33.8358 24.5422 32.4793 25.0708 31.1229 23.2584Z" fill="#0F8E70"/>
<path d="M36.1718 17.6704C36.0211 15.405 35.1922 14.1967 34.0618 12.0068C32.9314 9.81688 28.41 4.98394 26.1492 3.39813C23.8885 1.88783 21.5524 0.377532 19.5931 0.0754729C17.5584 -0.226586 15.5991 0.226503 14.4688 0.755106C13.3384 1.28371 12.5095 1.88783 12.5848 3.09607C12.5848 3.09607 12.6602 3.39813 13.037 3.85121C13.4891 4.3043 16.202 7.02284 16.202 7.02284C16.202 7.02284 17.3324 8.23107 18.4627 7.24938C19.5178 6.26769 20.6481 5.13497 20.7988 4.98394C20.9496 4.83291 21.8538 4.3043 22.5321 4.68188C23.2103 4.98394 24.8682 6.04114 26.6014 7.62696C28.3346 9.21277 30.5954 11.9313 31.1982 13.1395C31.8011 14.2723 31.4243 15.1029 31.0475 15.556C30.5954 16.0091 29.3143 17.2929 29.1636 17.5194C28.9375 17.7459 28.0332 18.8032 28.8621 19.7093C29.6911 20.6155 32.1779 23.1075 32.4039 23.2585C32.63 23.4096 33.8357 24.1647 34.6647 23.1075C35.4183 22.2013 36.3979 19.8604 36.1718 17.6704Z" fill="#0F8E70"/>
<path d="M19.8193 9.81669L18.2368 9.28809V16.613L19.8193 16.0089V9.81669Z" fill="#0F8E70"/>
<path d="M26.526 24.9197H24.6421V17.0661L20.7988 15.6313V25.5993L21.4017 24.9197L23.7378 27.4117L24.6421 28.3934L24.7174 28.4689V28.9975C25.0942 28.6954 25.3957 28.3934 25.6971 28.0913C26.3753 27.4117 27.0535 26.732 27.6564 26.1279L26.526 24.9197Z" fill="#0F8E70"/>
<path d="M20.9495 28.167H19.6685V29.4507H20.9495V28.167Z" fill="#0F8E70"/>
<path d="M22.7581 28.167H21.4771V29.4507H22.7581V28.167Z" fill="#0F8E70"/>
<path d="M20.9495 29.9038H19.6685V31.1876H20.9495V29.9038Z" fill="#0F8E70"/>
<path d="M21.4771 31.1876C21.9292 30.961 22.3813 30.7345 22.7581 30.4324V29.9038H21.4771V31.1876Z" fill="#0F8E70"/>
<path d="M12.1328 9.81679V20.6154L15.4486 21.7481V31.5651C15.9007 31.7916 16.4282 32.0937 17.0311 32.2447V17.0662L17.4079 16.9152V8.98612L15.9761 8.45752L12.1328 9.81679Z" fill="#0F8E70"/>
<path d="M7.76196 25.3728C8.89233 26.7321 9.49519 27.3362 10.8516 28.4689C11.0777 28.6955 11.3038 28.8465 11.5299 28.9975V20.4644L7.76196 21.7481V25.3728Z" fill="#0F8E70"/>
</g>
<path d="M51.0752 13.2334C50.0498 13.2334 49.2559 13.6201 48.6934 14.3936C48.1309 15.1611 47.8496 16.2334 47.8496 17.6104C47.8496 20.4756 48.9248 21.9082 51.0752 21.9082C51.9775 21.9082 53.0703 21.6826 54.3535 21.2314V23.5166C53.2988 23.9561 52.1211 24.1758 50.8203 24.1758C48.9512 24.1758 47.5215 23.6104 46.5312 22.4795C45.541 21.3428 45.0459 19.7139 45.0459 17.5928C45.0459 16.2568 45.2891 15.0879 45.7754 14.0859C46.2617 13.0781 46.959 12.3076 47.8672 11.7744C48.7812 11.2354 49.8506 10.9658 51.0752 10.9658C52.3232 10.9658 53.5771 11.2676 54.8369 11.8711L53.958 14.0859C53.4775 13.8574 52.9941 13.6582 52.5078 13.4883C52.0215 13.3184 51.5439 13.2334 51.0752 13.2334ZM56.4105 11.6338C56.4105 10.7607 56.8968 10.3242 57.8695 10.3242C58.8421 10.3242 59.3285 10.7607 59.3285 11.6338C59.3285 12.0498 59.2054 12.375 58.9593 12.6094C58.7191 12.8379 58.3558 12.9521 57.8695 12.9521C56.8968 12.9521 56.4105 12.5127 56.4105 11.6338ZM59.2054 24H56.5248V14.1738H59.2054V24ZM65.8064 22.04C66.2751 22.04 66.8376 21.9375 67.4939 21.7324V23.7275C66.8259 24.0264 66.0056 24.1758 65.0329 24.1758C63.9607 24.1758 63.1784 23.9062 62.6863 23.3672C62.1999 22.8223 61.9568 22.0078 61.9568 20.9238V16.1865H60.6736V15.0527L62.1501 14.1562L62.9236 12.082H64.6374V14.1738H67.3884V16.1865H64.6374V20.9238C64.6374 21.3047 64.7429 21.5859 64.9538 21.7676C65.1706 21.9492 65.4548 22.04 65.8064 22.04ZM69.0147 11.6338C69.0147 10.7607 69.5011 10.3242 70.4737 10.3242C71.4464 10.3242 71.9327 10.7607 71.9327 11.6338C71.9327 12.0498 71.8096 12.375 71.5636 12.6094C71.3233 12.8379 70.96 12.9521 70.4737 12.9521C69.5011 12.9521 69.0147 12.5127 69.0147 11.6338ZM71.8096 24H69.129V14.1738H71.8096V24ZM81.1088 24H73.3481V22.418L77.9008 16.2217H73.6205V14.1738H80.9506V15.9141L76.5209 21.9521H81.1088V24ZM86.7693 15.8965C86.201 15.8965 85.7557 16.0781 85.4334 16.4414C85.1111 16.7988 84.9266 17.3086 84.8797 17.9707H88.6414C88.6297 17.3086 88.4568 16.7988 88.1229 16.4414C87.7889 16.0781 87.3377 15.8965 86.7693 15.8965ZM87.1473 24.1758C85.5652 24.1758 84.3289 23.7393 83.4383 22.8662C82.5477 21.9932 82.1023 20.7568 82.1023 19.1572C82.1023 17.5107 82.5125 16.2393 83.3328 15.3428C84.159 14.4404 85.2986 13.9893 86.7518 13.9893C88.1404 13.9893 89.2215 14.3848 89.9949 15.1758C90.7684 15.9668 91.1551 17.0596 91.1551 18.4541V19.7549H84.8182C84.8475 20.5166 85.073 21.1113 85.4949 21.5391C85.9168 21.9668 86.5086 22.1807 87.2703 22.1807C87.8621 22.1807 88.4217 22.1191 88.949 21.9961C89.4764 21.873 90.0271 21.6768 90.6014 21.4072V23.4814C90.1326 23.7158 89.6316 23.8887 89.0984 24C88.5652 24.1172 87.9148 24.1758 87.1473 24.1758ZM102.045 24H99.3644V18.2607C99.3644 17.5518 99.2384 17.0215 98.9865 16.6699C98.7345 16.3125 98.3332 16.1338 97.7824 16.1338C97.0324 16.1338 96.4904 16.3857 96.1564 16.8896C95.8224 17.3877 95.6554 18.2168 95.6554 19.377V24H92.9748V14.1738H95.0226L95.383 15.4307H95.5324C95.8312 14.9561 96.2414 14.5986 96.7629 14.3584C97.2902 14.1123 97.8879 13.9893 98.5558 13.9893C99.6984 13.9893 100.566 14.2998 101.157 14.9209C101.749 15.5361 102.045 16.4268 102.045 17.5928V24ZM111.3 21.082C111.3 22.0898 110.949 22.8574 110.246 23.3848C109.548 23.9121 108.502 24.1758 107.108 24.1758C106.393 24.1758 105.784 24.126 105.28 24.0264C104.776 23.9326 104.304 23.792 103.865 23.6045V21.3896C104.363 21.624 104.922 21.8203 105.543 21.9785C106.17 22.1367 106.721 22.2158 107.196 22.2158C108.168 22.2158 108.655 21.9346 108.655 21.3721C108.655 21.1611 108.59 20.9912 108.461 20.8623C108.333 20.7275 108.11 20.5781 107.793 20.4141C107.477 20.2441 107.055 20.0479 106.528 19.8252C105.772 19.5088 105.215 19.2158 104.858 18.9463C104.506 18.6768 104.249 18.3691 104.084 18.0234C103.926 17.6719 103.847 17.2412 103.847 16.7314C103.847 15.8584 104.184 15.1846 104.858 14.71C105.538 14.2295 106.499 13.9893 107.741 13.9893C108.924 13.9893 110.076 14.2471 111.195 14.7627L110.386 16.6963C109.894 16.4854 109.434 16.3125 109.006 16.1777C108.579 16.043 108.142 15.9756 107.697 15.9756C106.906 15.9756 106.51 16.1895 106.51 16.6172C106.51 16.8574 106.636 17.0654 106.888 17.2412C107.146 17.417 107.706 17.6777 108.567 18.0234C109.334 18.334 109.897 18.624 110.254 18.8936C110.612 19.1631 110.876 19.4736 111.045 19.8252C111.215 20.1768 111.3 20.5957 111.3 21.082Z" fill="#0F8E70"/>
<defs>
<clipPath id="clip0">
<rect width="36.2471" height="36.2471" fill="white"/>
</clipPath>
</defs>
</svg>
