<svg width="45" height="51" viewBox="0 0 45 51" fill="none" xmlns="http://www.w3.org/2000/svg">
<path fill-rule="evenodd" clip-rule="evenodd" d="M37.0405 6.17626C36.8405 6.17626 36.6404 6.12625 36.4654 6.02623C31.6644 3.55073 27.5136 2.50051 22.5376 2.50051C17.5866 2.50051 12.8856 3.67575 8.60971 6.02623C8.00959 6.3513 7.25944 6.12625 6.90937 5.52613C6.5843 4.92601 6.80935 4.15085 7.40947 3.82578C12.0604 1.30027 17.1615 0 22.5376 0C27.8637 0 32.5146 1.17524 37.6157 3.80078C38.2408 4.12584 38.4658 4.876 38.1408 5.47612C37.9157 5.92621 37.4906 6.17626 37.0405 6.17626ZM1.25815 19.3039C1.0081 19.3039 0.758052 19.2288 0.533006 19.0788C-0.0421117 18.6787 -0.167137 17.9036 0.232945 17.3284C2.70845 13.8277 5.8591 11.0772 9.60986 9.15177C17.4615 5.10094 27.5135 5.07594 35.3901 9.12677C39.1409 11.0522 42.2915 13.7777 44.7671 17.2534C45.1671 17.8035 45.0421 18.6037 44.467 19.0038C43.8919 19.4039 43.1167 19.2788 42.7166 18.7037C40.4662 15.5531 37.6156 13.0776 34.2399 11.3522C27.0634 7.67647 17.8866 7.67647 10.7351 11.3772C7.3344 13.1276 4.48381 15.6281 2.23335 18.7787C2.03331 19.1288 1.65824 19.3039 1.25815 19.3039ZM16.0111 49.11C16.2361 49.36 16.5612 49.4851 16.8862 49.4851C17.2113 49.4851 17.5364 49.36 17.8114 49.11C18.2865 48.6099 18.2865 47.8347 17.8114 47.3346C15.886 45.3842 14.7858 44.159 13.1855 41.2834C11.6602 38.5828 10.86 35.2572 10.86 31.6564C10.86 25.6052 16.0861 20.6792 22.5124 20.6792C28.9387 20.6792 34.1648 25.6052 34.1648 31.6564C34.1648 32.3566 34.7149 32.9067 35.415 32.9067C36.1152 32.9067 36.6653 32.3566 36.6653 31.6564C36.6653 24.2299 30.314 18.1787 22.5124 18.1787C14.7108 18.1787 8.3595 24.2299 8.3595 31.6564C8.3595 35.6822 9.25968 39.433 10.985 42.5086C12.6604 45.5343 13.8356 46.9345 16.0111 49.11ZM34.8148 44.8593C31.8392 44.8593 29.2137 44.1091 27.0632 42.6338C23.3375 40.1083 21.112 36.0075 21.112 31.6566C21.112 30.9564 21.6621 30.4063 22.3623 30.4063C23.0624 30.4063 23.6125 30.9564 23.6125 31.6566C23.6125 35.1823 25.4129 38.508 28.4635 40.5584C30.2389 41.7586 32.3143 42.3338 34.8148 42.3338C35.4149 42.3338 36.4151 42.2587 37.4154 42.0837C38.0905 41.9587 38.7406 42.4088 38.8656 43.1089C38.9907 43.784 38.5406 44.4342 37.8404 44.5592C36.4151 44.8343 35.1649 44.8593 34.8148 44.8593ZM29.4641 49.9602C29.5641 49.9852 29.6891 50.0102 29.7892 50.0102C30.3143 50.0102 30.8394 49.6351 30.9644 49.06C31.1394 48.4099 30.7644 47.7097 30.0892 47.5347C26.5635 46.5595 24.288 45.2592 21.9125 42.9087C18.8869 39.9081 17.2366 35.9073 17.2366 31.6314C17.2366 28.9559 19.5621 26.7804 22.4377 26.7804C25.3132 26.7804 27.6387 28.9559 27.6387 31.6314C27.6387 35.6822 31.0894 38.9829 35.3403 38.9829C39.5912 38.9829 43.0419 35.6822 43.0419 31.6314C43.0419 20.8292 33.79 12.0524 22.4126 12.0524C14.336 12.0524 6.95949 16.5783 3.6338 23.5548C2.50857 25.9303 1.93346 28.6558 1.93346 31.6564C1.93346 35.0321 2.53358 38.2828 3.75883 41.5585C3.98388 42.1836 4.70902 42.5336 5.35916 42.2836C6.00929 42.0586 6.33436 41.3334 6.08431 40.6833C4.584 36.6825 4.40896 33.6068 4.40896 31.6564C4.40896 29.0559 4.90907 26.6804 5.88426 24.655C8.80986 18.5287 15.3112 14.5779 22.4126 14.5779C32.4147 14.5779 40.5414 22.2295 40.5414 31.6564C40.5414 34.332 38.2159 36.5074 35.3403 36.5074C32.4647 36.5074 30.1392 34.332 30.1392 31.6564C30.1392 27.6056 26.6885 24.3049 22.4377 24.3049C18.1868 24.3049 14.7361 27.6056 14.7361 31.6564C14.7361 36.6074 16.6615 41.2334 20.1622 44.7091C22.8877 47.3846 25.4883 48.8599 29.4641 49.9602Z" fill="#0CAD9D"/>
</svg>
