<svg width="20" height="20" viewBox="0 0 20 20" fill="none" xmlns="http://www.w3.org/2000/svg">
<rect width="20" height="20" fill="white" fill-opacity="0.01"/>
<path fill-rule="evenodd" clip-rule="evenodd" d="M10 19.4398L10.5481 18.9612C15.1572 14.9366 17.5 11.4225 17.5 8.3335C17.5 3.95905 14.0858 0.833496 10 0.833496C5.91421 0.833496 2.5 3.95905 2.5 8.3335C2.5 11.4225 4.84276 14.9366 9.45189 18.9612L10 19.4398ZM10 17.2197C6.08884 13.6949 4.16667 10.7079 4.16667 8.33358C4.16667 4.91408 6.80343 2.50024 10 2.50024C13.1966 2.50024 15.8333 4.91408 15.8333 8.33358C15.8333 10.7079 13.9112 13.6949 10 17.2197ZM10 4.16691C12.3012 4.16691 14.1667 6.03239 14.1667 8.33358C14.1667 10.6348 12.3012 12.5002 10 12.5002C7.69881 12.5002 5.83333 10.6348 5.83333 8.33358C5.83333 6.03239 7.69881 4.16691 10 4.16691ZM7.5 8.33358C7.5 6.95287 8.61929 5.83358 10 5.83358C11.3807 5.83358 12.5 6.95287 12.5 8.33358C12.5 9.71429 11.3807 10.8336 10 10.8336C8.61929 10.8336 7.5 9.71429 7.5 8.33358Z" fill="#81858E"/>
<mask id="mask0" mask-type="alpha" maskUnits="userSpaceOnUse" x="2" y="0" width="16" height="20">
<path fill-rule="evenodd" clip-rule="evenodd" d="M10 19.4398L10.5481 18.9612C15.1572 14.9366 17.5 11.4225 17.5 8.3335C17.5 3.95905 14.0858 0.833496 10 0.833496C5.91421 0.833496 2.5 3.95905 2.5 8.3335C2.5 11.4225 4.84276 14.9366 9.45189 18.9612L10 19.4398ZM10 17.2197C6.08884 13.6949 4.16667 10.7079 4.16667 8.33358C4.16667 4.91408 6.80343 2.50024 10 2.50024C13.1966 2.50024 15.8333 4.91408 15.8333 8.33358C15.8333 10.7079 13.9112 13.6949 10 17.2197ZM10 4.16691C12.3012 4.16691 14.1667 6.03239 14.1667 8.33358C14.1667 10.6348 12.3012 12.5002 10 12.5002C7.69881 12.5002 5.83333 10.6348 5.83333 8.33358C5.83333 6.03239 7.69881 4.16691 10 4.16691ZM7.5 8.33358C7.5 6.95287 8.61929 5.83358 10 5.83358C11.3807 5.83358 12.5 6.95287 12.5 8.33358C12.5 9.71429 11.3807 10.8336 10 10.8336C8.61929 10.8336 7.5 9.71429 7.5 8.33358Z" fill="white"/>
</mask>
<g mask="url(#mask0)">
</g>
</svg>
