<svg width="32" height="32" viewBox="0 0 32 32" fill="none" xmlns="http://www.w3.org/2000/svg">
<path d="M24 32H8C3.6 32 0 28.4 0 24V8C0 3.6 3.6 0 8 0H24C28.4 0 32 3.6 32 8V24C32 28.4 28.4 32 24 32Z" fill="url(#paint0_linear)"/>
<path opacity="0.3" d="M26.1 25.3C25.8 25.1 24.3 24.2 23.4 22.4C25.4 20.6 26.5 18 26.5 15.4C26.5 10 21.8 5.5 16 5.5C10.2 5.5 5.5 10 5.5 15.4C5.5 20.8 10.2 25.3 16 25.3C16.8 25.3 17.6 25.2 18.8 25C21.8 26.6 24.5 26.6 25.6 26.5C26.1 26.5 26.4 26.6 26.6 26.1C26.6 25.8 26.4 25.4 26.1 25.3Z" fill="white"/>
<path d="M17.2 20.3001C17.2 21.0001 16.6 21.5001 16 21.5001C15.4 21.5001 14.8 20.9001 14.8 20.3001V15.3001C14.8 14.6001 15.4 14.1001 16 14.1001C16.6 14.1001 17.2 14.7001 17.2 15.3001V20.3001Z" fill="white"/>
<path d="M16 12.1998C16.6628 12.1998 17.2 11.6625 17.2 10.9998C17.2 10.3371 16.6628 9.7998 16 9.7998C15.3373 9.7998 14.8 10.3371 14.8 10.9998C14.8 11.6625 15.3373 12.1998 16 12.1998Z" fill="white"/>
<defs>
<linearGradient id="paint0_linear" x1="4.875" y1="27.125" x2="26.5004" y2="5.4996" gradientUnits="userSpaceOnUse">
<stop stop-color="#01A7A3"/>
<stop offset="1" stop-color="#73D483"/>
</linearGradient>
</defs>
</svg>
