<svg width="17" height="17" viewBox="0 0 17 17" fill="none" xmlns="http://www.w3.org/2000/svg">
<path fill-rule="evenodd" clip-rule="evenodd" d="M7.30991 5.22904C7.7373 4.65308 7.89056 4.04606 7.40719 3.51025C6.32246 1.99243 5.59296 1.05381 5.13537 0.601788C4.26545 -0.257555 2.83441 -0.141315 2.08099 0.601054C1.67633 0.999787 1.53933 1.13671 1.12382 1.55875C-1.1906 3.87442 0.220854 8.76967 3.97302 12.5255C7.72434 16.2805 12.6191 17.6927 14.9384 15.3722C15.3218 15.0025 15.6465 14.6777 15.9025 14.4071C16.6408 13.6268 16.7529 12.2588 15.8976 11.3702C15.4591 10.9145 14.5641 10.2203 12.9824 9.08885C12.498 8.65569 11.9236 8.74957 11.397 9.09505C11.1437 9.26123 10.9593 9.42934 10.6113 9.77776L9.97916 10.4102C9.89591 10.4935 8.76545 9.92736 7.66809 8.82892C6.57013 7.72988 6.00438 6.59936 6.08725 6.5165L6.71977 5.88363C6.83021 5.77309 6.883 5.71957 6.95071 5.64841C7.09178 5.50014 7.20858 5.3656 7.30991 5.22904ZM11.1451 11.5768L11.7773 10.9443C11.9689 10.7525 12.0931 10.6346 12.1941 10.5533C13.5796 11.5484 14.3821 12.174 14.7099 12.5146C14.9066 12.7191 14.8761 13.0922 14.705 13.273C14.4683 13.5232 14.1607 13.8309 13.7832 14.195C12.2835 15.6954 8.3323 14.5554 5.13924 11.3592C1.94518 8.16201 0.805752 4.21023 2.29416 2.721C2.70799 2.3007 2.8391 2.16965 3.23799 1.77661C3.38756 1.62924 3.79495 1.59615 3.97689 1.77587C4.32918 2.12388 4.98268 2.96064 5.94401 4.29976C5.89425 4.36155 5.83209 4.43137 5.75645 4.51087C5.70093 4.56922 5.65467 4.6161 5.55356 4.71732L4.92165 5.34957C3.84666 6.42447 4.76216 8.2539 6.50187 9.99532C8.24039 11.7355 10.0705 12.6521 11.1451 11.5768Z" fill="#81858E"/>
</svg>
