<svg width="24" height="24" viewBox="0 0 24 24" fill="none" xmlns="http://www.w3.org/2000/svg">
<path d="M12 0C5.4 0 0 5.4 0 12C0 18.6 5.4 24 12 24C18.6 24 24 18.6 24 12C24 5.4 18.6 0 12 0ZM10.95 6.75C10.95 6.15 11.4 5.7 12 5.7C12.6 5.7 13.05 6.15 13.05 6.75V13.5C13.05 14.1 12.6 14.55 12 14.55C11.4 14.55 10.95 13.95 10.95 13.5V6.75ZM12 18.15C11.25 18.15 10.65 17.55 10.65 16.8C10.65 16.05 11.25 15.45 12 15.45C12.75 15.45 13.35 16.05 13.35 16.8C13.35 17.55 12.75 18.15 12 18.15Z" fill="#DD3030"/>
</svg>
