<svg width="32" height="32" viewBox="0 0 32 32" fill="none" xmlns="http://www.w3.org/2000/svg">
<path d="M16 0C7.2 0 0 7.2 0 16C0 24.8 7.2 32 16 32C24.8 32 32 24.8 32 16C32 7.2 24.8 0 16 0Z" fill="black" fill-opacity="0.65"/>
<path d="M22.2 16.9999L13.1 21.5999C12.5 21.8999 11.8 21.6999 11.6 21.0999C11.5 20.8999 11.5 20.7999 11.5 20.5999V11.4999C11.5 10.8999 12 10.3999 12.6 10.3999C12.8 10.3999 13 10.3999 13.1 10.4999L22.2 15.0999C22.8 15.3999 23 16.0999 22.7 16.5999C22.6 16.6999 22.4 16.8999 22.2 16.9999Z" fill="white"/>
</svg>
