<svg width="30" height="30" viewBox="0 0 30 30" fill="none" xmlns="http://www.w3.org/2000/svg">
<path d="M15 30C23.2843 30 30 23.2843 30 15C30 6.71573 23.2843 0 15 0C6.71573 0 0 6.71573 0 15C0 23.2843 6.71573 30 15 30Z" fill="#FFCA28"/>
<path d="M9.4 13.2004C10.4493 13.2004 11.3 12.3497 11.3 11.3004C11.3 10.2511 10.4493 9.40039 9.4 9.40039C8.35066 9.40039 7.5 10.2511 7.5 11.3004C7.5 12.3497 8.35066 13.2004 9.4 13.2004Z" fill="#6D4C41"/>
<path d="M20.6 13.2004C21.6493 13.2004 22.5 12.3497 22.5 11.3004C22.5 10.2511 21.6493 9.40039 20.6 9.40039C19.5507 9.40039 18.7 10.2511 18.7 11.3004C18.7 12.3497 19.5507 13.2004 20.6 13.2004Z" fill="#6D4C41"/>
<path d="M15 24.4006C12.5 24.4006 10.1 23.4006 8.40001 21.7006C8.00001 21.3006 8.00001 20.7006 8.40001 20.4006C8.80001 20.0006 9.40001 20.0006 9.70001 20.4006C12.5 23.2006 17.5 23.2006 20.3 20.4006C20.7 20.0006 21.3 20.0006 21.6 20.4006C22 20.8006 22 21.4006 21.6 21.7006C19.9 23.4006 17.5 24.4006 15 24.4006Z" fill="#6D4C41"/>
</svg>
