<svg width="33" height="36" viewBox="0 0 33 36" fill="none" xmlns="http://www.w3.org/2000/svg">
<g clip-path="url(#clip0)">
<path d="M22.32 0.9C21.96 0.36 21.42 0 20.7 0H14.58V7.56H26.1L22.32 0.9Z" fill="#617882" fill-opacity="0.5"/>
<path d="M12.42 0H6.12003C5.40003 0 4.86003 0.36 4.50003 0.9L0.720032 7.56H12.42V0Z" fill="#617882" fill-opacity="0.5"/>
<path d="M24.3 18.18C25.2 18.18 26.1 18.36 26.82 18.54V9.54004H0V28.08C0 29.52 1.08 30.6 2.52 30.6H14.58C14.4 29.7 14.22 28.98 14.22 28.08C14.22 22.68 18.72 18.18 24.3 18.18Z" fill="#617882" fill-opacity="0.5"/>
<path d="M24.2999 36C28.6199 36 32.0399 32.58 32.0399 28.26C32.0399 23.94 28.6199 20.52 24.2999 20.52C19.9799 20.52 16.5599 23.94 16.5599 28.26C16.5599 32.58 19.9799 36 24.2999 36ZM23.2199 25.2C23.2199 24.66 23.7599 24.12 24.2999 24.12C24.8399 24.12 25.3799 24.66 25.3799 25.2V28.26C25.3799 28.8 24.8399 29.34 24.2999 29.34C23.7599 29.34 23.2199 28.8 23.2199 28.26V25.2ZM23.2199 31.14C23.2199 30.96 23.2199 30.96 23.2199 31.14C23.2199 30.96 23.2199 30.96 23.2199 30.96C23.2199 30.96 23.2199 30.96 23.2199 30.78C23.2199 30.78 23.2199 30.78 23.2199 30.6C23.2199 30.42 23.2199 30.6 23.2199 30.6C23.3999 30.42 23.7599 30.24 23.9399 30.24C23.9399 30.24 23.9399 30.24 24.1199 30.24C24.1199 30.24 24.1199 30.24 24.2999 30.24C24.2999 30.24 24.2999 30.24 24.4799 30.24C24.4799 30.24 24.4799 30.24 24.6599 30.24C24.6599 30.24 24.6599 30.24 24.8399 30.24C24.8399 30.24 24.8399 30.24 24.8399 30.42C24.8399 30.42 24.8399 30.42 24.8399 30.6C24.8399 30.78 24.8399 30.6 24.8399 30.78C24.8399 30.78 24.8399 30.78 24.8399 30.96C24.8399 30.96 24.8399 30.96 24.8399 31.14C24.8399 31.32 24.8399 31.14 24.8399 31.32C24.8399 31.32 24.8399 31.32 24.8399 31.5C24.8399 31.5 24.8399 31.5 24.8399 31.68C24.8399 31.68 24.8399 31.68 24.8399 31.86C24.8399 31.86 24.8399 31.86 24.8399 32.04C24.8399 32.04 24.8399 32.04 24.6599 32.04C24.6599 32.04 24.6599 32.04 24.4799 32.04C24.4799 32.04 24.4799 32.04 24.2999 32.04C24.2999 32.04 24.2999 32.04 24.1199 32.04C23.7599 32.04 23.5799 32.04 23.2199 31.68C23.2199 31.68 23.2199 31.68 23.2199 31.5C23.2199 31.32 23.2199 31.5 23.2199 31.32C23.2199 31.32 23.2199 31.32 23.2199 31.14C23.2199 31.14 23.2199 31.14 23.2199 30.96C23.2199 31.32 23.2199 31.14 23.2199 31.14Z" fill="#617882" fill-opacity="0.5"/>
</g>
<defs>
<clipPath id="clip0">
<rect width="32.04" height="36" fill="white"/>
</clipPath>
</defs>
</svg>
