<svg width="16" height="16" viewBox="0 0 16 16" fill="none" xmlns="http://www.w3.org/2000/svg">
<g clip-path="url(#clip0)">
<path d="M11.3 10.4001C11.6 10.7001 11.6 11.1001 11.3 11.3001C11.2 11.4001 11 11.5001 10.8 11.5001C10.6 11.5001 10.5 11.4001 10.3 11.3001L7.99995 8.9001L5.59995 11.3001C5.49995 11.4001 5.29995 11.5001 5.09995 11.5001C4.89995 11.5001 4.79995 11.4001 4.59995 11.3001C4.29995 11.0001 4.29995 10.6001 4.59995 10.4001L7.09995 8.0001L4.69995 5.6001C4.39995 5.4001 4.39995 5.0001 4.69995 4.7001C4.99995 4.4001 5.39995 4.4001 5.59995 4.7001L7.99995 7.1001L10.4 4.7001C10.7 4.4001 11.1 4.4001 11.3 4.7001C11.6 5.0001 11.6 5.4001 11.3 5.6001L8.89995 8.0001L11.3 10.4001ZM13.7 2.3001C10.6 -0.799902 5.49995 -0.799902 2.39995 2.3001C-0.700049 5.4001 -0.700049 10.5001 2.39995 13.6001C3.89995 15.2001 5.99995 16.0001 7.99995 16.0001C9.99995 16.0001 12.1 15.2001 13.7 13.7001C16.8 10.5001 16.8 5.5001 13.7 2.3001Z" fill="#DD3030"/>
</g>
<defs>
<clipPath id="clip0">
<rect width="16" height="16" fill="white"/>
</clipPath>
</defs>
</svg>
