<svg width="24" height="24" viewBox="0 0 24 24" fill="none" xmlns="http://www.w3.org/2000/svg">
<path d="M12.0002 3.6001C9.3002 3.6001 7.2002 5.8001 7.2002 8.4001C7.2002 11.1001 9.4002 13.2001 12.0002 13.2001C14.6002 13.2001 16.8002 11.0001 16.8002 8.4001C16.8002 5.8001 14.7002 3.6001 12.0002 3.6001ZM12.0002 11.3001C10.4002 11.3001 9.1002 10.0001 9.1002 8.4001C9.1002 6.8001 10.4002 5.5001 12.0002 5.5001C13.6002 5.5001 14.9002 6.8001 14.9002 8.4001C14.9002 10.0001 13.6002 11.3001 12.0002 11.3001Z" fill="white"/>
<path d="M12 0C5.4 0 0 5.4 0 12C0 18.6 5.4 24 12 24C18.6 24 24 18.6 24 12C24 5.4 18.6 0 12 0ZM13.6 13.5H10.4C7.7 13.5 5.5 15.7 5.5 18.4V19.7C3.3 17.7 2 15 2 12C2 6.5 6.5 2 12 2C17.5 2 22 6.5 22 12C22 15 20.7 17.7 18.4 19.7V18.4C18.5 15.7 16.3 13.5 13.6 13.5ZM7.5 18.4C7.5 16.8 8.8 15.5 10.4 15.5H13.6C15.2 15.5 16.5 16.8 16.5 18.4V21C13.7 22.4 10.3 22.4 7.5 21V18.4Z" fill="white"/>
</svg>
