<svg width="20" height="19" viewBox="0 0 20 19" fill="none" xmlns="http://www.w3.org/2000/svg">
<g clip-path="url(#clip0)">
<path d="M13.1765 11.2158C14.1177 10.5883 14.7451 9.49027 14.7451 8.3138H13.0981V7.37262L13.1765 7.29419C14.1177 6.66674 14.7451 5.5687 14.7451 4.39223H13.0981V4.15693C13.0981 3.84321 12.8628 3.68634 12.6275 3.68634H7.37259C7.05887 3.60791 6.82357 3.84321 6.82357 4.15693V4.47066H5.17651C5.17651 5.64713 5.72553 6.74517 6.74514 7.37262L6.82357 7.45105V8.3138H5.17651C5.17651 9.49027 5.72553 10.5883 6.74514 11.2158L6.82357 11.2942V12.1569H5.17651C5.17651 13.3334 5.72553 14.4314 6.74514 15.0589L6.82357 15.1373V16.0001C6.82357 16.3138 7.05887 16.4707 7.29416 16.4707H8.70593V18.5883H11.2157V16.4707H12.6275C12.9412 16.4707 13.0981 16.2354 13.0981 16.0001V15.1373L13.1765 15.0589C14.1177 14.4314 14.7451 13.3334 14.7451 12.1569H13.0981L13.1765 11.2158ZM10.5098 15.2942C10.353 15.3726 10.1961 15.3726 10.0393 15.3726C9.80397 15.3726 9.6471 15.2942 9.41181 15.2158C8.94122 14.9805 8.54906 14.4314 8.54906 13.8824C8.54906 13.0981 9.17651 12.3922 10.0393 12.3922C10.5883 12.3922 11.1373 12.706 11.3726 13.255C11.451 13.4118 11.5295 13.6471 11.5295 13.8824C11.451 14.5099 11.0589 15.0589 10.5098 15.2942ZM9.96083 11.4511C9.17651 11.4511 8.54906 10.8236 8.54906 10.0393C8.54906 9.25497 9.17651 8.62752 9.96083 8.62752C10.7451 8.62752 11.451 9.25497 11.451 10.1177C11.451 10.8236 10.8236 11.4511 9.96083 11.4511ZM9.96083 7.60791C9.17651 7.60791 8.47063 6.98046 8.47063 6.19615C8.47063 5.41183 9.09808 4.70595 9.8824 4.70595C10.4314 4.70595 10.9804 5.01968 11.2157 5.5687C11.2942 5.72556 11.3726 5.96085 11.3726 6.19615C11.451 6.90203 10.8236 7.60791 9.96083 7.60791Z" fill="#353739"/>
<path d="M19.5295 14.4315L15.3726 6.74518C15.1373 7.05891 14.8236 7.37263 14.5099 7.68636L18.5099 15.0589C18.7452 15.4511 18.8236 15.9216 18.6667 16.3922C18.5883 16.5491 18.5883 16.706 18.5099 16.7844C18.1962 17.3334 17.6471 17.6471 17.0197 17.6471H9.96086H2.90204C2.27459 17.6471 1.72557 17.3334 1.41184 16.7844C1.09812 16.2354 1.09812 15.5295 1.41184 14.9805L5.41184 7.60792C5.09812 7.2942 4.86282 6.98047 4.62753 6.66675L0.392233 14.4315C-0.156786 15.3726 -0.156786 16.4707 0.392233 17.4118C0.941253 18.2746 1.88243 18.8236 2.90204 18.8236H9.96086H17.0197C17.5687 18.8236 18.0393 18.6667 18.5099 18.4315C18.9805 18.1962 19.2942 17.804 19.6079 17.3334C20.0785 16.3922 20.0785 15.2942 19.5295 14.4315Z" fill="#353739"/>
<path d="M8.47067 2.03922C8.78439 1.4902 9.33341 1.17647 9.96086 1.17647C10.4314 1.17647 10.902 1.33333 11.2158 1.64706C11.2942 1.72549 11.4511 1.88235 11.5295 2.03922L11.6864 2.35294H13.0197L12.5491 1.41176C12.4707 1.33333 12.3922 1.17647 12.3138 1.09804C12.0001 0.705882 11.6079 0.392157 11.1373 0.235294C10.7452 0.0784314 10.353 0 9.96086 0C8.94125 0 8.00008 0.54902 7.45106 1.41176L6.98047 2.35294H8.3138L8.47067 2.03922Z" fill="#353739"/>
</g>
<defs>
<clipPath id="clip0">
<rect width="20" height="18.8235" fill="white"/>
</clipPath>
</defs>
</svg>
