<svg width="96" height="96" viewBox="0 0 96 96" fill="none" xmlns="http://www.w3.org/2000/svg">
<path opacity="0.1" d="M80 96H16C7.2 96 0 88.8 0 80V16C0 7.2 7.2 0 16 0H80C88.8 0 96 7.2 96 16V80C96 88.8 88.8 96 80 96Z" fill="url(#paint0_linear)"/>
<path d="M44.0999 28.9002C44.8999 27.5002 46.4 26.7002 48 26.7002C49.2 26.7002 50.3 27.2002 51.2 28.0002C51.5 28.3002 51.7 28.6002 51.9 28.9002L52.4 29.7002H55.7999L54.5 27.3002C54.3 27.0002 54.1 26.7002 53.9 26.5002C53.1 25.5002 51.9999 24.7002 50.7999 24.2002C49.9999 23.9002 49 23.7002 48 23.7002C45.3 23.7002 42.9 25.1002 41.5 27.4002L40.2 29.8002H43.5999L44.0999 28.9002Z" fill="url(#paint1_linear)"/>
<path d="M72.6999 60.8998L61.8999 40.9998C61.2999 41.8998 60.5999 42.6998 59.7999 43.3998L70.1999 62.3998C70.7999 63.4998 70.9999 64.6998 70.6999 65.7998C70.5999 66.1998 70.3999 66.5998 70.1999 66.8998C69.3999 68.2998 67.8999 69.1998 66.2999 69.1998H51.3999L51.1999 69.2998H44.6999L44.4999 69.1998H29.7999C28.1999 69.1998 26.6999 68.3998 25.8999 66.8998C25.0999 65.4998 25.0999 63.7998 25.8999 62.2998L36.2999 43.1998C35.4999 42.4998 34.7999 41.6998 34.1999 40.7998L23.2999 60.7998C21.8999 63.1998 21.8999 65.9998 23.1999 68.3998C24.5999 70.7998 26.9999 72.1998 29.7999 72.1998H47.9999H66.1999C67.5999 72.1998 68.8999 71.7998 69.9999 71.1998C71.0999 70.4998 72.0999 69.5998 72.7999 68.3998C74.0999 66.0998 74.0999 63.1998 72.6999 60.8998Z" fill="url(#paint2_linear)"/>
<path opacity="0.15" d="M48 43.2998C50.1 43.2998 51.8 41.5998 51.7 39.5998C51.7 39.0998 51.5999 38.4998 51.2999 37.9998C50.6999 36.6998 49.4 35.7998 47.9 35.7998C45.8 35.7998 44.2 37.4998 44.2 39.4998C44.3 41.5998 45.9 43.2998 48 43.2998Z" fill="url(#paint3_linear)"/>
<path opacity="0.15" d="M48 55.7998C45.9 55.7998 44.3 57.4998 44.3 59.4998C44.3 60.9998 45.1 62.2998 46.5 62.8998C47 63.0998 47.5 63.2998 48.1 63.2998C48.5 63.2998 49.0001 63.1998 49.4001 63.0998C50.9001 62.5998 51.8 61.1998 51.8 59.5998C51.8 59.0998 51.7001 58.4998 51.4001 57.9998C50.8001 56.6998 49.5 55.7998 48 55.7998Z" fill="url(#paint4_linear)"/>
<path opacity="0.15" d="M48 45.7998C45.9 45.7998 44.3 47.4998 44.3 49.4998C44.3 51.5998 46 53.1998 48 53.1998C50.1 53.1998 51.7001 51.4998 51.7001 49.4998C51.7001 47.4998 50.1 45.7998 48 45.7998Z" fill="url(#paint5_linear)"/>
<path d="M56.2999 52.6C58.7999 50.9 60.2999 48.1 60.2999 45H56.0999V42.7L56.2999 42.6C58.7999 40.9 60.2999 38.1 60.2999 35H56.0999V34.3C56.0999 33.6 55.5 33 54.7999 33H41.2C40.5 33 39.9 33.6 39.9 34.3V35H35.7C35.7 38 37.2 40.9 39.7 42.6L39.9 42.7V45H35.7C35.7 48 37.2 50.9 39.7 52.6L39.9 52.7V55H35.7C35.7 58 37.2 60.9 39.7 62.6L39.9 62.7V64.9C39.9 65.6 40.5 66.2 41.2 66.2H44.7999V69.4H44.5999L44.7999 69.5H51.2999L51.5 69.4H51.2999V66.2H54.9C55.6 66.2 56.2 65.6 56.2 64.9V62.7L56.4 62.6C58.9 60.9 60.4 58.1 60.4 55H56.2V52.7L56.2999 52.6ZM49.2999 63.1C48.9 63.3 48.4 63.3 48 63.3C47.5 63.3 46.9 63.2 46.4 62.9C45.1 62.3 44.2 61 44.2 59.5C44.2 57.4 45.9 55.8 47.9 55.8C49.4 55.8 50.6999 56.6 51.2999 58C51.4999 58.5 51.7 59 51.7 59.6C51.7 61.1 50.7999 62.5 49.2999 63.1ZM48 53.3C45.9 53.3 44.2999 51.6 44.2999 49.6C44.2999 47.5 46 45.9 48 45.9C50.1 45.9 51.7 47.6 51.7 49.6C51.7 51.6 50.1 53.3 48 53.3ZM48 43.3C45.9 43.3 44.2 41.6 44.2 39.6C44.2 37.5 45.9 35.9 47.9 35.9C49.4 35.9 50.6999 36.7 51.2999 38.1C51.4999 38.6 51.7 39.1 51.7 39.7C51.8 41.6 50.1 43.3 48 43.3Z" fill="url(#paint6_linear)"/>
<defs>
<linearGradient id="paint0_linear" x1="-5.518" y1="64.4835" x2="101.518" y2="31.5165" gradientUnits="userSpaceOnUse">
<stop stop-color="#01A7A3"/>
<stop offset="1" stop-color="#73D483"/>
</linearGradient>
<linearGradient id="paint1_linear" x1="48" y1="70.4463" x2="48" y2="38.9957" gradientUnits="userSpaceOnUse">
<stop stop-color="#FFD400"/>
<stop offset="1" stop-color="#ECAF11"/>
</linearGradient>
<linearGradient id="paint2_linear" x1="47.9999" y1="70.4459" x2="47.9999" y2="38.9953" gradientUnits="userSpaceOnUse">
<stop stop-color="#FFD400"/>
<stop offset="1" stop-color="#ECAF11"/>
</linearGradient>
<linearGradient id="paint3_linear" x1="44.2507" y1="39.5621" x2="51.7449" y2="39.5621" gradientUnits="userSpaceOnUse">
<stop stop-color="#01A7A3"/>
<stop offset="1" stop-color="#73D483"/>
</linearGradient>
<linearGradient id="paint4_linear" x1="44.255" y1="59.5658" x2="51.7449" y2="59.5658" gradientUnits="userSpaceOnUse">
<stop stop-color="#01A7A3"/>
<stop offset="1" stop-color="#73D483"/>
</linearGradient>
<linearGradient id="paint5_linear" x1="44.2597" y1="49.5639" x2="51.745" y2="49.5639" gradientUnits="userSpaceOnUse">
<stop stop-color="#01A7A3"/>
<stop offset="1" stop-color="#73D483"/>
</linearGradient>
<linearGradient id="paint6_linear" x1="48" y1="51.75" x2="48" y2="29" gradientUnits="userSpaceOnUse">
<stop stop-color="#01A7A3"/>
<stop offset="1" stop-color="#73D483"/>
</linearGradient>
</defs>
</svg>
