<svg width="37" height="36" viewBox="0 0 37 36" fill="none" xmlns="http://www.w3.org/2000/svg">
<g clip-path="url(#clip0)">
<path d="M18.1 33.9L25.5 21.1V3.1C25.5 1.4 24.1 0 22.4 0H9.5V6.3C9.5 8 8.1 9.4 6.4 9.4H0V31C0 32.7 1.4 34.1 3.1 34.1H18C18.1 34 18.1 34 18.1 33.9Z" fill="url(#paint0_linear)"/>
<path d="M7.5 6.4V0H7.4C7.2 0 6.9 0.1 6.7 0.3L0.3 6.7C0.1 6.9 0 7.2 0 7.4V7.5H6.4C7 7.5 7.5 7 7.5 6.4Z" fill="url(#paint1_linear)"/>
<path d="M12.7999 27.7002H6.3999C5.7999 27.7002 5.3999 27.3002 5.3999 26.7002C5.3999 26.1002 5.7999 25.7002 6.3999 25.7002H12.7999C13.3999 25.7002 13.7999 26.1002 13.7999 26.7002C13.7999 27.2002 13.2999 27.7002 12.7999 27.7002Z" fill="white"/>
<path d="M12.7999 23.3999H6.3999C5.7999 23.3999 5.3999 22.9999 5.3999 22.3999C5.3999 21.7999 5.7999 21.3999 6.3999 21.3999H12.7999C13.3999 21.3999 13.7999 21.7999 13.7999 22.3999C13.7999 22.9999 13.2999 23.3999 12.7999 23.3999Z" fill="white"/>
<path d="M19.1999 19.1001H6.3999C5.7999 19.1001 5.3999 18.7001 5.3999 18.1001C5.3999 17.5001 5.7999 17.1001 6.3999 17.1001H19.1999C19.7999 17.1001 20.1999 17.5001 20.1999 18.1001C20.1999 18.7001 19.6999 19.1001 19.1999 19.1001Z" fill="white"/>
<path d="M19.1999 14.7998H6.3999C5.7999 14.7998 5.3999 14.3998 5.3999 13.7998C5.3999 13.1998 5.7999 12.7998 6.3999 12.7998H19.1999C19.7999 12.7998 20.1999 13.1998 20.1999 13.7998C20.1999 14.3998 19.6999 14.7998 19.1999 14.7998Z" fill="white"/>
<path d="M36.3 34.8998L28.7 21.7998C28.4 21.2998 27.7 21.2998 27.4 21.7998L19.8 34.8998C19.5 35.3998 19.9 35.9998 20.5 35.9998H35.7C36.2 35.9998 36.5 35.3998 36.3 34.8998Z" fill="url(#paint2_linear)"/>
<path d="M28.0001 34.6999C27.5001 34.6999 27.1001 34.2999 27.1001 33.7999C27.1001 33.2999 27.5001 32.8999 28.0001 32.8999C28.5001 32.8999 28.9001 33.2999 28.9001 33.7999C28.9001 34.3999 28.5001 34.6999 28.0001 34.6999Z" fill="white"/>
<path d="M27.2 27.2999C27.2 26.7999 27.6 26.3999 28.1 26.3999C28.6 26.3999 29 26.7999 29 27.2999V31.0999C29 31.5999 28.6 31.9999 28.1 31.9999C27.6 31.9999 27.2 31.5999 27.2 31.0999V27.2999Z" fill="white"/>
</g>
<defs>
<linearGradient id="paint0_linear" x1="12.7718" y1="8.8421" x2="12.7718" y2="38.5204" gradientUnits="userSpaceOnUse">
<stop stop-color="#01A7A3"/>
<stop offset="1" stop-color="#73D483"/>
</linearGradient>
<linearGradient id="paint1_linear" x1="0" y1="3.7459" x2="7.4918" y2="3.7459" gradientUnits="userSpaceOnUse">
<stop stop-color="#01A7A3"/>
<stop offset="1" stop-color="#73D483"/>
</linearGradient>
<linearGradient id="paint2_linear" x1="19.6743" y1="28.6751" x2="36.3592" y2="28.6751" gradientUnits="userSpaceOnUse">
<stop stop-color="#FFD400"/>
<stop offset="1" stop-color="#ECAF11"/>
</linearGradient>
<clipPath id="clip0">
<rect width="36.4" height="36" fill="white"/>
</clipPath>
</defs>
</svg>
