<svg width="24" height="21" viewBox="0 0 24 21" fill="none" xmlns="http://www.w3.org/2000/svg">
<g clip-path="url(#clip0)">
<path d="M20.5001 11H18.6001C18.8001 11.5 18.9001 12.1 18.9001 12.7V19.7C18.9001 19.9 18.9001 20.2 18.8001 20.4H21.9001C23.0001 20.4 24.0001 19.5 24.0001 18.3V14.5C24.0001 12.5 22.4001 11 20.5001 11Z" fill="#0F8E70"/>
<path d="M5 19.7V12.7C5 12.1 5.1 11.6 5.3 11H3.5C1.6 11 0 12.5 0 14.5V18.3C0 19.4 0.9 20.4 2.1 20.4H5.2C5.1 20.1 5 19.9 5 19.7Z" fill="#0F8E70"/>
<path d="M7.0999 20.4H16.8999C17.2999 20.4 17.5999 20.1 17.5999 19.7V12.7C17.5999 10.8 15.9999 9.19995 14.0999 9.19995H9.8999C7.9999 9.19995 6.3999 10.8 6.3999 12.7V19.7C6.3999 20 6.6999 20.4 7.0999 20.4Z" fill="#0F8E70"/>
<path d="M14 7.8C15.3 7.1 16.1 5.7 16.1 4.2C16.2 1.9 14.3 0 12 0C9.70005 0 7.80005 1.9 7.80005 4.2C7.80005 5.8 8.70005 7.1 9.90005 7.8C10.5 8.1 11.2 8.3 11.9 8.3C12.7 8.3 13.4 8.1 14 7.8Z" fill="#0F8E70"/>
<path d="M7.4001 8.4999C7.7001 7.9999 7.8001 7.4999 7.8001 6.9999C7.8001 5.2999 6.4001 3.8999 4.7001 3.8999C3.0001 3.8999 1.6001 5.2999 1.6001 6.9999C1.6001 8.6999 3.0001 10.0999 4.7001 10.0999C5.1001 10.0999 5.6001 9.9999 5.9001 9.7999C6.6001 9.5999 7.1001 9.0999 7.4001 8.4999Z" fill="#0F8E70"/>
<path d="M18.1 9.9C18.5 10.1 18.8999 10.2 19.2999 10.2C20.9999 10.2 22.4 8.8 22.4 7.1C22.4 5.4 20.9999 4 19.2999 4C17.5999 4 16.2 5.3 16.2 7C16.2 7.5 16.3 8 16.6 8.5C16.9 9.1 17.4 9.6 18.1 9.9Z" fill="#0F8E70"/>
</g>
<defs>
<clipPath id="clip0">
<rect width="24" height="20.4" fill="white"/>
</clipPath>
</defs>
</svg>
