<svg width="25" height="40" viewBox="0 0 25 40" fill="none" xmlns="http://www.w3.org/2000/svg">
<g clip-path="url(#clip0)">
<path d="M24.5968 15.3333C24.4317 15.1667 24.2667 15 23.9365 15H13.0413L14.8571 1C14.8571 0.5 14.6921 0.166667 14.3619 0C13.8667 0 13.5365 0 13.3714 0.333333L0.165069 23.6667C-1.00732e-05 24 -1.00732e-05 24.1667 0.165069 24.5C0.330149 24.8333 0.495228 25 0.825387 25H11.5555L10.0698 39C10.0698 39.3333 10.2349 39.6667 10.5651 39.8333C11.0603 40 11.3905 40 11.5555 39.6667L24.5968 16.3333C24.7619 16 24.7619 15.6667 24.5968 15.3333Z" fill="#617882" fill-opacity="0.5"/>
</g>
<defs>
<clipPath id="clip0">
<rect width="24.7619" height="40" fill="white"/>
</clipPath>
</defs>
</svg>
