<svg width="20" height="20" viewBox="0 0 20 20" fill="none" xmlns="http://www.w3.org/2000/svg">
<g clip-path="url(#clip0)">
<path d="M4.7 15.3C7.3 15.3 9.4 12.9 9.4 10C9.4 7.7 8.1 6.4 8 6.3C8 6.1 8.2 5.5 8.2 4.8C8.2 2.1 6.7 0 4.7 0C2.7 0 1.2 2.1 1.2 4.7C1.2 5.5 1.4 6.1 1.4 6.2C1.3 6.4 0 7.7 0 10C0 12.9 2.1 15.3 4.7 15.3Z" fill="#353739"/>
<path d="M0.599902 20H19.3999C19.6999 20 19.9999 19.7 19.9999 19.4C19.9999 19.1 19.6999 18.8 19.3999 18.8H18.7999V17.6H19.3999C19.6999 17.6 19.9999 17.3 19.9999 17C19.9999 16.7 19.6999 16.4 19.3999 16.4H18.7999V14.6C18.7999 14.3 18.4999 14 18.1999 14H14.5999C14.2999 14 13.9999 14.3 13.9999 14.6V16.4H13.3999C13.0999 16.4 12.7999 16.7 12.7999 17C12.7999 17.3 13.0999 17.6 13.3999 17.6H13.9999V18.8H11.6999V16.3C11.2999 16.4 10.8999 16.4 10.4999 16.4C10.0999 16.4 9.6999 16.4 9.2999 16.3V18.8H5.8999V16.3C5.4999 16.4 5.0999 16.4 4.6999 16.4C4.2999 16.4 3.8999 16.4 3.4999 16.3V18.8H0.499902C0.199902 18.8 -0.100098 19.1 -0.100098 19.4C-9.76548e-05 19.7 0.299902 20 0.599902 20ZM15.2999 17.7H17.6999V18.9H15.2999V17.7Z" fill="#353739"/>
<path d="M9.2999 5.99992C10.3999 7.49992 10.5999 8.99992 10.5999 9.99992C10.5999 11.8999 9.7999 13.5999 8.6999 14.7999C9.2999 15.0999 9.8999 15.2999 10.5999 15.2999C13.1999 15.2999 15.2999 12.8999 15.2999 9.99992C15.2999 7.69992 13.9999 6.39992 13.8999 6.29992C13.8999 6.09992 14.0999 5.49992 14.0999 4.79992C14.0999 2.19992 12.4999 0.099923 10.5999 0.099923C9.6999 -7.69496e-05 8.9999 0.399923 8.3999 1.09992C8.9999 2.09992 9.3999 3.39992 9.3999 4.79992C9.3999 5.19992 9.3999 5.69992 9.2999 5.99992Z" fill="#353739"/>
</g>
<defs>
<clipPath id="clip0">
<rect width="20" height="20" fill="white"/>
</clipPath>
</defs>
</svg>
