<svg width="21" height="24" viewBox="0 0 21 24" fill="none" xmlns="http://www.w3.org/2000/svg">
<g clip-path="url(#clip0)">
<path d="M8.60005 4.6C9.00005 4.6 9.30005 4.3 9.30005 3.9V2.2C9.30005 1.8 9.60005 1.5 10 1.5C10.4 1.5 10.7 1.8 10.7 2.2V3.8C10.7 4.2 11 4.5 11.4 4.5C11.8 4.5 12.1 4.2 12.1 3.8V2.2C12.2 1 11.3 0 10 0C8.70005 0 7.80005 1 7.80005 2.2V3.8C7.80005 4.3 8.20005 4.6 8.60005 4.6Z" fill="#617882" fill-opacity="0.5"/>
<path d="M13 19.6001C12.6 19.6001 12.3 19.9001 12.3 20.3001C12.3 21.5001 11.3 22.5001 10.1 22.5001C8.9 22.5001 7.9 21.5001 7.9 20.3001C7.9 19.9001 7.6 19.6001 7.2 19.6001C6.8 19.6001 6.5 19.9001 6.5 20.3001C6.5 22.3001 8.1 24.0001 10.2 24.0001C12.3 24.0001 13.9 22.4001 13.9 20.3001C13.7 19.9001 13.4 19.6001 13 19.6001Z" fill="#617882" fill-opacity="0.5"/>
<path d="M19.5 17.9999C18 16.6999 17.2 14.8999 17.2 12.9999V9.9999C17.2 6.0999 14 2.8999 10.1 2.8999C6.2 2.8999 2.9 6.0999 2.9 9.9999V12.9999C2.9 14.8999 2 16.7999 0.6 17.9999C0.2 18.3999 0 18.7999 0 19.2999C0 20.1999 0.8 20.9999 1.7 20.9999H18.4C19.3 20.9999 20.1 20.1999 20.1 19.2999C20.1 18.7999 19.9 18.3999 19.5 17.9999ZM1.6 19.1999C3.4 17.6999 4.4 15.3999 4.4 13.0999V10.0999C4.4 6.9999 6.9 4.4999 10 4.4999C13.1 4.4999 15.6 6.9999 15.6 10.0999V13.0999C15.6 15.4999 16.6 17.6999 18.5 19.1999C18.6 19.1999 18.6 19.2999 18.6 19.3999C18.6 19.4999 18.5 19.5999 18.4 19.5999H1.7C1.6 19.5999 1.5 19.4999 1.5 19.3999C1.5 19.2999 1.5 19.1999 1.6 19.1999Z" fill="#617882" fill-opacity="0.5"/>
</g>
<defs>
<clipPath id="clip0">
<rect width="20.1" height="24" fill="white"/>
</clipPath>
</defs>
</svg>
