<svg width="30" height="30" viewBox="0 0 30 30" fill="none" xmlns="http://www.w3.org/2000/svg">
<path d="M15 30C23.2843 30 30 23.2843 30 15C30 6.71573 23.2843 0 15 0C6.71573 0 0 6.71573 0 15C0 23.2843 6.71573 30 15 30Z" fill="#FFCA28"/>
<path d="M25.7 17.1998C25.5 16.9998 25.2 16.7998 25 16.7998H5.10001C4.80001 16.7998 4.50001 16.8998 4.40001 17.1998C4.20001 17.3998 4.20001 17.6998 4.20001 17.9998C5.60001 22.7998 10 26.1998 15 26.1998C20 26.1998 24.5 22.7998 25.8 17.9998C25.9 17.7998 25.8 17.4998 25.7 17.1998Z" fill="#FAFAFA"/>
<path d="M11.1 7.5C10.5 7.5 9.90001 7.7 9.40001 8C8.90001 7.7 8.30001 7.5 7.70001 7.5C6.00001 7.5 4.70001 8.8 4.70001 10.4C4.70001 12.1 6.90001 13.6 8.90001 14.9C9.00001 15 9.20001 15 9.40001 15C9.60001 15 9.70001 15 9.90001 14.9C12.1 13.6 14.1 12.1 14.1 10.4C14.1 8.8 12.7 7.5 11.1 7.5Z" fill="#F44336"/>
<path d="M23.3 7.5C22.7 7.5 22.1 7.7 21.6 8C21.1 7.7 20.5 7.5 19.9 7.5C18.2 7.5 16.9 8.8 16.9 10.4C16.9 12.1 19.1 13.6 21.1 14.9C21.3 15 21.4 15 21.6 15C21.8 15 21.9 15 22.1 14.9C24.3 13.6 26.3 12.1 26.3 10.4C26.3 8.8 24.9 7.5 23.3 7.5Z" fill="#F44336"/>
</svg>
