<svg width="4" height="16" viewBox="0 0 4 16" fill="none" xmlns="http://www.w3.org/2000/svg">
<g clip-path="url(#clip0)">
<path d="M2.7 0H1.1C0.5 0 0 0.5 0 1.1V2.6C0 3.2 0.5 3.7 1.1 3.7H2.6C3.2 3.7 3.7 3.2 3.7 2.6V1.1C3.8 0.5 3.3 0 2.7 0Z" fill="#617882" fill-opacity="0.8"/>
<path d="M2.7 6.1001H1.1C0.5 6.1001 0 6.6001 0 7.2001V8.7001C0 9.3001 0.5 9.8001 1.1 9.8001H2.6C3.2 9.8001 3.7 9.3001 3.7 8.7001V7.2001C3.8 6.6001 3.3 6.1001 2.7 6.1001Z" fill="#617882" fill-opacity="0.8"/>
<path d="M2.7 12.2002H1.1C0.5 12.2002 0 12.7002 0 13.3002V14.8002C0 15.5002 0.5 16.0002 1.1 16.0002H2.6C3.2 16.0002 3.7 15.5002 3.7 14.9002V13.4002C3.8 12.7002 3.3 12.2002 2.7 12.2002Z" fill="#617882" fill-opacity="0.8"/>
</g>
<defs>
<clipPath id="clip0">
<rect width="3.8" height="16" fill="white"/>
</clipPath>
</defs>
</svg>
