<svg width="49" height="44" viewBox="0 0 49 44" fill="none" xmlns="http://www.w3.org/2000/svg">
<g clip-path="url(#clip0)">
<path d="M36.7001 44H15.9C9.50005 44 4.30005 38.8 4.30005 32.4V11.6C4.30005 5.2 9.50005 0 15.9 0H36.7001C43.1001 0 48.3 5.2 48.3 11.6V32.4C48.3 38.8 43.1001 44 36.7001 44ZM15.9 1.3C10.3 1.3 5.70005 5.9 5.70005 11.5V32.3C5.70005 37.9 10.3 42.5 15.9 42.5H36.7001C42.3 42.5 46.9001 37.9 46.9001 32.3V11.6C46.9001 6 42.3 1.4 36.7001 1.4H15.9V1.3Z" fill="#EBEEF0"/>
<path opacity="0.2" d="M36.6 41H16.1C11.3 41 7.30005 37.1 7.30005 32.2V11.8C7.30005 7 11.2 3 16.1 3H36.6C41.4 3 45.4001 6.9 45.4001 11.8V32.3C45.3001 37.1 41.4 41 36.6 41Z" fill="#0F8E70"/>
<path d="M6.09996 29.9001C6.69996 31.2001 7.49995 32.5001 8.39995 33.3001C8.59995 33.5001 8.79996 33.7001 8.99996 33.9001C6.79996 32.8001 3.29996 31.7001 2.89996 34.4001C2.49996 37.0001 8.79996 36.0001 10.3 35.3001C11.9 37.0001 13.3 38.8001 14.4 40.5001C12.9 39.8001 7.29996 37.3001 5.99996 39.3001C5.19996 40.5001 6.99996 42.3001 9.69995 42.2001C12 42.1001 14 41.1001 14.5 40.8001C15.1 41.7001 15.6 42.5001 15.9 43.3001L16.3 43.2001C16 42.4001 15.5 41.6001 14.9 40.7001C16.4 41.3001 19.6 36.9001 18.7 35.9001C17 34.1001 14.3 38.3001 14.5 40.0001C13.4 38.4001 12 36.8001 10.8 35.4001C12.3 34.8001 17.3 30.8001 13.6 28.9001C10.9 27.6001 10.1 32.8001 10.2 34.7001C9.59995 34.1001 9.09996 33.5001 8.59996 33.1001C7.89996 32.4001 7.29996 31.6001 6.79996 30.6001C7.79996 30.5001 13.9 26.0001 9.89995 24.1001C7.19995 22.7001 6.29996 28.2001 6.49996 30.1001C5.19996 27.4001 4.49996 24.1001 4.19996 22.5001C5.19996 21.5001 8.49996 13.9001 3.29996 14.4001C-0.700044 14.8001 2.69996 21.6001 3.79996 22.5001C4.09996 23.9001 4.59996 26.5001 5.59996 28.9001C3.99996 27.6001 0.599956 25.6001 -4.44502e-05 28.7001C-0.500044 31.3001 4.79996 30.5001 6.09996 29.9001Z" fill="#85BF60"/>
<path d="M30.3999 7.8999V12.3999H36.3999L30.3999 7.8999Z" fill="#0F8E70"/>
<path d="M29.6 14.1C29.1 14.1 28.8 13.7 28.8 13.3V7.5H16.5C16 7.5 15.7 7.9 15.7 8.3V34.7C15.7 35.2 16.1 35.5 16.5 35.5H36.2C36.7 35.5 37 35.1 37 34.7V14.1H29.6ZM31.9 30.8H20.7C20.2 30.8 19.8 30.4 19.8 29.9C19.8 29.4 20.2 29 20.7 29H31.9C32.4 29 32.7999 29.4 32.7999 29.9C32.7999 30.4 32.4 30.8 31.9 30.8ZM31.9 26.2H20.7C20.2 26.2 19.8 25.8 19.8 25.3C19.8 24.8 20.2 24.4 20.7 24.4H31.9C32.4 24.4 32.7999 24.8 32.7999 25.3C32.7999 25.7 32.4 26.2 31.9 26.2ZM31.9 21.5H20.7C20.2 21.5 19.8 21.1 19.8 20.6C19.8 20.1 20.2 19.7 20.7 19.7H31.9C32.4 19.7 32.7999 20.1 32.7999 20.6C32.7999 21.1 32.4 21.5 31.9 21.5Z" fill="#0F8E70"/>
</g>
<defs>
<clipPath id="clip0">
<rect width="48.3" height="44" fill="white"/>
</clipPath>
</defs>
</svg>
