<svg width="24" height="24" viewBox="0 0 24 24" fill="none" xmlns="http://www.w3.org/2000/svg">
<g clip-path="url(#clip0)">
<path d="M11.9 23.8C18.4722 23.8 23.8 18.4722 23.8 11.9C23.8 5.32781 18.4722 0 11.9 0C5.32781 0 0 5.32781 0 11.9C0 18.4722 5.32781 23.8 11.9 23.8Z" fill="#0F8E70"/>
<path d="M13.5001 13.7H10.3001C7.7001 13.7 5.6001 15.8 5.6001 18.4V20.2C7.3001 21.5 9.5001 22.3 11.9001 22.3C14.3001 22.3 16.4001 21.5 18.2001 20.2V18.4C18.2001 15.8 16.1001 13.7 13.5001 13.7Z" fill="white"/>
<path d="M11.9 3.69995C9.30005 3.69995 7.30005 5.79995 7.30005 8.29995C7.30005 10.9 9.40005 12.9 11.9 12.9C14.4 12.9 16.5 10.8 16.5 8.29995C16.5 5.79995 14.4 3.69995 11.9 3.69995Z" fill="white"/>
</g>
<defs>
<clipPath id="clip0">
<rect width="23.8" height="23.8" fill="white"/>
</clipPath>
</defs>
</svg>
