<svg width="20" height="20" viewBox="0 0 20 20" fill="none" xmlns="http://www.w3.org/2000/svg">
<g clip-path="url(#clip0)">
<path d="M4.625 20C2.125 20 0 17.875 0 15.375C0 14.125 0.5 13 1.375 12.125L5.625 7.875C6.5 7 7.625 6.5 8.875 6.5C9.75 6.5 10.625 6.75 11.375 7.25C11.75 7.375 12 7.5 12.25 7.75C12.5 8 12.625 8.375 12.625 8.75C12.625 9.125 12.5 9.375 12.25 9.625C11.75 10.125 10.875 10.125 10.375 9.625C9.5 8.875 8.25 8.875 7.5 9.625L3.25 13.875C2.5 14.625 2.5 15.875 3.25 16.75C4 17.5 5.25 17.5 6.125 16.75L8.625 14.25C8.75 14.125 8.875 14.125 9 14.125C9.625 14.375 10.375 14.5 11.125 14.5H11.25C11.375 14.5 11.625 14.625 11.625 14.875C11.625 15 11.625 15 11.5 15.125L8 18.625C7.125 19.5 5.875 20 4.625 20Z" fill="white"/>
<path d="M11.125 13.625H10.875C10.75 13.625 10.5 13.625 10.375 13.625C10.25 13.625 10.125 13.625 10 13.5H9.75C9.625 13.5 9.625 13.5 9.5 13.375C9.375 13.25 9.375 13.375 9.25 13.25C9.125 13.25 9.125 13.25 9 13.125C8.5 12.875 8 12.625 7.625 12.25C7.5 12 7.375 11.625 7.375 11.25C7.375 10.875 7.5 10.625 7.75 10.375C8.25 9.875 9.125 9.875 9.625 10.375C10.375 11.125 11.625 11.125 12.5 10.375L13.625 9.25L16.75 6.125C17.5 5.375 17.5 4.125 16.75 3.25C16 2.5 14.75 2.5 13.875 3.25L11.375 5.75C11.25 5.875 11.125 5.875 11 5.875C10.375 5.625 9.625 5.375 8.875 5.375H8.75C8.625 5.375 8.5 5.25 8.375 5.125C8.375 5 8.375 4.875 8.5 4.75L12 1.25C13.875 -0.625 16.75 -0.625 18.625 1.25C20.5 3.125 20.5 6 18.625 7.875L14.375 12.125C13.75 12.75 13 13.125 12.25 13.375H12H11.875H11.625H11.5C11.375 13.375 11.375 13.375 11.25 13.375L11.125 13.625Z" fill="white"/>
</g>
<defs>
<clipPath id="clip0">
<rect width="20" height="20" fill="white"/>
</clipPath>
</defs>
</svg>
