<svg width="21" height="20" viewBox="0 0 21 20" fill="none" xmlns="http://www.w3.org/2000/svg">
<g clip-path="url(#clip0)">
<path d="M21 9.6C21 14.4 17.4 18.4 12.8 19.1C12.8 18.9 12.8 18.7 12.8 18.4C12.8 18.4 12.8 18.2 12.7 17.9C14.3 17.6 15.8 16.9 17 15.8C16.9 15.7 16.9 15.7 16.8 15.6C16.5 15.1 16.9 14.7 16.9 14.3C16.9 13.9 16.1 13.9 16.1 13.7C16 12.8 16.7 12.8 17 12.4C17.3 12.1 16.7 11.3 16.2 11.3C15.8 11.3 14.5 11.1 14.6 10.1C14.7 8.9 13.1 9 12.9 8.5C12.6 7.7 13.1 6.7 13.9 6.5C14.9 6.2 16 5.3 15.9 4.4C15.8 3.3 15.3 2.3 14.5 1.8C13.7 1.5 12.8 1.3 11.8 1.2C11 1.2 10.2 1.4 10.2 1.8C10.4 2.8 13 3 12.6 3.9C12.4 4.4 10.6 5 10.9 5.7C11.1 6.1 11.6 5.8 11.4 6.6C11.3 7 11 7.7 10.4 7.8C10 7.8 9.50002 6.4 8.00002 6.4C7.30002 6.4 6.30002 7.5 7.20002 8.3C7.70002 8.8 8.70002 7.7 8.90002 8.5C9.10002 9.1 8.90002 10.3 9.80002 10.8C10.1 11 10.7 11.1 11.2 11.4C10.4 11.6 9.50002 11.8 8.40002 12.3L7.50002 12C7.90002 11.7 8.50002 11.5 8.40002 10.7C8.20002 9.7 6.40002 10.1 5.10002 8.8C4.70002 8.5 3.90002 7.2 3.90002 5.7C3.30002 6.9 2.90002 8.2 2.90002 9.6C2.90002 10 2.90002 10.5 3.00002 10.9C2.60002 10.9 2.20002 11 1.90002 11.1C1.80002 10.6 1.80002 10.1 1.80002 9.6C1.70002 4.3 6.00002 0 11.3 0C16.6 0 21 4.3 21 9.6ZM13.8 12.5L11.4 13.6V13.1L12.9 12.4C12.7 12.4 12.5 12.4 12.2 12.4C11.4 12.4 9.90002 12.8 8.40002 13.5L3.40002 12C2.90002 11.9 2.40002 12 2.00002 12.2L1.80002 12.4C1.60002 12.6 1.60002 12.9 1.80002 13.1L4.80002 15.1C4.10002 15.5 3.40002 15.8 2.80002 16.2L1.20002 15.4C0.900021 15.3 0.600021 15.2 0.400021 15.4L0.300022 15.5C0.100022 15.6 2.14987e-05 15.8 0.100022 16.1L1.00002 17.6C0.700022 17.9 0.500021 18.1 0.500021 18.3C0.500021 18.8 1.10002 18.9 1.60002 18.9C2.50002 18.9 14.8 16.1 14.8 13.6C14.7 12.8 14.3 12.6 13.8 12.5ZM8.60002 17.4L11.3 16.5C11.4 16.5 11.5 16.5 11.6 16.7L11.8 18.7C11.9 19.2 11.6 19.7 11.1 19.9L10.9 20C10.7 20.1 10.6 20 10.4 19.9L8.50002 17.8C8.40002 17.6 8.50002 17.5 8.60002 17.4Z" fill="white"/>
</g>
<defs>
<clipPath id="clip0">
<rect width="21" height="20" fill="white"/>
</clipPath>
</defs>
</svg>
