<svg width="49" height="44" viewBox="0 0 49 44" fill="none" xmlns="http://www.w3.org/2000/svg">
<g clip-path="url(#clip0)">
<path d="M36.9 44H16C9.60002 44 4.40002 38.8 4.40002 32.4V11.6C4.40002 5.2 9.60002 0 16 0H36.8C43.2 0 48.4 5.2 48.4 11.6V32.4C48.4 38.8 43.3 44 36.9 44ZM16 1.3C10.4 1.3 5.80002 5.9 5.80002 11.5V32.3C5.80002 37.9 10.4 42.5 16 42.5H36.8C42.4 42.5 47 37.9 47 32.3V11.6C47 6 42.4 1.4 36.8 1.4H16V1.3Z" fill="#EBEEF0"/>
<path opacity="0.2" d="M36.7 41H16.2C11.4 41 7.40002 37.1 7.40002 32.2V11.8C7.40002 7 11.3 3 16.2 3H36.7C41.5 3 45.5 6.9 45.5 11.8V32.3C45.4 37.1 41.5 41 36.7 41Z" fill="#0F8E70"/>
<path d="M6.09996 29.7001C6.69996 31.0001 7.49995 32.3001 8.39995 33.1001C8.59995 33.3001 8.79996 33.5001 8.99996 33.7001C6.79996 32.6001 3.29996 31.5001 2.89996 34.2001C2.49996 36.8001 8.79996 35.8001 10.3 35.1001C11.9 36.8001 13.3 38.6001 14.4 40.3001C12.9 39.6001 7.29996 37.1001 5.99996 39.1001C5.19996 40.3001 6.99996 42.1001 9.69995 42.0001C12 41.9001 14 40.9001 14.5 40.6001C15.1 41.5001 15.6 42.3001 15.9 43.1001L16.3 43.0001C16 42.2001 15.5 41.4001 14.9 40.5001C16.4 41.1001 19.6 36.7001 18.7 35.7001C17 33.9001 14.3 38.1001 14.5 39.8001C13.4 38.2001 12 36.6001 10.8 35.2001C12.3 34.6001 17.3 30.6001 13.6 28.7001C10.9 27.4001 10.1 32.6001 10.2 34.5001C9.59995 33.9001 9.09996 33.3001 8.59996 32.9001C7.89996 32.2001 7.29996 31.4001 6.79996 30.4001C7.79996 30.3001 13.9 25.8001 9.89995 23.9001C7.19995 22.5001 6.29996 28.0001 6.49996 29.9001C5.19996 27.2001 4.49996 23.9001 4.19996 22.3001C5.19996 21.3001 8.49996 13.7001 3.29996 14.2001C-0.700044 14.6001 2.69996 21.4001 3.79996 22.3001C4.09996 23.7001 4.59996 26.3001 5.59996 28.7001C3.99996 27.4001 0.599956 25.4001 -4.44502e-05 28.5001C-0.500044 31.1001 4.79996 30.3001 6.09996 29.7001Z" fill="#85BF60"/>
<path d="M28 15H17.1C15.7 15 14.5 16.2 14.5 17.6V26.4C14.5 27.8 15.7 29 17.1 29H28C29.4 29 30.6 27.8 30.6 26.4V17.6C30.7 16.2 29.5 15 28 15Z" fill="#0F8E70"/>
<path d="M36.5 16.4999C36.3 16.4999 36.2 16.5999 36.1 16.6999L32 18.9999V25.0999L36.1 27.4999C36.9 27.8999 37.8 27.6999 38.3 26.8999C38.4 26.6999 38.5 26.3999 38.5 26.0999V17.9999C38.4 16.9999 37.5 16.1999 36.5 16.4999Z" fill="#0F8E70"/>
</g>
<defs>
<clipPath id="clip0">
<rect width="48.4" height="44" fill="white"/>
</clipPath>
</defs>
</svg>
