<svg width="20" height="20" viewBox="0 0 20 20" fill="none" xmlns="http://www.w3.org/2000/svg">
<path d="M17.5201 0H14.8001C14.2401 0 13.8401 0.4 13.8401 0.96C13.8401 1.52 14.2401 1.92 14.8001 1.92H17.5201C17.8401 1.92 18.0801 2.16 18.0801 2.48V5.2C18.0801 5.76 18.4801 6.16 19.0401 6.16C19.6001 6.16 20.0001 5.68 20.0001 5.2V2.48C20.0001 1.12 18.8801 0 17.5201 0Z" fill="#0F8E70"/>
<path d="M0.96 6.16C1.52 6.16 1.92 5.76 1.92 5.2V2.48C1.92 2.16 2.16 1.92 2.48 1.92H5.2C5.76 1.92 6.16 1.52 6.16 0.96C6.16 0.4 5.68 0 5.2 0H2.48C1.12 0 0 1.12 0 2.48V5.2C0 5.68 0.4 6.16 0.96 6.16Z" fill="#0F8E70"/>
<path d="M5.2 18.0798H2.48C2.16 18.0798 1.92 17.8398 1.92 17.5198V14.7998C1.92 14.2398 1.52 13.8398 0.96 13.8398C0.4 13.8398 0 14.3198 0 14.7998V17.5198C0 18.8798 1.12 19.9998 2.48 19.9998H5.2C5.76 19.9998 6.16 19.5998 6.16 19.0398C6.16 18.4798 5.68 18.0798 5.2 18.0798Z" fill="#0F8E70"/>
<path d="M19.0401 13.8398C18.4801 13.8398 18.0801 14.2398 18.0801 14.7998V17.5198C18.0801 17.8398 17.8401 18.0798 17.5201 18.0798H14.8001C14.2401 18.0798 13.8401 18.4798 13.8401 19.0398C13.8401 19.5998 14.2401 19.9998 14.8001 19.9998H17.5201C18.8801 19.9998 20.0001 18.8798 20.0001 17.5198V14.7998C20.0001 14.3198 19.6001 13.8398 19.0401 13.8398Z" fill="#0F8E70"/>
<path d="M16.2401 8.07986V6.31986C16.2401 5.75986 15.8401 5.35986 15.2801 5.35986C14.7201 5.35986 14.3201 5.75986 14.3201 6.31986V8.07986C14.3201 8.63986 14.7201 9.03986 15.2801 9.03986C15.8401 9.03986 16.2401 8.63986 16.2401 8.07986Z" fill="#0F8E70"/>
<path d="M5.04008 5.35986C4.48008 5.35986 4.08008 5.75986 4.08008 6.31986V8.07986C4.08008 8.63986 4.48008 9.03986 5.04008 9.03986C5.60008 9.03986 6.00008 8.63986 6.00008 8.07986V6.31986C6.00008 5.75986 5.52008 5.35986 5.04008 5.35986Z" fill="#0F8E70"/>
<path d="M8.5601 12.6399C10.5601 12.6399 11.2001 11.1199 11.2001 10.3199V6.31986C11.2001 5.75986 10.8001 5.35986 10.2401 5.35986C9.6801 5.35986 9.2801 5.75986 9.2801 6.31986V10.3199C9.2801 10.3999 9.2001 10.7999 8.5601 10.7999C8.0001 10.7999 7.6001 11.1999 7.6001 11.7599C7.6001 12.3199 8.0001 12.6399 8.5601 12.6399Z" fill="#0F8E70"/>
<path d="M13.76 14.0798C13.6 13.8398 13.36 13.7598 13.12 13.6798C12.88 13.6798 12.64 13.6798 12.4 13.8398C11.76 14.3198 10.72 14.6398 9.67996 14.6398C8.63996 14.6398 7.67996 14.3198 6.95996 13.8398C6.71996 13.6798 6.47996 13.5998 6.23996 13.6798C5.99996 13.6798 5.75996 13.8398 5.59996 14.0798C5.27996 14.4798 5.35996 15.1198 5.83996 15.4398C6.79996 16.1598 8.23996 16.5598 9.67996 16.5598C11.12 16.5598 12.56 16.1598 13.6 15.3598C14 15.0398 14.08 14.4798 13.76 14.0798Z" fill="#0F8E70"/>
</svg>
