<svg width="24" height="24" viewBox="0 0 24 24" fill="none" xmlns="http://www.w3.org/2000/svg">
<path d="M19.07 4.93017C17.184 3.10858 14.658 2.10064 12.036 2.12342C9.41406 2.14621 6.90594 3.1979 5.05186 5.05198C3.19778 6.90606 2.14609 9.41419 2.1233 12.0362C2.10052 14.6581 3.10846 17.1841 4.93004 19.0702C6.81606 20.8917 9.34209 21.8997 11.9641 21.8769C14.586 21.8541 17.0941 20.8024 18.9482 18.9484C20.8023 17.0943 21.854 14.5861 21.8768 11.9642C21.8996 9.34221 20.8916 6.81619 19.07 4.93017ZM16.26 14.8402C16.3538 14.9331 16.4282 15.0437 16.4789 15.1656C16.5297 15.2874 16.5558 15.4182 16.5558 15.5502C16.5558 15.6822 16.5297 15.8129 16.4789 15.9347C16.4282 16.0566 16.3538 16.1672 16.26 16.2602C16.1666 16.3528 16.0558 16.4262 15.9339 16.4759C15.8121 16.5257 15.6817 16.5509 15.55 16.5502C15.4184 16.5509 15.288 16.5257 15.1661 16.4759C15.0443 16.4262 14.9335 16.3528 14.84 16.2602L12 13.4102L9.16004 16.2602C9.0666 16.3528 8.95579 16.4262 8.83395 16.4759C8.71211 16.5257 8.58165 16.5509 8.45004 16.5502C8.31844 16.5509 8.18797 16.5257 8.06614 16.4759C7.9443 16.4262 7.83348 16.3528 7.74004 16.2602C7.64631 16.1672 7.57192 16.0566 7.52115 15.9347C7.47038 15.8129 7.44424 15.6822 7.44424 15.5502C7.44424 15.4182 7.47038 15.2874 7.52115 15.1656C7.57192 15.0437 7.64631 14.9331 7.74004 14.8402L10.59 12.0002L7.74004 9.16017C7.6468 9.06693 7.57284 8.95624 7.52238 8.83441C7.47192 8.71259 7.44595 8.58202 7.44595 8.45017C7.44595 8.31831 7.47192 8.18774 7.52238 8.06592C7.57284 7.94409 7.6468 7.8334 7.74004 7.74017C7.83328 7.64693 7.94397 7.57297 8.06579 7.52251C8.18762 7.47205 8.31818 7.44607 8.45004 7.44607C8.5819 7.44607 8.71247 7.47205 8.83429 7.52251C8.95611 7.57297 9.0668 7.64693 9.16004 7.74017L12 10.5902L14.84 7.74017C14.9333 7.64693 15.044 7.57297 15.1658 7.52251C15.2876 7.47205 15.4182 7.44607 15.55 7.44607C15.6819 7.44607 15.8125 7.47205 15.9343 7.52251C16.0561 7.57297 16.1668 7.64693 16.26 7.74017C16.3533 7.8334 16.4272 7.94409 16.4777 8.06592C16.5282 8.18774 16.5541 8.31831 16.5541 8.45017C16.5541 8.58202 16.5282 8.71259 16.4777 8.83441C16.4272 8.95624 16.3533 9.06693 16.26 9.16017L13.41 12.0002L16.26 14.8402Z" fill="#617882" fill-opacity="0.8"/>
</svg>
