<svg width="20" height="20" viewBox="0 0 20 20" fill="none" xmlns="http://www.w3.org/2000/svg">
<path d="M10 20C15.5228 20 20 15.5228 20 10C20 4.47715 15.5228 0 10 0C4.47715 0 0 4.47715 0 10C0 15.5228 4.47715 20 10 20Z" fill="#0F8E70"/>
<path d="M15 7.875L9.25 13.375C9.125 13.5 8.875 13.625 8.75 13.625C8.5 13.625 8.375 13.5 8.125 13.375L5 10.25C4.75 9.875 4.75 9.375 5 9C5.375 8.75 5.875 8.75 6.25 9L8.75 11.5L13.875 6.625C14.25 6.375 14.75 6.375 15 6.625C15.25 7 15.25 7.5 15 7.875Z" fill="white"/>
</svg>
