<svg width="48" height="48" viewBox="0 0 48 48" fill="none" xmlns="http://www.w3.org/2000/svg">
<path d="M24 48C37.2548 48 48 37.2548 48 24C48 10.7452 37.2548 0 24 0C10.7452 0 0 10.7452 0 24C0 37.2548 10.7452 48 24 48Z" fill="#0F8E70" fill-opacity="0.2"/>
<path d="M26.3 34.0998C26.3 35.2998 25.3 36.3998 24 36.3998C22.7 36.3998 21.7 35.3998 21.7 34.0998V21.5998C21.7 20.3998 22.7 19.2998 24 19.2998C25.3 19.2998 26.3 20.2998 26.3 21.5998V34.0998Z" fill="white"/>
<path d="M26.2 13.5999C26.2 13.6999 26.2 13.6999 26.2 13.7999C26.2 13.8999 26.2 13.8999 26.1 13.9999C26.1 14.0999 26.1 14.0999 26 14.1999C26 14.2999 25.9 14.2999 25.9 14.3999C25.9 14.4999 25.8 14.4999 25.8 14.5999C25.8 14.6999 25.7 14.6999 25.7 14.7999C25.7 14.8999 25.6 14.8999 25.6 14.9999C25.2 15.3999 24.6 15.6999 24 15.6999C23.9 15.6999 23.9 15.6999 23.8 15.6999C23.7 15.6999 23.7 15.6999 23.6 15.6999C23.5 15.6999 23.5 15.6999 23.4 15.5999C23.3 15.5999 23.3 15.5999 23.2 15.4999C23.1 15.4999 23.1 15.3999 23 15.3999C22.9 15.3999 22.9 15.2999 22.8 15.2999C22.7 15.2999 22.7 15.1999 22.6 15.1999C22.5 15.1999 22.5 15.0999 22.4 15.0999C22.3 14.9999 22.3 14.9999 22.3 14.8999C22.3 14.7999 22.2 14.7999 22.2 14.6999C22.2 14.5999 22.1 14.5999 22.1 14.4999C22.1 14.3999 22 14.3999 22 14.2999C22 14.1999 21.9 14.1999 21.9 14.0999C21.9 13.9999 21.9 13.9999 21.8 13.8999C21.8 13.7999 21.8 13.7999 21.8 13.6999C21.8 13.5999 21.8 13.5999 21.8 13.4999C21.8 13.3999 21.8 13.3999 21.8 13.2999C21.8 13.1999 21.8 13.1999 21.8 13.0999C21.8 12.9999 21.8 12.9999 21.9 12.8999C21.9 12.7999 21.9 12.7999 22 12.6999C22 12.5999 22.1 12.5999 22.1 12.4999C22.1 12.3999 22.2 12.3999 22.2 12.2999C22.2 12.1999 22.3 12.1999 22.3 12.0999C22.3 11.9999 22.4 11.9999 22.4 11.8999C22.5 11.7999 22.5 11.7999 22.6 11.7999C22.7 11.7999 22.7 11.6999 22.8 11.6999C22.9 11.6999 22.9 11.5999 23 11.5999C23.1 11.5999 23.1 11.4999 23.2 11.4999C23.3 11.4999 23.3 11.3999 23.4 11.3999C23.5 11.3999 23.5 11.3999 23.6 11.2999C23.7 11.2999 23.7 11.2999 23.8 11.2999C24.5 11.1999 25.1 11.4999 25.6 11.9999C25.7 12.0999 25.7 12.0999 25.7 12.1999C25.7 12.2999 25.8 12.2999 25.8 12.3999C25.8 12.4999 25.9 12.4999 25.9 12.5999C25.9 12.6999 26 12.6999 26 12.7999C26 12.8999 26.1 12.8999 26.1 12.9999C26.1 13.0999 26.1 13.0999 26.2 13.1999C26.2 13.2999 26.2 13.2999 26.2 13.3999C26.2 13.4999 26.2 13.4999 26.2 13.5999C26.3 13.4999 26.3 13.3999 26.2 13.5999Z" fill="white"/>
</svg>
