<svg width="18" height="24" viewBox="0 0 18 24" fill="none" xmlns="http://www.w3.org/2000/svg">
<g clip-path="url(#clip0)">
<path d="M11.7 13.8V10.2C11.7 9.8 11.9 9.6 12.3 9.6H14.5C15 9.6 15 10.1 14.8 10.2C14.7 10.3 14.6 10.3 14.5 10.3H12.6V11.5H14.2C14.8 11.5 14.8 12.2 14.2 12.2H12.6V13.7C12.6 14.4 12 14.4 11.8 14.1C11.8 14.1 11.7 14 11.7 13.8ZM7.5 14.3C7 14.3 6.9 14.1 6.9 13.6V10.2C6.9 9.8 7.1 9.6 7.5 9.6C8.1 9.6 9.1 9.5 9.6 9.7C10.8 10 11.1 11.5 10.9 12.7C10.7 13.5 10.2 14.1 9.4 14.2L7.5 14.3ZM4.3 12.5H3.5V13.8C3.5 14.6 2.6 14.6 2.6 13.8V10.2C2.6 9.8 2.8 9.6 3.2 9.6C3.7 9.6 4.8 9.6 5.2 9.7C6.4 10 6.4 11.6 5.7 12.1C5.4 12.4 4.9 12.5 4.3 12.5ZM17.5 23.3V5H14.5C13.4 5 12.6 4.1 12.6 3.1V0H0.7C0.3 0 0 0.3 0 0.7V23.3C0 23.7 0.3 24 0.7 24H16.9C17.2 24 17.5 23.7 17.5 23.3Z" fill="#0F8E70"/>
<path d="M3.5 11.7999C4.2 11.7999 5.2 11.8999 5.2 11.0999C5.2 10.4999 4.8 10.3999 4.2 10.3999H3.5V11.7999Z" fill="#0F8E70"/>
<path d="M7.80005 10.3999V13.5999C8.20005 13.5999 8.80005 13.5999 9.20005 13.4999C10.1 13.1999 10 11.4999 9.70005 10.8999C9.40005 10.3999 9.00005 10.3999 8.40005 10.3999H7.80005Z" fill="#0F8E70"/>
<path d="M14.5 3.7998H16.7L13.7 0.799805V2.9998C13.7 3.4998 14.1 3.7998 14.5 3.7998Z" fill="#0F8E70"/>
</g>
<defs>
<clipPath id="clip0">
<rect width="17.5" height="24" fill="white"/>
</clipPath>
</defs>
</svg>
