<svg width="20" height="20" viewBox="0 0 20 20" fill="none" xmlns="http://www.w3.org/2000/svg">
<g id="local_offer_24px">
<path id="icon/maps/local_offer_24px" fill-rule="evenodd" clip-rule="evenodd" d="M17.8415 9.64984L10.3415 2.14984C10.0415 1.84984 9.62484 1.6665 9.1665 1.6665H3.33317C2.4165 1.6665 1.6665 2.4165 1.6665 3.33317V9.1665C1.6665 9.62484 1.84984 10.0415 2.15817 10.3498L9.65817 17.8498C9.95817 18.1498 10.3748 18.3332 10.8332 18.3332C11.2915 18.3332 11.7082 18.1498 12.0082 17.8415L17.8415 12.0082C18.1498 11.7082 18.3332 11.2915 18.3332 10.8332C18.3332 10.3748 18.1415 9.94984 17.8415 9.64984ZM10.8332 16.6748L3.33317 9.16646V3.33313H9.1665V3.3248L16.6665 10.8248L10.8332 16.6748ZM4.1665 5.4165C4.1665 4.72615 4.72615 4.1665 5.4165 4.1665C6.10686 4.1665 6.6665 4.72615 6.6665 5.4165C6.6665 6.10686 6.10686 6.6665 5.4165 6.6665C4.72615 6.6665 4.1665 6.10686 4.1665 5.4165Z" fill="#979797"/>
</g>
</svg>
