<svg width="16" height="16" viewBox="0 0 16 16" fill="none" xmlns="http://www.w3.org/2000/svg">
<path d="M8 16C12.4183 16 16 12.4183 16 8C16 3.58172 12.4183 0 8 0C3.58172 0 0 3.58172 0 8C0 12.4183 3.58172 16 8 16Z" fill="#DD3030"/>
<path d="M11.2 12.3333C11.0667 12.3333 10.9333 12.2667 10.8667 12.2C9.33332 10.6667 6.66665 10.6667 5.19998 12.2C4.99998 12.4 4.66665 12.4 4.46665 12.2C4.26665 12 4.26665 11.6667 4.46665 11.4667C5.39998 10.5333 6.66665 10 7.99998 10C9.33332 10 10.6 10.5333 11.5333 11.4667C11.7333 11.6667 11.7333 12 11.5333 12.2C11.4667 12.2667 11.3333 12.3333 11.2 12.3333Z" fill="white"/>
<path d="M5 7C5.55228 7 6 6.55228 6 6C6 5.44772 5.55228 5 5 5C4.44772 5 4 5.44772 4 6C4 6.55228 4.44772 7 5 7Z" fill="white"/>
<path d="M11 7C11.5523 7 12 6.55228 12 6C12 5.44772 11.5523 5 11 5C10.4477 5 10 5.44772 10 6C10 6.55228 10.4477 7 11 7Z" fill="white"/>
</svg>
