<svg width="120" height="97" viewBox="0 0 120 97" fill="none" xmlns="http://www.w3.org/2000/svg">
<g clip-path="url(#clip0)">
<path d="M5.79999 37.6999C4.69999 38.3999 0.199987 39.7999 0.299987 37.2999C0.399987 34.4999 3.69999 35.7999 5.19999 36.7999C3.99999 34.7999 3.19999 32.5999 2.79999 31.3999C1.79999 30.5999 -2.00001 24.9999 1.39999 24.1999C5.99999 23.0999 3.99999 30.2999 3.29999 31.2999C3.79999 32.6999 4.79999 35.4999 6.29999 37.6999C5.89999 36.0999 5.99999 31.1999 8.49999 31.9999C12.3 33.1999 7.49999 37.8999 6.59999 38.1999C7.19999 38.9999 7.79999 39.6999 8.49999 40.1999C8.99999 40.5999 9.49999 40.9999 10.1 41.4999C9.69999 39.7999 9.79999 35.0999 12.4 35.8999C15.9 37.0999 12 41.1999 10.7 41.9999C12 43.0999 13.4 44.2999 14.6 45.5999C14.2 44.0999 16.1 40.0999 17.8 41.3999C18.8 42.0999 16.4 46.3999 15.1 46.0999C16.3 47.3999 17.1 48.7999 17.4 49.8999C17.5 50.2999 17.6 50.7999 17.7 51.2999C18.2 50.1999 20.1 46.1999 21.7 48.1999C23 49.7999 21.1 51.6999 20.1 52.0999C19.3 52.3999 18.2 51.8999 17.8 51.6999C17.8 51.9999 17.9 52.2999 17.9 52.5999C18.3 55.0999 18.8 57.9999 19.5 59.5999C19.7 58.0999 20.9 51.5999 23.8 54.4999C25.3 55.9999 23.3 58.3999 22.4 58.9999C21.7 59.4999 20.1 59.7999 19.6 59.8999C19.7 60.0999 19.8 60.1999 19.9 60.3999C21.2 62.0999 23.2 63.6999 23.2 63.6999C23.3 63.7999 23.3 63.8999 23.2 63.8999C23.2 63.8999 23.1 63.8999 23.1 63.9999C23 63.9999 23 63.9999 22.9 63.9999C22.9 63.9999 21.4 62.7999 20.1 61.3999C19.3 61.5999 16.1 62.1999 15.1 61.8999C13.9 61.5999 11.4 59.9999 12.5 58.6999C14.3 56.6999 17.8 59.1999 19.4 60.5999C18.6 59.3999 18 56.7999 17.6 54.1999C16.9 54.6999 14.1 55.0999 13 54.7999C11.8 54.4999 9.49999 53.2999 10.2 52.0999C12 48.8999 16.5 52.8999 17.5 53.8999C17.4 53.4999 17.4 53.0999 17.3 52.6999C17.1 51.6999 17 50.6999 16.8 49.9999C16.6 48.9999 15.7 47.6999 14.5 46.2999C14 46.5999 12.4 47.6999 10.4 48.0999C8.19999 48.4999 6.39999 47.0999 6.99999 45.9999C7.89999 44.0999 13.2 45.5999 14.6 45.9999C13.4 44.6999 11.9 43.2999 10.3 41.9999C9.09999 42.7999 3.59999 44.4999 3.59999 42.0999C3.59999 39.6999 6.79999 40.1999 8.89999 40.8999C8.69999 40.6999 8.49999 40.5999 8.29999 40.4999C7.39999 39.7999 6.59999 38.7999 5.79999 37.6999Z" fill="#85BF60"/>
<path d="M61 96C87.5097 96 109 74.5097 109 48C109 21.4903 87.5097 0 61 0C34.4903 0 13 21.4903 13 48C13 74.5097 34.4903 96 61 96Z" fill="#D7E9F3"/>
<path d="M41.7 73.1C44 72.3 46.3 71.7 48.5 70.6C50.4 69.6 51.8 67.1 51.6 65C51.6 64.7 51.4 64.5 51.2 64.3C46.8 58.1 44.5 51.2 43.3 43.8C42.7 39.7 42.5 35.6 43.3 31.5C44.6 24.6 49.3 20.2 56.3 19.3C59.8 18.9 63.3 18.8 66.8 19.6C73.4 21.1 77.4 25.5 78.3 32.3C79.5 41.5 77.5 50.2 73.7 58.6C72.9 60.3 72 62 70.8 63.6C70.5 64 70.4 64.4 70.5 64.8C70.6 65.9 70.8 67 71.2 68.1C71.6 69.2 72.3 70.1 73.4 70.6C76.5 72.2 79.9 73.1 83.1 74.2C87.2 75.6 91.2 77.2 95 79.2C95.6 79.5 96.1 79.8 96.6 80.1C104.3 71.6 109 60.4 109 48C109 21.5 87.5 0 61 0C34.5 0 13 21.5 13 48C13 60.3 17.6 71.5 25.3 80C25.6 79.8 26 79.6 26.3 79.4C31.1 76.7 36.4 74.9 41.7 73.1Z" fill="#0FB870"/>
<path d="M61 96.0002C75.1001 96.0002 87.9001 89.9002 96.6001 80.1002C96.1001 79.8002 95.6 79.5002 95 79.2002C91.1 77.2002 87.1 75.6002 83.1 74.2002C79.8 73.1002 76.5 72.2002 73.4001 70.6002C72.3001 70.0002 71.6 69.2002 71.2 68.1002C70.8 67.0002 70.6 65.9002 70.5 64.8002C70.5 64.3002 70.6001 64.0002 70.8001 63.6002C71.9001 62.0002 72.9 60.4002 73.7 58.6002C77.5 50.2002 79.5001 41.5002 78.3001 32.3002C77.4001 25.5002 73.4001 21.1002 66.8001 19.6002C63.3001 18.8002 59.8 18.9002 56.3 19.3002C49.3 20.1002 44.6 24.6002 43.3 31.5002C42.5 35.6002 42.7 39.7002 43.3 43.8002C44.5 51.2002 46.8001 58.2002 51.2001 64.3002C51.4001 64.5002 51.6 64.7002 51.6 65.0002C51.8 67.1002 50.4 69.6002 48.5 70.6002C46.3 71.7002 44 72.4002 41.7001 73.1002C36.4001 74.9002 31.2 76.6002 26.3 79.4002C25.9 79.6002 25.6 79.8002 25.3 80.0002C34 89.8002 46.8 96.0002 61 96.0002Z" fill="white"/>
<path d="M61 46.2998C67.6 46.2998 73.2 50.7998 74.4 56.6998C75.4 53.3998 76 49.6998 76 45.7998C76 32.5998 69.3 21.7998 61 21.7998C52.7 21.7998 46 32.4998 46 45.7998C46 49.6998 46.6 53.3998 47.6 56.6998C48.9 50.6998 54.4 46.2998 61 46.2998Z" fill="white"/>
<path d="M74.3 57.1001C74.4 57.0001 74.4 56.9001 74.5 56.7001C74.5 56.7001 74.5 56.7001 74.5 56.6001C74.4 56.8001 74.3 57.0001 74.3 57.1001Z" fill="#F5FAFC"/>
<path d="M61 72.1001C65 72.1001 68.6 70.5001 71.1 67.9001C70.7 66.9001 70.5 65.8001 70.4 64.7001C70.4 64.6001 70.4 64.5001 70.4 64.4001C67.8 67.7001 64.6 69.7001 61 69.7001C55.2 69.7001 50.1 64.4001 47.6 56.6001C47.5 57.0001 47.5 57.4001 47.4 57.7001C48.4 59.9001 49.7 62.1001 51.1 64.2001C51.3 64.4001 51.5 64.6001 51.5 64.9001C51.6 65.8001 51.3 66.9001 50.9 67.8001C53.4 70.5001 57 72.1001 61 72.1001Z" fill="#F5FAFC"/>
<path d="M61 69.7998C66.8 69.7998 71.9 64.4998 74.4 56.6998C73.2 50.7998 67.6 46.2998 61 46.2998C54.4 46.2998 48.2 50.7998 47 56.6998C49.5 64.4998 55.2 69.7998 61 69.7998Z" fill="white"/>
<path d="M101.6 54.0001C105.7 53.6001 105 59.5001 104.6 61.4001C106.2 58.9001 107.5 55.8001 107.9 53.0001C107.3 52.8001 105.2 52.1001 103.9 50.9001C102.4 49.5001 102.3 45.7001 104 45.7001C106.8 45.7001 107.7 50.8001 108 52.5001C108 52.1001 108.1 51.8001 108.1 51.5001C108.1 49.3001 108.5 46.5001 109.1 43.9001C108.4 43.7001 106.5 43.1001 105.5 42.4001C104.3 41.6001 103.1 37.5001 105 37.5001C107.7 37.5001 108.8 41.7001 109.2 43.3001C109.8 40.6001 110.7 38.0001 111.7 36.3001C111.7 35.5001 111.8 33.7001 112.2 32.4001C112.7 30.7001 115.7 27.8001 117.2 30.0001C119.8 34.1001 113.5 36.2001 112 36.6001C111.1 38.2001 110.2 40.7001 109.6 43.4001C111 41.7001 116.2 35.5001 119 40.0001C120.1 41.7001 116 43.9001 113.5 44.1001C111.6 44.3001 110 44.0001 109.5 43.9001C108.9 46.5001 108.6 49.2001 108.5 51.4001C108.5 51.8001 108.5 52.2001 108.4 52.6001C109.7 51.2001 115.6 45.2001 119 49.5001C120.4 51.3001 116 53.4001 114 53.7001C112.3 54.0001 109.2 53.2001 108.4 52.9001C108 55.7001 106.7 58.8001 105.1 61.3001C106.9 59.7001 112.2 55.8001 114.1 59.9001C115.2 62.3001 110.4 62.6001 109 62.7001C107.8 62.7001 105.4 62.2001 104.7 62.0001C103.5 63.7001 102.2 65.0001 101 65.5001C100.9 65.5001 100.9 65.5001 100.8 65.5001C100.7 65.5001 100.7 65.4001 100.7 65.4001C100.6 65.3001 100.7 65.2001 100.8 65.1001C102 64.6001 103.2 63.3001 104.3 61.7001C103.8 61.3001 102.4 60.1001 101.5 59.1001C100.4 57.9001 99.3 54.2001 101.6 54.0001Z" fill="#7BC163"/>
<path d="M113 55.8001L95.6999 51.6001L78.4 55.8001C78.4 55.8001 76.5999 72.9001 80.4999 80.7001C84.3999 88.4001 93.3999 96.3001 95.6999 96.3001C97.9999 96.3001 107.1 88.4001 110.9 80.7001C114.8 73.0001 113 55.8001 113 55.8001Z" fill="#FFDB00"/>
<path d="M95.7 93.7999C95.1 93.7999 94.3 93.3999 93.1 92.5999C92 91.7999 90.7 90.6999 89.4 89.4999C86.3 86.4999 83.7 83.0999 82.2 80.0999C80.8 77.2999 80 72.6999 80 66.5999C80 62.0999 80.4 58.2999 80.4 58.2999C80.4 58.1999 80.5 58.0999 80.6 57.9999L95.7 54.3999H95.8L110.9 57.9999C111 57.9999 111.1 58.0999 111.1 58.2999C111.1 58.2999 111.5 62.0999 111.5 66.5999C111.5 72.6999 110.7 77.2999 109.3 80.0999C107.8 83.0999 105.2 86.4999 102.1 89.4999C100.8 90.7999 99.5 91.8999 98.4 92.5999C97.1 93.3999 96.2 93.7999 95.7 93.7999ZM80.9 58.3999C80.8 59.2999 80.5 62.5999 80.6 66.4999C80.6 72.3999 81.4 76.9999 82.7 79.6999C84.2 82.5999 86.8 85.9999 89.8 88.9999C92.6 91.7999 94.9 93.1999 95.7 93.1999C96.5 93.1999 98.8 91.7999 101.6 88.9999C104.6 86.0999 107.2 82.6999 108.7 79.6999C110.1 76.9999 110.8 72.3999 110.8 66.4999C110.8 62.5999 110.5 59.2999 110.5 58.3999L95.7 54.7999L80.9 58.3999Z" fill="white"/>
</g>
<defs>
<clipPath id="clip0">
<rect width="119.2" height="96.3" fill="white"/>
</clipPath>
</defs>
</svg>
