<svg width="30" height="32" viewBox="0 0 30 32" fill="none" xmlns="http://www.w3.org/2000/svg">
<g clip-path="url(#clip0)">
<path d="M16.4 8.80078C15.6 9.60078 14.3 9.60078 13.5 8.80078C12.7 8.00078 12.7 6.70078 13.5 5.90078C14.3 5.10078 15.6 5.10078 16.4 5.90078C17.2 6.70078 17.2 8.00078 16.4 8.80078Z" fill="#0F8E70"/>
<path d="M19.2 11.9002C19 11.9002 18.7 11.8002 18.5 11.6002C18.1 11.2002 18.1 10.6002 18.5 10.2002C19.3 9.4002 19.7 8.4002 19.7 7.3002C19.7 6.2002 19.3 5.2002 18.5 4.4002C18.1 4.0002 18.1 3.4002 18.5 3.0002C18.9 2.6002 19.5 2.6002 19.9 3.0002C21 4.1002 21.7 5.6002 21.7 7.2002C21.7 8.8002 21.1 10.3002 19.9 11.4002C19.7 11.8002 19.5 11.9002 19.2 11.9002Z" fill="#0F8E70"/>
<path d="M21.4 14.7004C21.2 14.7004 20.9 14.6004 20.7 14.4004C20.3 14.0004 20.3 13.4004 20.7 13.0004C22.2 11.5004 23.1 9.50039 23.1 7.30039C23.1 5.10039 22.3 3.10039 20.7 1.60039C20.3 1.20039 20.3 0.600391 20.7 0.200391C21.1 -0.199609 21.7 -0.199609 22.1 0.200391C24 2.20039 25 4.70039 25 7.40039C25 10.1004 24 12.6004 22.1 14.5004C21.9 14.6004 21.6 14.7004 21.4 14.7004Z" fill="#0F8E70"/>
<path d="M10.8 11.9004C10.6 11.9004 10.3 11.8004 10.1 11.6004C8.99999 10.4004 8.29999 8.90039 8.29999 7.40039C8.29999 5.80039 8.89999 4.30039 10.1 3.20039C10.5 2.80039 11.1 2.80039 11.5 3.20039C11.9 3.60039 11.9 4.20039 11.5 4.60039C10.7 5.40039 10.3 6.40039 10.3 7.50039C10.3 8.60039 10.7 9.60039 11.5 10.4004C11.9 10.8004 11.9 11.4004 11.5 11.8004C11.3 11.8004 11 11.9004 10.8 11.9004Z" fill="#0F8E70"/>
<path d="M8.6 14.7C8.4 14.7 8.1 14.6 7.9 14.4C6 12.5 5 10 5 7.4C5 4.7 6 2.2 7.9 0.3C8.3 -0.1 8.9 -0.1 9.3 0.3C9.7 0.7 9.7 1.3 9.3 1.7C7.7 3.2 6.9 5.2 6.9 7.4C6.9 9.6 7.7 11.6 9.3 13.1C9.7 13.5 9.7 14.1 9.3 14.5C9.1 14.6 8.8 14.7 8.6 14.7Z" fill="#0F8E70"/>
<path d="M27.7 16.4004H2.3C1.1 16.4004 0 17.4004 0 18.7004V29.8004C0 31.0004 1 32.0004 2.3 32.0004H27.8C29 32.0004 30.1 31.0004 30.1 29.7004V18.6004C30 17.4004 29 16.4004 27.7 16.4004ZM7.4 29.1004H3.9C3.4 29.1004 2.9 28.7004 2.9 28.1004V20.2004C2.9 19.7004 3.3 19.2004 3.9 19.2004C4.4 19.2004 4.9 19.6004 4.9 20.2004V27.1004H7.5C8 27.1004 8.5 27.5004 8.5 28.1004C8.5 28.7004 8 29.1004 7.4 29.1004ZM11.4 28.1004C11.4 28.6004 11 29.1004 10.4 29.1004C9.9 29.1004 9.4 28.7004 9.4 28.1004V20.2004C9.4 19.7004 9.8 19.2004 10.4 19.2004C10.9 19.2004 11.4 19.6004 11.4 20.2004V28.1004ZM19.5 20.5004L17.1 28.4004C16.8 29.3004 15.5 29.3004 15.3 28.4004L12.9 20.5004C12.7 20.0004 13 19.5004 13.5 19.3004C14 19.1004 14.5 19.4004 14.7 19.9004L16.2 24.7004L17.7 19.9004C17.9 19.4004 18.4 19.1004 18.9 19.3004C19.4 19.5004 19.7 20.0004 19.5 20.5004ZM25.5 22.7004C26 22.7004 26.5 23.1004 26.5 23.7004C26.5 24.2004 26.1 24.7004 25.5 24.7004H22.8V27.2004H26C26.5 27.2004 27 27.6004 27 28.2004C27 28.8004 26.6 29.2004 26 29.2004H21.8C21.3 29.2004 20.8 28.8004 20.8 28.2004V20.3004C20.8 19.8004 21.2 19.3004 21.8 19.3004H26.2C26.7 19.3004 27.2 19.7004 27.2 20.3004C27.2 20.8004 26.8 21.3004 26.2 21.3004H22.8V22.8004H25.5V22.7004Z" fill="#0F8E70"/>
</g>
<defs>
<clipPath id="clip0">
<rect width="30" height="32" fill="white"/>
</clipPath>
</defs>
</svg>
