<svg width="40" height="37" viewBox="0 0 40 37" fill="none" xmlns="http://www.w3.org/2000/svg">
<g clip-path="url(#clip0)">
<path d="M22.2 18.036C25 17.6396 27.8 18.8288 29.8 21.009C30 21.2072 30.2 21.2072 30.4 21.009C31.2 20.4144 32 19.6216 32.4 18.8288C35.8 13.4774 32 6.34229 25.4 6.34229C21.2 6.34229 17.6 9.51346 17.2 13.6756C17.2 13.8738 17.2 14.072 17.4 14.072C19.2 14.8648 20.8 16.054 21.8 17.8378C22 17.8378 22 18.036 22.2 18.036Z" fill="#617882" fill-opacity="0.5"/>
<path d="M25.4 4.95496C26.2 4.95496 26.6 4.36036 26.6 3.76577V1.18919C26.6 0.396396 26 0 25.4 0C24.6 0 24.2 0.594595 24.2 1.18919V3.76577C24.2 4.55856 24.8 4.95496 25.4 4.95496Z" fill="#617882" fill-opacity="0.5"/>
<path d="M38.8 13.2793H36.2C35.4 13.2793 35 13.8739 35 14.4685C35 15.2613 35.6 15.6577 36.2 15.6577H38.8C39.6 15.6577 40 15.0631 40 14.4685C40 13.6757 39.4 13.2793 38.8 13.2793Z" fill="#617882" fill-opacity="0.5"/>
<path d="M34 21.0087C33.6 20.6123 32.8 20.6123 32.2 21.0087C31.8 21.4051 31.8 22.1979 32.2 22.7925L34 24.5763C34.2 24.7745 34.6 24.9727 34.8 24.9727C36 24.9727 36.4 23.5853 35.6 22.7925L34 21.0087Z" fill="#617882" fill-opacity="0.5"/>
<path d="M17 7.72961C17.4 8.12601 18.2 8.12601 18.8 7.72961C19.2 7.33321 19.2 6.54042 18.8 5.94583L17 4.16204C16.6 3.76565 15.8 3.76565 15.2 4.16204C14.6 4.75664 14.6 5.54943 15.2 5.94583L17 7.72961Z" fill="#617882" fill-opacity="0.5"/>
<path d="M33 8.12601C33.4 8.12601 33.6 7.92781 33.8 7.72961L35.8 5.94583C36.2 5.54943 36.2 4.75664 35.8 4.16204C35.4 3.76565 34.6 3.76565 34 4.16204L32.2 5.94583C31.4 6.73862 32 8.12601 33 8.12601Z" fill="#617882" fill-opacity="0.5"/>
<path d="M29.6 26.3602C30.6 21.6034 25.6 17.8377 21.2 20.0179C20.2 16.8467 17.4 14.6665 14 14.6665C9.6 14.6665 6 18.4323 6.4 22.7926C2.8 23.189 0 26.162 0 29.7296C0 33.4953 3.2 36.6665 7 36.6665H29.6C32.4 36.6665 34.8 34.2881 34.8 31.5134C34.8 28.7386 32.6 26.3602 29.6 26.3602Z" fill="#617882" fill-opacity="0.5"/>
</g>
<defs>
<clipPath id="clip0">
<rect width="40" height="36.6667" fill="white"/>
</clipPath>
</defs>
</svg>
