<svg width="24" height="24" viewBox="0 0 24 24" fill="none" xmlns="http://www.w3.org/2000/svg">
<path d="M18.8 13.6C17.2 13.6 15.7 14.4 14.7 15.7L10.3 13.5C10.4 13 10.5 12.5 10.5 12.1C10.5 11.7 10.4 11.2 10.3 10.7L14.7 8.5C15.7 9.8 17.2 10.6 18.8 10.6C21.7 10.6 24 8.3 24 5.4C24 2.5 21.7 0 18.8 0C15.9 0 13.6 2.3 13.6 5.2C13.6 5.6 13.7 6.1 13.8 6.6L9.3 8.8C8.3 7.5 6.8 6.7 5.2 6.7C2.3 6.8 0 9.1 0 12C0 14.9 2.3 17.2 5.2 17.2C6.8 17.2 8.3 16.4 9.3 15.1L13.7 17.3C13.6 17.8 13.5 18.3 13.5 18.7C13.5 21.6 15.8 23.9 18.7 23.9C21.6 23.9 23.9 21.6 23.9 18.7C24 15.9 21.7 13.6 18.8 13.6ZM22.1 18.8C22.1 20.6 20.6 22.1 18.8 22.1C17 22.1 15.5 20.6 15.5 18.8C15.5 17 17 15.5 18.8 15.5C20.6 15.5 22.1 17 22.1 18.8ZM15.5 5.2C15.5 3.4 17 1.9 18.8 1.9C20.6 1.9 22.1 3.4 22.1 5.2C22.1 7 20.6 8.5 18.8 8.5C17 8.5 15.5 7 15.5 5.2ZM8.5 12C8.5 13.8 7 15.3 5.2 15.3C3.4 15.3 1.9 13.8 1.9 12C1.9 10.2 3.4 8.7 5.2 8.7C7 8.7 8.5 10.2 8.5 12Z" fill="white"/>
</svg>
