<svg width="16" height="16" viewBox="0 0 16 16" fill="none" xmlns="http://www.w3.org/2000/svg">
    <g clip-path="url(#clip0)">
        <path d="M9.4002 2.10011C9.8002 2.10011 10.1002 1.80011 10.1002 1.40011C10.1002 1.00011 9.8002 0.700112 9.5002 0.700112C9.1002 0.600112 8.7002 1.00011 8.7002 1.40011C8.7002 1.70011 9.0002 2.10011 9.4002 2.10011Z" fill="#EE0033"/>
        <path d="M15.5003 8.70029C15.5003 8.70029 15.4003 8.70029 15.5003 8.70029C15.4003 8.60029 15.4003 8.50029 15.4003 8.50029C15.4003 8.50029 15.3003 8.50029 15.3003 8.40029L15.2003 8.30029H15.1003H15.0003C14.6003 8.30029 14.3003 8.60029 14.3003 8.90029C14.3003 9.00029 14.3003 9.20029 14.4003 9.30029C14.4003 9.40029 14.5003 9.40029 14.6003 9.50029C14.6003 9.50029 14.6003 9.50029 14.7003 9.60029C14.8003 9.70029 14.9003 9.70029 15.0003 9.70029C15.4003 9.70029 15.7003 9.40029 15.7003 9.10029C15.5003 8.90029 15.5003 8.80029 15.5003 8.70029Z" fill="#EE0033"/>
        <path d="M13.9 6.6002C13.9 6.7002 13.9 6.7002 14 6.8002C14.1 6.9002 14.1 7.0002 14.2 7.0002C14.2 7.0002 14.2 7.0002 14.3 7.0002C14.4 7.1002 14.5 7.1002 14.6 7.1002C14.7 7.1002 14.7 7.1002 14.8 7.1002C15.2 7.0002 15.4 6.6002 15.3 6.2002C15.3 6.1002 15.2 6.0002 15.2 6.0002C15.2 6.0002 15.2 6.0002 15.1 5.9002L15 5.8002H14.9C14.9 5.8002 14.8 5.8002 14.8 5.7002H14.7C14.7 5.7002 14.7 5.7002 14.6 5.7002C14.5 5.7002 14.5 5.7002 14.4 5.7002C14.1 5.8002 13.8 6.2002 13.9 6.6002Z" fill="#EE0033"/>
        <path d="M12.9001 4.5C13.0001 4.5 13.0001 4.5 12.9001 4.5C13.0001 4.6 13.0001 4.7 13.1001 4.7L13.2001 4.8C13.3001 4.9 13.4001 4.9 13.5001 4.9C13.6001 4.9 13.6001 4.9 13.7001 4.9C13.8001 4.9 13.8001 4.9 13.9001 4.8C14.0001 4.8 14.0001 4.7 14.0001 4.6C14.0001 4.6 14.0001 4.6 14.0001 4.5C14.0001 4.4 14.1001 4.4 14.1001 4.3C14.1001 4.2 14.1001 4.2 14.1001 4.1C14.1001 4.1 14.1001 4.1 14.1001 4C14.1001 3.9 14.0001 3.8 14.0001 3.8C14.0001 3.6 14.0001 3.6 13.9001 3.5H13.8001C13.7001 3.5 13.7001 3.5 13.6001 3.5C13.6001 3.5 13.6001 3.5 13.5001 3.5C13.4001 3.5 13.2001 3.5 13.1001 3.6C12.8001 3.8 12.8001 4.2 12.9001 4.5Z" fill="#EE0033"/>
        <path d="M11.0999 2.7001C11.0999 2.7001 11.0999 2.8001 11.0999 2.7001C11.1999 2.8001 11.1999 2.8001 11.1999 2.8001C11.1999 2.8001 11.1999 2.8001 11.2999 2.9001C11.2999 2.9001 11.2999 2.9001 11.3999 3.0001H11.4999C11.4999 3.0001 11.4999 3.0001 11.5999 3.0001C11.6999 3.0001 11.6999 3.0001 11.7999 3.0001C11.9999 3.0001 12.1999 2.9001 12.3999 2.7001C12.5999 2.4001 12.4999 1.9001 12.1999 1.7001C12.0999 1.7001 11.9999 1.6001 11.9999 1.6001H11.8999H11.7999C11.5999 1.6001 11.3999 1.7001 11.1999 1.9001C10.9999 2.2001 10.9999 2.5001 11.0999 2.7001Z" fill="#EE0033"/>
        <path d="M14.1999 10.7002C14.1999 10.7002 14.0999 10.7002 14.1999 10.7002C14.0999 10.7002 14.0999 10.7002 14.1999 10.7002C13.6999 10.7002 13.3999 11.0002 13.3999 11.4002C13.3999 11.5002 13.3999 11.6002 13.4999 11.7002C13.4999 11.8002 13.5999 11.8002 13.6999 11.9002C13.6999 11.9002 13.6999 11.9002 13.7999 12.0002C13.8999 12.1002 13.9999 12.1002 14.0999 12.1002C14.1999 12.1002 14.2999 12.1002 14.3999 12.0002C14.5999 11.9002 14.7999 11.7002 14.7999 11.4002C14.7999 11.0002 14.5999 10.7002 14.1999 10.7002Z" fill="#EE0033"/>
        <path d="M13.0001 12.6002C12.8001 12.5002 12.5001 12.6002 12.3001 12.8002C11.2001 13.9002 9.60006 14.6002 8.00006 14.7002C4.50006 14.8002 1.50006 12.0002 1.40006 8.50023C1.30006 5.90023 2.70006 3.60023 4.90006 2.50023L5.10006 3.40023C5.20006 3.60023 5.40006 3.70023 5.60006 3.50023L7.70006 1.30023C7.90006 1.30023 7.80006 1.00023 7.60006 1.00023L4.70006 0.000231445C4.50006 -0.0997686 4.30006 0.100231 4.40006 0.300231L4.60006 1.10023C1.70006 2.40023 -0.0999442 5.30023 5.58207e-05 8.40023C0.100056 11.2002 1.60006 13.6002 3.80006 14.9002C3.80006 14.9002 3.80006 14.9002 3.70006 14.9002C3.70006 14.9002 3.80006 14.9002 3.80006 15.0002C4.00006 15.1002 4.30006 15.2002 4.50006 15.4002C4.60006 15.4002 4.60006 15.5002 4.70006 15.5002C5.00006 15.6002 5.30006 15.7002 5.60006 15.8002C5.70006 15.8002 5.70006 15.8002 5.80006 15.8002C6.10006 15.9002 6.30006 15.9002 6.60006 16.0002C6.70006 16.0002 6.80006 16.0002 6.90006 16.0002C7.20006 16.0002 7.60006 16.1002 7.90006 16.0002C8.90006 16.0002 9.90006 15.8002 10.8001 15.4002C11.7001 15.0002 12.5001 14.5002 13.2001 13.8002C13.3001 13.7002 13.4001 13.5002 13.4001 13.3002C13.4001 13.1002 13.3001 12.9002 13.1001 12.8002C13.2001 12.6002 13.1001 12.6002 13.0001 12.6002Z" fill="#EE0033"/>
    </g>
    <defs>
        <clipPath id="clip0">
            <rect width="15.5" height="16" fill="white"/>
        </clipPath>
    </defs>
</svg>
