<svg width="24" height="24" viewBox="0 0 24 24" fill="none" xmlns="http://www.w3.org/2000/svg">
<g clip-path="url(#clip0)">
<path d="M21.45 0H18C17.55 0 17.25 0.3 17.25 0.75C17.25 1.2 17.55 1.5 18 1.5H21.3C21.9 1.5 22.5 2.1 22.5 2.7V6C22.5 6.45 22.8 6.75 23.25 6.75C23.7 6.6 24 6.3 24 6V2.55C24 1.2 22.8 0 21.45 0Z" fill="#0F8E70"/>
<path d="M0.75 6.6C1.2 6.6 1.5 6.3 1.5 5.85V2.55C1.5 1.95 2.1 1.35 2.7 1.35H6C6.45 1.35 6.75 1.05 6.75 0.6C6.75 0.15 6.3 0 6 0H2.55C1.2 0 0 1.2 0 2.55V6C0 6.3 0.3 6.6 0.75 6.6Z" fill="#0F8E70"/>
<path d="M6 22.65H2.55C1.95 22.65 1.35 22.05 1.35 21.45V18C1.35 17.55 1.05 17.25 0.6 17.25C0.3 17.4 0 17.7 0 18V21.3C0 22.8 1.2 23.85 2.55 23.85H6C6.45 23.85 6.75 23.55 6.75 23.1C6.6 22.95 6.3 22.65 6 22.65Z" fill="#0F8E70"/>
<path d="M23.25 17.4C22.8 17.4 22.5 17.7 22.5 18.15V21.45C22.5 22.05 21.9 22.65 21.3 22.65H18C17.55 22.65 17.25 22.95 17.25 23.4C17.25 23.85 17.55 24.15 18 24.15H21.3C22.8 24.15 23.85 22.95 23.85 21.6V18C24 17.7 23.7 17.4 23.25 17.4Z" fill="#0F8E70"/>
<path d="M19.6501 4.64995C14.7001 1.04995 9.45005 0.899947 4.50005 4.64995C4.20005 4.79995 4.05005 5.24995 4.35005 5.54995C4.50005 5.84995 4.95005 5.99995 5.25005 5.69995C9.75005 2.39995 14.4 2.54995 18.75 5.69995C19.05 5.99995 19.5 5.99995 19.8 5.69995C19.95 5.39995 19.9501 4.94995 19.6501 4.64995Z" fill="#0F8E70"/>
<path d="M12 4.95003C9.00005 4.95003 5.10005 6.90003 3.60005 9.45003C3.30005 9.75003 3.45005 10.05 3.75005 10.35C4.05005 10.5 4.50005 10.5 4.65005 10.2C6.00005 8.10003 9.45005 6.30003 12 6.30003C14.55 6.30003 17.85 7.65003 19.2 10.05C19.35 10.35 19.65 10.5 19.95 10.5C20.55 10.5 20.85 9.90003 20.55 9.45003C18.9 6.60003 15.15 4.95003 12 4.95003Z" fill="#0F8E70"/>
<path d="M8.25 16.5C8.25 14.25 9.9 12.3 12 12.3C14.1 12.3 15.75 14.1 15.75 16.5V17.25C15.75 17.7 16.05 18 16.5 18C16.95 18 17.25 17.7 17.25 17.25V16.5C17.25 13.35 14.85 10.95 12 10.95C9.15 10.95 6.75 13.35 6.75 16.5C6.75 19.5 9 21.15 10.05 22.5C10.2 22.65 10.35 22.8 10.65 22.8C11.25 22.8 11.55 22.2 11.25 21.75C10.05 20.1 8.25 18.9 8.25 16.5Z" fill="#0F8E70"/>
<path d="M19.8 19.05C21.9 14.7 18 7.95003 12 7.95003C7.8 7.95003 3.75 11.55 3.75 16.2C3.75 17.85 3.9 19.2 4.95 20.7C5.25 21 5.7 21 6 20.85C6.3 20.55 6.45 20.25 6.15 19.8C5.4 18.75 5.1 17.85 5.1 16.05C5.1 12.45 8.25 9.30003 11.85 9.30003C13.65 9.30003 15.45 10.05 16.8 11.55C18.6 13.5 19.35 16.5 18.3 18.45C17.25 20.55 13.95 19.95 13.95 17.25C13.95 12 8.55 13.65 9.6 17.4C9.9 17.85 10.35 18 10.65 18C11.1 17.85 11.25 17.55 11.1 17.1C10.8 16.05 11.25 15.3 11.85 15.3C12.45 15.3 12.6 16.2 12.6 17.25C12.75 21.3 18 22.5 19.8 19.05Z" fill="#0F8E70"/>
</g>
<defs>
<clipPath id="clip0">
<rect width="24" height="24" fill="white"/>
</clipPath>
</defs>
</svg>
