<svg width="36" height="31" viewBox="0 0 36 31" fill="none" xmlns="http://www.w3.org/2000/svg">
<g clip-path="url(#clip0)">
<path d="M35.64 27.18L19.8 1.08C19.44 0.36 18.72 0 18 0C17.28 0 16.56 0.36 16.2 1.08L0.360027 27.18C2.68593e-05 27.9 2.68593e-05 28.8 0.360027 29.34C0.720027 30.24 1.44003 30.6 2.16003 30.6H33.66C34.38 30.6 35.1 30.24 35.64 29.52C36.18 28.8 36.18 27.9 35.64 27.18ZM18 9C18.9 9 19.62 9.54 19.62 10.44C19.62 13.14 19.26 17.1 19.26 19.98C19.26 20.7 18.54 21.06 18 21.06C17.28 21.06 16.56 20.7 16.56 19.98C16.56 17.28 16.2 13.32 16.2 10.44C16.38 9.54 17.1 9 18 9ZM18 26.28C16.92 26.28 16.2 25.38 16.2 24.48C16.2 23.58 16.92 22.68 18 22.68C18.9 22.68 19.8 23.58 19.8 24.48C19.8 25.38 18.9 26.28 18 26.28Z" fill="#617882" fill-opacity="0.5"/>
</g>
<defs>
<clipPath id="clip0">
<rect width="36" height="30.6" fill="white"/>
</clipPath>
</defs>
</svg>
