<svg width="23" height="23" viewBox="0 0 23 23" fill="none" xmlns="http://www.w3.org/2000/svg">
<path d="M11.5 0C5.175 0 0 5.175 0 11.5C0 17.825 5.175 23 11.5 23C17.825 23 23 17.825 23 11.5C23 5.175 17.825 0 11.5 0ZM17.25 9.05625L10.6375 15.3812C10.4938 15.525 10.2063 15.6687 10.0625 15.6687C9.775 15.6687 9.63125 15.525 9.34375 15.3812L5.75 11.7875C5.4625 11.3562 5.4625 10.7812 5.75 10.35C6.18125 10.0625 6.75625 10.0625 7.1875 10.35L10.0625 13.225L15.9563 7.61875C16.3875 7.33125 16.9625 7.33125 17.25 7.61875C17.5375 8.05 17.5375 8.625 17.25 9.05625Z" fill="#EE0033"/>
</svg>
