<svg width="20" height="20" viewBox="0 0 20 20" fill="none" xmlns="http://www.w3.org/2000/svg">
<g id="photo_size_select_actual_24px">
<path id="icon/image/photo_size_select_actual_24px" fill-rule="evenodd" clip-rule="evenodd" d="M17.5002 2.5H2.50016C1.66683 2.5 0.833496 3.33333 0.833496 4.16667V15.8333C0.833496 16.75 1.5835 17.5 2.50016 17.5H17.5002C18.3335 17.5 19.1668 16.6667 19.1668 15.8333V4.16667C19.1668 3.33333 18.3335 2.5 17.5002 2.5ZM17.5002 15.7667C17.4885 15.7841 17.4688 15.8015 17.4523 15.8161C17.4451 15.8225 17.4385 15.8283 17.4335 15.8333H2.50016V4.23333L2.56683 4.16667H17.4252C17.4426 4.17829 17.46 4.19801 17.4746 4.21454C17.481 4.22171 17.4868 4.22829 17.4918 4.23333V15.7667H17.5002ZM7.0835 10.4167L9.16683 12.925L12.0835 9.16667L15.8335 14.1667H4.16683L7.0835 10.4167Z" fill="black" fill-opacity="0.54"/>
</g>
</svg>
