<svg width="18" height="20" viewBox="0 0 18 20" fill="none" xmlns="http://www.w3.org/2000/svg">
<path d="M5 3C4.4 3 4 2.6 4 2V1C4 0.4 4.4 0 5 0C5.6 0 6 0.4 6 1V2C6 2.6 5.6 3 5 3Z" fill="#617882" fill-opacity="0.8"/>
<path d="M13 3C12.4 3 12 2.6 12 2V1C12 0.4 12.4 0 13 0C13.6 0 14 0.4 14 1V2C14 2.6 13.6 3 13 3Z" fill="#617882" fill-opacity="0.8"/>
<path d="M16 2H14H12H6H4H2C0.9 2 0 2.9 0 4V18C0 19.1 0.9 20 2 20H16C17.1 20 18 19.1 18 18V4C18 2.9 17.1 2 16 2ZM5 16C4.4 16 4 15.6 4 15C4 14.4 4.4 14 5 14C5.6 14 6 14.4 6 15C6 15.6 5.6 16 5 16ZM5 12C4.4 12 4 11.6 4 11C4 10.4 4.4 10 5 10C5.6 10 6 10.4 6 11C6 11.6 5.6 12 5 12ZM9 16C8.4 16 8 15.6 8 15C8 14.4 8.4 14 9 14C9.6 14 10 14.4 10 15C10 15.6 9.6 16 9 16ZM9 12C8.4 12 8 11.6 8 11C8 10.4 8.4 10 9 10C9.6 10 10 10.4 10 11C10 11.6 9.6 12 9 12ZM13 16C12.4 16 12 15.6 12 15C12 14.4 12.4 14 13 14C13.6 14 14 14.4 14 15C14 15.6 13.6 16 13 16ZM13 12C12.4 12 12 11.6 12 11C12 10.4 12.4 10 13 10C13.6 10 14 10.4 14 11C14 11.6 13.6 12 13 12ZM16 6H2V4H16V6Z" fill="#617882" fill-opacity="0.8"/>
</svg>
