<svg width="30" height="30" viewBox="0 0 30 30" fill="none" xmlns="http://www.w3.org/2000/svg">
<path d="M15 30C23.2843 30 30 23.2843 30 15C30 6.71573 23.2843 0 15 0C6.71573 0 0 6.71573 0 15C0 23.2843 6.71573 30 15 30Z" fill="#FFCA28"/>
<path d="M21.6 14.9998C21.4 14.9998 21.2 14.8998 21 14.7998L17.3 11.9998C17.1 11.7998 16.9 11.4998 16.9 11.1998C16.9 10.8998 17 10.5998 17.3 10.3998L21 7.69982C21.4 7.39982 22 7.49982 22.3 7.89982C22.6 8.29982 22.5 8.89982 22.1 9.19982L19.4 11.2998L22.2 13.3998C22.6 13.6998 22.7 14.2998 22.4 14.6998C22.1 14.8998 21.8 14.9998 21.6 14.9998Z" fill="#6D4C41"/>
<path d="M8.40001 14.9998C8.10001 14.9998 7.80001 14.8998 7.70001 14.5998C7.40001 14.1998 7.50001 13.5998 7.90001 13.2998L10.7 11.1998L7.90001 9.19982C7.50001 8.89982 7.40001 8.29982 7.70001 7.89982C8.00001 7.49982 8.60001 7.39982 9.00001 7.69982L12.8 10.4998C13 10.6998 13.2 10.9998 13.2 11.2998C13.2 11.5998 13 11.7998 12.8 11.9998L9.00001 14.7998C8.80001 14.8998 8.60001 14.9998 8.40001 14.9998Z" fill="#6D4C41"/>
<path d="M22.5 22.4996C22.4 22.4996 22.2 22.4996 22.1 22.3996L18.8 20.6996L15.5 22.3996C15.2 22.4996 14.9 22.4996 14.7 22.3996L11.4 20.6996L8.1 22.3996C7.6 22.5996 7.1 22.3996 6.8 21.9996C6.6 21.4996 6.8 20.9996 7.2 20.6996L11 18.7996C11.3 18.6996 11.6 18.6996 11.8 18.7996L15.1 20.4996L18.4 18.7996C18.7 18.6996 19 18.6996 19.2 18.7996L23 20.6996C23.5 20.8996 23.7 21.4996 23.4 21.9996C23.2 22.2996 22.8 22.4996 22.5 22.4996Z" fill="#6D4C41"/>
</svg>
