<svg width="17" height="16" viewBox="0 0 17 16" fill="none" xmlns="http://www.w3.org/2000/svg">
<g clip-path="url(#clip0)">
<rect width="16.7686" height="16" fill="white"/>
<path d="M16.7686 6.0786C16.6987 5.869 16.559 5.79913 16.3493 5.72926L11.179 4.9607L8.87336 0.279476C8.73362 0.139738 8.59389 0 8.38428 0C8.17467 0 8.03493 0.139738 7.96507 0.279476L5.58952 4.9607L0.419214 5.72926C0.209607 5.79913 0.069869 5.869 0 6.0786C0 6.21834 0 6.42795 0.139738 6.56769L3.91266 10.2009L3.00437 15.3712C3.00437 15.5808 3.07424 15.7205 3.21397 15.8603C3.28384 15.9301 3.42358 15.9301 3.49345 15.9301C3.56332 15.9301 3.63319 15.9301 3.70306 15.8603L8.38428 13.4148L13.0655 15.8603C13.2052 15.9301 13.4148 15.9301 13.5546 15.7904C13.6943 15.6507 13.7642 15.5109 13.7642 15.3013L12.8559 10.131L16.6288 6.49782C16.7686 6.42795 16.7686 6.21834 16.7686 6.0786Z" fill="#E2B542"/>
</g>
<defs>
<clipPath id="clip0">
<rect width="16.7686" height="16" fill="white"/>
</clipPath>
</defs>
</svg>
