<svg width="23" height="23" viewBox="0 0 23 23" fill="none" xmlns="http://www.w3.org/2000/svg">
<path d="M17.5956 9.41757L17.6354 9.37947L17.666 9.3336C18.0655 8.7344 18.0655 7.9406 17.666 7.3414L17.6386 7.30021L17.6036 7.2652C17.3416 7.00323 16.9841 6.90313 16.657 6.90313C16.3253 6.90313 15.9771 7.0039 15.6789 7.20272L15.643 7.22669L15.6116 7.25647L10.0712 12.5266L7.54105 9.99645L7.50604 9.96144L7.46485 9.93397C6.86565 9.53451 6.07185 9.53451 5.47265 9.93397L5.38944 9.98944L5.33397 10.0726C4.93451 10.6718 4.93451 11.4656 5.33397 12.0648L5.36144 12.106L5.39645 12.1411L8.9902 15.7348L9.04757 15.7922L9.12014 15.8285C9.17763 15.8572 9.22942 15.8867 9.28705 15.9199C9.29168 15.9226 9.29642 15.9253 9.30126 15.9281C9.35245 15.9577 9.41531 15.994 9.47952 16.0261C9.6364 16.1046 9.82119 16.1688 10.0625 16.1688C10.2557 16.1688 10.4506 16.0876 10.5736 16.0261C10.7107 15.9576 10.8658 15.8586 10.9865 15.7393L17.5956 9.41757ZM0.5 11.5C0.5 5.45114 5.45114 0.5 11.5 0.5C17.5489 0.5 22.5 5.45114 22.5 11.5C22.5 17.5489 17.5489 22.5 11.5 22.5C5.45114 22.5 0.5 17.5489 0.5 11.5Z" stroke="#353739"/>
</svg>
