<svg width="16" height="13" viewBox="0 0 16 13" fill="none" xmlns="http://www.w3.org/2000/svg">
<g clip-path="url(#clip0)">
<path d="M15.8 5.6C15.5 5.2 15.1 4.9 14.5 4.9H13.5V2.9C13.5 2.3 13 1.8 12.4 1.8H6.8L5.8 0.4C5.6 0.2 5.2 0 4.9 0H1.1C0.5 0 0 0.5 0 1.1V11.3C0 11.9 0.5 12.4 1.2 12.4H12.7C12.9 12.4 13.2 12.3 13.3 12.1L15.9 6.9C16.1 6.5 16 6 15.8 5.6ZM3.9 6.3C4 6.2 4 6.2 4.1 6.2H14.5C14.6 6.2 14.7 6.2 14.7 6.3V6.4L12.3 11.2H1.6L3.9 6.3ZM12.3 4.9H4.1C3.6 4.9 3 5.2 2.8 5.7L1.3 9V1.3H4.8L5.8 2.7C6 2.9 6.3 3.1 6.7 3.1H12.3V4.9Z" fill="#617882"/>
</g>
<defs>
<clipPath id="clip0">
<rect width="16" height="12.5" fill="white"/>
</clipPath>
</defs>
</svg>
