<svg width="32" height="32" viewBox="0 0 32 32" fill="none" xmlns="http://www.w3.org/2000/svg">
<path d="M24 32H8C3.6 32 0 28.4 0 24V8C0 3.6 3.6 0 8 0H24C28.4 0 32 3.6 32 8V24C32 28.4 28.4 32 24 32Z" fill="url(#paint0_linear)"/>
<path d="M15.7 19L15.6 18.8C15.2 18.3 15.1 17.6 15.3 17C15.3 16.9 15.4 16.8 15.4 16.7C15.6 16.1 16.2 15.7 16.8 15.6H17.1C17.3 15.6 17.5 15.4 17.5 15.2V14.3C17.5 14.1 17.3 13.9 17.1 13.9H16.8C16.2 13.8 15.6 13.4 15.4 12.8C15.4 12.7 15.3 12.6 15.3 12.5C15 11.9 15.1 11.2 15.6 10.7L15.7 10.5C15.8 10.3 15.8 10.1 15.7 10L15 9.3C14.9 9.2 14.6 9.1 14.5 9.3L14.3 9.4C13.8 9.8 13.1 9.9 12.5 9.7C12.4 9.7 12.3 9.6 12.2 9.6C11.6 9.4 11.2 8.8 11.1 8.2V7.9C11.1 7.7 10.9 7.5 10.7 7.5H9.7C9.5 7.5 9.3 7.7 9.3 7.9V8.2C9.2 8.8 8.8 9.3 8.2 9.5C8.1 9.6 8 9.6 7.9 9.7C7.4 9.9 6.7 9.8 6.1 9.4L6 9.3C5.8 9.2 5.6 9.2 5.5 9.3L4.8 10C4.7 10.1 4.6 10.4 4.8 10.5L4.9 10.7C5.3 11.2 5.4 11.9 5.2 12.5C5.2 12.6 5.1 12.7 5.1 12.8C4.9 13.4 4.3 13.8 3.7 13.9H3.4C3.2 13.9 3 14.1 3 14.3V15.2C3 15.4 3.2 15.6 3.4 15.6H3.7C4.3 15.7 4.9 16.1 5.1 16.7C5.1 16.8 5.2 16.9 5.2 17C5.5 17.6 5.4 18.3 4.9 18.8L4.7 19C4.6 19.2 4.6 19.4 4.7 19.5L5.4 20.2C5.5 20.3 5.8 20.4 5.9 20.2L6.1 20.1C6.6 19.7 7.3 19.6 7.9 19.8C8 19.8 8.1 19.9 8.2 19.9C8.8 20.1 9.2 20.7 9.3 21.3V21.6C9.3 21.8 9.5 22 9.7 22H10.6C10.8 22 11 21.8 11 21.6V21.3C11.1 20.7 11.5 20.1 12.1 19.9C12.2 19.9 12.3 19.8 12.4 19.8C13 19.5 13.7 19.6 14.2 20.1L14.4 20.2C14.6 20.3 14.8 20.3 14.9 20.2L15.6 19.5C15.8 19.4 15.8 19.1 15.7 19ZM10.2 17.5C8.7 17.5 7.4 16.2 7.4 14.7C7.4 13.2 8.7 11.9 10.2 11.9C11.7 11.9 13 13.2 13 14.7C13 16.2 11.7 17.5 10.2 17.5Z" fill="white"/>
<path opacity="0.8" d="M26.6999 21.5998H26.4999C25.9999 21.4998 25.5999 21.1998 25.3999 20.7998C25.3999 20.6998 25.2999 20.5998 25.2999 20.5998C25.0999 20.0998 25.1999 19.5998 25.4999 19.1998L25.5999 19.0998C25.6999 18.8998 25.6999 18.6998 25.5999 18.5998L24.9999 17.7998C24.8999 17.6998 24.5999 17.5998 24.4999 17.7998L24.3999 17.8998C23.9999 18.1998 23.3999 18.2998 22.9999 18.0998C22.8999 18.0998 22.7999 17.9998 22.7999 17.9998C22.3999 17.7998 21.9999 17.3998 21.9999 16.8998V16.6998C21.9999 16.4998 21.7999 16.2998 21.5999 16.2998H20.7999C20.5999 16.2998 20.3999 16.4998 20.3999 16.6998V16.8998C20.2999 17.3998 19.9999 17.7998 19.5999 17.9998C19.4999 17.9998 19.3999 18.0998 19.3999 18.0998C18.8999 18.2998 18.3999 18.1998 17.9999 17.8998L17.8999 17.7998C17.6999 17.6998 17.4999 17.6998 17.3999 17.7998L16.8999 18.2998C16.7999 18.3998 16.6999 18.6998 16.8999 18.7998L16.9999 18.8998C17.2999 19.2998 17.3999 19.8998 17.1999 20.2998C17.1999 20.3998 17.0999 20.4998 17.0999 20.4998C16.8999 20.8998 16.4999 21.2998 15.9999 21.2998H15.7999C15.5999 21.2998 15.3999 21.4998 15.3999 21.6998V22.4998C15.3999 22.6998 15.5999 22.8998 15.7999 22.8998H15.9999C16.4999 22.9998 16.8999 23.2998 17.0999 23.6998C17.0999 23.7998 17.1999 23.8998 17.1999 23.8998C17.3999 24.3998 17.2999 24.8998 16.9999 25.2998L16.8999 25.3998C16.7999 25.5998 16.7999 25.7998 16.8999 25.8998L17.3999 26.3998C17.4999 26.4998 17.7999 26.5998 17.8999 26.3998L17.9999 26.2998C18.3999 25.9998 18.9999 25.8998 19.3999 26.0998C19.4999 26.0998 19.5999 26.1998 19.5999 26.1998C19.9999 26.3998 20.3999 26.7998 20.3999 27.2998V27.4998C20.3999 27.6998 20.5999 27.8998 20.7999 27.8998H21.5999C21.7999 27.8998 21.9999 27.6998 21.9999 27.4998V27.2998C22.0999 26.7998 22.3999 26.3998 22.7999 26.1998C22.8999 26.1998 22.9999 26.0998 22.9999 26.0998C23.4999 25.8998 23.9999 25.9998 24.3999 26.2998L24.4999 26.3998C24.6999 26.4998 24.8999 26.4998 24.9999 26.3998L25.4999 25.8998C25.5999 25.7998 25.6999 25.4998 25.4999 25.3998L25.3999 25.2998C25.0999 24.8998 24.9999 24.2998 25.1999 23.8998C25.1999 23.7998 25.2999 23.6998 25.2999 23.6998C25.4999 23.2998 25.8999 22.8998 26.3999 22.8998H26.5999C26.7999 22.8998 26.9999 22.6998 26.9999 22.4998V21.9998C26.9999 21.7998 26.8999 21.5998 26.6999 21.5998ZM20.9999 24.6998C19.6999 24.6998 18.5999 23.5998 18.5999 22.2998C18.5999 20.9998 19.6999 19.8998 20.9999 19.8998C22.2999 19.8998 23.3999 20.9998 23.3999 22.2998C23.3999 23.6998 22.2999 24.6998 20.9999 24.6998Z" fill="white"/>
<path opacity="0.6" d="M26.7 8.7998H26.5C26.1 8.6998 25.7 8.4998 25.6 8.0998C25.6 7.9998 25.5 7.9998 25.5 7.8998C25.3 7.4998 25.4 7.0998 25.7 6.6998L25.8 6.5998C25.9 6.3998 25.9 6.1998 25.8 6.0998L25.3 5.5998C25.2 5.4998 24.9 5.3998 24.8 5.5998L24.7 5.6998C24.3 5.9998 23.8 5.9998 23.4 5.8998C23.3 5.8998 23.3 5.7998 23.2 5.7998C22.8 5.6998 22.6 5.2998 22.5 4.8998V4.6998C22.5 4.4998 22.3 4.2998 22.1 4.2998H21.4C21.2 4.2998 21 4.4998 21 4.6998V4.8998C20.9 5.2998 20.7 5.6998 20.3 5.7998C20.2 5.7998 20.2 5.8998 20.1 5.8998C19.8 5.9998 19.3 5.9998 19 5.6998L18.9 5.5998C18.7 5.4998 18.5 5.4998 18.4 5.5998L17.9 6.0998C17.8 6.1998 17.7 6.4998 17.9 6.5998L18 6.6998C18.3 6.9998 18.3 7.4998 18.2 7.8998C18.1 7.9998 18 7.9998 18 8.0998C17.9 8.4998 17.5 8.6998 17.1 8.7998H16.9C16.7 8.7998 16.5 8.9998 16.5 9.1998V9.8998C16.5 10.0998 16.7 10.2998 16.9 10.2998H17.1C17.5 10.3998 17.9 10.5998 18 10.9998C18 11.0998 18.1 11.0998 18.1 11.1998C18.3 11.5998 18.2 11.9998 17.9 12.3998L17.8 12.4998C17.7 12.6998 17.7 12.8998 17.8 12.9998L18.3 13.4998C18.4 13.5998 18.7 13.6998 18.8 13.4998L18.9 13.3998C19.2 13.0998 19.7 13.0998 20.1 13.1998C20.2 13.1998 20.2 13.2998 20.3 13.2998C20.7 13.3998 20.9 13.7998 21 14.1998V14.3998C21 14.5998 21.2 14.7998 21.4 14.7998H22.1C22.3 14.7998 22.5 14.5998 22.5 14.3998V14.1998C22.6 13.7998 22.8 13.3998 23.2 13.2998C23.3 13.2998 23.3 13.1998 23.4 13.1998C23.8 12.9998 24.2 13.0998 24.6 13.3998L24.7 13.4998C24.9 13.5998 25.1 13.5998 25.2 13.4998L25.7 12.9998C25.8 12.8998 25.9 12.5998 25.7 12.4998L25.6 12.3998C25.3 12.0998 25.3 11.5998 25.4 11.1998C25.4 11.0998 25.5 11.0998 25.5 10.9998C25.6 10.5998 26 10.3998 26.4 10.2998H26.6C26.8 10.2998 27 10.0998 27 9.8998V9.1998C27 8.9998 26.9 8.7998 26.7 8.7998ZM21.8 11.0998C20.9 11.0998 20.2 10.3998 20.2 9.4998C20.2 8.5998 20.9 7.8998 21.8 7.8998C22.7 7.8998 23.4 8.5998 23.4 9.4998C23.4 10.3998 22.7 11.0998 21.8 11.0998Z" fill="white"/>
<defs>
<linearGradient id="paint0_linear" x1="4.875" y1="27.125" x2="26.5004" y2="5.4996" gradientUnits="userSpaceOnUse">
<stop stop-color="#01A7A3"/>
<stop offset="1" stop-color="#73D483"/>
</linearGradient>
</defs>
</svg>
