<svg width="20" height="19" viewBox="0 0 20 19" fill="none" xmlns="http://www.w3.org/2000/svg">
<g clip-path="url(#clip0)">
<path d="M13.1765 11.2155C14.1176 10.5881 14.7451 9.49002 14.7451 8.31355H13.098V7.37237L13.1765 7.29394C14.1176 6.66649 14.7451 5.56845 14.7451 4.39198H13.098V4.15669C13.098 3.84296 12.8627 3.6861 12.6274 3.6861H7.37253C7.05881 3.60767 6.82351 3.84296 6.82351 4.15669V4.47041H5.17645C5.17645 5.64688 5.72547 6.74492 6.74508 7.37237L6.82351 7.45081V8.31355H5.17645C5.17645 9.49002 5.72547 10.5881 6.74508 11.2155L6.82351 11.2939V12.1567H5.17645C5.17645 13.3332 5.72547 14.4312 6.74508 15.0587L6.82351 15.1371V15.9998C6.82351 16.3136 7.05881 16.4704 7.2941 16.4704H8.70586V18.5881H11.2157V16.4704H12.6274C12.9412 16.4704 13.098 16.2351 13.098 15.9998V15.1371L13.1765 15.0587C14.1176 14.4312 14.7451 13.3332 14.7451 12.1567H13.098L13.1765 11.2155ZM10.5098 15.2939C10.3529 15.3724 10.1961 15.3724 10.0392 15.3724C9.8039 15.3724 9.64704 15.2939 9.41175 15.2155C8.94116 14.9802 8.549 14.4312 8.549 13.8822C8.549 13.0979 9.17645 12.392 10.0392 12.392C10.5882 12.392 11.1372 12.7057 11.3725 13.2547C11.451 13.4116 11.5294 13.6469 11.5294 13.8822C11.451 14.5096 11.0588 15.0586 10.5098 15.2939ZM9.96077 11.4508C9.17645 11.4508 8.549 10.8234 8.549 10.039C8.549 9.25473 9.17645 8.62728 9.96077 8.62728C10.7451 8.62728 11.451 9.25473 11.451 10.1175C11.451 10.8234 10.8235 11.4508 9.96077 11.4508ZM9.96077 7.60767C9.17645 7.60767 8.47057 6.98022 8.47057 6.1959C8.47057 5.41159 9.09802 4.70571 9.88234 4.70571C10.4314 4.70571 10.9804 5.01943 11.2157 5.56845C11.2941 5.72532 11.3725 5.96061 11.3725 6.1959C11.451 6.90179 10.8235 7.60767 9.96077 7.60767Z" fill="#353739"/>
<path d="M19.5294 14.4312L15.3726 6.74494C15.1373 7.05866 14.8235 7.37239 14.5098 7.68611L18.5098 15.0587C18.7451 15.4508 18.8235 15.9214 18.6667 16.392C18.5883 16.5489 18.5883 16.7057 18.5098 16.7842C18.1961 17.3332 17.6471 17.6469 17.0196 17.6469H9.9608H2.90198C2.27453 17.6469 1.72551 17.3332 1.41178 16.7842C1.09805 16.2351 1.09805 15.5292 1.41178 14.9802L5.41178 7.60768C5.09805 7.29395 4.86276 6.98023 4.62747 6.6665L0.392172 14.4312C-0.156847 15.3724 -0.156847 16.4704 0.392172 17.4116C0.941192 18.2743 1.88237 18.8234 2.90198 18.8234H9.9608H17.0196C17.5686 18.8234 18.0392 18.6665 18.5098 18.4312C18.9804 18.1959 19.2941 17.8038 19.6079 17.3332C20.0784 16.392 20.0784 15.294 19.5294 14.4312Z" fill="#353739"/>
<path d="M8.4706 2.03922C8.78433 1.4902 9.33335 1.17647 9.9608 1.17647C10.4314 1.17647 10.902 1.33333 11.2157 1.64706C11.2941 1.72549 11.451 1.88235 11.5294 2.03922L11.6863 2.35294H13.0196L12.549 1.41176C12.4706 1.33333 12.3922 1.17647 12.3137 1.09804C12 0.705882 11.6079 0.392157 11.1373 0.235294C10.7451 0.0784314 10.353 0 9.9608 0C8.94119 0 8.00002 0.54902 7.451 1.41176L6.98041 2.35294H8.31374L8.4706 2.03922Z" fill="#353739"/>
</g>
<defs>
<clipPath id="clip0">
<rect width="20" height="18.8235" fill="white"/>
</clipPath>
</defs>
</svg>
