<svg width="36" height="36" viewBox="0 0 36 36" fill="none" xmlns="http://www.w3.org/2000/svg">
<g clip-path="url(#clip0)">
<path d="M30.7002 5.2998C23.7002 -1.7002 12.3002 -1.7002 5.20018 5.2998C-1.59982 12.0998 -1.79982 22.8998 4.40018 29.9998L4.60018 30.0998C4.00018 31.4998 2.90018 33.3998 1.00018 34.2998C0.400182 34.5998 0.500182 35.4998 1.20018 35.5998C3.20018 35.8998 6.10018 35.5998 8.90018 33.4998C15.8002 37.5998 24.8002 36.5998 30.7002 30.6998C37.8002 23.6998 37.8002 12.2998 30.7002 5.2998Z" fill="url(#paint0_linear)"/>
<path d="M23.8999 25.7001C23.4999 26.1001 23.0999 26.5001 22.6999 26.9001C22.1999 27.5001 21.4999 27.7001 20.6999 27.7001C19.5999 27.6001 18.4999 27.3001 17.4999 26.8001C15.1999 25.7001 13.2999 24.2001 11.6999 22.3001C10.4999 20.9001 9.4999 19.3001 8.8999 17.6001C8.5999 16.8001 8.3999 15.9001 8.3999 15.0001C8.3999 14.4001 8.6999 14.0001 9.0999 13.6001C9.4999 13.2001 9.9999 12.7001 10.3999 12.3001C10.9999 11.7001 11.6999 11.7001 12.2999 12.3001C12.6999 12.7001 12.9999 13.0001 13.3999 13.4001C13.6999 13.7001 14.0999 14.1001 14.3999 14.4001C14.9999 15.0001 14.9999 15.7001 14.3999 16.3001C13.9999 16.7001 13.4999 17.2001 13.0999 17.6001C12.9999 17.5001 12.9999 17.6001 12.9999 17.8001C13.2999 18.5001 13.6999 19.1001 14.1999 19.7001C15.0999 20.9001 16.1999 21.9001 17.4999 22.7001C17.7999 22.9001 18.0999 23.0001 18.3999 23.1001C18.4999 23.2001 18.5999 23.2001 18.7999 23.0001C19.1999 22.6001 19.6999 22.1001 20.0999 21.7001C20.6999 21.1001 21.3999 21.1001 21.9999 21.7001C22.6999 22.4001 23.3999 23.1001 24.0999 23.8001C24.4999 24.4001 24.4999 25.1001 23.8999 25.7001Z" fill="white"/>
<path d="M22.9 19.0002C22.4 19.0002 22 18.7002 21.8 18.3002C21.2 16.3002 19.8 14.7002 17.9 14.0002C17.4 13.8002 17.1 13.2002 17.3 12.7002C17.5 12.2002 18.1 11.9002 18.6 12.1002C21.1 13.1002 23 15.2002 23.7 17.7002C23.8 18.2002 23.5 18.8002 23 18.9002C23 19.0002 22.9 19.0002 22.9 19.0002Z" fill="url(#paint1_linear)"/>
<path d="M27.4 17.9C26.9 17.9 26.4 17.6 26.3 17.1C25.6 13.4 22.9 10.4 19.3 9.30002C18.8 9.10002 18.5 8.60002 18.6 8.10002C18.8 7.60002 19.3 7.30002 19.8 7.40002C24.1 8.70002 27.4 12.3 28.2 16.7C28.4 17.3 28 17.8 27.4 17.9Z" fill="url(#paint2_linear)"/>
</g>
<defs>
<linearGradient id="paint0_linear" x1="17.9998" y1="16.8432" x2="17.9998" y2="-1.40509" gradientUnits="userSpaceOnUse">
<stop stop-color="#01A7A3"/>
<stop offset="1" stop-color="#73D483"/>
</linearGradient>
<linearGradient id="paint1_linear" x1="17.057" y1="15.2498" x2="23.9667" y2="15.8294" gradientUnits="userSpaceOnUse">
<stop stop-color="#FFD400"/>
<stop offset="1" stop-color="#ECAF11"/>
</linearGradient>
<linearGradient id="paint2_linear" x1="18.2477" y1="12.2452" x2="28.602" y2="13.1137" gradientUnits="userSpaceOnUse">
<stop stop-color="#FFD400"/>
<stop offset="1" stop-color="#ECAF11"/>
</linearGradient>
<clipPath id="clip0">
<rect width="36" height="36" fill="white"/>
</clipPath>
</defs>
</svg>
