<svg width="36" height="28" viewBox="0 0 36 28" fill="none" xmlns="http://www.w3.org/2000/svg">
<g clip-path="url(#clip0)">
<path d="M33.375 3.75H23.85L21.9 0.525C21.75 0.225 21.375 0 21 0H15C14.625 0 14.325 0.225 14.1 0.525L12.15 3.75H9V3C9 2.4 8.55 1.95 7.95 1.95H4.125C3.525 1.95 3.075 2.475 3.075 3V3.75H2.625C1.2 3.75 0 4.95 0 6.375V25.35C0 26.775 1.2 27.975 2.625 27.975H33.375C34.8 27.975 36 26.775 36 25.35V6.375C36 4.95 34.8 3.75 33.375 3.75ZM18 23.325C13.875 23.325 10.5 19.95 10.5 15.825C10.5 11.7 13.875 8.325 18 8.325C22.125 8.325 25.5 11.7 25.5 15.825C25.5 19.95 22.125 23.325 18 23.325ZM31.725 9.15H28.5C27.9 9.15 27.45 8.7 27.45 8.1C27.45 7.5 27.9 7.05 28.5 7.05H31.8C32.4 7.05 32.85 7.5 32.85 8.1C32.775 8.7 32.325 9.15 31.725 9.15Z" fill="#617882" fill-opacity="0.5"/>
<path d="M23.25 15.8999C23.25 18.7499 20.925 21.1499 18 21.1499C15.15 21.1499 12.75 18.8249 12.75 15.8999C12.75 13.0499 15.075 10.6499 18 10.6499C20.85 10.6499 23.25 12.9749 23.25 15.8999Z" fill="#617882" fill-opacity="0.5"/>
</g>
<defs>
<clipPath id="clip0">
<rect width="36" height="27.975" fill="white"/>
</clipPath>
</defs>
</svg>
