<svg width="24" height="20" viewBox="0 0 24 20" fill="none" xmlns="http://www.w3.org/2000/svg">
<g clip-path="url(#clip0)">
<path d="M20.5 10.5H18.2C17.9 10.5 17.6 10.5 17.3 10.6C16.7 9.49995 15.5 8.69995 14.2 8.69995H9.9C8.5 8.69995 7.3 9.49995 6.8 10.6C6.5 10.5 6.2 10.5 5.9 10.5H3.5C1.6 10.5 0 12.1 0 14V17.8C0 19 0.9 19.9 2.1 19.9H21.9C23.1 19.9 24 19 24 17.8V14C24 12.1 22.4 10.5 20.5 10.5ZM22.6 17.8C22.6 18.2 22.3 18.5 21.9 18.5H17.6V12.2C17.6 12.1 17.6 12 17.6 12C17.8 12 18 11.9 18.2 11.9H20.5C21.7 11.9 22.6 12.8 22.6 14V17.8ZM2.1 18.5C1.7 18.5 1.4 18.2 1.4 17.8V14C1.4 12.8 2.3 11.9 3.5 11.9H5.8C6 11.9 6.2 11.9 6.4 12C6.4 12.1 6.4 12.2 6.4 12.2V18.5H2.1ZM9.9 10.1H14.1C15.3 10.1 16.2 11 16.2 12.2V18.5H7.8V12.2C7.8 11.1 8.8 10.1 9.9 10.1Z" fill="#353739"/>
<path d="M4.7001 10.0999C6.4001 10.0999 7.8001 8.6999 7.8001 6.9999C7.8001 5.2999 6.4001 3.8999 4.7001 3.8999C3.0001 3.8999 1.6001 5.2999 1.6001 6.9999C1.6001 8.6999 3.0001 10.0999 4.7001 10.0999ZM6.4001 6.9999C6.4001 7.8999 5.6001 8.6999 4.7001 8.6999C3.8001 8.6999 3.0001 7.9999 3.0001 6.9999C3.0001 5.9999 3.8001 5.2999 4.7001 5.2999C5.6001 5.2999 6.4001 6.0999 6.4001 6.9999Z" fill="#353739"/>
<path d="M12 8.3C14.3 8.3 16.2 6.4 16.2 4.1C16.2 1.8 14.3 0 12 0C9.70005 0 7.80005 1.9 7.80005 4.2C7.80005 6.5 9.70005 8.3 12 8.3ZM12 1.4C13.5 1.4 14.8 2.6 14.8 4.2C14.8 5.8 13.5 6.9 12 6.9C10.5 6.9 9.20005 5.7 9.20005 4.2C9.20005 2.6 10.5 1.4 12 1.4Z" fill="#353739"/>
<path d="M19.2999 10.0999C20.9999 10.0999 22.4 8.6999 22.4 6.9999C22.4 5.2999 20.9999 3.8999 19.2999 3.8999C17.5999 3.8999 16.2 5.2999 16.2 6.9999C16.2 8.6999 17.5999 10.0999 19.2999 10.0999ZM19.2999 5.2999C20.2999 5.2999 21 6.0999 21 6.9999C21 7.8999 20.1999 8.6999 19.2999 8.6999C18.3999 8.6999 17.6 7.8999 17.6 6.9999C17.6 6.0999 18.3999 5.2999 19.2999 5.2999Z" fill="#353739"/>
</g>
<defs>
<clipPath id="clip0">
<rect width="24" height="19.9" fill="white"/>
</clipPath>
</defs>
</svg>
