<svg width="32" height="31" viewBox="0 0 32 31" fill="none" xmlns="http://www.w3.org/2000/svg">
<path fill-rule="evenodd" clip-rule="evenodd" d="M28.4282 0H3.64465C1.60364 0 0 1.60364 0 3.64465V26.4601C0 28.4282 1.60364 30.1048 3.64465 30.1048H28.4282C30.3964 30.1048 32.0729 28.5011 32.0729 26.4601V3.64465C32 1.60364 30.3964 0 28.4282 0ZM20.7016 5.39408C22.5968 5.39408 24.2005 6.92483 24.2005 8.89294C24.2005 10.7882 22.6697 12.3918 20.7016 12.3918C18.7335 12.3918 17.2027 10.7882 17.2027 8.89294C17.2027 6.92483 18.8064 5.39408 20.7016 5.39408ZM27.262 26.6788H5.24829C4.30068 26.6788 3.86333 25.9499 4.30068 25.1481L10.2779 13.2665C10.7153 12.3918 11.5171 12.3189 12.1002 13.1207L18.2232 20.9203C18.8064 21.6492 19.8269 21.7221 20.4829 21.0661L21.9408 19.5353C22.5968 18.8793 23.6173 18.9522 24.2005 19.754L27.9909 25.221C28.574 26.0228 28.2096 26.6788 27.262 26.6788Z" fill="#617882" fill-opacity="0.5"/>
</svg>
