<svg width="24" height="20" viewBox="0 0 24 20" fill="none" xmlns="http://www.w3.org/2000/svg">
<path d="M10 4.99998V0.799984C10 0.499984 9.8 0.199984 9.5 0.0999838C9.3 -0.100016 8.9 -1.62125e-05 8.7 0.199984L0.2 8.49998C0.1 8.59998 0 8.79998 0 8.99998C0 9.19998 0.1 9.39998 0.2 9.49998L8.7 17.8C8.9 18 9.2 18.1 9.5 18C9.8 17.9 10 17.6 10 17.3V13H11.4C16 13 20.3 15.5 22.6 19.6C22.7 19.8 23 20 23.3 20C23.4 20 23.4 20 23.5 20C23.8 19.9 24.1 19.6 24.1 19.3C24 11.5 17.7 5.09998 10 4.99998Z" fill="#617882"/>
</svg>
