<svg width="21" height="21" viewBox="0 0 21 21" fill="none" xmlns="http://www.w3.org/2000/svg">
<path d="M19.71 18.29L14.31 12.9C15.407 11.5025 16.0022 9.77666 16 8C16 6.41775 15.5308 4.87103 14.6518 3.55544C13.7727 2.23985 12.5233 1.21447 11.0615 0.608967C9.59966 0.00346625 7.99113 -0.15496 6.43928 0.153721C4.88743 0.462403 3.46197 1.22433 2.34315 2.34315C1.22433 3.46197 0.462403 4.88743 0.153721 6.43928C-0.15496 7.99113 0.00346625 9.59966 0.608967 11.0615C1.21447 12.5233 2.23985 13.7727 3.55544 14.6518C4.87103 15.5308 6.41775 16 8 16C9.77666 16.0022 11.5025 15.407 12.9 14.31L18.29 19.71C18.383 19.8037 18.4936 19.8781 18.6154 19.9289C18.7373 19.9797 18.868 20.0058 19 20.0058C19.132 20.0058 19.2627 19.9797 19.3846 19.9289C19.5064 19.8781 19.617 19.8037 19.71 19.71C19.8037 19.617 19.8781 19.5064 19.9289 19.3846C19.9797 19.2627 20.0058 19.132 20.0058 19C20.0058 18.868 19.9797 18.7373 19.9289 18.6154C19.8781 18.4936 19.8037 18.383 19.71 18.29ZM2 8C2 6.81332 2.3519 5.65328 3.01119 4.66658C3.67047 3.67989 4.60755 2.91085 5.7039 2.45673C6.80026 2.0026 8.00666 1.88378 9.17055 2.11529C10.3344 2.3468 11.4035 2.91825 12.2426 3.75736C13.0818 4.59648 13.6532 5.66558 13.8847 6.82946C14.1162 7.99335 13.9974 9.19975 13.5433 10.2961C13.0892 11.3925 12.3201 12.3295 11.3334 12.9888C10.3467 13.6481 9.18669 14 8 14C6.4087 14 4.88258 13.3679 3.75736 12.2426C2.63214 11.1174 2 9.5913 2 8Z" fill="#617882"/>
</svg>
