<svg width="36" height="36" viewBox="0 0 36 36" fill="none" xmlns="http://www.w3.org/2000/svg">
<circle cx="18" cy="18" r="18" fill="#0F8E70"/>
<g clip-path="url(#clip0)">
<path d="M15.8257 15.75C15.8257 15.9107 15.9863 15.9107 16.1468 15.9107L18.7153 15.4286C18.7153 15.5893 18.7153 15.9107 18.7153 16.0714C18.7153 18.1607 18.2337 18.6429 18.2337 18.8036C17.9126 18.9643 17.5916 18.9643 16.9494 19.125C15.9863 19.125 14.702 19.125 13.5783 20.25C12.6151 21.0536 12.1336 22.3393 11.973 24.4286C11.8125 25.7143 11.8125 27 11.8125 27L14.8626 26.8393C14.8626 25.0714 15.0231 22.9821 15.5047 22.5C15.8257 22.1786 16.3073 22.1786 17.11 22.1786C17.9126 22.1786 18.8758 22.0179 19.9995 21.375C21.1232 20.5714 21.7653 19.125 21.7653 16.3929C21.7653 16.0714 21.7653 15.75 21.7653 15.4286L24.0127 15.75C24.1733 15.75 24.1733 15.75 24.3338 15.5893C24.3338 15.4286 24.3338 15.2679 24.3338 15.2679L20.4811 9.16071C20.3206 9 20.3206 9 20.16 9C19.9995 9 19.9995 9 19.839 9.16071L15.8257 15.4286C15.8257 15.4286 15.8257 15.5893 15.8257 15.75Z" fill="white"/>
</g>
<defs>
<clipPath id="clip0">
<rect width="12.6818" height="18" fill="white" transform="translate(11.8125 9)"/>
</clipPath>
</defs>
</svg>
