<svg width="16" height="16" viewBox="0 0 16 16" fill="none" xmlns="http://www.w3.org/2000/svg">
<path d="M8 16C12.4183 16 16 12.4183 16 8C16 3.58172 12.4183 0 8 0C3.58172 0 0 3.58172 0 8C0 12.4183 3.58172 16 8 16Z" fill="#0F8E70"/>
<path d="M5 7C5.55228 7 6 6.55228 6 6C6 5.44772 5.55228 5 5 5C4.44772 5 4 5.44772 4 6C4 6.55228 4.44772 7 5 7Z" fill="white"/>
<path d="M11 7C11.5523 7 12 6.55228 12 6C12 5.44772 11.5523 5 11 5C10.4477 5 10 5.44772 10 6C10 6.55228 10.4477 7 11 7Z" fill="white"/>
<path d="M7.99998 12.9999C6.66665 12.9999 5.39998 12.4666 4.46665 11.5332C4.26665 11.3332 4.26665 10.9999 4.46665 10.7999C4.66665 10.5999 4.99998 10.5999 5.19998 10.7999C6.73332 12.3332 9.33332 12.3332 10.8667 10.7999C11.0667 10.5999 11.4 10.5999 11.6 10.7999C11.8 10.9999 11.8 11.3332 11.6 11.5332C10.6 12.4666 9.33332 12.9999 7.99998 12.9999Z" fill="white"/>
</svg>
