<svg width="16" height="16" viewBox="0 0 16 16" fill="none" xmlns="http://www.w3.org/2000/svg">
<path d="M15.5 14.0002C15.1 14.4002 14.7 14.8002 14.3 15.2002C13.8 15.8002 13.1 16.0002 12.3 16.0002C11.2 15.9002 10.1 15.6002 9.09999 15.1002C6.79999 14.0002 4.89999 12.5002 3.29999 10.6002C2.09999 9.2002 1.09999 7.6002 0.499992 5.9002C0.199992 4.9002 -0.100008 4.1002 -7.55861e-06 3.2002C-7.55861e-06 2.6002 0.299992 2.2002 0.699992 1.8002C1.09999 1.3002 1.49999 0.900195 1.99999 0.400195C2.59999 -0.199805 3.29999 -0.199805 3.89999 0.400195C4.29999 0.800195 4.59999 1.1002 4.99999 1.5002C5.29999 1.8002 5.69999 2.2002 5.99999 2.5002C6.59999 3.1002 6.59999 3.8002 5.99999 4.4002C5.49999 4.9002 5.09999 5.3002 4.59999 5.7002C4.49999 5.8002 4.49999 5.9002 4.59999 6.0002C4.89999 6.7002 5.29999 7.3002 5.79999 7.9002C6.69999 9.1002 7.79999 10.1002 9.09999 10.9002C9.39999 11.1002 9.69999 11.2002 9.99999 11.3002C10.1 11.4002 10.2 11.4002 10.4 11.2002C10.8 10.8002 11.3 10.3002 11.7 9.9002C12.3 9.30019 13 9.30019 13.6 9.9002C14.3 10.6002 15 11.3002 15.7 12.0002C16.1 12.7002 16.1 13.4002 15.5 14.0002Z" fill="#0F8E70"/>
</svg>
