<svg width="20" height="20" viewBox="0 0 20 20" fill="none" xmlns="http://www.w3.org/2000/svg">
<path fill-rule="evenodd" clip-rule="evenodd" d="M4 9L9.5 0L15 9H4ZM11.43 7L9.5 3.84L7.56 7H11.43ZM15 11C12.51 11 10.5 13.01 10.5 15.5C10.5 17.99 12.51 20 15 20C17.49 20 19.5 17.99 19.5 15.5C19.5 13.01 17.49 11 15 11ZM12.5 15.5C12.5 16.88 13.62 18 15 18C16.38 18 17.5 16.88 17.5 15.5C17.5 14.12 16.38 13 15 13C13.62 13 12.5 14.12 12.5 15.5ZM0.5 19.5H8.5V11.5H0.5V19.5ZM6.5 13.5H2.5V17.5H6.5V13.5Z" fill="#979797"/>
</svg>
