<svg width="32" height="32" viewBox="0 0 32 32" fill="none"
    xmlns="http://www.w3.org/2000/svg">
    <path d="M24 32H8C3.6 32 0 28.4 0 24V8C0 3.6 3.6 0 8 0H24C28.4 0 32 3.6 32 8V24C32 28.4 28.4 32 24 32Z" fill="url(#paint0_linear)"/>
    <path opacity="0.8" d="M25.4 13.5002H23.8C23.6 12.9002 23.4 12.3002 23.1 11.8002L24.2 10.7002C24.3 10.6002 24.4 10.4002 24.4 10.3002C24.4 10.1002 24.3 10.0002 24.2 9.9002L21.9 7.6002C21.7 7.4002 21.3 7.4002 21.1 7.6002L20 8.6002C19.5 8.3002 18.9 8.1002 18.3 7.9002V6.3002C18.3 6.0002 18 5.7002 17.7 5.7002H14.4C14.1 5.7002 13.8 6.0002 13.8 6.3002V7.9002C13.2 8.0002 12.6 8.3002 12 8.6002L10.9 7.5002C10.7 7.3002 10.3 7.3002 10.1 7.5002L7.8 9.8002C7.7 9.9002 7.6 10.0002 7.6 10.2002C7.6 10.4002 7.7 10.5002 7.8 10.6002L8.9 11.7002C8.6 12.2002 8.4 12.8002 8.2 13.4002H6.6C6.3 13.5002 6 13.7002 6 14.0002V17.3002C6 17.6002 6.3 17.9002 6.6 17.9002H8.2C8.4 18.5002 8.6 19.1002 8.9 19.6002L7.8 20.7002C7.6 20.9002 7.6 21.3002 7.8 21.5002L10.1 23.8002C10.3 24.0002 10.7 24.0002 10.9 23.8002L12 22.7002C12.5 23.0002 13.1 23.2002 13.7 23.4002V25.0002C13.7 25.3002 14 25.6002 14.3 25.6002H17.6C17.9 25.6002 18.2 25.3002 18.2 25.0002V23.4002C18.8 23.2002 19.4 23.0002 19.9 22.7002L21 23.8002C21.2 24.0002 21.6 24.0002 21.8 23.8002L24.1 21.5002C24.3 21.3002 24.3 20.9002 24.1 20.7002L23 19.6002C23.3 19.1002 23.5 18.5002 23.7 17.9002H25.3C25.6 17.9002 25.9 17.6002 25.9 17.3002V14.0002C26 13.7002 25.7 13.5002 25.4 13.5002ZM16 21.6002C12.7 21.6002 10 18.9002 10 15.6002C10 12.3002 12.7 9.6002 16 9.6002C19.3 9.6002 22 12.3002 22 15.6002C22 18.9002 19.3 21.6002 16 21.6002Z" fill="white"/>
    <path d="M16 10.8999C13.4 10.8999 11.2 12.9999 11.2 15.6999C11.2 17.2999 12 18.6999 13.2 19.5999V19.0999C13.2 18.6999 13.3 18.3999 13.6 18.0999C13.9 17.7999 14.2 17.6999 14.6 17.6999C15.1 17.6999 16.9 17.6999 17.4 17.6999C17.8 17.6999 18.1 17.7999 18.4 18.0999C18.7 18.3999 18.8 18.6999 18.8 19.0999V19.5999C20 18.6999 20.8 17.2999 20.8 15.6999C20.8 12.9999 18.6 10.8999 16 10.8999ZM16 17.2999C14.9 17.2999 14 16.3999 14 15.2999C14 14.1999 14.9 13.2999 16 13.2999C17.1 13.2999 18 14.1999 18 15.2999C18 16.3999 17.1 17.2999 16 17.2999Z" fill="white"/>
    <defs>
        <linearGradient id="paint0_linear" x1="4.875" y1="27.125" x2="26.5004" y2="5.4996" gradientUnits="userSpaceOnUse">
            <stop stop-color="#01A7A3"/>
            <stop offset="1" stop-color="#73D483"/>
        </linearGradient>
    </defs>
</svg>
