<svg width="24" height="24" viewBox="0 0 24 24" fill="none" xmlns="http://www.w3.org/2000/svg">
<g clip-path="url(#clip0)">
<path d="M11.9 3.69995C9.30005 3.69995 7.30005 5.79995 7.30005 8.29995C7.30005 10.9 9.40005 12.9 11.9 12.9C14.4 12.9 16.5 10.8 16.5 8.29995C16.5 5.79995 14.4 3.69995 11.9 3.69995ZM11.9 11.5C10.2 11.5 8.70005 10.1 8.70005 8.29995C8.70005 6.49995 10.1 5.09995 11.9 5.09995C13.7 5.09995 15 6.59995 15 8.29995C15 9.99995 13.6 11.5 11.9 11.5Z" fill="#353739"/>
<path d="M11.9 0C5.3 0 0 5.3 0 11.9C0 18.5 5.3 23.8 11.9 23.8C18.5 23.8 23.8 18.5 23.8 11.9C23.8 5.3 18.4 0 11.9 0ZM16.7 21.1L16.6 21.2C15.2 21.9 13.6 22.3 11.9 22.3C10.2 22.3 8.7 21.9 7.2 21.2L7.1 21.1V18.4C7.1 16.6 8.5 15.2 10.3 15.2H13.5C15.3 15.2 16.7 16.6 16.7 18.4V21.1ZM18.6 19.8L18.2 20.1V18.3C18.2 15.7 16.1 13.6 13.5 13.6H10.3C7.7 13.6 5.6 15.7 5.6 18.3V20.1L5.2 19.8C2.9 17.8 1.5 14.9 1.5 11.9C1.5 6.2 6.2 1.5 11.9 1.5C17.6 1.5 22.3 6.2 22.3 11.9C22.3 14.9 20.9 17.8 18.6 19.8Z" fill="#353739"/>
</g>
<defs>
<clipPath id="clip0">
<rect width="23.8" height="23.8" fill="white"/>
</clipPath>
</defs>
</svg>
