<svg width="40" height="40" viewBox="0 0 40 40" fill="none" xmlns="http://www.w3.org/2000/svg">
<g clip-path="url(#clip0)">
<path d="M14.4 26.8L15.8 25.8C15.7 25.3 15.6 24.7 15.6 24.2C15.6 19.5 19.5 15.6 24.2 15.6C25.7 15.6 27.1 16 28.3 16.6L28.5 16.4L30.2 16C30 15.9 29.8 15.7 29.7 15.6V6.4C29.7 6 29.4 5.6 28.9 5.6H22.8V0.8C22.8 0.3 22.5 0 22 0H0.8C0.3 0 0 0.3 0 0.8V20.8C0 24 2.6 26.6 5.8 26.6H14.3C14.4 26.7 14.4 26.8 14.4 26.8ZM22.8 7.2H28.1V14.8C26.9 14.3 25.6 14 24.2 14C23.7 14 23.3 14 22.8 14.1V7.2ZM5 13.3C4.6 13.3 4.2 13 4.2 12.5V5C4.2 4.6 4.5 4.2 5 4.2H17.8C18.2 4.2 18.6 4.5 18.6 5V12.5C18.6 12.9 18.3 13.3 17.8 13.3H5Z" fill="url(#paint0_linear)"/>
<path d="M18.5 17.2001C18.5 16.6001 18 16.1001 17.4 16.1001H5.29995C4.69995 16.1001 4.19995 16.6001 4.19995 17.2001C4.19995 17.8001 4.69995 18.3001 5.29995 18.3001H17.4C18 18.3001 18.5 17.8001 18.5 17.2001Z" fill="white"/>
<path d="M10.8 20.3003H5.29995C4.69995 20.3003 4.19995 20.8003 4.19995 21.4003C4.19995 22.0003 4.69995 22.5003 5.29995 22.5003H10.8C11.4 22.5003 11.9 22.0003 11.9 21.4003C11.8 20.8003 11.4 20.3003 10.8 20.3003Z" fill="white"/>
<path d="M39.2001 35.4999L33.4001 29.6999C34.4001 28.0999 34.9001 26.1999 34.9001 24.1999C34.9001 18.2999 30.1 13.3999 24.1 13.3999C18.2 13.3999 13.3 18.1999 13.3 24.1999C13.3 30.0999 18.1 34.9999 24.1 34.9999C26.1 34.9999 28 34.3999 29.6 33.4999L35.4001 39.2999C35.9001 39.7999 36.6 40.0999 37.3 40.0999C38 40.0999 38.7001 39.7999 39.2001 39.2999C40.3001 38.1999 40.3001 36.4999 39.2001 35.4999ZM30 30.5999C29.2 31.2999 28.3 31.8999 27.2 32.2999C26.3 32.6999 25.3 32.8999 24.2 32.8999C19.5 32.8999 15.6 28.9999 15.6 24.2999C15.6 19.5999 19.5 15.6999 24.2 15.6999C28.9 15.6999 32.8 19.5999 32.8 24.2999C32.8 26.6999 31.7001 28.9999 30 30.5999Z" fill="url(#paint1_linear)"/>
</g>
<defs>
<linearGradient id="paint0_linear" x1="0" y1="13.4171" x2="44.719" y2="13.4171" gradientUnits="userSpaceOnUse">
<stop stop-color="#01A7A3"/>
<stop offset="1" stop-color="#73D483"/>
</linearGradient>
<linearGradient id="paint1_linear" x1="19.3546" y1="19.3544" x2="28.7083" y2="28.7081" gradientUnits="userSpaceOnUse">
<stop stop-color="#FFD400"/>
<stop offset="1" stop-color="#ECAF11"/>
</linearGradient>
<clipPath id="clip0">
<rect width="40" height="40" fill="white"/>
</clipPath>
</defs>
</svg>
