<svg width="24" height="19" viewBox="0 0 24 19" fill="none" xmlns="http://www.w3.org/2000/svg">
<g clip-path="url(#clip0)">
<path d="M24 2.1C24 0.9 23.1 0 21.9 0H2.1C0.9 0 0 0.9 0 2.1V16.2C0 17.4 0.9 18.3 2.1 18.3H21.9C23.1 18.3 24 17.4 24 16.2V2.1ZM1.35 2.4L8.1 9.15L1.35 15.9V2.4ZM12 10.95L2.4 1.35H21.6L12 10.95ZM9.15 10.05L11.55 12.45C11.85 12.75 12.3 12.75 12.6 12.45L14.85 10.2L21.6 16.95H2.4L9.15 10.05ZM15.9 9.15L22.65 2.4V15.9L15.9 9.15Z" fill="#617882"/>
</g>
<defs>
<clipPath id="clip0">
<rect width="24" height="18.3" fill="white"/>
</clipPath>
</defs>
</svg>
