<svg width="35" height="36" viewBox="0 0 35 36" fill="none" xmlns="http://www.w3.org/2000/svg">
<g clip-path="url(#clip0)">
<path d="M9.10004 28.5002H7.60004V31.5002H10.6C11.4 31.5002 12.1 30.8002 12.1 30.0002V17.7002L18.6 19.6002C19.2 19.8002 19.9 19.5002 20.2 19.0002L27.9 8.60023C28.2 8.20023 28.3 7.70023 28.1 7.20023C27.9 6.70023 27.6 6.40023 27.1 6.20023L5.30004 0.100228C4.90004 -0.0997721 4.50004 0.000227928 4.10004 0.200228C3.80004 0.400228 3.50004 0.700228 3.40004 1.10023L0.100039 12.7002C-0.0999609 13.5002 0.300039 14.3002 1.10004 14.6002L9.00004 16.9002V28.5002H9.10004Z" fill="url(#paint0_linear)"/>
<path d="M29.6001 8.6001C29.5001 8.9001 29.3001 9.3001 29.1001 9.6001L23.1001 17.8001L26.7001 18.8001C27.5001 19.0001 28.3001 18.6001 28.6001 17.8001L30.7001 10.5001C30.8001 10.1001 30.8001 9.7001 30.6001 9.4001C30.3001 8.9001 30.0001 8.7001 29.6001 8.6001Z" fill="url(#paint1_linear)"/>
<path d="M30 18.1003L31.5 18.5003C32.3 18.7003 33.1 18.3003 33.4 17.5003L34.6 13.1003C34.8 12.3003 34.4 11.5003 33.6 11.2003L32.1 10.8003L30 18.1003Z" fill="url(#paint2_linear)"/>
<path d="M5.29999 10.3001C5.69999 10.4001 5.99999 10.6001 6.19999 11.0001C6.39999 11.4001 6.39999 11.8001 6.29999 12.1001C6.09999 12.7001 5.59999 13.1001 4.99999 13.2001C4.39999 13.3001 3.79999 13.0001 3.49999 12.4001C3.19999 11.9001 3.29999 11.2001 3.59999 10.7001C4.09999 10.3001 4.69999 10.1001 5.29999 10.3001Z" fill="white"/>
<path d="M11.1 11.9C11.5 12 11.8 12.3 12 12.6C12.2 12.9 12.2 13.4 12.1 13.7C11.9 14.3 11.4 14.7 10.8 14.8C10.2 14.9 9.60004 14.6 9.30004 14C9.00004 13.5 9.10003 12.8 9.40003 12.3C9.90003 12 10.5 11.8 11.1 11.9Z" fill="white"/>
<path d="M0.7 24.1998C0.3 24.3998 0 24.8998 0 25.3998V34.4998C0 34.9998 0.3 35.4998 0.7 35.7998C1.1 36.0998 1.7 36.0998 2.2 35.8998L5.2 34.3998C5.7 34.0998 6 33.5998 6 32.9998V26.9998C6 26.3998 5.7 25.8998 5.2 25.5998L2.2 24.0998C1.7 23.8998 1.2 23.8998 0.7 24.1998Z" fill="url(#paint3_linear)"/>
</g>
<defs>
<linearGradient id="paint0_linear" x1="14.28" y1="15.739" x2="37.9152" y2="15.739" gradientUnits="userSpaceOnUse">
<stop stop-color="#01A7A3"/>
<stop offset="1" stop-color="#73D483"/>
</linearGradient>
<linearGradient id="paint1_linear" x1="14.2801" y1="13.6666" x2="37.9153" y2="13.6666" gradientUnits="userSpaceOnUse">
<stop stop-color="#01A7A3"/>
<stop offset="1" stop-color="#73D483"/>
</linearGradient>
<linearGradient id="paint2_linear" x1="14.28" y1="14.7033" x2="37.9152" y2="14.7033" gradientUnits="userSpaceOnUse">
<stop stop-color="#01A7A3"/>
<stop offset="1" stop-color="#73D483"/>
</linearGradient>
<linearGradient id="paint3_linear" x1="0" y1="29.963" x2="6.0417" y2="29.963" gradientUnits="userSpaceOnUse">
<stop stop-color="#FFD400"/>
<stop offset="1" stop-color="#ECAF11"/>
</linearGradient>
<clipPath id="clip0">
<rect width="34.6" height="36" fill="white"/>
</clipPath>
</defs>
</svg>
