<svg width="375" height="263" viewBox="0 0 375 263" fill="none" xmlns="http://www.w3.org/2000/svg">
<circle cx="127" cy="92" r="30" fill="#F5F5F5"/>
<circle cx="340" cy="248" r="15" fill="#F5F5F5"/>
<circle cx="69" cy="15" r="15" fill="#F5F5F5"/>
<circle cx="187" cy="186" r="75" fill="#FFF1F4"/>
<g clip-path="url(#clip0)">
<path d="M166.204 167.084L161.221 171.738L156.567 166.755C156.053 166.205 155.19 166.176 154.64 166.69L153.976 167.31C153.425 167.824 153.396 168.688 153.91 169.238L158.564 174.22L153.582 178.874C153.032 179.388 153.002 180.252 153.516 180.802L154.136 181.466C154.65 182.016 155.514 182.046 156.064 181.532L161.046 176.877L165.701 181.86C166.214 182.41 167.078 182.439 167.628 181.926L168.292 181.305C168.842 180.791 168.872 179.928 168.358 179.378L163.704 174.395L168.686 169.741C169.236 169.227 169.266 168.364 168.752 167.814L168.131 167.149C167.618 166.599 166.754 166.57 166.204 167.084Z" fill="#EE0033"/>
</g>
<g clip-path="url(#clip1)">
<path d="M220.204 166.91L215.221 171.564L210.567 166.582C210.053 166.031 209.19 166.002 208.64 166.516L207.976 167.136C207.425 167.65 207.396 168.514 207.91 169.064L212.564 174.046L207.582 178.701C207.032 179.214 207.002 180.078 207.516 180.628L208.136 181.292C208.65 181.842 209.514 181.872 210.064 181.358L215.046 176.704L219.701 181.686C220.214 182.236 221.078 182.266 221.628 181.752L222.292 181.131C222.842 180.617 222.872 179.754 222.358 179.204L217.704 174.221L222.686 169.567C223.236 169.053 223.266 168.19 222.752 167.64L222.131 166.976C221.618 166.425 220.754 166.396 220.204 166.91Z" fill="#EE0033"/>
</g>
<rect x="175" y="217" width="30" height="5" rx="2.5" fill="#EE0033"/>
<circle cx="366" cy="55" r="55" fill="#F5F5F5"/>
<circle cx="21" cy="201" r="55" fill="#F5F5F5"/>
<defs>
<clipPath id="clip0">
<rect width="20" height="20" fill="white" transform="translate(147 173.826) rotate(-43.0488)"/>
</clipPath>
<clipPath id="clip1">
<rect width="20" height="20" fill="white" transform="translate(201 173.652) rotate(-43.0488)"/>
</clipPath>
</defs>
</svg>
