<svg width="160" height="128" viewBox="0 0 160 128" fill="none" xmlns="http://www.w3.org/2000/svg">
<g clip-path="url(#clip0)">
<path opacity="0.2" d="M146.841 15.261C146.978 15.536 147.116 15.9484 147.254 16.2234C148.63 19.2481 149.731 22.5478 150.556 25.8475C150.694 26.2599 150.694 26.6724 150.832 27.0848C151.52 30.1095 151.795 32.9968 152.07 35.7465C152.07 36.2964 152.07 36.7089 152.208 37.2589C152.896 51.9699 148.354 66.8185 140.373 79.1923C138.308 82.4919 135.831 85.5166 133.216 88.5413C132.528 89.3663 131.702 90.1912 130.877 91.1536C129.501 92.6659 127.987 94.0408 126.473 95.5532C118.216 103.115 108.582 109.439 98.2607 113.976C97.9855 114.114 97.8479 114.251 97.5726 114.251C87.664 118.513 77.0672 121.126 66.6081 121.538C66.1952 121.538 65.7824 121.538 65.3695 121.538C64.4062 121.538 63.4428 121.538 62.4795 121.538C60.4152 121.538 58.3509 121.401 56.2866 121.126C55.5985 120.988 55.048 120.988 54.3599 120.851C50.0937 120.163 45.965 119.063 41.9741 117.551C38.8088 116.314 35.6435 114.939 32.7535 113.151C17.7529 104.627 6.33042 89.9162 2.06419 72.3179C-0.963452 60.0816 -2.06441 42.3459 9.22044 33.8217C21.331 24.6101 37.7078 29.8346 51.4699 29.6971C64.6814 29.5596 77.3424 25.8475 88.9025 19.2481C101.151 11.9613 113.812 -2.74974 129.501 0.412447C133.904 1.23737 137.482 3.43715 140.51 6.32437C143.125 8.79913 145.189 11.8238 146.841 15.261Z" fill="url(#paint0_linear)"/>
<path d="M158.951 40.0086C158.951 40.4211 159.089 40.6961 159.089 41.1085C159.364 44.4082 159.364 47.9828 159.089 51.2825C159.089 51.695 158.951 52.1074 158.951 52.5199C158.538 55.5446 157.988 58.4318 157.3 61.1816C157.162 61.7315 157.025 62.144 156.887 62.6939C153.584 73.5554 147.529 83.5919 139.547 91.7036C139.547 91.7036 139.547 91.7036 139.409 91.8411C138.859 92.391 138.171 93.0785 137.62 93.6284C137.345 93.9034 137.07 94.0409 136.932 94.3158C135.281 95.8282 133.629 97.2031 131.84 98.5779C129.225 100.64 126.335 102.565 123.445 104.352C123.032 104.627 122.482 104.902 122.069 105.177C121.106 105.727 120.005 106.277 119.041 106.827C117.252 107.79 115.326 108.614 113.537 109.577C103.353 114.114 92.2056 117.001 80.9207 117.826C80.6454 117.826 80.3702 117.826 80.095 117.826C69.3606 118.651 58.4886 117.689 48.4423 114.664C48.0295 114.526 47.6166 114.389 47.3414 114.251C46.378 113.976 45.5523 113.701 44.589 113.289C44.1761 113.152 43.7632 113.014 43.488 112.877C41.9742 112.327 40.4603 111.639 38.9465 110.952C38.396 110.677 37.8456 110.402 37.1575 110.127C33.3041 108.064 29.726 105.727 26.5607 102.977L26.4231 102.84C24.7716 101.465 23.1202 99.9528 21.4688 98.303C20.643 97.478 19.9549 96.6531 19.1292 95.8282C14.3125 90.3287 10.5968 84.0043 7.84435 77.2675C4.12861 67.506 2.47717 57.1945 3.44051 46.7455C4.67909 34.2342 9.22056 17.1858 22.7073 12.6488C37.1575 7.83676 50.9195 18.1483 63.9934 22.5478C76.6545 26.6724 89.7284 27.3599 102.802 24.8851C116.84 22.1354 133.492 12.3738 147.391 20.4855C151.245 22.8228 153.997 25.985 155.924 29.6971C157.575 32.7218 158.538 36.2965 158.951 40.0086Z" fill="url(#paint1_linear)"/>
<path d="M28.9002 23.5102L25.1844 37.1214L19.1292 32.3093L28.9002 23.5102Z" fill="white"/>
<path d="M28.9003 23.5102L16.7897 31.072L11.0096 29.4221L28.9003 23.5102Z" fill="white"/>
<path d="M28.9003 23.5102L19.1292 32.3093L17.3402 36.2964L16.7897 31.072L28.9003 23.5102Z" fill="white"/>
<g opacity="0.1">
<g opacity="0.1">
<path opacity="0.1" d="M28.9003 23.5102L19.1292 32.3093L17.3402 36.2964L16.7897 31.072L28.9003 23.5102Z" fill="#304982"/>
</g>
</g>
<path d="M16.1016 51.145C15.8264 51.145 15.5511 50.87 15.4135 50.595C15.1383 49.6326 15.0007 48.5327 14.863 47.2953C14.863 46.8829 15.1383 46.6079 15.5511 46.6079C15.964 46.6079 16.2392 46.8829 16.2392 47.2953C16.2392 48.3952 16.3769 49.3576 16.6521 50.32C16.7897 50.7325 16.5145 51.145 16.1016 51.145C16.2392 51.145 16.2392 51.0075 16.1016 51.145ZM15.964 43.1707C15.4135 43.0332 15.1383 42.7583 15.2759 42.3458C15.4135 41.2459 15.6888 40.146 16.1016 39.1836C16.2392 38.7712 16.6521 38.6337 17.065 38.7712C17.4778 38.9086 17.6154 39.3211 17.4778 39.7336C17.2026 40.696 16.9273 41.6584 16.7897 42.7583C16.6521 42.8958 16.3769 43.1707 15.964 43.1707Z" fill="white"/>
<path d="M138.171 51.2825L135.005 65.0311L142.712 63.6563L138.171 51.2825Z" fill="white"/>
<path d="M138.171 51.2825L145.327 63.6563L151.245 64.8936L138.171 51.2825Z" fill="white"/>
<path d="M138.171 51.2825L142.712 63.6563L142.437 67.9183L145.327 63.6563L138.171 51.2825Z" fill="white"/>
<g opacity="0.1">
<g opacity="0.1">
<path opacity="0.1" d="M138.171 51.2825L142.712 63.6563L142.437 67.9183L145.327 63.6563L138.171 51.2825Z" fill="#304982"/>
</g>
</g>
<path d="M136.244 81.5295C135.969 81.2545 135.969 80.8421 136.244 80.5671C136.932 79.8797 137.483 79.0548 138.033 78.0924C138.171 77.8174 138.721 77.6799 138.996 77.8174C139.272 77.9549 139.409 78.5048 139.272 78.7798C138.721 79.7422 138.033 80.7046 137.207 81.5295C136.932 81.8045 136.657 81.8045 136.382 81.667C136.382 81.5295 136.382 81.5295 136.244 81.5295ZM139.96 73.8303C140.235 72.8679 140.51 71.768 140.786 70.8056C140.923 70.3931 141.198 70.1181 141.611 70.2556C142.024 70.3931 142.299 70.6681 142.162 71.0805C142.024 72.1804 141.749 73.1428 141.336 74.2427C141.198 74.6552 140.786 74.7927 140.373 74.6552H140.235C139.96 74.5177 139.822 74.1052 139.96 73.8303Z" fill="white"/>
<path d="M90.6917 33.5468H52.9838V92.2535H101.839V44.6832L90.6917 33.5468Z" fill="white"/>
<path d="M101.839 44.6832H90.6917V33.5468L101.839 44.6832Z" fill="#F1F2F2"/>
<path d="M71.7001 57.3319C71.7001 60.0816 69.3606 62.4189 66.6082 62.4189C63.8558 62.4189 61.5162 60.0816 61.5162 57.3319C61.5162 54.5821 63.8558 52.2449 66.6082 52.2449C69.3606 52.2449 71.7001 54.5821 71.7001 57.3319Z" fill="#414042"/>
<path d="M66.8834 53.8947C66.8834 54.8572 66.0577 55.6821 65.0944 55.6821C64.131 55.6821 63.3053 54.8572 63.3053 53.8947C63.3053 52.9323 64.131 52.1074 65.0944 52.1074C66.0577 52.1074 66.8834 52.9323 66.8834 53.8947Z" fill="white"/>
<path d="M64.2686 57.4694C64.2686 57.8819 63.8558 58.2944 63.4429 58.2944C63.03 58.2944 62.6172 57.8819 62.6172 57.4694C62.6172 57.057 63.03 56.6445 63.4429 56.6445C63.8558 56.6445 64.2686 57.057 64.2686 57.4694Z" fill="white"/>
<path d="M66.6081 59.8066C66.6081 60.4941 66.0576 61.1815 65.2319 61.1815C64.4062 61.1815 63.8557 60.6315 63.8557 59.8066C63.8557 59.1192 64.4062 58.4318 65.2319 58.4318C66.0576 58.4318 66.6081 59.1192 66.6081 59.8066Z" fill="white"/>
<path d="M71.0121 58.1569C69.4982 58.4318 69.3606 58.5693 69.0854 60.0817C68.8101 58.5693 68.6725 58.4318 67.1587 58.1569C68.6725 57.8819 68.8101 57.7444 69.0854 56.2321C69.3606 57.7444 69.4982 57.8819 71.0121 58.1569Z" fill="white"/>
<path d="M93.7194 57.3319C93.7194 60.0816 91.3799 62.4189 88.6275 62.4189C85.8751 62.4189 83.5355 60.0816 83.5355 57.3319C83.5355 54.5821 85.8751 52.2449 88.6275 52.2449C91.5175 52.2449 93.7194 54.5821 93.7194 57.3319Z" fill="#414042"/>
<path d="M88.9027 53.8947C88.9027 54.8572 88.077 55.6821 87.1136 55.6821C86.1503 55.6821 85.3246 54.8572 85.3246 53.8947C85.3246 52.9323 86.1503 52.1074 87.1136 52.1074C88.077 52.1074 88.9027 52.9323 88.9027 53.8947Z" fill="white"/>
<path d="M86.2879 57.4694C86.2879 57.8819 85.8751 58.2944 85.4622 58.2944C85.0493 58.2944 84.6365 57.8819 84.6365 57.4694C84.6365 57.057 85.0493 56.6445 85.4622 56.6445C85.8751 56.6445 86.2879 57.057 86.2879 57.4694Z" fill="white"/>
<path d="M88.6274 59.8066C88.6274 60.4941 88.0769 61.1815 87.2512 61.1815C86.5631 61.1815 85.875 60.6315 85.875 59.8066C85.875 59.1192 86.4255 58.4318 87.2512 58.4318C88.0769 58.4318 88.6274 59.1192 88.6274 59.8066Z" fill="white"/>
<path d="M93.0313 58.1569C91.5175 58.4318 91.3799 58.5693 91.1046 60.0817C90.8294 58.5693 90.6918 58.4318 89.178 58.1569C90.6918 57.8819 90.8294 57.7444 91.1046 56.2321C91.3799 57.7444 91.5175 57.8819 93.0313 58.1569Z" fill="white"/>
<path d="M86.7008 76.9925C86.1503 76.9925 85.7374 76.58 85.7374 76.0301C85.7374 71.6305 82.1593 68.0558 77.7555 68.0558C73.3516 68.0558 69.7735 71.6305 69.7735 76.0301C69.7735 76.58 69.3606 76.9925 68.8101 76.9925C68.2597 76.9925 67.8468 76.58 67.8468 76.0301C67.8468 70.5306 72.3883 65.9935 77.8931 65.9935C83.3979 65.9935 87.9394 70.5306 87.9394 76.0301C87.6641 76.4425 87.2513 76.9925 86.7008 76.9925Z" fill="#414042"/>
<path d="M128.95 60.6316C128.95 53.6197 127.574 46.8829 124.822 40.421C122.207 34.2341 118.491 28.7347 113.674 23.9226C108.858 19.1106 103.353 15.3985 97.1599 12.7862C90.8294 10.0365 83.9484 8.66162 76.9298 8.66162V14.8485C83.1227 14.8485 89.0404 16.0859 94.6828 18.4232C100.05 20.7604 105.004 24.0601 109.133 28.1847C113.262 32.3093 116.564 37.2588 118.904 42.6208C121.243 48.2578 122.482 54.1697 122.482 60.3566C122.482 66.5435 121.243 72.4554 118.904 78.0924C116.564 83.4543 113.262 88.4039 109.133 92.5285C105.004 96.6531 100.05 99.9527 94.6828 102.29C89.0404 104.627 83.1227 105.865 76.9298 105.865C70.7369 105.865 64.8192 104.627 59.1768 102.29C53.8096 99.9527 48.8552 96.6531 44.7266 92.5285C40.598 88.4039 37.2951 83.4543 34.9556 78.0924C32.6161 72.4554 31.3775 66.5435 31.3775 60.3566C31.3775 48.6702 35.7813 37.5338 43.9009 29.0096L39.3595 24.7476C30.2765 34.3716 25.1846 47.0204 25.1846 60.3566C25.1846 67.3684 26.5608 74.1052 29.3132 80.5671C31.928 86.754 35.6437 92.2535 40.4604 97.0655C45.2771 101.878 50.7819 105.59 56.9748 108.202C63.3054 110.952 70.1864 112.327 77.205 112.327C84.2236 112.327 90.967 110.952 97.4352 108.202C102.665 106.002 107.481 102.84 111.748 99.1278L116.84 104.215L120.831 100.228L115.739 95.1407C119.592 90.8786 122.62 86.0666 124.959 80.7046C127.574 74.3802 128.95 67.6434 128.95 60.6316Z" fill="white"/>
<path d="M121.656 98.9904L143.813 121.126C144.639 121.951 144.639 123.325 143.813 124.288L140.648 127.45C139.822 128.275 138.446 128.275 137.483 127.45L115.464 105.177L121.656 98.9904Z" fill="#262F5F"/>
</g>
<defs>
<linearGradient id="paint0_linear" x1="6.72249" y1="87.8951" x2="155.643" y2="41.9761" gradientUnits="userSpaceOnUse">
<stop stop-color="#01A7A3"/>
<stop offset="1" stop-color="#73D483"/>
</linearGradient>
<linearGradient id="paint1_linear" x1="8.47028" y1="79.6883" x2="157.626" y2="33.6967" gradientUnits="userSpaceOnUse">
<stop stop-color="#01A7A3"/>
<stop offset="1" stop-color="#73D483"/>
</linearGradient>
<clipPath id="clip0">
<rect width="159.364" height="128" fill="white"/>
</clipPath>
</defs>
</svg>
