<svg width="16" height="15" viewBox="0 0 16 15" fill="none" xmlns="http://www.w3.org/2000/svg">
<g clip-path="url(#clip0)">
<path d="M15.8 13C15.8 13 14.3 12.2 13.3 11.1C14 10 14.4 8.6 14.4 7.3C14.4 5.4 13.7 3.6 12.3 2.2C10.9 0.7 9.1 0 7.2 0C5.3 0 3.5 0.7 2.1 2.1C0.7 3.5 0 5.3 0 7.2C0 9.1 0.7 10.9 2.1 12.3C3.5 13.7 5.3 14.4 7.2 14.4C8.4 14.4 9.6 14.1 10.7 13.5C12.8 14.7 15.6 13.9 15.7 13.8C15.9 13.7 16 13.6 16 13.4C16 13.2 15.9 13.1 15.8 13ZM10.4 9.8H4C3.7 9.8 3.5 9.6 3.5 9.3C3.5 9 3.7 8.8 4 8.8H10.4C10.7 8.8 10.9 9 10.9 9.3C10.9 9.6 10.7 9.8 10.4 9.8ZM10.4 7.7H4C3.7 7.7 3.5 7.5 3.5 7.2C3.5 6.9 3.7 6.7 4 6.7H10.4C10.7 6.7 10.9 6.9 10.9 7.2C10.9 7.5 10.7 7.7 10.4 7.7ZM10.4 5.6H4C3.7 5.6 3.5 5.4 3.5 5.1C3.5 4.8 3.7 4.6 4 4.6H10.4C10.7 4.6 10.9 4.8 10.9 5.1C10.9 5.4 10.7 5.6 10.4 5.6Z" fill="#617882"/>
</g>
<defs>
<clipPath id="clip0">
<rect width="16" height="14.4" fill="white"/>
</clipPath>
</defs>
</svg>
