<svg width="16" height="16" viewBox="0 0 16 16" fill="none" xmlns="http://www.w3.org/2000/svg">
<path d="M8 16C12.4183 16 16 12.4183 16 8C16 3.58172 12.4183 0 8 0C3.58172 0 0 3.58172 0 8C0 12.4183 3.58172 16 8 16Z" fill="#617882"/>
<path d="M7.19995 4.5998C7.19995 4.1998 7.49995 3.7998 7.99995 3.7998C8.39995 3.7998 8.79995 4.0998 8.79995 4.5998V8.7998C8.79995 9.1998 8.49995 9.5998 7.99995 9.5998C7.59995 9.5998 7.19995 9.2998 7.19995 8.7998V4.5998Z" fill="white"/>
<path d="M7.29985 11.4997C7.29985 11.4997 7.29985 11.3997 7.29985 11.4997C7.29985 11.3997 7.29985 11.3997 7.29985 11.3997C7.29985 11.3997 7.29985 11.3997 7.29985 11.2997C7.29985 11.2997 7.29985 11.2997 7.29985 11.1997C7.29985 11.0997 7.29985 11.1997 7.29985 11.0997C7.29985 11.0997 7.29985 11.0997 7.29985 10.9997C7.29985 10.9997 7.29985 10.9997 7.29985 10.8997C7.39985 10.7997 7.59985 10.6997 7.79985 10.6997C7.79985 10.6997 7.79985 10.6997 7.89985 10.6997C7.89985 10.6997 7.89985 10.6997 7.99985 10.6997C7.99985 10.6997 7.99985 10.6997 8.09985 10.6997C8.09985 10.6997 8.09985 10.6997 8.19985 10.6997C8.19985 10.6997 8.19985 10.6997 8.29985 10.6997C8.29985 10.6997 8.29985 10.6997 8.39985 10.6997C8.39985 10.6997 8.39985 10.6997 8.49985 10.6997C8.49985 10.6997 8.49985 10.6997 8.59985 10.6997C8.59985 10.6997 8.59985 10.6997 8.59985 10.7997C8.59985 10.7997 8.59985 10.7997 8.59985 10.8997C8.59985 10.8997 8.59985 10.8997 8.59985 10.9997C8.59985 10.9997 8.59985 10.9997 8.59985 11.0997C8.59985 11.0997 8.59985 11.0997 8.59985 11.1997C8.59985 11.1997 8.59985 11.1997 8.59985 11.2997C8.59985 11.2997 8.59985 11.2997 8.59985 11.3997C8.59985 11.3997 8.59985 11.3997 8.59985 11.4997C8.59985 11.5997 8.59985 11.4997 8.59985 11.5997C8.59985 11.5997 8.59985 11.5997 8.59985 11.6997C8.59985 11.6997 8.59985 11.6997 8.59985 11.7997C8.59985 11.8997 8.59985 11.7997 8.59985 11.8997C8.59985 11.8997 8.59985 11.8997 8.59985 11.9997C8.59985 11.9997 8.59985 11.9997 8.59985 12.0997C8.59985 12.0997 8.59985 12.0997 8.59985 12.1997C8.59985 12.1997 8.59985 12.1997 8.59985 12.2997C8.59985 12.2997 8.59985 12.2997 8.49985 12.2997C8.49985 12.2997 8.49985 12.2997 8.39985 12.2997C8.39985 12.2997 8.39985 12.2997 8.29985 12.2997C8.29985 12.2997 8.29985 12.2997 8.19985 12.2997C8.19985 12.2997 8.19985 12.2997 8.09985 12.2997C8.09985 12.2997 8.09985 12.2997 7.99985 12.2997C7.99985 12.2997 7.99985 12.2997 7.89985 12.2997C7.69985 12.2997 7.49985 12.1997 7.29985 12.0997C7.29985 12.0997 7.29985 12.0997 7.29985 11.9997C7.29985 11.9997 7.29985 11.9997 7.29985 11.8997C7.29985 11.8997 7.29985 11.8997 7.29985 11.7997C7.29985 11.7997 7.29985 11.7997 7.29985 11.6997C7.29985 11.6997 7.29985 11.6997 7.29985 11.5997C7.29985 11.5997 7.29985 11.5997 7.29985 11.4997C7.29985 11.4997 7.29985 11.4997 7.29985 11.3997C7.19985 11.5997 7.19985 11.5997 7.29985 11.4997C7.19985 11.4997 7.19985 11.4997 7.29985 11.4997Z" fill="white"/>
</svg>
