<svg width="22" height="24" viewBox="0 0 22 24" fill="none" xmlns="http://www.w3.org/2000/svg">
<g clip-path="url(#clip0)">
<path d="M21.5999 0.7C21.2999 0.3 20.8999 0 20.3999 0H1.39993C0.899935 0 0.399935 0.3 0.199935 0.7C-6.5431e-05 1.1 -6.5431e-05 1.7 0.299935 2.1C0.399935 2.2 0.599935 2.5 0.899935 2.9L7.49993 12C7.59993 12.2 7.69993 12.4 7.69993 12.7V22.6C7.69993 23.1 7.99993 23.6 8.49993 23.9C8.69993 24 8.89993 24 9.09993 24C9.39993 24 9.69993 23.9 9.89993 23.7L13.0999 21.3C13.5999 20.9 13.8999 20.3 13.8999 19.7V12.7C13.8999 12.5 13.9999 12.2 14.0999 12C20.3999 3.4 21.2999 2.1 21.3999 2.1C21.6999 1.7 21.7999 1.2 21.5999 0.7ZM18.4999 3H3.19993L2.39993 1.9H19.2999L18.4999 3Z" fill="white"/>
</g>
<defs>
<clipPath id="clip0">
<rect width="21.7" height="24" fill="white"/>
</clipPath>
</defs>
</svg>
