<svg width="49" height="44" viewBox="0 0 49 44" fill="none" xmlns="http://www.w3.org/2000/svg">
<g clip-path="url(#clip0)">
<path d="M36.5999 44H15.8C9.39995 44 4.19995 38.8 4.19995 32.4V11.6C4.19995 5.2 9.39995 0 15.8 0H36.5999C43 0 48.2 5.2 48.2 11.6V32.4C48.2 38.8 43 44 36.5999 44ZM15.8 1.3C10.2 1.3 5.59995 5.9 5.59995 11.5V32.3C5.59995 37.9 10.2 42.5 15.8 42.5H36.5999C42.1999 42.5 46.7999 37.9 46.7999 32.3V11.6C46.7999 6 42.1999 1.4 36.5999 1.4H15.8V1.3Z" fill="#EBEEF0"/>
<path opacity="0.2" d="M36.4 41H15.9C11.1 41 7.09998 37.1 7.09998 32.2V11.8C7.09998 7 11 3 15.9 3H36.4C41.2 3 45.2 6.9 45.2 11.8V32.3C45.2 37.1 41.3 41 36.4 41Z" fill="#0F8E70"/>
<path d="M6.09996 29.7001C6.69996 31.0001 7.49995 32.3001 8.39995 33.1001C8.59995 33.3001 8.79996 33.5001 8.99996 33.7001C6.79996 32.6001 3.29996 31.5001 2.89996 34.2001C2.49996 36.8001 8.79996 35.8001 10.3 35.1001C11.9 36.8001 13.3 38.6001 14.4 40.3001C12.9 39.6001 7.29996 37.1001 5.99996 39.1001C5.19996 40.3001 6.99996 42.1001 9.69995 42.0001C12 41.9001 14 40.9001 14.5 40.6001C15.1 41.5001 15.6 42.3001 15.9 43.1001L16.3 43.0001C16 42.2001 15.5 41.4001 14.9 40.5001C16.4 41.1001 19.6 36.7001 18.7 35.7001C17 33.9001 14.3 38.1001 14.5 39.8001C13.4 38.2001 12 36.6001 10.8 35.2001C12.3 34.6001 17.3 30.6001 13.6 28.7001C10.9 27.4001 10.1 32.6001 10.2 34.5001C9.59995 33.9001 9.09996 33.3001 8.59996 32.9001C7.89996 32.2001 7.29996 31.4001 6.79996 30.4001C7.79996 30.3001 13.9 25.8001 9.89995 23.9001C7.19995 22.5001 6.29996 28.0001 6.49996 29.9001C5.19996 27.2001 4.49996 23.9001 4.19996 22.3001C5.19996 21.3001 8.49996 13.7001 3.29996 14.2001C-0.700044 14.6001 2.69996 21.4001 3.79996 22.3001C4.09996 23.7001 4.59996 26.3001 5.59996 28.7001C3.99996 27.4001 0.599956 25.4001 -4.44502e-05 28.5001C-0.500044 31.1001 4.79996 30.3001 6.09996 29.7001Z" fill="#85BF60"/>
<path fill-rule="evenodd" clip-rule="evenodd" d="M33.6 12.8H18.2C17 12.8 15.9 13.8 15.9 15.1V29.3C15.9 30.5 16.9 31.6 18.2 31.6H33.6C34.8 31.6 35.9 30.6 35.9 29.3V15.1C35.9 13.8 34.9 12.8 33.6 12.8ZM28.9 16.2C30.1 16.2 31.1 17.2 31.1 18.4C31.1 19.6 30.1 20.6 28.9 20.6C27.7 20.6 26.7 19.6 26.7 18.4C26.7 17.1 27.6 16.2 28.9 16.2ZM32.9 29.4H19.2C18.6 29.4 18.3 29 18.6 28.4L22.3 21C22.6 20.5 23.1 20.4 23.5 20.9L27.3 25.8C27.7 26.3 28.3 26.3 28.7 25.9L29.6 25C30 24.6 30.6 24.6 31 25.1L33.4 28.5C33.7 29 33.5 29.4 32.9 29.4Z" fill="#0F8E70"/>
</g>
<defs>
<clipPath id="clip0">
<rect width="48.2" height="44" fill="white"/>
</clipPath>
</defs>
</svg>
