<svg width="24" height="24" viewBox="0 0 24 24" fill="none" xmlns="http://www.w3.org/2000/svg">
<path d="M24 6V2.7C24 1.2 22.7999 0 21.2999 0H18C17.6 0 17.2 0.4 17.2 0.8C17.2 1.2 17.6 1.6 18 1.6H21.2999C21.8999 1.6 22.4 2.1 22.4 2.7V6C22.4 6.4 22.8 6.8 23.2 6.8C23.6 6.8 24 6.5 24 6Z" fill="#617882" fill-opacity="0.5"/>
<path d="M6 0H2.7C1.2 0 0 1.2 0 2.7V6C0 6.4 0.4 6.8 0.8 6.8C1.2 6.8 1.6 6.5 1.6 6V2.7C1.6 2.1 2.1 1.6 2.7 1.6H6C6.4 1.6 6.8 1.2 6.8 0.8C6.8 0.4 6.5 0 6 0Z" fill="#617882" fill-opacity="0.5"/>
<path d="M6 22.4002H2.7C2.1 22.4002 1.6 21.9002 1.6 21.3002V18.0002C1.6 17.6002 1.2 17.2002 0.8 17.2002C0.4 17.2002 0 17.5002 0 18.0002V21.3002C0 22.8002 1.2 24.0002 2.7 24.0002H6C6.4 24.0002 6.8 23.6002 6.8 23.2002C6.8 22.8002 6.5 22.4002 6 22.4002Z" fill="#617882" fill-opacity="0.5"/>
<path d="M21.2999 24.0002C22.7999 24.0002 24 22.8002 24 21.3002V18.0002C24 17.6002 23.6 17.2002 23.2 17.2002C22.8 17.2002 22.4 17.6002 22.4 18.0002V21.3002C22.4 21.9002 21.8999 22.4002 21.2999 22.4002H18C17.6 22.4002 17.2 22.8002 17.2 23.2002C17.2 23.6002 17.5 24.0002 18 24.0002H21.2999Z" fill="#617882" fill-opacity="0.5"/>
<path d="M18.5 6.6001C18.1 6.6001 17.7 7.0001 17.7 7.4001V9.6001C17.7 10.0001 18.1 10.4001 18.5 10.4001C18.9 10.4001 19.2999 10.0001 19.2999 9.6001V7.4001C19.2999 7.0001 19 6.6001 18.5 6.6001Z" fill="#617882" fill-opacity="0.5"/>
<path d="M5.8 6.6001C5.4 6.6001 5 7.0001 5 7.4001V9.6001C5 10.0001 5.4 10.4001 5.8 10.4001C6.2 10.4001 6.6 10.0001 6.6 9.6001V7.4001C6.6 7.0001 6.3 6.6001 5.8 6.6001Z" fill="#617882" fill-opacity="0.5"/>
<path d="M13.0999 12.4001V7.4001C13.0999 7.0001 12.6999 6.6001 12.2999 6.6001C11.8999 6.6001 11.4999 7.0001 11.4999 7.4001V12.4001C11.4999 12.6001 11.3999 13.3001 10.1999 13.3001C9.7999 13.3001 9.3999 13.7001 9.3999 14.1001C9.3999 14.5001 9.7999 14.9001 10.1999 14.9001C12.9999 14.9001 13.0999 12.5001 13.0999 12.4001Z" fill="#617882" fill-opacity="0.5"/>
<path d="M15.8 16.8999C15.6 16.8999 15.4 16.8999 15.2 17.0999C14.3 17.7999 13 18.1999 11.6 18.1999C10.2 18.1999 8.90002 17.7999 8.00002 17.1999C7.90002 16.9999 7.70002 16.9999 7.50002 16.9999H7.40002C7.20002 16.9999 7.00002 17.0999 6.90002 17.2999C6.60002 17.6999 6.70002 18.1999 7.10002 18.3999C8.30002 19.2999 9.90002 19.7999 11.6 19.7999C13.3 19.7999 15 19.2999 16.2 18.3999C16.4 18.2999 16.5 18.0999 16.5 17.8999C16.5 17.6999 16.5 17.4999 16.3 17.2999C16.2 17.0999 16 16.9999 15.8 16.8999Z" fill="#617882" fill-opacity="0.5"/>
</svg>
