<svg width="24" height="24" viewBox="0 0 24 24" fill="none" xmlns="http://www.w3.org/2000/svg">
<g clip-path="url(#clip0)">
<path d="M11.3 16.9C11.4 17 11.5 17.1 11.6 17.1C11.7 17.1 11.8 17.2 12 17.2C12.1 17.2 12.3 17.2 12.4 17.1C12.5 17.1 12.5 17 12.6 17C12.7 17 12.7 16.9 12.8 16.9L16.7 13C17.1 12.6 17.1 12 16.7 11.6C16.3 11.2 15.7 11.2 15.3 11.6L13 13.8V1C13 0.5 12.6 0 12 0C11.4 0 11 0.4 11 1V13.8L8.80001 11.6C8.40001 11.2 7.80001 11.2 7.40001 11.6C7.00001 12 7.00001 12.6 7.40001 13L11.3 16.9Z" fill="white"/>
<path d="M23 15.7C22.5 15.7 22 16.1 22 16.7V21.1C22 21.6 21.6 22.1 21 22.1H2.89999C2.39999 22.1 1.89999 21.7 1.89999 21.1V16.7C1.89999 16.2 1.49999 15.7 0.899994 15.7C0.299994 15.7 -0.100006 16.1 -0.100006 16.7V21.1C-6.10203e-06 22.7 1.29999 24 2.89999 24H21C22.6 24 23.9 22.7 23.9 21.1V16.7C24 16.1 23.6 15.7 23 15.7Z" fill="white"/>
</g>
<defs>
<clipPath id="clip0">
<rect width="24" height="24" fill="white"/>
</clipPath>
</defs>
</svg>
