<svg width="16" height="16" viewBox="0 0 16 16" fill="none" xmlns="http://www.w3.org/2000/svg">
<path d="M8 16C12.4183 16 16 12.4183 16 8C16 3.58172 12.4183 0 8 0C3.58172 0 0 3.58172 0 8C0 12.4183 3.58172 16 8 16Z" fill="#0F8E70"/>
<path d="M12.0001 6.2999L7.4001 10.6999C7.3001 10.7999 7.1001 10.8999 7.0001 10.8999C6.8001 10.8999 6.7001 10.7999 6.5001 10.6999L4.0001 8.1999C3.8001 7.8999 3.8001 7.4999 4.0001 7.1999C4.3001 6.9999 4.7001 6.9999 5.0001 7.1999L7.0001 9.1999L11.1001 5.2999C11.4001 5.0999 11.8001 5.0999 12.0001 5.2999C12.2001 5.5999 12.2001 5.9999 12.0001 6.2999Z" fill="white"/>
</svg>
