<svg width="32" height="36" viewBox="0 0 32 36" fill="none" xmlns="http://www.w3.org/2000/svg">
<g clip-path="url(#clip0)">
<path d="M7.91209 6.72527V0C7.51648 0 7.31868 0.197802 7.12088 0.395604L0.395604 7.12088C0.197802 7.31868 0 7.51648 0 7.91209H6.72527C7.31868 7.91209 7.91209 7.31868 7.91209 6.72527Z" fill="#617882" fill-opacity="0.5"/>
<path d="M23.7363 0H10.0879V6.72528C10.0879 8.5055 8.50549 10.0879 6.72527 10.0879H0V32.8352C0 34.6154 1.58242 36.1978 3.36264 36.1978H20.5714C18.989 34.8132 18 32.6374 18 30.4615C18 26.1099 21.5604 22.5494 25.9121 22.5494C26.3077 22.5494 26.7033 22.5494 26.9011 22.5494V3.36264C26.9011 1.58242 25.5165 0 23.7363 0ZM13.4505 29.2747H6.72527C6.13187 29.2747 5.73626 28.8791 5.73626 28.2857C5.73626 27.6923 6.13187 27.2967 6.72527 27.2967H13.4505C14.044 27.2967 14.4396 27.6923 14.4396 28.2857C14.6374 28.6813 14.044 29.2747 13.4505 29.2747ZM13.4505 24.7253H6.72527C6.13187 24.7253 5.73626 24.3297 5.73626 23.7363C5.73626 23.1429 6.13187 22.7473 6.72527 22.7473H13.4505C14.044 22.7473 14.4396 23.1429 14.4396 23.7363C14.6374 24.3297 14.044 24.7253 13.4505 24.7253ZM20.1758 20.1758H6.72527C6.13187 20.1758 5.73626 19.7802 5.73626 19.1868C5.73626 18.5934 6.13187 18.1978 6.72527 18.1978H20.3736C20.967 18.1978 21.3626 18.5934 21.3626 19.1868C21.3626 19.7802 20.7692 20.1758 20.1758 20.1758ZM20.1758 15.6264H6.72527C6.13187 15.6264 5.73626 15.2308 5.73626 14.6374C5.73626 14.044 6.13187 13.6484 6.72527 13.6484H20.3736C20.967 13.6484 21.3626 14.044 21.3626 14.6374C21.3626 15.2308 20.7692 15.6264 20.1758 15.6264Z" fill="#617882" fill-opacity="0.5"/>
<path d="M25.912 24.5273C22.7472 24.5273 20.1758 27.0988 20.1758 30.2636C20.1758 33.4284 22.7472 35.9999 25.912 35.9999C29.0769 35.9999 31.6483 33.4284 31.6483 30.2636C31.6483 27.0988 29.0769 24.5273 25.912 24.5273ZM25.912 34.0218C25.3186 34.0218 24.923 33.6262 24.923 33.0328C24.923 32.4394 25.3186 32.0438 25.912 32.0438C26.5055 32.0438 26.9011 32.4394 26.9011 33.0328C26.9011 33.6262 26.5055 34.0218 25.912 34.0218ZM26.9011 29.6702C26.9011 30.2636 26.5055 30.6592 25.912 30.6592C25.3186 30.6592 24.923 30.2636 24.923 29.6702V27.4944C24.923 26.901 25.3186 26.5054 25.912 26.5054C26.5055 26.5054 26.9011 26.901 26.9011 27.4944V29.6702Z" fill="#617882" fill-opacity="0.5"/>
</g>
<defs>
<clipPath id="clip0">
<rect width="31.6483" height="36" fill="white"/>
</clipPath>
</defs>
</svg>
