<svg width="41" height="36" viewBox="0 0 41 36" fill="none" xmlns="http://www.w3.org/2000/svg">
<g clip-path="url(#clip0)">
<path d="M19.3999 23.1C19.6999 23.3 19.9999 23.4 20.2999 23.4C20.5999 23.4 20.8999 23.3 21.1999 23.1C21.4999 22.8 29.1999 16 29.1999 8.9C29.1999 4 25.1999 0 20.2999 0C15.3999 0 11.3999 4 11.3999 8.9C11.3999 16 19.0999 22.8 19.3999 23.1Z" fill="url(#paint0_linear)"/>
<path d="M20.3 6.6001C21.6 6.6001 22.6 7.6001 22.6 8.9001C22.6 10.2001 21.6 11.2001 20.3 11.2001C19 11.2001 18 10.2001 18 8.9001C18 7.6001 19.1 6.6001 20.3 6.6001Z" fill="white"/>
<path d="M37.4 23.1L36.4 19.5C36.2 18.9 35.7 18.5 35.1 18.5H27.7C27.4 18.9 27.2 19.3 26.9 19.7C24.8 22.5 22.7 24.3 22.5 24.5C21.9 25 21.1 25.3 20.3 25.3C19.5 25.3 18.7 25 18.1 24.5C17.9 24.3 15.8 22.4 13.7 19.7C13.4 19.3 13.1 18.9 12.9 18.5H5.6C5 18.5 4.5 18.9 4.3 19.5L3 23.8L30.5 28.8L37.4 23.1Z" fill="url(#paint1_linear)"/>
<path d="M40.6001 34.3L38.0001 25L24.9001 36H39.3001C39.7001 36 40.1001 35.8 40.4001 35.5C40.6001 35.1 40.7001 34.7 40.6001 34.3Z" fill="url(#paint2_linear)"/>
<path d="M6.70017 26.4001L2.50017 25.6001L0.000167985 34.2001C-0.099832 34.6001 0.000167981 35.1001 0.200168 35.4001C0.500168 35.8001 0.900168 36.0001 1.40017 36.0001H6.70017V26.4001Z" fill="url(#paint3_linear)"/>
<path d="M8.6001 26.7998V35.9998H22.0001L28.7001 30.3998L8.6001 26.7998Z" fill="url(#paint4_linear)"/>
</g>
<defs>
<linearGradient id="paint0_linear" x1="11.4328" y1="11.7231" x2="29.2222" y2="11.7231" gradientUnits="userSpaceOnUse">
<stop stop-color="#FFD400"/>
<stop offset="1" stop-color="#ECAF11"/>
</linearGradient>
<linearGradient id="paint1_linear" x1="20.2288" y1="28.3948" x2="20.2288" y2="15.3511" gradientUnits="userSpaceOnUse">
<stop stop-color="#01A7A3"/>
<stop offset="1" stop-color="#73D483"/>
</linearGradient>
<linearGradient id="paint2_linear" x1="32.7828" y1="28.3948" x2="32.7828" y2="15.3511" gradientUnits="userSpaceOnUse">
<stop stop-color="#01A7A3"/>
<stop offset="1" stop-color="#73D483"/>
</linearGradient>
<linearGradient id="paint3_linear" x1="3.33977" y1="28.3949" x2="3.33977" y2="15.3512" gradientUnits="userSpaceOnUse">
<stop stop-color="#01A7A3"/>
<stop offset="1" stop-color="#73D483"/>
</linearGradient>
<linearGradient id="paint4_linear" x1="18.5895" y1="28.3946" x2="18.5895" y2="15.3509" gradientUnits="userSpaceOnUse">
<stop stop-color="#01A7A3"/>
<stop offset="1" stop-color="#73D483"/>
</linearGradient>
<clipPath id="clip0">
<rect width="40.7" height="36" fill="white"/>
</clipPath>
</defs>
</svg>
