<svg width="23" height="28" viewBox="0 0 23 28" fill="none" xmlns="http://www.w3.org/2000/svg">
<g clip-path="url(#clip0)">
<path d="M1.75 24.5C1.75 26.425 3.325 28 5.25 28H17.5C19.425 28 21 26.425 21 24.5V10.5H1.75V24.5ZM14.875 13.125C14.875 12.6 15.225 12.25 15.75 12.25C16.275 12.25 16.625 12.6 16.625 13.125V23.625C16.625 24.15 16.275 24.5 15.75 24.5C15.225 24.5 14.875 24.15 14.875 23.625V13.125ZM10.5 13.125C10.5 12.6 10.85 12.25 11.375 12.25C11.9 12.25 12.25 12.6 12.25 13.125V23.625C12.25 24.15 11.9 24.5 11.375 24.5C10.85 24.5 10.5 24.15 10.5 23.625V13.125ZM6.125 13.125C6.125 12.6 6.475 12.25 7 12.25C7.525 12.25 7.875 12.6 7.875 13.125V23.625C7.875 24.15 7.525 24.5 7 24.5C6.475 24.5 6.125 24.15 6.125 23.625V13.125ZM21 3.5H15.75V1.75C15.75 0.7 15.05 0 14 0H8.75C7.7 0 7 0.7 7 1.75V3.5H1.75C0.7 3.5 0 4.2 0 5.25V7C0 8.05 0.7 8.75 1.75 8.75H21C22.05 8.75 22.75 8.05 22.75 7V5.25C22.75 4.2 22.05 3.5 21 3.5ZM14 3.5H8.75V2.625C8.75 2.1 9.1 1.75 9.625 1.75H13.125C13.65 1.75 14 2.1 14 2.625V3.5Z" fill="white"/>
</g>
<defs>
<clipPath id="clip0">
<rect width="22.75" height="28" fill="white"/>
</clipPath>
</defs>
</svg>
