<svg width="40" height="39" viewBox="0 0 40 39" fill="none" xmlns="http://www.w3.org/2000/svg">
<g clip-path="url(#clip0)">
<path d="M11.8 31.6C7.8 31.6 4.4 28.2 4.4 24.2C4.4 20.2 7.6 17 11.4 16.8H17C18.2 16.8 19 15.8 19 14.6V10.8C19.2 9.2 18 8 16.2 8H7.4C5.8 8 4.4 9.2 4.4 10.8V14.8C1.8 17.2 0 20.4 0 24.2C0 30.8 5.4 36 11.8 36C13.8 36 15.6 35.6 17.2 34.6C16.4 33.4 15.8 32 15.4 30.6C14.4 31.2 13.2 31.6 11.8 31.6ZM11.8 10.8C12.6 10.8 13.2 11.4 13.2 12.2C13.2 13 12.6 13.6 11.8 13.6C11 13.6 10.4 13 10.4 12.2C10.4 11.6 11 10.8 11.8 10.8ZM11.8 34.6C11.4 34.6 11 34.2 11 33.8C11 33.4 11.4 33 11.8 33C12.2 33 12.6 33.4 12.6 33.8C12.6 34.2 12.2 34.6 11.8 34.6Z" fill="#617882" fill-opacity="0.5"/>
<path d="M28.2 3.4H25.8C25.6 1.4 24 0 22.2 0H19.2C18.4 0 17.6 0.2 17 0.8C16.4 0.2 15.6 0 14.8 0H11.8C9.99996 0 8.39996 1.6 8.39996 3.4C8.39996 5.2 9.99996 7 11.8 7H14.8C15.6 7 16.4 6.8 17 6.2C17.6 6.8 18.4 7 19.2 7H21.6C21.6 8.8 23.2 10.4 25 10.4H28C30 10.4 31.4 8.8 31.4 7C31.4 5.2 30 3.4 28.2 3.4ZM29.2 6.8C29.2 7.4 28.8 7.8 28.2 7.8H25.2C24.6 7.8 24.2 7.4 24.2 6.8C24.2 6.2 24.6 5.8 25.2 5.8H28.2C28.6 5.8 29.2 6.2 29.2 6.8ZM23.2 3.4C23.2 4 22.8 4.4 22.2 4.4H19.2C18.8 4.4 18.2 4 18.2 3.4C18.2 2.8 18.6 2.4 19.2 2.4H22.2C22.8 2.4 23.2 3 23.2 3.4ZM15.8 3.4C15.8 4 15.4 4.4 14.8 4.4H11.8C11.4 4.4 10.8 4 10.8 3.4C10.8 2.8 11.2 2.4 11.8 2.4H14.8C15.4 2.4 15.8 3 15.8 3.4Z" fill="#617882" fill-opacity="0.5"/>
<path d="M36.8 18.9998C36.2 20.3998 35 21.1998 33.4 21.1998H32.6C34.4 22.5998 35.6 24.5998 35.6 27.1998C35.6 31.1998 32.2 34.5998 28.2 34.5998C24.2 34.5998 20.8 31.1998 20.8 27.1998C20.8 23.1998 24 19.9998 27.8 19.7998H33.4C34.6 19.7998 35.4 18.7998 35.4 17.5998V13.7998C35.4 12.1998 34 10.7998 32.4 10.7998H23.6C22 10.7998 20.6 12.1998 20.6 13.7998V17.7998C18 19.9998 16.2 23.3998 16.2 27.1998C16.2 33.7998 21.6 38.9998 28 38.9998C34.4 38.9998 39.8 33.5998 39.8 27.1998C40 23.9998 38.8 21.1998 36.8 18.9998ZM28.2 13.7998C29 13.7998 29.6 14.3998 29.6 15.1998C29.6 15.9998 29 16.5998 28.2 16.5998C27.4 16.5998 26.8 15.9998 26.8 15.1998C26.6 14.3998 27.4 13.7998 28.2 13.7998ZM28.2 37.5998C27.8 37.5998 27.4 37.1998 27.4 36.7998C27.4 36.3998 27.8 35.9998 28.2 35.9998C28.6 35.9998 29 36.3998 29 36.7998C28.8 37.1998 28.6 37.5998 28.2 37.5998Z" fill="#617882" fill-opacity="0.5"/>
</g>
<defs>
<clipPath id="clip0">
<rect width="40" height="39" fill="white"/>
</clipPath>
</defs>
</svg>
