<svg width="17" height="17" viewBox="0 0 17 17" fill="none" xmlns="http://www.w3.org/2000/svg">
<path d="M8.33333 16.6667C3.73083 16.6667 0 12.9358 0 8.33333C0 3.73083 3.73083 0 8.33333 0C12.9358 0 16.6667 3.73083 16.6667 8.33333C16.6667 12.9358 12.9358 16.6667 8.33333 16.6667ZM6.425 14.7225C5.60285 12.9786 5.12656 11.0918 5.0225 9.16667H1.71833C1.88049 10.4491 2.4116 11.6568 3.24714 12.6431C4.08268 13.6294 5.18668 14.3518 6.425 14.7225V14.7225ZM6.69167 9.16667C6.8175 11.1992 7.39833 13.1083 8.33333 14.7933C9.2936 13.0638 9.85454 11.1412 9.975 9.16667H6.69167V9.16667ZM14.9483 9.16667H11.6442C11.5401 11.0918 11.0638 12.9786 10.2417 14.7225C11.48 14.3518 12.584 13.6294 13.4195 12.6431C14.2551 11.6568 14.7862 10.4491 14.9483 9.16667V9.16667ZM1.71833 7.5H5.0225C5.12656 5.57482 5.60285 3.68807 6.425 1.94417C5.18668 2.3149 4.08268 3.03729 3.24714 4.02358C2.4116 5.00986 1.88049 6.21758 1.71833 7.5V7.5ZM6.6925 7.5H9.97417C9.85396 5.5255 9.29331 3.60294 8.33333 1.87333C7.37307 3.60287 6.81213 5.52543 6.69167 7.5H6.6925ZM10.2417 1.94417C11.0638 3.68807 11.5401 5.57482 11.6442 7.5H14.9483C14.7862 6.21758 14.2551 5.00986 13.4195 4.02358C12.584 3.03729 11.48 2.3149 10.2417 1.94417V1.94417Z" fill="#979797"/>
</svg>
