<svg width="16" height="16" viewBox="0 0 16 16" fill="none" xmlns="http://www.w3.org/2000/svg">
<path d="M15.1 6.1C14.8 5.8 14.6 5.5 14.5 5.3C14.4 5 14.4 4.6 14.3 4.2C14.2 3.5 14.2 2.8 13.7 2.3C13.2 1.8 12.4 1.7 11.8 1.7C11.4 1.7 11 1.6 10.7 1.5C10.4 1.4 10.2 1.2 9.9 0.9C9.3 0.5 8.8 0 8 0C7.2 0 6.7 0.5 6.1 0.9C5.9 1.2 5.6 1.4 5.3 1.5C5 1.6 4.7 1.7 4.3 1.7C3.6 1.8 2.9 1.8 2.3 2.3C1.8 2.9 1.8 3.6 1.7 4.3C1.7 4.7 1.6 5.1 1.5 5.4C1.4 5.6 1.2 5.9 0.9 6.1C0.5 6.7 0 7.2 0 8C0 8.8 0.5 9.3 0.9 9.9C1.1 10.2 1.4 10.5 1.5 10.7C1.6 11 1.6 11.4 1.7 11.8C1.8 12.5 1.8 13.2 2.3 13.7C2.8 14.2 3.6 14.3 4.2 14.3C4.6 14.3 5 14.4 5.3 14.5C5.6 14.6 5.8 14.8 6.1 15.1C6.7 15.5 7.2 16 8 16C8.8 16 9.3 15.5 9.9 15.1C10.2 14.8 10.5 14.6 10.7 14.5C11 14.4 11.4 14.4 11.8 14.3C12.5 14.2 13.2 14.2 13.7 13.7C14.2 13.2 14.3 12.4 14.3 11.8C14.3 11.4 14.4 11 14.5 10.7C14.6 10.4 14.8 10.2 15.1 9.9C15.5 9.3 16 8.8 16 8C16 7.2 15.5 6.7 15.1 6.1ZM14.3 9.2C14 9.5 13.7 9.9 13.5 10.3C13.3 10.7 13.3 11.2 13.2 11.7C13.2 12.2 13.1 12.8 12.9 13C12.6 13.3 12.1 13.3 11.6 13.3C11.1 13.3 10.7 13.4 10.2 13.6C9.8 13.8 9.4 14.1 9.1 14.4C8.8 14.7 8.4 15 8 15C7.6 15 7.2 14.7 6.8 14.3C6.5 14 6.1 13.7 5.7 13.5C5.3 13.3 4.8 13.3 4.3 13.2C3.8 13.2 3.2 13.1 3 12.9C2.7 12.6 2.7 12.1 2.7 11.6C2.7 11.1 2.6 10.7 2.4 10.2C2.3 9.9 2 9.5 1.7 9.2C1.3 8.8 1 8.4 1 8C1 7.6 1.3 7.2 1.7 6.8C2 6.5 2.3 6.1 2.5 5.7C2.7 5.3 2.7 4.8 2.8 4.3C2.8 3.8 2.9 3.2 3.1 3C3.4 2.7 3.9 2.7 4.4 2.7C4.9 2.7 5.3 2.6 5.8 2.4C6.1 2.3 6.5 2 6.8 1.7C7.2 1.3 7.6 1 8 1C8.4 1 8.8 1.3 9.2 1.7C9.5 2 9.9 2.3 10.3 2.5C10.7 2.7 11.2 2.7 11.7 2.8C12.2 2.8 12.8 2.9 13 3.1C13.3 3.4 13.3 3.9 13.3 4.4C13.3 4.9 13.4 5.3 13.6 5.8C13.8 6.2 14.1 6.6 14.4 6.9C14.7 7.2 15 7.6 15 8C15 8.4 14.7 8.8 14.3 9.2Z" fill="#1790C9"/>
<path d="M8 3.5C5.5 3.5 3.5 5.5 3.5 8C3.5 10.5 5.5 12.5 8 12.5C10.5 12.5 12.5 10.5 12.5 8C12.5 5.5 10.5 3.5 8 3.5ZM10.5 7.2L8 9.6C7.8 9.7 7.7 9.8 7.5 9.8C7.3 9.8 7.2 9.7 7 9.6L5.9 8.4C5.7 8.1 5.7 7.7 5.9 7.5C6.2 7.2 6.6 7.3 6.8 7.5L7.5 8.2L9.6 6.2C9.9 6 10.3 6 10.5 6.2C10.8 6.5 10.8 6.9 10.5 7.2Z" fill="#1790C9"/>
</svg>
