<svg width="16" height="16" viewBox="0 0 16 16" fill="none" xmlns="http://www.w3.org/2000/svg">
<path d="M8.70005 7.8V3.7C8.70005 3.3 8.40005 3 8.00005 3C7.60005 3 7.30005 3.3 7.30005 3.7V8C7.30005 8.1 7.40005 8.3 7.40005 8.4L9.80005 11.6C9.90005 11.8 10.1 11.9 10.3 11.9C10.5 11.9 10.6 11.9 10.7 11.8C10.8 11.7 10.9 11.5 11 11.3C11.1 11.1 11 10.9 10.9 10.8L8.70005 7.8Z" fill="#979797"/>
<path d="M8 0C3.6 0 0 3.6 0 8C0 12.4 3.6 16 8 16C12.4 16 16 12.4 16 8C16 3.6 12.4 0 8 0ZM8 14.6C4.3 14.6 1.4 11.6 1.4 8C1.4 4.4 4.4 1.4 8 1.4C11.6 1.4 14.6 4.4 14.6 8C14.6 11.6 11.7 14.6 8 14.6Z" fill="#979797"/>
</svg>
