<svg width="97" height="128" viewBox="0 0 97 128" fill="none" xmlns="http://www.w3.org/2000/svg">
<g clip-path="url(#clip0)">
<path d="M96.7111 42.7148C96.7111 42.7148 77.3401 38.097 78.9243 14.7915C78.9243 14.7915 69.1308 7.21535 48.7516 7.07104C48.6076 7.07104 48.4636 7.07104 48.3916 7.07104C48.2475 7.07104 48.1035 7.07104 48.0315 7.07104C27.5803 7.21535 17.7868 14.7915 17.7868 14.7915C19.371 38.0248 0 42.7148 0 42.7148C11.3058 99.3552 48.1035 103.901 48.3195 103.901C48.6076 103.901 85.4053 99.3552 96.7111 42.7148Z" fill="#FFDB00"/>
<path d="M84.6852 45.8895C84.6852 45.8895 70.1389 42.4262 71.2911 24.8929C71.2911 24.8929 63.946 19.1928 48.6076 19.0485C48.5356 19.0485 48.3915 19.0485 48.3195 19.0485C48.2475 19.0485 48.1035 19.0485 48.0315 19.0485C32.6931 19.1928 25.3479 24.8929 25.3479 24.8929C26.5001 42.354 11.9539 45.8895 11.9539 45.8895C20.4512 88.5321 48.1035 91.9234 48.3195 91.9234C48.5356 91.9234 76.1879 88.46 84.6852 45.8895Z" fill="#0FB870"/>
<path d="M29.3806 81.6054H51.5601C53.8645 81.6054 55.7367 79.7294 55.7367 77.4205V17.4611V6.0609C55.7367 3.75199 53.8645 1.87601 51.5601 1.87601H21.6034C19.299 1.87601 17.4268 3.75199 17.4268 6.0609V41.6325V64.2165" fill="#0F8E70"/>
<path d="M15.8425 60.3924V42.7148" stroke="black" stroke-miterlimit="10"/>
<path d="M52.5683 0H20.9553C18.0749 0 15.8425 2.30891 15.8425 5.12289V42.7148V60.4645C16.3466 61.7633 16.9227 63.062 17.4268 64.2886V41.6325V6.06088C17.4268 3.75197 19.2991 1.87599 21.6034 1.87599H51.6321C53.9365 1.87599 55.8088 3.75197 55.8088 6.06088V17.4611V77.4205C55.8088 79.7294 53.9365 81.6054 51.6321 81.6054H29.3806C30.1008 82.2548 30.8209 82.9042 31.469 83.5536H52.5683C55.3767 83.5536 57.6811 81.2446 57.6811 78.4307V17.7497V5.12289C57.6811 2.30891 55.3767 0 52.5683 0Z" fill="white"/>
<path d="M53.3605 38.7463V44.8072L49.1118 38.7463H23.9799C21.6755 38.7463 19.8032 37.0147 19.8032 34.8501V27.274C19.8032 25.398 21.4595 23.8106 23.5478 23.8106H49.5439C51.6322 23.8106 53.3605 25.398 53.3605 27.274V38.7463Z" fill="white"/>
<path d="M42.3427 51.8783H30.5328C28.0844 51.8783 26.0681 49.858 26.0681 47.4047C26.0681 44.9515 28.0844 42.9312 30.5328 42.9312H42.3427C44.791 42.9312 46.8074 44.9515 46.8074 47.4047C46.8074 49.858 44.791 51.8783 42.3427 51.8783Z" fill="#FFDB00"/>
<path d="M45.6552 5.12286H30.3168C29.8847 5.12286 29.5247 4.7621 29.5247 4.32918C29.5247 3.89626 29.8847 3.53549 30.3168 3.53549H45.6552C46.0872 3.53549 46.4473 3.89626 46.4473 4.32918C46.4473 4.7621 46.1593 5.12286 45.6552 5.12286Z" fill="white"/>
<path d="M26.2123 5.12286C26.6498 5.12286 27.0044 4.76752 27.0044 4.32918C27.0044 3.89084 26.6498 3.53549 26.2123 3.53549C25.7748 3.53549 25.4202 3.89084 25.4202 4.32918C25.4202 4.76752 25.7748 5.12286 26.2123 5.12286Z" fill="white"/>
<path d="M25.7801 27.9955L25.564 29.8715L27.5083 29.3664L27.6524 30.6652L25.9241 30.8095L27.0763 32.3247L25.9241 32.9741L25.132 31.3867L24.4119 32.9741L23.1877 32.3247L24.3398 30.8095L22.6116 30.6652L22.8276 29.3664L24.6999 29.8715L24.4839 27.9955H25.7801Z" fill="#0F8E70"/>
<path d="M31.469 27.9955L31.253 29.8715L33.1973 29.3664L33.3413 30.6652L31.6131 30.8095L32.7652 32.3247L31.6131 32.9741L30.8209 31.3867L30.1008 32.9741L28.8766 32.3247L30.0288 30.8095L28.3005 30.6652L28.5166 29.3664L30.3889 29.8715L30.1728 27.9955H31.469Z" fill="#0F8E70"/>
<path d="M37.2298 27.9955L37.0137 29.8715L38.958 29.3664L39.1021 30.6652L37.3738 30.8095L38.526 32.3247L37.3738 32.9741L36.5817 31.3867L35.8616 32.9741L34.6374 32.3247L35.7896 30.8095L34.0613 30.6652L34.2773 29.3664L36.1496 29.8715L35.9336 27.9955H37.2298Z" fill="#0F8E70"/>
<path d="M42.9908 27.9955L42.7747 29.8715L44.719 29.3664L44.8631 30.6652L43.1348 30.8095L44.287 32.3247L43.1348 32.9741L42.3427 31.3867L41.6225 32.9741L40.3984 32.3247L41.5505 30.8095L39.8223 30.6652L40.0383 29.3664L41.9106 29.8715L41.6946 27.9955H42.9908Z" fill="#0F8E70"/>
<path d="M48.7517 27.9955L48.5357 29.8715L50.48 29.3664L50.624 30.6652L48.8958 30.8095L50.0479 32.3247L48.8958 32.9741L48.1036 31.3867L47.3835 32.9741L46.0873 32.3247L47.2395 30.8095L45.5112 30.6652L45.7273 29.3664L47.5996 29.8715L47.3835 27.9955H48.7517Z" fill="#0F8E70"/>
<path d="M57.681 46.7554V59.9594C57.681 59.9594 58.9052 64.7937 59.6973 65.9482C60.4894 67.1748 55.3046 75.9775 53.2883 76.7711C51.272 77.5648 44.5029 75.5445 43.7108 71.5761C42.9187 67.6077 41.2624 61.186 39.6061 60.8253C38.0219 60.3923 35.7896 70.4217 35.7896 75.2559C35.7896 78.5028 40.0382 86.0068 42.7026 90.4803C46.3752 91.9955 48.7516 92.2841 48.8236 92.2841C48.9676 92.2841 58.185 91.1297 67.7625 82.1105C69.2748 78.2864 71.0031 74.6065 71.6512 70.4217C72.8753 62.3405 57.681 46.7554 57.681 46.7554Z" fill="#FFCBA7"/>
<path d="M78.0602 46.4151C83.4399 44.2258 86.0298 38.0813 83.8448 32.6909C81.6598 27.3005 75.5274 24.7056 70.1476 26.8949C64.7679 29.0842 62.178 35.2287 64.363 40.6191C66.548 46.0094 72.6804 48.6044 78.0602 46.4151Z" fill="#F49860"/>
<path d="M75.9349 55.1077C76.2159 53.3771 75.0436 51.7459 73.3164 51.4643C71.5893 51.1828 69.9613 52.3574 69.6802 54.088C69.3992 55.8185 70.5715 57.4497 72.2987 57.7313C74.0259 58.0129 75.6538 56.8383 75.9349 55.1077Z" fill="#FECC15"/>
<path d="M69.7788 128H29.4525C25.9959 128 23.1875 125.186 23.1875 121.723V114.507C23.1875 111.044 25.9959 108.23 29.4525 108.23H69.7788C73.2353 108.23 76.0438 111.044 76.0438 114.507V121.723C75.9717 125.186 73.1633 128 69.7788 128Z" fill="#FFDB00"/>
<path d="M44.2869 118.837C44.2869 120.929 43.7828 122.589 42.7026 123.671C41.6944 124.825 40.1822 125.402 38.2379 125.402C36.2936 125.402 34.7814 124.825 33.7732 123.671C32.7651 122.516 32.189 120.929 32.189 118.764C32.189 116.672 32.693 115.012 33.7732 113.93C34.8534 112.848 36.2936 112.271 38.2379 112.271C40.1822 112.271 41.6944 112.848 42.7026 113.93C43.7828 115.085 44.2869 116.744 44.2869 118.837ZM34.9974 118.837C34.9974 120.28 35.2854 121.362 35.7895 122.083C36.2936 122.805 37.1577 123.166 38.2379 123.166C40.3982 123.166 41.4784 121.723 41.4784 118.837C41.4784 115.95 40.3982 114.507 38.2379 114.507C37.1577 114.507 36.3656 114.868 35.7895 115.59C35.2854 116.311 34.9974 117.393 34.9974 118.837Z" fill="#0749A8"/>
<path d="M51.848 125.258H49.1836V114.724H45.7271V112.487H55.3045V114.724H51.848V125.258Z" fill="#0749A8"/>
<path d="M66.0344 116.455C66.0344 117.826 65.6023 118.909 64.7382 119.63C63.8741 120.352 62.6499 120.713 61.0656 120.713H59.9134V125.258H57.249V112.487H61.2817C62.7939 112.487 64.0181 112.848 64.8102 113.497C65.6023 114.147 66.0344 115.157 66.0344 116.455ZM59.9134 118.476H60.7776C61.6417 118.476 62.2178 118.331 62.6499 117.971C63.0819 117.61 63.298 117.177 63.298 116.528C63.298 115.878 63.1539 115.445 62.7939 115.157C62.4338 114.868 61.9298 114.724 61.1376 114.724H59.9134V118.476Z" fill="#0749A8"/>
</g>
<defs>
<clipPath id="clip0">
<rect width="96.7111" height="128" fill="white"/>
</clipPath>
</defs>
</svg>
