<svg width="16" height="16" viewBox="0 0 16 16" fill="none" xmlns="http://www.w3.org/2000/svg">
<g clip-path="url(#clip0)">
<path d="M9.39995 2.09987C9.79995 2.09987 10.1 1.79987 10.1 1.39987C10.1 0.999868 9.79995 0.699868 9.49995 0.699868C9.09995 0.599868 8.69995 0.999868 8.69995 1.39987C8.69995 1.69987 8.99995 2.09987 9.39995 2.09987Z" fill="#1790C9"/>
<path d="M15.5 8.70005C15.5 8.70005 15.4 8.70005 15.5 8.70005C15.4 8.60005 15.4 8.50005 15.4 8.50005C15.4 8.50005 15.3 8.50005 15.3 8.40005L15.2 8.30005H15.1H15C14.6 8.30005 14.3 8.60005 14.3 8.90005C14.3 9.00005 14.3 9.20005 14.4 9.30005C14.4 9.40005 14.5 9.40005 14.6 9.50005C14.6 9.50005 14.6 9.50005 14.7 9.60005C14.8 9.70005 14.9 9.70005 15 9.70005C15.4 9.70005 15.7 9.40005 15.7 9.10005C15.5 8.90005 15.5 8.80005 15.5 8.70005Z" fill="#1790C9"/>
<path d="M13.9 6.59995C13.9 6.69995 13.9 6.69995 14 6.79995C14.1 6.89995 14.1 6.99995 14.2 6.99995C14.2 6.99995 14.2 6.99995 14.3 6.99995C14.4 7.09995 14.5 7.09995 14.6 7.09995C14.7 7.09995 14.7 7.09995 14.8 7.09995C15.2 6.99995 15.4 6.59995 15.3 6.19995C15.3 6.09995 15.2 5.99995 15.2 5.99995C15.2 5.99995 15.2 5.99995 15.1 5.89995L15 5.79995H14.9C14.9 5.79995 14.8 5.79995 14.8 5.69995H14.7C14.7 5.69995 14.7 5.69995 14.6 5.69995C14.5 5.69995 14.5 5.69995 14.4 5.69995C14.1 5.79995 13.8 6.19995 13.9 6.59995Z" fill="#1790C9"/>
<path d="M12.9001 4.5C13.0001 4.5 13.0001 4.5 12.9001 4.5C13.0001 4.6 13.0001 4.7 13.1001 4.7L13.2001 4.8C13.3001 4.9 13.4001 4.9 13.5001 4.9C13.6001 4.9 13.6001 4.9 13.7001 4.9C13.8001 4.9 13.8001 4.9 13.9001 4.8C14.0001 4.8 14.0001 4.7 14.0001 4.6C14.0001 4.6 14.0001 4.6 14.0001 4.5C14.0001 4.4 14.1001 4.4 14.1001 4.3C14.1001 4.2 14.1001 4.2 14.1001 4.1C14.1001 4.1 14.1001 4.1 14.1001 4C14.1001 3.9 14.0001 3.8 14.0001 3.8C14.0001 3.6 14.0001 3.6 13.9001 3.5H13.8001C13.7001 3.5 13.7001 3.5 13.6001 3.5C13.6001 3.5 13.6001 3.5 13.5001 3.5C13.4001 3.5 13.2001 3.5 13.1001 3.6C12.8001 3.8 12.8001 4.2 12.9001 4.5Z" fill="#1790C9"/>
<path d="M11.1001 2.7001C11.1001 2.7001 11.1001 2.8001 11.1001 2.7001C11.2001 2.8001 11.2001 2.8001 11.2001 2.8001C11.2001 2.8001 11.2001 2.8001 11.3001 2.9001C11.3001 2.9001 11.3001 2.9001 11.4001 3.0001H11.5001C11.5001 3.0001 11.5001 3.0001 11.6001 3.0001C11.7001 3.0001 11.7001 3.0001 11.8001 3.0001C12.0001 3.0001 12.2001 2.9001 12.4001 2.7001C12.6001 2.4001 12.5001 1.9001 12.2001 1.7001C12.1001 1.7001 12.0001 1.6001 12.0001 1.6001H11.9001H11.8001C11.6001 1.6001 11.4001 1.7001 11.2001 1.9001C11.0001 2.2001 11.0001 2.5001 11.1001 2.7001Z" fill="#1790C9"/>
<path d="M14.2001 10.7C14.2001 10.7 14.1001 10.7 14.2001 10.7C14.1001 10.7 14.1001 10.7 14.2001 10.7C13.7001 10.7 13.4001 11 13.4001 11.4C13.4001 11.5 13.4001 11.6 13.5001 11.7C13.5001 11.8 13.6001 11.8 13.7001 11.9C13.7001 11.9 13.7001 11.9 13.8001 12C13.9001 12.1 14.0001 12.1 14.1001 12.1C14.2001 12.1 14.3001 12.1 14.4001 12C14.6001 11.9 14.8001 11.7 14.8001 11.4C14.8001 11 14.6001 10.7 14.2001 10.7Z" fill="#1790C9"/>
<path d="M13.0001 12.6C12.8001 12.5 12.5001 12.6 12.3001 12.8C11.2001 13.9 9.60006 14.6 8.00006 14.7C4.50006 14.8 1.50006 12 1.40006 8.49999C1.30006 5.89999 2.70006 3.59999 4.90006 2.49999L5.10006 3.39999C5.20006 3.59999 5.40006 3.69999 5.60006 3.49999L7.70006 1.29999C7.90006 1.29999 7.80006 0.999987 7.60006 0.999987L4.70006 -1.26958e-05C4.50006 -0.100013 4.30006 0.0999873 4.40006 0.299987L4.60006 1.09999C1.70006 2.39999 -0.0999442 5.29999 5.58207e-05 8.39999C0.100056 11.2 1.60006 13.6 3.80006 14.9C3.80006 14.9 3.80006 14.9 3.70006 14.9C3.70006 14.9 3.80006 14.9 3.80006 15C4.00006 15.1 4.30006 15.2 4.50006 15.4C4.60006 15.4 4.60006 15.5 4.70006 15.5C5.00006 15.6 5.30006 15.7 5.60006 15.8C5.70006 15.8 5.70006 15.8 5.80006 15.8C6.10006 15.9 6.30006 15.9 6.60006 16C6.70006 16 6.80006 16 6.90006 16C7.20006 16 7.60006 16.1 7.90006 16C8.90006 16 9.90006 15.8 10.8001 15.4C11.7001 15 12.5001 14.5 13.2001 13.8C13.3001 13.7 13.4001 13.5 13.4001 13.3C13.4001 13.1 13.3001 12.9 13.1001 12.8C13.2001 12.6 13.1001 12.6 13.0001 12.6Z" fill="#1790C9"/>
</g>
<defs>
<clipPath id="clip0">
<rect width="15.5" height="16" fill="white"/>
</clipPath>
</defs>
</svg>
