<svg width="36" height="34" viewBox="0 0 36 34" fill="none" xmlns="http://www.w3.org/2000/svg">
<g clip-path="url(#clip0)">
<path d="M23.7176 20.2583C25.4117 19.125 26.5412 17.1417 26.5412 15.0167H23.5764V13.3166L23.7176 13.175C25.4117 12.0417 26.5412 10.0583 26.5412 7.93332H23.5764V7.50832C23.5764 6.94165 23.1529 6.65832 22.7294 6.65832H13.2706C12.7059 6.51665 12.2823 6.94165 12.2823 7.50832V8.07498H9.31763C9.31763 10.2 10.3059 12.1833 12.1412 13.3166L12.2823 13.4583V15.0167H9.31763C9.31763 17.1417 10.3059 19.125 12.1412 20.2583L12.2823 20.4V21.9583H9.31763C9.31763 24.0833 10.3059 26.0667 12.1412 27.2L12.2823 27.3417V28.9C12.2823 29.4667 12.7059 29.75 13.1294 29.75H15.6706V33.575H20.1882V29.75H22.7294C23.2941 29.75 23.5764 29.325 23.5764 28.9V27.3417L23.7176 27.2C25.4117 26.0667 26.5412 24.0833 26.5412 21.9583H23.5764L23.7176 20.2583ZM18.9176 27.625C18.6353 27.7667 18.3529 27.7667 18.0706 27.7667C17.647 27.7667 17.3647 27.625 16.9412 27.4833C16.0941 27.0583 15.3882 26.0667 15.3882 25.075C15.3882 23.6583 16.5176 22.3833 18.0706 22.3833C19.0588 22.3833 20.047 22.95 20.4706 23.9417C20.6117 24.225 20.7529 24.65 20.7529 25.075C20.6117 26.2083 19.9059 27.2 18.9176 27.625ZM17.9294 20.6833C16.5176 20.6833 15.3882 19.55 15.3882 18.1333C15.3882 16.7167 16.5176 15.5833 17.9294 15.5833C19.3412 15.5833 20.6117 16.7167 20.6117 18.275C20.6117 19.55 19.4823 20.6833 17.9294 20.6833ZM17.9294 13.7417C16.5176 13.7417 15.247 12.6083 15.247 11.1917C15.247 9.77498 16.3765 8.49998 17.7882 8.49998C18.7765 8.49998 19.7647 9.06665 20.1882 10.0583C20.3294 10.3417 20.4706 10.7667 20.4706 11.1917C20.6117 12.4667 19.4823 13.7417 17.9294 13.7417Z" fill="#617882" fill-opacity="0.5"/>
<path d="M35.153 26.0665L27.6706 12.1832C27.2471 12.7498 26.6824 13.3165 26.1177 13.8832L33.3177 27.1998C33.7412 27.9082 33.8824 28.7582 33.6 29.6082C33.4588 29.8915 33.4588 30.1748 33.3177 30.3165C32.753 31.3082 31.7647 31.8748 30.6353 31.8748H17.9294H5.22355C4.09413 31.8748 3.1059 31.3082 2.54119 30.3165C1.97649 29.3248 1.97649 28.0498 2.54119 27.0582L9.74119 13.7415C9.17649 13.1748 8.75296 12.6082 8.32943 12.0415L0.705898 26.0665C-0.282337 27.7665 -0.282337 29.7498 0.705898 31.4498C1.69413 33.0082 3.38825 33.9998 5.22355 33.9998H17.9294H30.6353C31.6235 33.9998 32.4706 33.7165 33.3177 33.2915C34.1647 32.8665 34.7294 32.1582 35.2941 31.3082C36.1412 29.6082 36.1412 27.6248 35.153 26.0665Z" fill="#617882" fill-opacity="0.5"/>
<path d="M15.2471 3.68333C15.8118 2.69167 16.8 2.125 17.9294 2.125C18.7765 2.125 19.6235 2.40833 20.1882 2.975C20.3294 3.11667 20.6118 3.4 20.7529 3.68333L21.0353 4.25H23.4353L22.5882 2.55C22.4471 2.40833 22.3059 2.125 22.1647 1.98333C21.6 1.275 20.8941 0.708333 20.0471 0.425C19.3412 0.141667 18.6353 0 17.9294 0C16.0941 0 14.4 0.991667 13.4118 2.55L12.5647 4.25H14.9647L15.2471 3.68333Z" fill="#617882" fill-opacity="0.5"/>
</g>
<defs>
<clipPath id="clip0">
<rect width="36" height="34" fill="white"/>
</clipPath>
</defs>
</svg>
