<svg width="40" height="40" viewBox="0 0 40 40" fill="none" xmlns="http://www.w3.org/2000/svg">
<path d="M37.5 17.5C36.5 17.5 35.8333 18 35.3333 18.8333H33C32.8333 16 31.6667 13.6667 30.1667 11.6667L31.8333 10C32.6667 10.1667 33.6667 10 34.1667 9.33333C35.1667 8.33333 35.1667 6.83333 34.1667 5.83333C33.1667 4.83333 31.6667 4.83333 30.6667 5.83333C30 6.5 29.6667 7.5 30 8.33333L28.3333 10C26.3333 8.33333 23.8333 7.33333 21.1667 7V4.66667C21.8333 4.16667 22.5 3.5 22.5 2.5C22.5 1.16667 21.3333 0 20 0C18.6667 0 17.5 1.16667 17.5 2.5C17.5 3.5 18 4.16667 18.8333 4.66667V7C16 7.16667 13.6667 8.33333 11.6667 9.83333L10 8.33333C10.1667 7.5 10 6.5 9.33333 6C8.33333 5 6.83333 5 5.83333 6C4.83333 7 4.83333 8.5 5.83333 9.5C6.5 10 7.5 10.3333 8.33333 10L10 11.6667C8.33333 13.6667 7.33333 16.1667 7 18.8333H4.66667C4.16667 18.1667 3.5 17.5 2.5 17.5C1.16667 17.5 0 18.6667 0 20C0 21.3333 1.16667 22.5 2.5 22.5C3.5 22.5 4.16667 22 4.66667 21.1667H7C7.16667 24 8.33333 26.3333 9.83333 28.3333L8.16667 30C7.33333 29.8333 6.33333 30 5.83333 30.6667C4.83333 31.6667 4.83333 33.1667 5.83333 34.1667C6.83333 35.1667 8.33333 35.1667 9.33333 34.1667C10 33.5 10.3333 32.5 10 31.6667L11.6667 30C13.6667 31.6667 16.1667 32.6667 18.8333 33V35.3333C18.1667 35.8333 17.5 36.5 17.5 37.5C17.5 38.8333 18.6667 40 20 40C21.3333 40 22.5 38.8333 22.5 37.5C22.5 36.5 22 35.8333 21.1667 35.3333V33C23.8333 32.6667 26.3333 31.6667 28.3333 30L30 31.6667C29.8333 32.5 30 33.5 30.6667 34C31.6667 35 33.1667 35 34.1667 34C35.1667 33 35.1667 31.5 34.1667 30.5C33.5 30 32.5 29.6667 31.6667 30L30 28.3333C31.6667 26.3333 32.6667 23.8333 33 21.1667H35.3333C35.8333 21.8333 36.5 22.5 37.5 22.5C38.8333 22.5 40 21.3333 40 20C40 18.6667 38.8333 17.5 37.5 17.5ZM15.8333 19.3333C14.6667 19.3333 13.6667 18.3333 13.6667 17.1667C13.6667 16 14.6667 15 15.8333 15C17 15 18 16 18 17.1667C18 18.3333 17 19.3333 15.8333 19.3333ZM21.1667 26.8333C19.8333 26.8333 18.6667 25.6667 18.6667 24.3333C18.6667 23 19.8333 21.8333 21.1667 21.8333C22.5 21.8333 23.6667 23 23.6667 24.3333C23.6667 25.8333 22.6667 26.8333 21.1667 26.8333ZM25.6667 18.1667C24.6667 18.1667 23.8333 17.3333 23.8333 16.3333C23.8333 15.3333 24.6667 14.5 25.6667 14.5C26.6667 14.5 27.5 15.3333 27.5 16.3333C27.5 17.3333 26.6667 18.1667 25.6667 18.1667Z" fill="#617882" fill-opacity="0.5"/>
</svg>
