<svg width="165" height="231" viewBox="0 0 165 231" fill="none" xmlns="http://www.w3.org/2000/svg">
<g clip-path="url(#clip0)">
<path fill-rule="evenodd" clip-rule="evenodd" d="M62.8587 186.343C58.5278 178.114 56.5997 166.436 62.8529 158.485C65.481 155.163 70.4226 152.782 71.81 148.557C73.5568 143.32 70.7101 138.202 71.5749 132.796C72.409 127.55 78.6219 125.911 81.067 121.806C83.875 117.104 79.9823 111.37 82.8056 106.588C84.777 103.223 88.4615 103.513 91.4556 101.757C97.8257 97.9863 90.6145 82.6368 102.469 85.4035C103.977 85.7751 105.47 86.227 106.711 87.1296C108.322 88.2693 109.955 90.1617 109.718 92.2783C109.224 96.1753 105.088 99.126 105.186 102.97C105.348 108.655 112.143 113.115 109.14 119.276C106.969 123.684 100.181 123.549 98.9265 128.382C97.099 135.35 105.352 141.752 105.972 148.523C106.661 155.806 98.0956 157.577 96.3753 163.983C94.8232 169.507 99.2966 173.938 99.0237 179.291C98.5581 190.012 85.1648 197.928 75.1615 196.347L62.8587 186.343Z" fill="#00B861"/>
<path fill-rule="evenodd" clip-rule="evenodd" d="M102.455 92.4651L102.524 92.9772L102.508 93.0574L102.321 93.6037L102.133 94.15L102.042 94.6313L102.026 94.7116L101.839 95.2579L101.652 95.8041L101.464 96.3504L101.277 96.8967L101.09 97.443L100.902 97.9893L100.715 98.5356L100.528 99.0818L100.42 99.6435L100.313 100.205L100.206 100.767L100.099 101.328L99.9919 101.89L99.8848 102.452L99.7776 103.013L99.6705 103.575L99.5633 104.136L99.4562 104.698L99.3797 105.099L99.3644 105.179L99.2572 105.741L99.1501 106.303L99.0429 106.864L98.9358 107.426L98.8287 107.988L98.6144 109.111L98.4001 110.234L98.1858 111.357L97.9715 112.481L97.7573 113.604L97.543 114.727L97.1144 116.974L97.0226 117.455L96.9001 118.097L96.6056 119.205L96.3111 120.313L96.0167 121.42L95.7222 122.528L95.4277 123.636L95.3206 124.198L95.2134 124.76L95.1063 125.321L94.9991 125.883L94.892 126.444L94.7849 127.006L94.7542 127.166L94.6777 127.568L94.4904 128.114L94.0238 129.688L93.6375 131.277L93.2512 132.866L92.8649 134.456L92.4785 136.045L92.3867 136.526L92.0922 137.634L91.6257 139.208L91.1592 140.782L90.291 144.026L89.4229 147.269L89.3769 147.51L88.57 150.432L87.7019 153.676L85.9809 160.083L85.499 161.737L85.0478 163.231L84.1796 166.474L83.3115 169.718L82.8449 171.292L82.3784 172.866L81.9119 174.439L81.4454 176.013L80.9788 177.587L80.5123 179.161L79.9545 179.47L79.6453 178.912L80.0317 177.323L80.418 175.734L80.8043 174.145L81.1906 172.555L81.5769 170.966L81.9633 169.377L82.7512 166.118L83.5392 162.859L83.9102 161.35L84.3118 159.68L85.7922 153.228L86.5801 149.969L87.3069 147.031L87.3528 146.79L88.1407 143.531L88.9287 140.273L89.315 138.683L89.7013 137.094L89.9958 135.986L90.0876 135.505L90.474 133.915L90.8603 132.326L91.2466 130.737L91.6329 129.147L92.0193 127.558L92.1264 126.997L92.2029 126.595L92.2335 126.435L92.3407 125.873L92.4478 125.312L92.555 124.75L92.6621 124.188L92.7692 123.627L92.8764 123.065L93.1709 121.957L93.4654 120.849L93.7598 119.741L94.0543 118.634L94.3488 117.526L94.4713 116.884L94.5631 116.402L95.1368 114.267L95.4312 113.159L95.7257 112.051L96.0202 110.943L96.3147 109.835L96.6092 108.727L96.9037 107.619L97.091 107.073L97.2784 106.527L97.4657 105.981L97.6531 105.434L97.8404 104.888L97.8557 104.808L98.0125 104.422L98.1998 103.876L98.3872 103.329L98.5745 102.783L98.7618 102.237L98.9492 101.691L99.1365 101.144L99.3239 100.598L99.5112 100.052L99.6986 99.5054L99.8859 98.9591L100.073 98.4129L100.261 97.8666L100.448 97.3203L100.635 96.774L100.823 96.2277L101.01 95.6814L101.197 95.1351L101.385 94.5889L101.4 94.5086L101.557 94.1228L101.744 93.5765L101.931 93.0302L101.947 92.95L102.344 92.6102L102.711 92.4309L102.455 92.4651Z" fill="#0F8E70"/>
<path fill-rule="evenodd" clip-rule="evenodd" d="M60.5047 208.336C60.5047 208.336 65.9444 166.522 113.503 145.546C123.26 141.245 144.295 143.948 130.084 170.483C121.08 187.477 83.3725 211.733 60.5047 208.336Z" fill="#5F90FF"/>
<path d="M60.5025 208.336C60.5025 208.336 65.945 166.525 113.505 145.546C123.262 141.245 144.297 143.947 130.085 170.481C121.08 187.475 83.3701 211.732 60.5025 208.336Z" fill="#00BD86"/>
<path fill-rule="evenodd" clip-rule="evenodd" d="M120.534 158.553C120.714 158.237 120.811 157.945 120.908 157.652C123.058 151.921 122.197 145.362 118.808 139.695C118.808 139.695 118.609 139.309 118.415 139.894C118.461 140.058 118.614 140.28 118.66 140.443C121.523 146.79 121.194 154.215 117.904 160.356C115.5 162.007 113.12 163.74 110.716 165.391C111.201 162.339 111.46 156.259 108.094 150.673C107.089 149.014 105.447 147.004 105.447 147.004C105.258 146.969 104.963 146.876 104.773 146.841C104.773 146.841 107.688 152.731 108.905 156.098C110.076 159.3 110.463 162.901 109.609 166.234C106.467 168.447 103.408 170.637 100.266 172.85C100.183 172.873 100.16 172.791 100.077 172.815C100.377 172.288 100.631 171.598 100.825 171.013C100.825 171.013 101.932 166.99 101.689 163.26C101.601 162.313 100.062 154.621 95.773 148.943C95.773 148.943 95.5378 148.745 95.2656 148.733C95.2656 148.733 99.434 157.802 99.8761 161.918C100.341 166.115 99.8237 170.325 98.4575 174.067C95.7078 176.081 92.8519 178.037 90.1252 180.132C90.8132 176.846 91.8665 169.128 89.2752 162.793C89.2752 162.793 87.9933 160.152 86.5914 157.722C86.5914 157.722 86.347 157.172 86.1162 157.944C86.1162 157.944 88.5367 164.946 89.016 167.284C89.1313 167.693 89.1865 168.207 89.2187 168.64C89.8729 172.872 89.5446 177.116 88.5058 181.385C87.6246 182.076 86.7203 182.685 85.8391 183.375C84.6488 184.242 83.3985 185.214 82.1021 186.022C83.7407 180.7 83.2529 174.831 82.1699 169.395L80.8653 165.082C80.8653 165.082 80.6026 163.831 80.3257 164.439C80.3257 164.439 80.6528 166.555 80.9521 169.209C80.9521 169.209 82.1409 176.293 81.7617 180.994C81.5675 183.169 81.1012 185.333 80.2336 187.345C77.3547 189.218 74.4528 191.01 71.3525 192.416L70.6096 193.598C70.6096 193.598 71.4583 194.065 72.5748 193.573C75.5319 192.295 78.3969 190.691 81.1789 189.109C82.7102 190.09 85.6898 192.075 87.1103 193.617C88.683 195.381 89.9697 197.402 90.615 199.693L91.0394 199.927C91.0394 199.927 91.0397 198.337 90.5279 197.156C88.9233 193.369 85.681 190.134 81.8571 188.653C84.4499 187.037 87.0197 185.339 89.5664 183.559C97.4497 185.129 103.796 192.7 104.994 200.135L105.358 200.474C105.358 200.474 105.594 199.082 105.354 197.913C103.833 190.923 98.7922 184.485 91.9054 182.633C91.6102 182.54 91.421 182.505 91.1489 182.493C94.4938 180.046 97.9217 177.576 101.244 175.047C103.13 176.015 105.722 177.58 107.793 179.203C111.229 181.854 113.447 185.909 114.139 189.954L114.397 190.234C114.397 190.234 114.333 184.598 111.474 180.813C109.2 177.833 105.963 175.568 102.683 174.11C104.838 172.529 107.075 170.925 109.253 169.427L110.669 168.408C114.027 168.872 117.238 170.085 119.705 172.48C120.328 173.099 120.951 173.718 121.407 174.384C122.38 175.611 123.021 176.931 123.519 178.38L124.05 178.672C124.05 178.672 122.515 170.36 114.779 168.041C114.673 167.983 114.673 167.983 114.567 167.925C113.788 167.703 112.865 167.611 111.943 167.518L114.097 165.937C116.252 164.357 119.061 162.238 119.061 162.238C119.574 161.828 120.003 161.442 120.538 161.114C123.402 162.689 129.731 166.378 131.105 169.346C131.57 170.363 132.28 171.929 132.161 170.55C131.511 165.698 127.028 162.195 121.479 160.318C124.469 157.883 127.435 155.366 130.333 152.604C130.333 152.604 131.357 151.784 130.458 151.773C130.458 151.773 126.222 154.56 123.759 156.317C122.914 156.82 121.724 157.687 120.534 158.553Z" fill="#00D386"/>
<path fill-rule="evenodd" clip-rule="evenodd" d="M61.1718 207.843C61.1718 207.843 108.206 158.943 164.937 204.745C164.96 204.87 118.752 240.629 61.1718 207.843Z" fill="#00D386"/>
<path fill-rule="evenodd" clip-rule="evenodd" d="M146.146 201.73L146.304 201.709L148.238 201.775L149.521 201.766L150.173 201.841L152.107 201.907L154.042 201.973L154.399 202.247L153.968 202.626L152.075 202.876L150.182 203.126L149.551 203.209L148.289 203.376L146.396 203.626L146.238 203.647L144.03 203.939L142.747 203.948L138.919 204.132L137.005 204.224L135.092 204.317L133.178 204.409L131.264 204.501L129.35 204.593L128.719 204.676L127.437 204.685L125.523 204.777L123.609 204.869L121.695 204.961L119.781 205.054L118.814 205.021L117.847 204.988L116.879 204.955L115.912 204.922L114.945 204.889L113.978 204.856L113.01 204.823L112.043 204.79L111.076 204.757L110.108 204.724L109.141 204.691L108.174 204.658L107.522 204.583L107.206 204.625L106.239 204.592L105.272 204.559L104.304 204.526L103.337 204.493L102.37 204.46L101.602 204.722L100.635 204.69L99.6673 204.657L98.7 204.624L97.7327 204.591L96.7653 204.558L95.798 204.525L94.8307 204.492L93.8634 204.459L92.8961 204.426L92.4229 204.488L92.1074 204.53L91.6341 204.593L91.1609 204.655L90.6877 204.718L90.2144 204.78L89.7412 204.843L89.2679 204.905L88.7947 204.968L88.3215 205.03L87.8482 205.093L87.375 205.156L86.5654 205.102L85.7559 205.048L84.9463 204.994L84.1367 204.94L82.3807 205.012L81.5711 204.958L80.7616 204.904L79.952 204.85L79.4788 204.913L79.0055 204.975L78.5323 205.038L78.059 205.1L77.5858 205.163L77.1126 205.225L76.6393 205.288L76.1661 205.351L75.6928 205.413L75.2196 205.476L74.7464 205.538L74.2731 205.601L73.7999 205.663L73.3267 205.726L72.8534 205.788L72.3802 205.851L71.9069 205.913L71.4337 205.976L70.9396 205.881L70.4456 205.785L69.9515 205.689L69.4574 205.594L68.9633 205.498L68.4693 205.403L67.9752 205.307L67.4811 205.212L67.3234 205.233L67.1656 205.254L67.0079 205.274L66.8501 205.295L66.6924 205.316L66.5346 205.337L66.3769 205.358L66.2192 205.379L66.0614 205.4L65.9037 205.42L65.7459 205.441L65.5882 205.462L65.4304 205.483L65.2727 205.504L65.1149 205.525L64.9572 205.545L64.5375 204.797L65.2846 204.376L65.4423 204.356L65.6001 204.335L65.7578 204.314L65.9156 204.293L66.0733 204.272L66.2311 204.251L66.3888 204.23L66.5466 204.21L66.7043 204.189L66.862 204.168L67.0198 204.147L67.1775 204.126L67.3353 204.105L67.493 204.085L67.6508 204.064L67.8085 204.043L68.1448 204.159L68.4812 204.276L68.8175 204.392L69.1538 204.508L69.6479 204.604L69.9842 204.72L70.4575 204.658L70.9307 204.595L71.4039 204.533L71.8772 204.47L72.3504 204.407L72.8237 204.345L73.2969 204.282L73.7701 204.22L74.2434 204.157L74.7166 204.095L75.1898 204.032L75.6631 203.97L76.1363 203.907L76.6096 203.844L77.0828 203.782L77.556 203.719L78.0293 203.657L78.5025 203.594L78.9758 203.532L79.449 203.469L80.2586 203.523L81.0473 203.419L81.836 203.315L83.4343 203.264L84.223 203.16L85.0118 203.056L85.8005 202.951L86.5892 202.847L87.0625 202.785L87.5357 202.722L88.009 202.659L88.4822 202.597L88.9554 202.534L89.4287 202.472L89.9019 202.409L90.3751 202.347L90.8484 202.284L91.3216 202.222L91.7949 202.159L92.2681 202.096L93.2354 202.129L94.2027 202.162L95.17 202.195L96.1373 202.228L97.1047 202.261L98.072 202.294L99.0393 202.327L100.007 202.36L100.974 202.393L101.941 202.426L102.909 202.459L103.876 202.492L104.843 202.525L105.81 202.558L106.778 202.591L107.093 202.549L107.724 202.466L108.692 202.499L109.659 202.532L110.626 202.565L111.593 202.598L112.561 202.631L113.528 202.664L114.495 202.697L115.463 202.73L116.43 202.763L117.397 202.796L118.365 202.829L119.332 202.861L121.246 202.769L123.16 202.677L125.073 202.585L126.987 202.493L128.27 202.484L128.901 202.401L130.815 202.309L132.728 202.217L134.642 202.124L136.556 202.032L138.47 201.94L142.297 201.756L143.58 201.747L146.146 201.73Z" fill="#00C286"/>
<path fill-rule="evenodd" clip-rule="evenodd" d="M87.6838 43.9732C79.4544 56.1188 64.2128 65.9063 66.5452 69.8726C70.2226 76.157 70.2653 80.0945 83.1457 67.8901C109.708 42.6773 100.193 20.6028 98.5906 13.4445C98.5906 13.4445 98.09 9.25074 95.8718 10.3577C91.6214 12.5192 94.7254 33.5111 87.6838 43.9732Z" fill="#FFF9F2"/>
<path fill-rule="evenodd" clip-rule="evenodd" d="M75.9387 55.3199C75.9387 55.3199 71.1172 62.5761 61.5505 67.7398C57.5758 69.8788 67.0926 86.9926 67.0926 86.9926C67.0926 86.9926 71.9364 83.9302 76.7621 79.9757C82.7675 75.0528 87.9624 67.775 87.9145 67.7169C87.724 62.8968 75.9387 55.3199 75.9387 55.3199Z" fill="#E3CC55"/>
<path fill-rule="evenodd" clip-rule="evenodd" d="M93.6884 11.4605C92.644 10.9739 91.1041 10.572 91.1041 10.572C90.689 10.5221 90.0597 10.5329 89.9928 10.496C89.0957 10.3591 89.2832 10.6415 89.243 10.7089C88.7478 11.6886 90.7027 12.1405 92.216 13.7806C92.5374 14.1369 92.8187 14.5605 93.033 14.9472C93.0331 15.3947 93.797 19.0378 93.8372 19.418C93.8506 19.6939 99.3007 22.7895 99.4878 20.8343C99.9018 15.5142 99.8344 12.7921 100.289 11.8797C100.959 10.459 101.855 9.25332 102.792 7.98029C103.609 6.9093 106.206 4.04608 105.965 4.00263C105.59 3.88532 105.148 4.1786 104.854 4.37412C103.743 5.19311 102.672 5.94476 101.614 6.97231C101.306 7.33944 100.971 7.60231 100.664 7.96944C100.476 8.13455 100.168 8.50168 100.168 8.50168C100.168 8.50168 100.409 8.09762 100.53 7.89558C100.771 7.49152 101.145 7.16131 101.386 6.75724C102.069 5.61239 104.639 2.6449 104.786 2.09963C104.867 1.96494 105.067 1.62821 104.76 1.54784C104.385 1.43053 102.31 3.41828 101.774 4.01786C100.703 5.21703 99.4851 6.51395 99.2173 6.81374C99.1772 6.88108 98.9496 7.11353 98.9094 7.18087C98.8023 7.21129 99.0433 6.80722 99.0433 6.80722C99.1771 6.43357 102.764 0.268313 102.523 0.224866C101.961 0.272662 101.425 0.872243 101.01 1.26979C99.9127 2.36468 99.1364 3.81584 98.2664 5.1258C97.9853 5.59721 97.7042 6.06862 97.4633 6.47268C97.4231 6.54003 97.2491 6.98103 97.0751 6.97451C97.0081 6.93758 97.2357 6.70513 97.2089 6.60086C97.3026 6.29455 97.5033 5.95783 97.6372 5.58418C97.9717 4.42629 98.6945 3.21409 99.203 2.06273C99.377 1.62173 100.167 0.446466 99.9659 0.335675C99.4704 -0.0271109 96.7131 4.44802 96.2982 5.29308C95.3077 7.25258 94.3441 9.31636 93.6884 11.4605Z" fill="#FFF9F2"/>
<path d="M43.7833 104.103C43.7833 104.103 44.1225 83.5354 44.0496 81.9995C43.7192 76.1806 43.6428 71.0403 46.3956 68.7408C47.9467 67.4638 49.8235 65.7322 52.2145 64.8007C53.4988 64.3056 59.1432 64.7224 62.1859 66.9378C64.2144 68.4147 65.5059 74.7817 66.0681 78.9983C66.7746 84.3111 66.4631 98.8367 66.4631 98.8367C64.2524 104.354 46.6802 107.649 43.7833 104.103Z" fill="#FFF9F2"/>
<path fill-rule="evenodd" clip-rule="evenodd" d="M65.9618 219.311C65.6984 221.071 65.7934 227.2 66.2505 228.317C66.8833 229.868 72.2796 229.525 72.6605 228.601C73.1671 227.309 70.3108 226.299 70.2489 223.344C70.2115 221.557 69.9277 219.157 69.2251 217.463C68.4884 215.733 66.8022 216.44 66.3691 218.058L65.9618 219.311Z" fill="#FFF9F2"/>
<path fill-rule="evenodd" clip-rule="evenodd" d="M12.8706 210.454C14.1943 208.245 18.2048 212.783 18.2048 212.783C18.2577 215.215 16.1641 218.157 15.2225 220.327C15.0098 220.798 15.498 223.149 14.4303 223.985C12.1806 225.792 7.73346 226.283 8.18218 225.498C9.61264 223.205 10.6425 219.838 11.1496 218.052C11.8843 215.697 11.6462 212.629 12.8706 210.454Z" fill="#FFF9F2"/>
<path fill-rule="evenodd" clip-rule="evenodd" d="M9.20661 220.298C9.20661 220.298 9.19189 223.429 1.65129 227.401C1.09087 227.68 0.61434 227.93 0.110999 228.105C0.0738083 228.794 0.0366178 229.483 0.0833171 230.142C0.717247 230.598 2.14338 230.102 2.95201 229.99C5.65984 229.388 8.45503 228.501 10.7036 226.875C12.6435 225.44 15.5355 225.618 17.529 224.334C17.4823 223.675 17.6034 222.957 17.3621 222.28C17.1511 221.424 16.6313 220.76 16.2793 220.037C15.9273 219.315 14.8904 219.844 14.4943 220.319C14.0982 220.795 13.9537 221.183 13.4201 221.537C12.7187 221.95 11.9404 221.883 11.1854 222.145C10.682 222.32 10.2591 222.72 9.89329 223.016C10.209 222.315 10.7192 221.631 10.6457 220.896C10.6189 220.821 10.6526 220.387 10.5151 220.266C10.0723 220.081 9.5119 220.361 9.20661 220.298Z" fill="#032603"/>
<path fill-rule="evenodd" clip-rule="evenodd" d="M12.373 222.833L12.5676 222.849L12.7621 222.866L12.9567 222.883L13.0674 222.929L13.262 222.946L13.4566 222.963L13.6512 222.98L13.8458 222.997L14.0403 223.013L14.151 223.059L14.2617 223.105L14.3724 223.151L14.4831 223.197L14.5938 223.243L14.7045 223.29L14.8152 223.336L14.9259 223.382L15.2311 223.444L15.4525 223.536L15.6739 223.628L15.7846 223.674L15.8953 223.72L16.006 223.766L16.0899 223.737L16.1738 223.708L16.2577 223.679L16.3416 223.65L16.4254 223.621L16.5093 223.592L16.5932 223.562L16.6771 223.533L16.761 223.504L16.8449 223.475L16.9288 223.446L17.1234 223.463L17.318 223.48L17.5125 223.496L17.7304 223.843L17.8143 223.814L17.9518 223.935L17.8108 224.069L17.727 224.098L17.5254 224.59L17.3576 224.648L17.1898 224.707L17.0221 224.765L16.9382 224.794L16.8543 224.823L16.7704 224.852L16.6865 224.882L16.6026 224.911L16.5187 224.94L16.4348 224.969L16.3509 224.998L16.267 225.027L16.1564 224.981L16.0457 224.935L15.7136 224.797L15.6029 224.751L15.4922 224.705L15.1869 224.642L14.9084 224.655L14.7139 224.638L14.6032 224.592L14.4925 224.546L14.3818 224.5L14.2711 224.454L14.1604 224.408L14.0497 224.362L13.7142 224.478L13.6035 224.432L13.4928 224.386L13.3821 224.34L13.2714 224.294L13.0465 224.457L12.9358 224.411L12.8519 224.44L12.7412 224.394L12.6573 224.423L12.5735 224.452L12.4896 224.481L12.4057 224.511L12.3218 224.54L12.2379 224.569L12.154 224.598L12.0701 224.627L11.9862 224.656L11.9023 224.685L11.8184 224.715L11.7346 224.744L11.6507 224.773L11.5668 224.802L11.4829 224.831L11.399 224.86L11.3151 224.89L11.2312 224.919L11.1473 224.948L11.0634 224.977L10.9795 225.006L10.8956 225.035L10.8118 225.064L10.7279 225.094L10.644 225.123L10.5601 225.152L10.4762 225.181L10.3923 225.21L10.3084 225.239L10.2245 225.268L10.1406 225.298L9.99965 225.431L9.27144 225.769L9.13046 225.902L9.07337 226.006L8.98948 226.035L8.90559 226.065L8.8217 226.094L8.73781 226.123L8.65392 226.152L8.28807 226.448L7.92222 226.744L7.19053 227.336L6.82468 227.632L6.45883 227.928L6.23396 228.091L6.00909 228.254L5.78422 228.416L5.52906 228.758L5.30419 228.921L5.07932 229.083L4.85445 229.246L4.71348 229.379L4.62958 229.409L4.40471 229.571L4.17985 229.734L3.95497 229.896L3.73011 230.059L3.50524 230.222L3.28037 230.384L3.0287 230.472L2.80383 230.634L2.57896 230.797L2.35409 230.96L2.12922 231.122L1.88103 230.955L1.96841 230.671L2.19327 230.509L2.41815 230.346L2.58593 230.288L2.8108 230.125L3.03567 229.962L3.26054 229.8L3.4854 229.637L3.71027 229.475L3.93514 229.312L4.01903 229.283L4.2439 229.12L4.46877 228.958L4.55266 228.929L4.69364 228.795L4.83462 228.662L5.05949 228.499L5.28436 228.336L5.50923 228.174L5.56632 228.07L5.79119 227.907L5.93217 227.773L6.29802 227.477L6.66386 227.181L7.36876 226.514L7.73461 226.218L8.07366 225.847L8.13075 225.743L8.18783 225.638L8.24492 225.534L8.30201 225.43L8.3591 225.325L8.41619 225.221L8.55717 225.088L8.81232 224.745L8.9533 224.612L9.01039 224.508L9.06748 224.403L9.12457 224.299L9.18166 224.195L9.23875 224.09L9.29583 223.986L9.74209 223.916L9.79918 223.811L9.85627 223.707L9.91335 223.603L9.99724 223.574L10.0543 223.469L10.1114 223.365L10.1953 223.336L10.2792 223.307L10.3631 223.277L10.447 223.248L10.5309 223.219L10.6148 223.19L10.6987 223.161L10.7825 223.132L10.8664 223.103L10.9503 223.073L11.0342 223.044L11.1181 223.015L11.202 222.986L11.2859 222.957L11.3698 222.928L11.4537 222.899L11.5376 222.869L11.6214 222.84L11.7053 222.811L11.7892 222.782L11.8731 222.753L11.957 222.724L12.0409 222.695L12.1248 222.665L12.3194 222.682L12.373 222.833Z" fill="#032603"/>
<path fill-rule="evenodd" clip-rule="evenodd" d="M69.5896 225.026C69.5896 225.026 70.3435 227.24 75.863 227.954C76.2576 228.022 76.6522 228.09 76.9666 228.081C77.1337 228.555 77.3795 229.027 77.468 229.504C77.1637 229.992 76.2206 230.02 75.6721 230.116C73.8696 230.41 71.9851 230.546 70.1643 229.961C68.6595 229.447 66.8702 230.379 65.3671 229.945C65.1999 229.471 65.0328 228.996 64.9442 228.52C64.8523 227.884 65.0764 227.318 65.0631 226.679C65.1284 226.038 65.839 226.177 66.2369 226.404C66.5563 226.634 66.797 226.867 67.1916 226.935C67.7434 226.998 68.21 226.745 68.6815 226.731C68.9959 226.721 69.3921 226.869 69.7098 227.019C69.3871 226.63 68.9073 226.245 68.7385 225.69C68.7368 225.611 68.6516 225.294 68.6499 225.214C69.0395 225.042 69.4341 225.11 69.5896 225.026Z" fill="#001300"/>
<path d="M69.5896 225.026C69.5896 225.026 70.3435 227.24 75.863 227.954C76.2576 228.022 76.6522 228.09 76.9666 228.081C77.1337 228.555 77.3795 229.027 77.468 229.504C77.1637 229.992 76.2206 230.02 75.6721 230.116C73.8696 230.41 71.9851 230.546 70.1643 229.961C68.6595 229.447 66.8702 230.379 65.3671 229.945C65.1999 229.471 65.0328 228.996 64.9442 228.52C64.8523 227.884 65.0764 227.318 65.0631 226.679C65.1284 226.038 65.839 226.177 66.2369 226.404C66.5563 226.634 66.797 226.867 67.1916 226.935C67.7434 226.998 68.21 226.745 68.6815 226.731C68.9959 226.721 69.3921 226.869 69.7098 227.019C69.3871 226.63 68.9073 226.245 68.7385 225.69C68.7368 225.611 68.6516 225.294 68.6499 225.214C69.0395 225.042 69.4341 225.11 69.5896 225.026Z" fill="#001300"/>
<path fill-rule="evenodd" clip-rule="evenodd" d="M69.1664 227.355L69.245 227.353L69.3236 227.351L69.4022 227.348L69.4807 227.346L69.5593 227.344L69.6379 227.341L69.7165 227.339L69.7951 227.337L69.8737 227.334L69.9523 227.332L70.0309 227.33L70.1094 227.327L70.1897 227.405L70.27 227.482L70.3502 227.56L70.4305 227.637L70.5107 227.715L70.591 227.792L70.6712 227.87L70.7515 227.947L70.8301 227.945L70.9103 228.022L71.0691 228.097L71.3082 228.25L71.4671 228.325L71.5457 228.323L71.6243 228.32L71.7028 228.318L71.7814 228.316L71.86 228.313L71.9386 228.311L72.2563 228.461L72.1843 228.783L72.8197 229.083L73.1374 229.234L73.4551 229.384L73.6139 229.459L73.7727 229.534L73.9316 229.609L74.0904 229.684L74.2493 229.759L74.4081 229.835L74.5669 229.91L74.6455 229.907L74.7241 229.905L74.883 229.98L75.0418 230.055L75.2006 230.13L75.3595 230.205L75.5183 230.281L75.6772 230.356L75.836 230.431L75.9948 230.506L76.1537 230.581L76.147 230.262L76.3042 230.257L76.4614 230.252L76.5433 230.41L76.3878 230.494L76.2306 230.499L76.0734 230.504L75.9163 230.508L75.7591 230.513L75.6002 230.438L75.4414 230.363L75.2826 230.288L75.1237 230.212L74.9649 230.137L74.806 230.062L74.6472 229.987L74.4884 229.912L74.4098 229.914L74.3312 229.917L74.1723 229.842L74.0135 229.766L73.8547 229.691L73.6958 229.616L73.537 229.541L73.3781 229.466L73.2193 229.391L72.9016 229.241L72.5839 229.09L71.9502 228.87L71.6326 228.719L71.3165 228.649L71.238 228.651L71.1594 228.654L71.0808 228.656L71.0022 228.658L70.9236 228.661L70.845 228.663L70.6862 228.588L70.3685 228.438L70.2096 228.363L70.1311 228.365L70.0525 228.367L69.9739 228.37L69.8953 228.372L69.8167 228.374L69.7381 228.377L69.6595 228.379L69.5809 228.381L69.5024 228.384L69.4238 228.386L69.3452 228.388L69.2666 228.391L69.188 228.393L69.1094 228.396L69.0308 228.398L68.9522 228.4L68.8736 228.403L68.795 228.405L68.7165 228.407L68.6379 228.41L68.5593 228.412L68.4807 228.414L68.4021 228.417L68.3235 228.419L68.2466 228.501L68.1697 228.583L68.0927 228.666L68.0158 228.748L67.9389 228.83L67.8619 228.912L67.7834 228.914L67.7064 228.997L67.5509 229.081L67.3954 229.166L67.2399 229.25L67.163 229.332L67.086 229.415L67.0074 229.417L66.9289 229.419L66.8503 229.422L66.7717 229.424L66.6931 229.426L66.6145 229.429L66.5359 229.431L66.4573 229.433L66.3787 229.436L66.3001 229.438L66.2215 229.44L66.143 229.443L65.9858 229.447L65.8286 229.452L65.75 229.455L65.5109 229.302L65.4323 229.304L65.2735 229.229L65.3488 229.067L65.4273 229.065L65.501 228.823L65.5779 228.741L65.7334 228.656L65.8103 228.574L65.8889 228.572L65.9675 228.569L66.0461 228.567L66.1247 228.565L66.2033 228.562L66.2819 228.56L66.3605 228.558L66.439 228.555L66.5176 228.553L66.5962 228.551L66.6748 228.548L66.7534 228.546L66.832 228.544L66.9089 228.461L67.0644 228.377L67.2183 228.212L67.3721 228.048L67.4491 227.966L67.526 227.884L67.6029 227.802L67.6798 227.719L67.7568 227.637L67.8337 227.555L67.9106 227.473L67.9875 227.391L68.0645 227.309L68.1414 227.226L68.2183 227.144L68.2953 227.062L68.3722 226.98L68.4508 226.977L68.5294 226.975L68.6063 226.893L68.6832 226.811L68.7601 226.729L68.8371 226.646L68.9157 226.644L68.9942 226.642L69.0728 226.639L69.1514 226.637L69.23 226.635L69.3086 226.632L69.3872 226.63L69.4658 226.628L69.5444 226.625L69.623 226.623L69.7015 226.621L69.7801 226.618L69.1664 227.355Z" fill="#001300"/>
<path d="M68.6236 172.174C68.6236 172.174 70.6177 148.607 71.3127 140.736C71.9021 133.982 68.8636 101.631 60.406 108.674C50.6683 116.779 45.8833 126.277 49.4206 141.955C50.6555 147.505 54.613 168.826 56.1696 177.296C53.2867 183.208 53.5014 190.648 56.4604 195.724C56.4604 195.724 64.9532 222.519 65.663 223.496C66.8168 225.059 70.5512 222.993 70.5512 222.993C71.5541 222.367 68.619 172.515 68.6236 172.174Z" fill="#001300"/>
<path d="M35.3882 171.248C35.3882 171.248 48.2095 151.472 52.5119 144.889C56.1795 139.226 68.7886 109.222 58.1404 111.214C45.8567 113.549 37.2368 119.511 32.8923 135.066C31.4854 140.077 25.9724 157.452 22.9809 166.855C13.8969 182.93 10.9457 214.249 10.939 215.574C10.9177 217.813 16.613 218.877 17.7463 217.454C17.7463 217.454 29.7829 194.413 32.7477 186.686C34.6282 181.827 35.3882 171.248 35.3882 171.248Z" fill="#032603"/>
<path fill-rule="evenodd" clip-rule="evenodd" d="M45.5841 121.067L45.6271 121.081L45.612 121.127L45.5968 121.173L45.5816 121.219L45.5665 121.266L45.5513 121.312L45.5361 121.358L45.521 121.404L45.4906 121.497L45.4755 121.543L45.4021 121.621L45.3287 121.7L45.2553 121.778L45.1237 121.889L45.0352 122.014L45.02 122.06L45.0048 122.106L44.9466 122.139L44.8884 122.171L44.7998 122.296L44.7113 122.421L44.6227 122.545L44.3747 122.721L44.2861 122.846L44.2127 122.924L44.1545 122.957L44.0659 123.081L43.9774 123.206L43.8889 123.331L43.8306 123.363L43.7724 123.395L43.7142 123.428L43.6559 123.46L43.6408 123.506L43.6256 123.553L43.6105 123.599L43.5953 123.645L43.5801 123.691L43.565 123.737L43.3424 124.125L43.1198 124.513L42.8972 124.901L42.6746 125.289L42.452 125.677L42.2725 126.079L42.1687 126.25L42.065 126.421L41.9613 126.592L41.8576 126.763L41.7539 126.934L41.6502 127.105L41.5465 127.276L41.4858 127.461L41.4252 127.645L41.3645 127.83L41.3039 128.015L41.2432 128.2L41.1825 128.384L41.1219 128.569L41.0612 128.754L40.9854 128.985L40.9248 129.169L40.8489 129.4L40.7731 129.631L40.6973 129.862L40.5912 130.186L40.485 130.509L40.2727 131.156L40.0605 131.802L39.8482 132.449L39.742 132.772L39.6359 133.095L39.4666 133.756L39.2974 134.416L39.1282 135.077L38.959 135.737L38.7898 136.398L38.6205 137.058L38.4513 137.719L38.0977 139.086L37.7441 140.453L37.3905 141.82L37.0368 143.187L36.8676 143.847L36.6984 144.508L36.5747 145.03L36.514 145.214L36.3448 145.875L36.1756 146.535L36.0063 147.196L35.794 147.842L35.5817 148.489L35.3695 149.136L35.1572 149.782L34.9449 150.429L34.8387 150.752L34.7326 151.075L34.6568 151.306L34.581 151.537L34.5051 151.768L34.4142 152.045L34.3232 152.322L34.2929 152.415L34.2322 152.6L34.1412 152.877L34.0502 153.154L33.9593 153.431L33.8683 153.708L33.7343 153.971L33.6002 154.235L33.4662 154.498L33.3321 154.761L33.1981 155.025L33.0489 155.334L32.8997 155.644L32.7505 155.953L32.6013 156.263L32.452 156.572L32.3029 156.881L32.1536 157.191L32.0044 157.5L31.8552 157.81L31.706 158.119L31.5568 158.429L31.4076 158.738L31.2584 159.048L31.1092 159.357L30.96 159.667L30.826 159.93L30.6616 160.286L30.3201 160.891L29.9787 161.496L29.6372 162.101L29.2957 162.706L28.9542 163.311L28.6279 163.87L28.3016 164.429L27.9753 164.988L27.649 165.547L27.3227 166.106L27.0115 166.619L26.7004 167.132L26.4044 167.598L26.1085 168.065L25.8125 168.532L25.5316 168.952L25.4431 169.077L25.3545 169.201L25.266 169.326L25.1774 169.451L25.0889 169.576L25.0003 169.7L24.9118 169.825L24.8081 169.996L24.7044 170.167L24.6892 170.213L24.6437 170.352L24.54 170.523L24.4363 170.694L24.3325 170.864L24.2288 171.035L24.1682 171.22L24.0924 171.451L24.0166 171.682L23.9407 171.913L23.8649 172.144L23.7891 172.375L23.7133 172.606L23.6375 172.837L23.5617 173.068L23.4858 173.299L23.276 173.793L23.0661 174.287L22.8411 174.827L22.6591 175.382L22.4772 175.936L22.2801 176.536L22.0829 177.137L21.8858 177.737L21.6735 178.384L21.4612 179.03L21.2489 179.677L21.0367 180.324L20.8244 180.97L20.5969 181.663L20.5059 181.94L20.3695 182.356L20.142 183.049L19.9146 183.742L19.6871 184.434L19.4597 185.127L19.2322 185.82L19.0478 186.527L18.8635 187.233L18.6791 187.94L18.4947 188.646L18.3103 189.353L18.1259 190.06L17.9415 190.766L17.7571 191.473L17.5727 192.18L17.3883 192.886L17.2039 193.593L17.0196 194.3L16.8352 195.006L16.7872 195.297L16.6938 195.727L16.5246 196.387L16.3984 197.061L16.3354 197.398L16.2723 197.736L16.2092 198.073L16.1461 198.41L16.083 198.747L16.0199 199.084L15.9569 199.421L15.8938 199.758L15.8307 200.096L15.7828 200.387L15.7349 200.677L15.687 200.968L15.639 201.259L15.5911 201.55L15.5432 201.841L15.4953 202.132L15.4474 202.423L15.3994 202.714L15.3515 203.005L15.3036 203.296L15.2557 203.587L15.2229 203.832L15.1902 204.076L15.1574 204.321L15.1247 204.566L15.0919 204.811L15.0592 205.056L15.0264 205.3L14.9937 205.545L14.9609 205.79L14.9433 205.988L14.9257 206.187L14.9233 206.339L14.9209 206.492L14.9184 206.644L14.916 206.797L14.9136 206.949L14.9111 207.101L14.9087 207.254L14.8935 207.3L14.8632 207.392L14.8608 207.545L14.8583 207.697L14.8129 207.836L14.7674 207.974L14.7195 208.265L14.6715 208.556L14.6236 208.847L14.5757 209.138L14.5278 209.429L14.4799 209.72L14.4319 210.011L14.341 210.288L14.25 210.565L14.159 210.842L14.068 211.119L13.977 211.396L13.8709 211.72L13.8102 211.904L13.6283 212.459L13.4463 213.013L13.2644 213.567L13.1734 213.844L13.0824 214.121L12.9914 214.399L12.9004 214.676L12.8095 214.953L12.7616 215.244L12.6882 215.322L12.6172 215.248L12.6651 214.958L12.713 214.667L12.7609 214.376L12.8089 214.085L12.8568 213.794L12.9047 213.503L13.0436 212.935L13.1825 212.367L13.3214 211.799L13.339 211.6L13.4021 211.263L13.45 210.972L13.4979 210.681L13.5458 210.39L13.5937 210.099L13.6417 209.808L13.6896 209.517L13.7375 209.226L13.7854 208.935L13.8333 208.644L13.8813 208.353L13.9292 208.062L13.9771 207.771L13.9795 207.619L13.9819 207.467L13.9844 207.314L13.9868 207.162L13.9741 207.056L13.9892 207.01L13.9917 206.857L13.9941 206.705L13.9965 206.552L13.999 206.4L14.0014 206.248L14.0038 206.095L14.0062 205.943L14.0238 205.744L14.0566 205.499L14.0893 205.255L14.1221 205.01L14.1548 204.765L14.1876 204.52L14.2204 204.276L14.2531 204.031L14.2859 203.786L14.3186 203.541L14.3514 203.297L14.3993 203.006L14.4472 202.715L14.4952 202.424L14.5431 202.133L14.591 201.842L14.6389 201.551L14.6868 201.26L14.7347 200.969L14.7826 200.678L14.8306 200.387L14.8785 200.096L14.9264 199.805L14.9895 199.468L15.0526 199.131L15.1157 198.794L15.1788 198.457L15.2418 198.12L15.3049 197.782L15.368 197.445L15.4311 197.108L15.4942 196.771L15.6203 196.097L15.7465 195.422L15.8399 194.993L15.8878 194.702L16.0722 193.995L16.2566 193.289L16.441 192.582L16.6254 191.875L16.8097 191.169L16.9941 190.462L17.1785 189.756L17.3629 189.049L17.5473 188.342L17.7317 187.636L17.9161 186.929L18.1005 186.222L18.2849 185.516L18.4693 184.809L18.6536 184.102L18.8811 183.41L19.1085 182.717L19.336 182.024L19.4725 181.608L19.5634 181.331L19.7909 180.638L20.0183 179.946L20.2306 179.299L20.4429 178.652L20.6552 178.006L20.8675 177.359L21.0646 176.759L21.2617 176.158L21.4589 175.558L21.656 174.957L21.8379 174.403L22.0199 173.849L22.2449 173.309L22.4548 172.814L22.5306 172.583L22.6064 172.352L22.6822 172.122L22.7581 171.891L22.8339 171.66L22.9097 171.429L22.9855 171.198L23.0613 170.967L23.1371 170.736L23.213 170.505L23.2736 170.32L23.3773 170.149L23.481 169.978L23.5847 169.807L23.6302 169.669L23.6454 169.623L23.7491 169.452L23.8528 169.281L23.9565 169.11L24.0451 168.985L24.1337 168.86L24.2222 168.736L24.3108 168.611L24.3993 168.486L24.4879 168.362L24.7687 167.941L25.0647 167.475L25.3606 167.008L25.6566 166.541L25.9678 166.029L26.2789 165.516L26.5901 165.003L26.9164 164.444L27.2427 163.885L27.569 163.326L27.8953 162.767L28.2368 162.162L28.5782 161.557L28.9197 160.952L29.2181 160.333L29.5165 159.714L29.6809 159.358L29.8149 159.095L29.9641 158.785L30.1134 158.476L30.2625 158.166L30.4118 157.857L30.561 157.548L30.7102 157.238L30.8594 156.929L31.0086 156.619L31.1578 156.31L31.307 156L31.4562 155.691L31.6054 155.381L31.7546 155.072L31.8887 154.808L32.0227 154.545L32.1567 154.282L32.2908 154.018L32.4248 153.755L32.5589 153.492L32.6929 153.229L32.7839 152.951L32.8749 152.674L32.9658 152.397L33.0568 152.12L33.1175 151.935L33.1478 151.843L33.2236 151.612L33.2994 151.381L33.3752 151.15L33.4511 150.919L33.5269 150.688L33.633 150.365L33.7392 150.042L33.9515 149.395L34.1637 148.748L34.376 148.102L34.5883 147.455L34.8006 146.809L35.0129 146.162L35.2252 145.515L35.4375 144.869L35.4981 144.684L35.6649 144.176L35.8772 143.529L36.0895 142.883L36.4862 141.529L36.8828 140.176L37.2795 138.823L37.6762 137.47L37.8885 136.823L38.1008 136.176L38.313 135.53L38.5253 134.883L38.7376 134.237L38.9499 133.59L39.1622 132.943L39.2683 132.62L39.3745 132.297L39.5868 131.65L39.7991 131.003L40.0113 130.357L40.1175 130.034L40.2236 129.71L40.2994 129.479L40.3753 129.248L40.4511 129.017L40.5269 128.786L40.6027 128.556L40.6785 128.325L40.7543 128.094L40.8302 127.863L40.906 127.632L40.9818 127.401L41.1007 127.184L41.2044 127.013L41.3233 126.796L41.427 126.625L41.5307 126.454L41.6344 126.283L41.7381 126.112L41.8419 125.941L41.9456 125.77L41.8697 126.001L42.0923 125.613L42.3149 125.225L42.5375 124.837L42.7601 124.449L42.9827 124.061L43.2053 123.673L43.2356 123.581L43.266 123.488L43.2963 123.396L43.3266 123.303L43.4 123.225L43.4734 123.146L43.5468 123.068L43.6202 122.989L43.6784 122.957L43.7366 122.924L43.8252 122.8L43.9137 122.675L44.0023 122.55L44.0605 122.518L44.1339 122.439L44.2655 122.328L44.4705 122.139L44.5591 122.014L44.6476 121.89L44.7361 121.765L44.7944 121.732L44.8526 121.7L44.8678 121.654L44.926 121.622L45.0576 121.511L45.1892 121.4L45.2626 121.321L45.336 121.243L45.4094 121.164L45.4676 121.132L45.5258 121.099L45.541 121.053L45.5562 121.007L45.5713 120.961L45.5434 120.901L45.5841 121.067Z" fill="#0C350C"/>
<path fill-rule="evenodd" clip-rule="evenodd" d="M61.8942 125.506L61.9407 125.409L61.94 125.458L61.9393 125.506L61.9387 125.555L61.938 125.603L61.9374 125.652L61.9367 125.701L61.936 125.749L61.9347 125.846L61.9334 125.944L61.8869 126.041L61.7938 126.234L61.7008 126.428L61.6543 126.525L61.6529 126.622L61.6523 126.671L61.6516 126.72L61.6503 126.817L61.649 126.914L61.6476 127.011L61.6463 127.109L61.643 127.352L61.6397 127.595L61.6363 127.838L61.633 128.081L61.6297 128.324L61.6264 128.567L61.6231 128.81L61.6198 129.053L61.6164 129.296L61.6131 129.539L61.6065 130.025L61.5998 130.512L61.5965 130.755L61.5932 130.998L61.5866 131.484L61.5799 131.97L61.5733 132.456L61.5667 132.942L61.56 133.428L61.5554 133.769L61.5534 133.915L61.5501 134.158L61.5467 134.401L61.5434 134.644L61.5401 134.887L61.5368 135.13L61.5335 135.373L61.5301 135.616L61.5268 135.859L61.5235 136.102L61.5202 136.345L61.5169 136.588L61.5136 136.831L61.5102 137.074L61.4617 137.317L61.4132 137.56L61.3647 137.803L61.3634 137.9L61.362 137.997L61.3607 138.094L61.3594 138.192L61.3587 138.24L61.3581 138.289L61.3574 138.338L61.3567 138.386L61.3561 138.435L61.3554 138.483L61.3534 138.629L61.3514 138.775L61.3494 138.921L61.3474 139.067L61.3454 139.213L61.3441 139.31L61.3428 139.407L61.3415 139.504L61.3401 139.601L61.3388 139.699L61.3375 139.796L61.3362 139.893L61.3348 139.99L61.3335 140.088L61.3328 140.136L61.2863 140.233L61.2398 140.33L61.1933 140.427L61.1468 140.524L61.1002 140.621L61.0537 140.718L61.0079 140.766L60.962 140.814L60.9162 140.863L60.8703 140.911L60.8244 140.959L60.7786 141.008L60.7327 141.056L60.6869 141.104L60.641 141.153L60.5952 141.201L60.5493 141.249L60.5035 141.298L60.4576 141.346L60.4124 141.346L60.3672 141.345L60.322 141.345L60.2768 141.345L60.2316 141.345L60.1864 141.344L60.1413 141.344L60.0961 141.344L60.0509 141.343L60.0057 141.343L59.9605 141.343L59.8701 141.342L59.7797 141.342L59.6893 141.341L59.599 141.34L59.5086 141.34L59.4182 141.339L59.3278 141.339L59.2374 141.338L59.0567 141.337L58.8759 141.336L58.7855 141.335L58.6951 141.335L58.6047 141.334L58.5144 141.333L58.424 141.333L58.3336 141.332L58.2432 141.332L58.1528 141.331L58.0173 141.33L57.8365 141.329L57.7009 141.328L57.5201 141.327L57.3394 141.326L57.1586 141.325L56.8423 141.323L56.2089 141.367L55.8926 141.365L55.7118 141.364L55.531 141.363L55.3503 141.361L55.1695 141.36L54.9888 141.359L54.8532 141.358L54.6724 141.357L54.4916 141.356L54.3554 141.404L54.2192 141.451L54.0829 141.499L53.9925 141.498L53.9022 141.498L53.8118 141.497L53.7214 141.497L53.631 141.496L53.5406 141.496L53.6696 141.983L53.5785 142.031L53.4875 142.079L53.3964 142.127L53.3054 142.175L53.2143 142.223L53.1233 142.271L53.0322 142.319L52.9419 142.318L52.9884 142.221L53.0794 142.173L53.1705 142.125L53.2615 142.077L53.3526 142.029L53.4436 141.981L53.5347 141.933L53.6257 141.885L53.7167 141.837L53.8078 141.789L53.8988 141.741L53.9899 141.693L54.0809 141.645L54.172 141.597L54.263 141.549L54.3993 141.501L54.5355 141.453L54.6717 141.406L54.8532 141.358L55.0346 141.311L55.1708 141.263L55.3523 141.216L55.5337 141.168L55.7151 141.121L55.8966 141.073L56.0773 141.074L56.3943 141.028L57.0283 140.935L57.3454 140.888L57.4809 140.889L57.6172 140.841L57.7534 140.794L57.8896 140.746L58.0259 140.698L58.1621 140.65L58.2525 140.651L58.3429 140.652L58.4333 140.652L58.5237 140.653L58.614 140.653L58.7044 140.654L58.7948 140.655L58.8852 140.655L59.0659 140.656L59.2467 140.657L59.3371 140.658L59.4275 140.659L59.5179 140.659L59.6083 140.66L59.6986 140.66L59.7438 140.661L59.789 140.661L59.8342 140.661L59.8794 140.662L59.9246 140.662L59.9698 140.662L60.015 140.662L60.0602 140.663L60.1054 140.663L60.1505 140.663L60.1957 140.664L60.2409 140.664L60.2861 140.664L60.3313 140.665L60.3765 140.665L60.4217 140.665L60.4669 140.665L60.5121 140.666L60.5573 140.666L60.6031 140.618L60.6038 140.569L60.6045 140.52L60.6051 140.472L60.6058 140.423L60.6064 140.375L60.6523 140.326L60.6982 140.278L60.6988 140.229L60.6995 140.181L60.7002 140.132L60.7008 140.083L60.7015 140.035L60.7021 139.986L60.7028 139.938L60.7035 139.889L60.7041 139.84L60.7048 139.792L60.7055 139.743L60.7061 139.695L60.7075 139.597L60.7088 139.5L60.7108 139.354L60.7128 139.208L60.7148 139.063L60.7167 138.917L60.7187 138.771L60.7201 138.674L60.7214 138.576L60.7227 138.479L60.724 138.382L60.7254 138.285L60.7267 138.188L60.728 138.09L60.7294 137.993L60.7307 137.896L60.732 137.799L60.7805 137.556L60.829 137.313L60.8775 137.07L60.9261 136.828L60.9294 136.584L60.9327 136.341L60.936 136.098L60.9393 135.855L60.9426 135.612L60.946 135.369L60.9493 135.126L60.9526 134.883L60.9559 134.64L60.9592 134.397L60.9626 134.154L60.9659 133.911L60.9679 133.765L60.9725 133.425L60.9792 132.938L60.9858 132.452L60.9924 131.966L60.9991 131.48L61.0057 130.994L61.009 130.751L61.0123 130.508L61.019 130.022L61.0256 129.535L61.0289 129.292L61.0323 129.049L61.0356 128.806L61.0389 128.563L61.0422 128.32L61.0455 128.077L61.0488 127.834L61.0974 127.591L61.1459 127.348L61.1944 127.106L61.1957 127.008L61.197 126.911L61.1984 126.814L61.1997 126.717L61.2004 126.668L61.201 126.62L61.2469 126.571L61.2934 126.474L61.3399 126.377L61.433 126.183L61.526 125.99L61.5725 125.893L61.619 125.796L61.6656 125.699L61.6662 125.65L61.6669 125.602L61.6675 125.553L61.8942 125.506Z" fill="#0C350C"/>
<path fill-rule="evenodd" clip-rule="evenodd" d="M57.2722 142.881L57.316 142.979L57.3154 143.027L57.3134 143.173L57.3127 143.222L57.31 143.416L57.3074 143.611L57.3047 143.805L57.3473 144L57.3898 144.195L57.4324 144.389L57.4749 144.584L57.5174 144.779L57.56 144.974L57.6025 145.168L57.645 145.363L57.6876 145.558L57.7301 145.753L57.7733 145.899L57.7727 145.947L57.8577 146.337L57.9428 146.726L58.0279 147.116L58.113 147.505L58.1981 147.895L58.2406 148.09L58.2831 148.284L58.3257 148.479L58.3682 148.674L58.4108 148.869L58.4533 149.063L58.537 149.55L58.6208 150.037L58.7045 150.523L58.7883 151.01L58.872 151.497L58.9558 151.984L59.0396 152.47L59.1233 152.957L59.2915 153.882L59.4596 154.807L59.6278 155.732L59.7528 156.51L59.796 156.656L59.9641 157.581L60.1323 158.506L60.3005 159.431L60.4686 160.356L60.5524 160.843L60.6361 161.329L60.7199 161.816L60.8036 162.303L60.8874 162.789L60.9711 163.276L61.0143 163.422L61.0556 163.714L61.1393 164.201L61.2237 164.639L61.2629 165.077L61.3022 165.515L61.3414 165.953L61.3806 166.39L61.4198 166.828L61.459 167.266L61.4983 167.704L61.5375 168.142L61.5767 168.58L61.6159 169.017L61.6551 169.455L61.6944 169.893L61.6924 170.039L61.6884 170.33L61.7276 170.768L61.7668 171.206L61.7609 171.644L61.7549 172.081L61.7489 172.519L61.7429 172.956L61.737 173.394L61.731 173.831L61.725 174.269L61.719 174.706L61.7071 175.581L61.6951 176.456L61.6832 177.331L61.6712 178.207L61.6925 179.957L61.6806 180.832L61.6786 180.978L61.6687 181.707L61.6567 182.582L61.6507 183.02L61.6448 183.457L61.6388 183.895L61.6328 184.332L61.6268 184.77L61.6209 185.207L61.6149 185.645L61.6089 186.082L61.6029 186.52L61.6422 186.958L61.6814 187.395L61.7206 187.833L61.7598 188.271L61.799 188.709L61.8383 189.147L61.8775 189.585L61.9167 190.022L61.9559 190.46L61.9951 190.898L62.0344 191.336L62.0736 191.774L62.1128 192.211L62.154 192.503L62.1952 192.795L62.2364 193.087L62.2777 193.379L62.3189 193.671L62.3594 194.012L62.402 194.207L62.4006 194.304L62.4412 194.645L62.4817 194.985L62.5675 195.326L62.6532 195.667L62.739 196.008L62.8247 196.349L62.9104 196.69L62.9962 197.03L63.0819 197.371L63.1677 197.712L63.2534 198.053L63.3392 198.394L63.4249 198.735L63.5106 199.076L63.5964 199.417L63.7685 200.05L63.9407 200.683L64.1128 201.316L64.285 201.949L64.4578 202.534L64.5442 202.826L64.6306 203.118L64.717 203.411L64.8034 203.703L64.8898 203.995L64.9762 204.287L65.0626 204.58L65.149 204.872L65.2348 205.213L65.3205 205.554L65.4063 205.895L65.492 206.235L65.5777 206.576L65.6635 206.917L65.7074 207.015L65.7499 207.21L65.8356 207.55L65.9214 207.891L66.0071 208.232L66.0477 208.573L66.0882 208.913L66.1288 209.254L66.1693 209.595L66.2099 209.935L66.2504 210.276L66.291 210.616L66.3315 210.957L66.3721 211.297L66.4126 211.638L66.4531 211.979L66.4937 212.319L66.5342 212.66L66.5748 213L66.6153 213.341L66.6559 213.682L66.6964 214.022L66.737 214.363L66.7775 214.703L66.8181 215.044L66.8586 215.385L66.8992 215.725L66.9397 216.066L66.9803 216.406L67.0208 216.747L67.0614 217.088L67.1019 217.428L67.1425 217.769L67.183 218.109L67.1784 218.45L67.1737 218.79L67.1691 219.13L67.1644 219.471L67.1598 219.811L67.1551 220.151L67.1512 220.443L67.1505 220.491L67.1458 220.832L67.1412 221.172L67.1366 221.512L67.1319 221.853L67.1273 222.193L67.1226 222.533L67.1186 222.825L67.1146 223.117L67.1107 223.408L67.1067 223.7L66.9691 223.845L66.8355 223.698L66.8395 223.406L66.8435 223.115L66.8475 222.823L66.8514 222.531L66.8554 222.24L66.8601 221.899L66.8647 221.559L66.8694 221.219L66.874 220.879L66.8787 220.538L66.8793 220.49L66.8833 220.198L66.8428 219.857L66.8022 219.517L66.7617 219.176L66.7211 218.836L66.6806 218.495L66.64 218.154L66.5995 217.814L66.5589 217.473L66.5184 217.133L66.4778 216.792L66.4373 216.451L66.3967 216.111L66.3562 215.77L66.3156 215.43L66.2751 215.089L66.2345 214.749L66.194 214.408L66.1534 214.067L66.1129 213.727L66.0723 213.386L66.0318 213.046L65.9912 212.705L65.9507 212.364L65.9102 212.024L65.8696 211.683L65.8291 211.343L65.7885 211.002L65.748 210.661L65.7074 210.321L65.6669 209.98L65.6263 209.64L65.5858 209.299L65.5452 208.958L65.4595 208.618L65.3737 208.277L65.288 207.936L65.2022 207.595L65.1165 207.254L65.074 207.059L65.0301 206.962L64.9444 206.621L64.8586 206.28L64.7729 205.939L64.6871 205.598L64.6007 205.306L64.5143 205.014L64.4279 204.721L64.3415 204.429L64.2551 204.137L64.1687 203.845L64.0823 203.552L63.9959 203.26L63.9095 202.968L63.8231 202.676L63.6503 202.091L63.4781 201.458L63.306 200.825L63.1338 200.192L62.9617 199.558L62.8759 199.217L62.7902 198.877L62.7044 198.536L62.6187 198.195L62.5329 197.854L62.4472 197.513L62.3615 197.172L62.2757 196.831L62.19 196.49L62.1042 196.15L62.0185 195.809L61.9328 195.468L61.847 195.127L61.7613 194.786L61.6755 194.445L61.6317 194.348L61.5891 194.153L61.5486 193.812L61.508 193.472L61.4675 193.131L61.4269 192.79L61.3864 192.45L61.3452 192.158L61.3059 191.72L61.2667 191.282L61.2275 190.844L61.1883 190.407L61.1491 189.969L61.1098 189.531L61.0706 189.093L61.0314 188.655L60.9922 188.217L60.953 187.78L60.9137 187.342L60.8745 186.904L60.8353 186.466L60.7961 186.028L60.7569 185.591L60.7628 185.153L60.7688 184.716L60.7748 184.278L60.7808 183.84L60.7867 183.403L60.7927 182.965L60.7987 182.528L60.7654 181.653L60.7754 180.923L60.7774 180.778L60.7893 179.902L60.768 178.152L60.78 177.277L60.7919 176.402L60.8039 175.527L60.7706 174.652L60.7766 174.214L60.7826 173.777L60.7886 173.339L60.7945 172.901L60.8005 172.464L60.8065 172.026L60.8124 171.589L60.7732 171.151L60.734 170.713L60.6948 170.275L60.6988 169.984L60.7008 169.838L60.6615 169.4L60.6223 168.962L60.5831 168.524L60.5439 168.087L60.5046 167.649L60.4654 167.211L60.4262 166.773L60.387 166.335L60.3478 165.898L60.3085 165.46L60.2693 165.022L60.2301 164.584L60.1909 164.146L60.1071 163.66L60.0659 163.368L60.0227 163.221L59.939 162.735L59.8552 162.248L59.7715 161.761L59.6877 161.275L59.604 160.788L59.5202 160.301L59.3521 159.376L59.1839 158.451L59.0157 157.527L58.8475 156.602L58.8043 156.456L58.6794 155.677L58.5112 154.752L58.3431 153.827L58.1749 152.902L58.0911 152.416L58.0074 151.929L57.9236 151.442L57.8399 150.955L57.7561 150.469L57.6724 149.982L57.5886 149.495L57.5049 149.009L57.4623 148.814L57.4198 148.619L57.3773 148.424L57.3347 148.23L57.2922 148.035L57.2496 147.84L57.1646 147.451L57.0795 147.061L56.9944 146.672L56.9093 146.282L56.8243 145.893L56.8249 145.844L56.7817 145.698L56.7392 145.503L56.6966 145.308L56.6541 145.114L56.6116 144.919L56.569 144.724L56.5265 144.529L56.5291 144.335L56.5318 144.14L56.5344 143.946L56.5371 143.751L56.5397 143.557L56.5424 143.363L56.5451 143.168L56.5457 143.119L56.5477 142.974L56.549 142.876L56.5956 142.779L56.6414 142.731L57.2722 142.881Z" fill="#0C350C"/>
<path fill-rule="evenodd" clip-rule="evenodd" d="M61.2259 141.351L61.4519 141.352L61.6778 141.354L61.9038 141.355L62.1297 141.357L62.1749 141.357L62.4008 141.359L62.6268 141.36L62.7624 141.361L62.8979 141.362L63.0335 141.363L63.1691 141.364L63.2143 141.364L63.3047 141.365L63.4402 141.365L63.5758 141.366L63.7114 141.367L63.8463 141.417L63.9812 141.466L64.1161 141.516L64.251 141.565L64.2962 141.565L64.3414 141.566L64.4763 141.615L64.6112 141.665L64.7461 141.714L64.881 141.764L65.0159 141.813L65.1488 142.008L64.9668 142.105L64.8319 142.055L64.6963 142.054L64.5607 142.053L64.4251 142.052L64.2896 142.052L64.2444 142.051L64.1992 142.051L64.0636 142.05L63.928 142.049L63.7925 142.048L63.6569 142.047L63.5213 142.047L63.3858 142.046L63.2502 142.045L63.1598 142.044L63.1146 142.044L62.979 142.043L62.8435 142.042L62.7079 142.041L62.5723 142.04L62.3464 142.039L62.1204 142.037L62.0752 142.037L61.8493 142.036L61.6233 142.034L61.3974 142.033L61.1714 142.031L60.9455 142.03L60.7195 142.028L60.4936 142.027L60.2676 142.025L60.0417 142.024L59.5897 142.021L59.1378 142.018L58.8215 142.016L58.6407 142.015L58.1888 142.012L58.1436 142.012L57.9177 142.01L57.6917 142.009L57.6465 142.008L57.4665 141.959L57.3309 141.958L57.2412 141.909L57.1966 141.86L57.2425 141.811L57.3335 141.763L57.4691 141.764L57.6505 141.717L57.6957 141.717L57.9217 141.718L58.1476 141.72L58.1928 141.72L58.6454 141.675L58.8261 141.676L59.1425 141.678L59.5944 141.681L60.0463 141.684L60.2723 141.685L60.4982 141.687L60.7242 141.688L60.9501 141.69L61.2259 141.351Z" fill="#0C350C"/>
<path d="M62.1352 66.8263C62.1352 66.8263 64.1994 71.1436 60.7187 72.2233C52.4516 74.8007 52.1376 64.5302 52.1376 64.5302C50.1869 64.9472 46.6001 65.9918 45.5198 66.6487C43.41 67.9119 41.6838 69.8818 41.215 72.4518C40.9971 73.5587 41.072 74.6755 41.1469 75.7924C41.9603 90.6737 40.9754 105.82 38.1995 120.778C38.0866 121.437 37.9697 122.2 38.4035 122.614C38.6204 122.822 38.9303 122.895 39.2316 122.937C50.4922 124.656 60.3828 130.029 71.5776 125.753C71.3786 122.498 71.2469 119.014 71.1488 115.416C70.9464 107.357 70.6829 90.0867 70.098 81.8042C69.0924 68.1252 62.1352 66.8263 62.1352 66.8263Z" fill="#E3CC55"/>
<path d="M55.755 62.7432C54.8575 64.9219 49.6806 61.1796 47.9596 60.2348C46.2385 59.2901 44.5403 57.803 44.4418 55.4231C44.4031 54.9228 44.4573 54.4098 44.2958 53.9936C44.1029 53.5481 43.7267 53.2961 43.3814 53.0399C41.1227 51.427 40.8179 47.727 40.8588 44.317C40.8775 43.5054 40.958 42.6854 41.3188 41.9283C41.7394 41.0281 42.4738 40.3548 43.2102 39.816C48.212 36.1666 53.1986 37.6091 58.2644 34.0858C59.7378 33.0418 61.0512 31.6827 62.5246 30.6387C63.998 29.5948 65.7243 28.8534 67.1594 29.3652C68.5945 29.8771 69.495 31.9451 68.6222 33.716C68.0813 34.8686 67.0053 35.5211 66.0527 36.1232C68.104 36.3486 69.17 39.1019 68.6193 41.6378C68.0995 44.1695 66.3339 46.3994 64.4017 47.8768C62.9603 48.9837 61.359 49.7755 60.1405 51.2565C58.0369 53.7012 57.0417 59.6348 55.755 62.7432Z" fill="#001300"/>
<path d="M57.7797 71.1208C52.8072 70.0057 52.3915 64.9124 52.3915 64.9124L54.5963 57.5341C54.9863 55.3431 57.4635 54.3473 59.9216 55.2262C62.349 56.1091 62.817 59.056 62.3929 61.2181L61.4758 69.2955C61.0823 71.4536 59.1175 71.4122 57.7797 71.1208Z" fill="#FFF9F2"/>
<path d="M67.5487 60.3646C66.2722 66.1682 58.6011 63.6766 55.7634 62.7496C51.5529 61.3358 42.2912 50.1962 46.2858 43.5831C50.2805 36.9701 59.6474 36.7357 63.4357 38.9487C67.224 41.1617 68.4169 56.2685 67.5487 60.3646Z" fill="#FFF9F2"/>
<path d="M52.5283 54.2376C53.8844 55.6706 54.3143 57.3985 53.6104 58.0338C51.2545 60.209 49.6129 60.3991 48.2567 58.9661C46.9005 57.533 47.1524 55.7459 48.3115 54.4418C49.5016 53.1335 51.1721 52.8046 52.5283 54.2376Z" fill="#FFF9F2"/>
<path d="M63.5985 37.704C61.6977 36.456 59.1353 36.3968 56.7877 36.8844C54.6703 37.3233 52.5626 38.1097 50.5 38.8962C48.5725 39.6832 46.4547 40.5688 44.7769 42.0021C41.5766 44.6706 43.5497 49.195 45.2742 51.733C46.1789 53.0269 45.6769 54.8617 47.2231 55.1653C47.8836 55.3166 48.9301 54.7745 49.551 54.4293C50.3171 53.9855 50.853 59.3483 52.7401 58.9583C52.9704 58.9095 54.0133 56.63 53.7756 53.6509C53.5873 51.5157 52.2328 49.3266 51.9587 48.035C51.8441 47.3893 51.785 46.1978 52.2106 46.0008C52.7166 45.4567 53.4221 45.6082 54.0026 45.66C54.6682 45.7617 55.2685 46.0618 55.929 46.2132C57.0248 46.5151 58.1807 46.6683 59.3518 46.6727C61.3838 46.6306 64.0821 45.7968 65.29 43.6668C65.9466 42.5276 65.9676 41.4356 65.6231 40.392C65.6332 40.2927 65.6383 40.2431 65.6033 40.1437C65.4185 39.7459 65.2286 39.3977 64.9886 39.099C64.6387 38.5517 64.2388 38.0538 63.8338 37.6056C63.8039 37.4566 63.6587 37.5553 63.5985 37.704C63.6835 37.7539 63.7635 37.8535 63.8936 37.9036L64.5133 38.8987C64.8333 39.297 65.1533 39.6953 65.328 40.1923C65.323 40.2419 65.368 40.2421 65.363 40.2917L65.3579 40.3413L65.3979 40.3911C65.3579 40.3413 65.363 40.2917 65.323 40.2419C65.0034 39.3969 64.4885 38.7001 63.9736 38.0032C64.3937 38.3026 64.7587 38.7011 65.0737 39.149C65.3486 39.5471 65.5284 39.9945 65.7031 40.4915C65.648 40.5906 65.5928 40.6897 65.4977 40.739C65.4628 40.6396 65.4329 40.4905 65.3979 40.3911L64.5083 38.9483C64.3883 38.799 64.2233 38.6494 64.0582 38.4999C63.8982 38.3008 63.7833 38.1018 63.6233 37.9026C63.5884 37.8032 63.5934 37.7536 63.5985 37.704Z" fill="#001300"/>
<path fill-rule="evenodd" clip-rule="evenodd" d="M28.8429 103.245C38.0242 91.8674 52.8062 81.7855 50.4902 77.8144C46.8389 71.5227 46.8377 67.6117 33.6853 79.5553C6.56169 104.23 14.125 126.189 18.8627 133.722C18.8627 133.722 22.0296 136.611 24.2841 135.542C28.4893 133.389 17.2559 117.64 28.8429 103.245Z" fill="#FFF9F2"/>
<path fill-rule="evenodd" clip-rule="evenodd" d="M36.6704 97.4877C36.6704 97.4877 41.6184 90.3379 51.2141 85.2584C55.2007 83.1542 46.1896 66.2621 46.1896 66.2621C46.1896 66.2621 41.3204 69.2757 36.4475 73.1692C30.3835 78.0162 25.0654 85.1869 25.1114 85.2443C25.1842 89.9985 36.6704 97.4877 36.6704 97.4877Z" fill="#E3CC55"/>
<path fill-rule="evenodd" clip-rule="evenodd" d="M27.2106 135.761C28.4398 135.941 30.1286 135.899 30.1286 135.899C30.5609 135.83 31.1825 135.642 31.2635 135.659C32.2093 135.539 31.9123 135.316 31.9258 135.239C32.0348 134.14 29.9136 134.251 27.7665 133.075C27.3073 132.817 26.8618 132.483 26.4972 132.165C26.3219 131.727 24.9999 129.204 23.947 128.02C22.1248 125.951 17.1935 126.267 17.7729 128.232C19.4441 133.553 20.5769 136.196 20.4816 137.217C20.3723 138.796 19.9525 140.229 19.519 141.739C19.1263 143.018 17.6646 146.552 17.9213 146.527C18.3401 146.535 18.6646 146.124 18.881 145.849C19.6654 144.734 20.4362 143.696 21.0857 142.392C21.2481 141.946 21.478 141.594 21.6405 141.148C21.7622 140.933 21.9247 140.487 21.9247 140.487C21.9247 140.487 21.8433 140.95 21.8026 141.182C21.7212 141.645 21.4777 142.074 21.3963 142.538C21.1656 143.85 19.7714 147.48 19.8385 148.055C19.8114 148.209 19.7435 148.595 20.0813 148.587C20.5001 148.595 21.7854 146.065 22.0832 145.327C22.6787 143.851 23.3824 142.238 23.5313 141.869C23.5449 141.792 23.6802 141.5 23.6938 141.423C23.7884 141.363 23.707 141.826 23.707 141.826C23.7202 142.229 22.5666 149.274 22.8233 149.248C23.3638 149.043 23.6616 148.305 23.9186 147.798C24.5817 146.417 24.7855 144.778 25.1379 143.251C25.2329 142.71 25.3279 142.17 25.4093 141.707C25.4229 141.629 25.4232 141.149 25.5989 141.106C25.6799 141.123 25.5446 141.415 25.6121 141.509C25.6388 141.835 25.571 142.221 25.5842 142.625C25.7049 143.852 25.4607 145.242 25.4057 146.512C25.4053 146.992 25.08 148.365 25.3232 148.417C25.958 148.631 26.9481 143.475 27.0298 142.531C27.2477 140.334 27.398 138.043 27.2106 135.761Z" fill="#FFF9F2"/>
</g>
<defs>
<clipPath id="clip0">
<rect width="165" height="231" fill="white"/>
</clipPath>
</defs>
</svg>
