<svg width="27" height="36" viewBox="0 0 27 36" fill="none" xmlns="http://www.w3.org/2000/svg">
<g clip-path="url(#clip0)">
<path d="M24.0998 5.25C21.5786 1.95 17.5743 0 13.4217 0C9.26917 0 5.26491 1.95 2.7437 5.25C-0.148263 8.925 -0.667334 13.425 0.889879 17.775C2.37294 21.975 5.41321 25.425 7.93441 29.025C9.12086 30.75 11.1971 33.675 12.3836 35.4C12.9027 36.15 13.9408 36.15 14.4599 35.4C15.7205 33.6 17.7226 30.675 18.9091 29.025C21.4303 25.425 24.4705 21.9 25.9536 17.775C27.5108 13.425 26.9917 8.925 24.0998 5.25Z" fill="#DD3030"/>
<path d="M13.7184 19.5C10.2482 19.5 7.41541 16.6348 7.41541 13.125C7.41541 9.61517 10.2482 6.75 13.7184 6.75C17.1886 6.75 20.0214 9.61517 20.0214 13.125C19.9506 16.6348 17.1886 19.5 13.7184 19.5Z" fill="black" fill-opacity="0.3"/>
</g>
<defs>
<clipPath id="clip0">
<rect width="26.7692" height="36" fill="white"/>
</clipPath>
</defs>
</svg>
