<svg width="24" height="24" viewBox="0 0 24 24" fill="none" xmlns="http://www.w3.org/2000/svg">
<path d="M17.5 14.5002C17.4 14.3002 17.2 14.2002 16.9 14.2002C16.6 14.2002 16.3 14.3002 16.3 14.5002L14.8 19.2002V19.3002C14.8 19.5002 15.2 19.7002 15.4 19.7002C15.6 19.7002 15.7 19.6002 15.7 19.5002L16 18.5002H17.7L18 19.5002C18 19.6002 18.2 19.7002 18.3 19.7002C18.6 19.7002 18.9 19.5002 18.9 19.3002C18.9 19.3002 18.9 19.3002 18.9 19.2002L17.5 14.5002ZM16.2 17.7002L16.9 15.4002L17.6 17.7002H16.2Z" fill="#617882" fill-opacity="0.5"/>
<path d="M21.4 9.8H14.2V6.7L16.6 5C16.8 4.9 16.9 4.7 16.9 4.4C16.9 4.2 16.8 4 16.6 3.8L14.2 2.1C14 1 12.9 0 11.6 0H2.6C1.2 0 0 1.2 0 2.6V11.6C0 13 1.2 14.2 2.6 14.2H9.8V17.3L7.4 19C7.2 19.1 7.1 19.3 7.1 19.6C7.1 19.8 7.2 20 7.4 20.2L9.8 21.9C10 23 11.1 24 12.4 24H21.4C22.8 24 24 22.8 24 21.4V12.4C24 11 22.8 9.8 21.4 9.8ZM2.6 12.8C1.9 12.8 1.4 12.3 1.4 11.6V2.6C1.4 1.9 1.9 1.4 2.6 1.4H11.6C12.3 1.4 12.8 1.9 12.8 2.6C12.8 2.8 12.9 3 13.1 3.2L14.9 4.5L13.1 5.8C12.9 5.9 12.8 6.1 12.8 6.4V9.8H12.4C11 9.8 9.8 11 9.8 12.4V12.8H2.6ZM22.6 21.4C22.6 22.1 22.1 22.6 21.4 22.6H12.4C11.7 22.6 11.2 22.1 11.2 21.4C11.2 21.2 11.1 21 10.9 20.8L9.1 19.5L10.9 18.2C11.1 18.1 11.2 17.9 11.2 17.6V12.3C11.2 11.6 11.7 11.1 12.4 11.1H21.4C22.1 11.1 22.6 11.6 22.6 12.3V21.4Z" fill="#617882" fill-opacity="0.5"/>
<path d="M9.3 6.4998C9.5 6.4998 9.7 6.2998 9.7 6.0998C9.7 5.8998 9.5 5.6998 9.3 5.6998H7.5V4.6998C7.5 4.4998 7.3 4.2998 7.1 4.2998C6.9 4.2998 6.7 4.4998 6.7 4.6998V5.6998H4.9C4.7 5.6998 4.5 5.8998 4.5 6.0998C4.5 6.2998 4.7 6.4998 4.9 6.4998H5.4C5.5 7.2998 5.8 8.0998 6.4 8.6998C6 8.8998 5.5 9.0998 4.9 9.0998C4.7 9.0998 4.5 9.2998 4.5 9.4998C4.5 9.6998 4.7 9.8998 4.9 9.8998C5.7 9.8998 6.4 9.5998 7.1 9.1998C7.7 9.5998 8.5 9.8998 9.3 9.8998C9.5 9.8998 9.7 9.6998 9.7 9.4998C9.7 9.2998 9.5 9.0998 9.3 9.0998C8.7 9.0998 8.2 8.8998 7.8 8.6998C8.3 8.0998 8.7 7.3998 8.8 6.4998H9.3ZM7.1 8.1998C6.7 7.6998 6.4 7.1998 6.3 6.4998H7.9C7.8 7.0998 7.5 7.6998 7.1 8.1998Z" fill="#617882" fill-opacity="0.5"/>
</svg>
