<svg width="10" height="16" viewBox="0 0 10 16" fill="none" xmlns="http://www.w3.org/2000/svg">
<path d="M9.3 14.1V11.6C9.3 10.7 8.9 9.9 8.3 9.3L6.8 8L8.3 6.7C9 6.1 9.3 5.3 9.3 4.4V1.9C9.7 1.8 10 1.4 10 1C10 0.4 9.6 0 9 0H1C0.4 0 0 0.4 0 1C0 1.4 0.3 1.8 0.7 1.9V4.4C0.7 5.3 1.1 6.1 1.7 6.7L3.2 8L1.7 9.3C1 9.9 0.7 10.7 0.7 11.6V14.1C0.3 14.2 0 14.6 0 15C0 15.6 0.4 16 1 16H9C9.6 16 10 15.6 10 15C10 14.6 9.7 14.2 9.3 14.1ZM2.1 9.8L3.9 8.3C4 8.2 4 8.1 4 8C4 7.9 4 7.8 3.9 7.7L2.1 6.2C1.6 5.8 1.3 5.1 1.3 4.5V2H8.6V4.5C8.6 5.2 8.3 5.8 7.8 6.3L6.1 7.7C6 7.8 6 7.9 6 8C6 8.1 6 8.2 6.1 8.3L7.9 9.8C8.4 10.2 8.7 10.9 8.7 11.6V14H1.3V11.5C1.3 10.9 1.6 10.2 2.1 9.8Z" fill="#E17126"/>
<path d="M2.3 13.3001H7.6C7.7 13.3001 7.8 13.2001 7.9 13.1001C8 13.0001 7.9 12.8001 7.9 12.7001L5.3 9.5001C5.2 9.3001 4.9 9.3001 4.8 9.5001L2.1 12.8001C2 12.9001 2 13.0001 2 13.1001C2.1 13.3001 2.2 13.3001 2.3 13.3001Z" fill="#E17126"/>
<path d="M4.99994 7.30005C5.09994 7.30005 5.19994 7.30005 5.19994 7.20005L6.49994 5.90005C6.59994 5.80005 6.59994 5.70005 6.59994 5.50005C6.59994 5.40005 6.49994 5.30005 6.29994 5.30005H3.69994C3.59994 5.30005 3.39994 5.40005 3.39994 5.50005C3.29994 5.60005 3.39994 5.80005 3.49994 5.90005L4.79994 7.20005C4.79994 7.30005 4.89994 7.30005 4.99994 7.30005Z" fill="#E17126"/>
</svg>
