<svg width="108" height="111" viewBox="0 0 108 111" fill="none" xmlns="http://www.w3.org/2000/svg">
<g clip-path="url(#clip0)">
<path d="M12.3001 46.6998C11.0001 46.9998 6.3001 46.7998 7.2001 44.4998C8.2001 41.8998 10.9001 44.1998 12.0001 45.5998C11.6001 43.2998 11.5001 40.9998 11.5001 39.6998C10.6001 38.6998 8.8001 32.1998 12.4001 32.4998C17.0001 32.8998 12.9001 39.0998 11.9001 39.7998C11.9001 41.2998 12.0001 44.2998 12.7001 46.8998C12.8001 45.2998 14.5001 40.5998 16.7001 42.1998C19.9001 44.5998 13.8001 47.4998 12.9001 47.3998C13.2001 48.2998 13.6001 49.1998 14.0001 49.8998C14.3001 50.3998 14.7001 50.9998 15.1001 51.5998C15.3001 49.8998 16.9001 45.3998 19.0001 46.9998C21.9001 49.1998 16.9001 51.8998 15.5001 52.1998C16.4001 53.5998 17.3001 55.2998 18.0001 56.8998C18.1001 55.2998 21.2001 52.1998 22.4001 53.9998C23.1001 54.9998 19.5001 58.2998 18.3001 57.5998C19.0001 59.1998 19.4001 60.7998 19.2001 61.8998C19.1001 62.2998 19.1001 62.7998 19.0001 63.2998C19.8001 62.3998 22.9001 59.2998 23.8001 61.6998C24.5001 63.6998 22.1001 64.7998 21.0001 64.7998C20.2001 64.7998 19.3001 63.9998 19.0001 63.6998C19.0001 63.9998 18.9001 64.2998 18.8001 64.5998C18.4001 67.0998 17.9001 69.9998 18.0001 71.7998C18.7001 70.3998 21.9001 64.5998 23.8001 68.3998C24.8001 70.2998 22.1001 71.8998 21.0001 72.1998C20.1001 72.4998 18.6001 72.1998 18.1001 72.0998C18.1001 72.2998 18.2001 72.4998 18.2001 72.5998C18.9001 74.6998 20.3001 76.6998 20.3001 76.7998C20.4001 76.8998 20.3001 76.9998 20.3001 76.9998H20.2001C20.1001 76.9998 20.1001 76.9998 20.1001 76.8998C20.1001 76.8998 19.1001 75.2998 18.3001 73.5998C17.5001 73.4998 14.3001 73.0998 13.4001 72.4998C12.4001 71.7998 10.5001 69.4998 12.0001 68.6998C14.4001 67.3998 16.8001 70.8998 17.9001 72.6998C17.5001 71.2998 17.9001 68.5998 18.3001 66.0998C17.5001 66.3998 14.7001 65.8998 13.7001 65.1998C12.7001 64.4998 10.8001 62.6998 12.0001 61.6998C14.8001 59.1998 17.7001 64.4998 18.4001 65.6998C18.5001 65.2998 18.5001 64.8998 18.6001 64.4998C18.8001 63.4998 18.9001 62.4998 19.0001 61.7998C19.1001 60.7998 18.7001 59.2998 18.0001 57.5998C17.4001 57.7998 15.6001 58.2998 13.5001 57.9998C11.1001 57.6998 9.8001 55.6998 10.7001 54.8998C12.2001 53.3998 16.7001 56.4998 17.9001 57.3998C17.2001 55.6998 16.2001 53.8998 15.1001 52.1998C13.7001 52.4998 8.0001 52.3998 8.8001 50.1998C9.6001 47.8998 12.5001 49.4998 14.2001 50.7998C14.1001 50.5998 13.9001 50.3998 13.8001 50.1998C13.1001 49.0998 12.6001 47.8998 12.3001 46.6998Z" fill="#85BF60"/>
<path d="M74.4001 42.3C72.5001 42.3 71.0001 40.8 71.0001 38.9V25.2C71.0001 15 62.7001 6.8 52.6001 6.8C42.4001 6.8 34.2001 15.1 34.2001 25.2V38.9C34.2001 40.8 32.7001 42.3 30.8001 42.3C28.9001 42.3 27.4001 40.8 27.4001 38.9V25.2C27.4001 11.3 38.7001 0 52.6001 0C66.5001 0 77.8001 11.3 77.8001 25.2V38.9C77.7001 40.8 76.2001 42.3 74.4001 42.3Z" fill="#FFDB00"/>
<path d="M52.7001 110.5C32.5001 110.5 16.1001 94.0998 16.1001 73.8998C16.1001 53.6998 32.5001 37.2998 52.7001 37.2998C72.9001 37.2998 89.3001 53.6998 89.3001 73.8998C89.4001 94.0998 73.0001 110.5 52.7001 110.5Z" fill="#FFDB00"/>
<path d="M57.8 89.0001H47.6C47.1 89.0001 46.7001 88.8001 46.4001 88.5001C46.1001 88.2001 46 87.7001 46.1 87.3001L48.1 75.6001C45.1 74.0001 43.3 70.9001 43.3 67.4001C43.3 62.2001 47.5 58.1001 52.6 58.1001C57.8 58.1001 61.9001 62.3001 61.9001 67.4001C61.9001 70.8001 60.1 73.9001 57.1 75.6001L59.1 87.3001C59.2 87.7001 59.1 88.2001 58.8 88.5001C58.7 88.8001 58.3 89.0001 57.8 89.0001Z" fill="#0F8370"/>
<path d="M35.0001 64.3001L17.7001 60.1001L0.400072 64.3001C0.400072 64.3001 -1.39993 81.4001 2.50007 89.2001C6.40007 96.9001 15.4001 104.8 17.7001 104.8C20.0001 104.8 29.1001 96.9001 32.9001 89.2001C36.8001 81.4001 35.0001 64.3001 35.0001 64.3001Z" fill="#0FB870"/>
<path d="M17.7 102.2C17.1 102.2 16.3 101.8 15.1 101C14 100.2 12.7 99.1002 11.4 97.9002C8.3 94.9002 5.7 91.5002 4.2 88.5002C2.7 85.6002 2 81.1002 2 74.9002C2 70.4002 2.4 66.6002 2.4 66.6002C2.4 66.5002 2.5 66.4002 2.6 66.3002L17.7 62.7002H17.8L32.9 66.3002C33 66.3002 33.1 66.4002 33.1 66.6002C33.1 66.6002 33.5 70.4002 33.5 74.9002C33.5 81.0002 32.7 85.6002 31.3 88.4002C29.8 91.4002 27.2 94.8002 24.1 97.8002C22.8 99.1002 21.5 100.2 20.4 100.9C19.1 101.8 18.3 102.2 17.7 102.2ZM2.9 66.9002C2.8 67.8002 2.5 71.1002 2.6 75.0002C2.6 80.9002 3.4 85.5002 4.7 88.2002C6.2 91.1002 8.8 94.5002 11.8 97.5002C14.6 100.3 16.9 101.7 17.7 101.7C18.5 101.7 20.8 100.3 23.6 97.5002C26.6 94.6002 29.2 91.2002 30.7 88.2002C32.1 85.5002 32.8 80.9002 32.8 75.0002C32.8 71.1002 32.5 67.8002 32.5 66.9002L17.7 63.3002L2.9 66.9002Z" fill="white"/>
<path d="M79.9001 91.6C82.8001 90.4 83.5001 94.9 83.7001 96.3C84.3001 94.2 84.6001 91.6 84.3001 89.5C83.9001 89.5 82.1001 89.4 81.0001 88.8C79.6001 88.1 78.8001 85.3 80.0001 85C82.0001 84.4 83.8001 87.9 84.3001 89.1C84.3001 88.8 84.2001 88.6 84.1001 88.3C83.7001 86.7 83.3001 84.6 83.2001 82.5C82.7001 82.5 81.1001 82.4 80.3001 82.2C79.3001 81.9 77.5001 79.1 78.9001 78.7C80.8001 78.1 82.6001 80.9 83.2001 82.1C83.1001 80 83.2001 77.9 83.5001 76.5C83.3001 76 83.0001 74.7 83.0001 73.7C83.0001 72.3 84.6001 69.6 86.1001 70.9C88.9001 73.3 84.7001 76.2 83.7001 76.8C83.4001 78.2 83.3001 80.2 83.4001 82.2C84.0001 80.6 86.5001 75 89.5001 77.7C90.6001 78.7 88.1001 81.2 86.4001 81.8C85.0001 82.3 83.9001 82.5 83.4001 82.5C83.5001 84.5 83.9001 86.6 84.3001 88.2C84.4001 88.5 84.4001 88.8 84.5001 89.1C85.2001 87.8 88.2001 82.2 91.6001 84.6C93.0001 85.6 90.2001 88.1 88.8001 88.7C87.6001 89.3 85.2001 89.3 84.5001 89.3C84.8001 91.4 84.5001 94 83.9001 96.1C84.9001 94.6 87.9001 90.6 90.1001 93.2C91.4001 94.7 88.0001 96 87.0001 96.3C86.1001 96.6 84.3001 96.7 83.7001 96.7C83.2001 98.2 82.5001 99.4 81.8001 100.1H81.7001C81.7001 100.1 81.6001 100.1 81.6001 100C81.5001 99.9 81.5001 99.8 81.6001 99.8C82.3001 99.2 83.0001 98 83.5001 96.6C83.0001 96.4 81.7001 95.8 80.9001 95.3C79.9001 94.7 78.3001 92.3 79.9001 91.6Z" fill="#7BC163"/>
<path d="M98.4 110.2H70.6C65.3 110.2 61 105.9 61 100.6C61 95.3 65.3 91 70.6 91H98.4C103.7 91 108 95.3 108 100.6C108 105.9 103.7 110.2 98.4 110.2Z" fill="white"/>
<path d="M70.5 100.1L70.9 98.8C71.9 99.1 72.5 99.4 73 99.7C72.9 98.6 72.8 97.9 72.8 97.5H74.1C74.1 98.1 74 98.8 73.9 99.7C74.5 99.4 75.2 99.1 76 98.8L76.4 100.1C75.6 100.4 74.9 100.5 74.2 100.6C74.6 100.9 75.1 101.5 75.7 102.3L74.6 103.1C74.3 102.6 73.8 102 73.4 101.2C73 102 72.6 102.7 72.2 103.1L71.1 102.3C71.8 101.4 72.3 100.9 72.6 100.6C71.9 100.5 71.2 100.3 70.5 100.1Z" fill="#BCBEC1"/>
<path d="M82 100.1L82.4 98.8C83.4 99.1 84 99.4 84.5 99.7C84.4 98.6 84.3 97.9 84.3 97.5H85.6C85.6 98.1 85.5 98.8 85.4 99.7C86 99.4 86.7 99.1 87.5 98.8L87.9 100.1C87.1 100.4 86.4 100.5 85.7 100.6C86.1 100.9 86.6 101.5 87.2 102.3L86.1 103.1C85.8 102.6 85.3 102 84.9 101.2C84.5 102 84.1 102.7 83.7 103.1L82.6 102.3C83.3 101.4 83.8 100.9 84.1 100.6C83.4 100.5 82.7 100.3 82 100.1Z" fill="#BCBEC1"/>
<path d="M93.5 100.1L93.9 98.8C94.9 99.1 95.5 99.4 96 99.7C95.9 98.6 95.8 97.9 95.8 97.5H97.1C97.1 98.1 97 98.8 96.9 99.7C97.5 99.4 98.2 99.1 99 98.8L99.4 100.1C98.6 100.4 97.9 100.5 97.2 100.6C97.6 100.9 98.1 101.5 98.7 102.3L97.6 103.1C97.3 102.6 96.8 102 96.4 101.2C96 102 95.6 102.7 95.2 103.1L94.1 102.3C94.8 101.4 95.3 100.9 95.6 100.6C94.9 100.5 94.2 100.3 93.5 100.1Z" fill="#BCBEC1"/>
</g>
<defs>
<clipPath id="clip0">
<rect width="108" height="110.5" fill="white"/>
</clipPath>
</defs>
</svg>
