<svg width="24" height="24" viewBox="0 0 24 24" fill="none" xmlns="http://www.w3.org/2000/svg">
<path d="M21.9 17.7001L18.45 14.2501C17.7 13.5001 16.35 13.5001 15.45 14.2501L14.4 15.3001C14.25 15.4501 13.95 15.6001 13.65 15.7501C12.9 16.0501 12 15.9001 11.4 15.3001L8.7 12.6001C7.95 11.8501 7.95 10.5001 8.7 9.6001L9.75 8.5501C10.65 7.6501 10.5 6.4501 9.75 5.5501L6.3 2.1001C5.55 1.3501 4.2 1.3501 3.3 2.1001L2.25 3.1501C-0.75 6.1501 -0.75 11.1001 2.25 14.1001L9.9 21.7501C12.9 24.7501 17.85 24.7501 20.85 21.7501L21.9 20.7001C22.65 19.9501 22.65 18.6001 21.9 17.7001ZM4.2 3.1501C4.5 2.8501 4.95 2.8501 5.25 3.1501L8.7 6.6001C9 6.9001 9 7.3501 8.7 7.6501L8.25 8.1001L3.75 3.6001L4.2 3.1501ZM10.95 20.7001L3.3 13.0501C1.05 10.8001 0.9 7.0501 2.85 4.6501L7.35 9.1501C6.45 10.5001 6.45 12.3001 7.8 13.5001L10.5 16.2001C11.7 17.4001 13.5 17.5501 14.85 16.6501L19.35 21.1501C16.8 23.2501 13.2 23.1001 10.95 20.7001ZM20.85 19.8001L20.4 20.2501L15.9 15.7501L16.35 15.3001C16.65 15.0001 17.1 15.0001 17.4 15.3001L20.85 18.7501C21.15 19.0501 21.15 19.5001 20.85 19.8001Z" fill="#617882"/>
<path d="M12.0001 0C11.7001 0 11.4001 0.3 11.4001 0.75C11.4001 1.2 11.7001 1.35 12.0001 1.35C17.8501 1.35 22.5001 6.15 22.5001 11.85C22.5001 12.3 22.8001 12.6 23.2501 12.6C23.7001 12.6 24.0001 12.3 24.0001 12C24.0001 5.4 18.6001 0 12.0001 0Z" fill="#617882"/>
<path d="M20.5501 12.6002C21.0001 12.6002 21.3001 12.3002 21.3001 11.8502C21.3001 6.7502 17.2501 2.7002 12.1501 2.7002C11.7001 2.7002 11.4001 3.0002 11.4001 3.4502C11.4001 3.9002 11.7001 4.2002 12.0001 4.2002C16.2001 4.2002 19.8001 7.6502 19.8001 12.0002C19.8001 12.3002 20.1001 12.6002 20.5501 12.6002Z" fill="#617882"/>
<path d="M12.0001 5.5498C11.7001 5.5498 11.4001 5.9998 11.4001 6.2998C11.4001 6.5998 11.7001 7.0498 12.0001 7.0498C14.7001 7.0498 16.9501 9.29981 16.9501 11.9998C16.9501 12.4498 17.2501 12.7498 17.7001 12.7498C18.1501 12.7498 18.4501 12.4498 18.4501 11.9998C18.4501 8.39981 15.6001 5.5498 12.0001 5.5498Z" fill="#617882"/>
</svg>
