<svg width="36" height="36" viewBox="0 0 36 36" fill="none" xmlns="http://www.w3.org/2000/svg">
<circle cx="18" cy="18" r="18" fill="#0F8E70"/>
<g clip-path="url(#clip0)">
<path d="M24.5417 11.9167C23.125 10.0833 20.875 9 18.5417 9C16.2083 9 13.9583 10.0833 12.5417 11.9167C10.9167 13.9583 10.625 16.4583 11.5 18.875C12.3333 21.2083 14.0417 23.125 15.4583 25.125C16.125 26.0833 17.2917 27.7083 17.9583 28.6667C18.25 29.0833 18.8333 29.0833 19.125 28.6667C19.8333 27.6667 20.9583 26.0417 21.625 25.125C23.0417 23.125 24.75 21.1667 25.5833 18.875C26.4583 16.4583 26.1667 13.9583 24.5417 11.9167Z" fill="white"/>
<path d="M18.5416 20.0417C16.4999 20.0417 14.8332 18.375 14.8332 16.3333C14.8332 14.2917 16.4999 12.625 18.5416 12.625C20.5832 12.625 22.2499 14.2917 22.2499 16.3333C22.2082 18.375 20.5832 20.0417 18.5416 20.0417Z" fill="#0F8E70"/>
</g>
<defs>
<clipPath id="clip0">
<rect width="15.0417" height="20" fill="white" transform="translate(11 9)"/>
</clipPath>
</defs>
</svg>
