<svg width="24" height="23" viewBox="0 0 24 23" fill="none" xmlns="http://www.w3.org/2000/svg">
<g clip-path="url(#clip0)">
<path d="M24 9.675C24 8.4 22.95 7.35 21.675 7.35H16.05L16.875 5.1C17.25 3.825 17.1 2.625 16.5 1.425C16.125 0.525 15.225 0 14.175 0H13.875C13.2 0 12.675 0.525 12.6 1.2C12.525 2.325 12 3.45 11.175 4.275L6.675 8.85H6.225V8.1C6.225 7.65 5.85 7.35 5.475 7.35H0.75C0.3 7.35 0 7.725 0 8.1V22.2C0 22.65 0.375 22.95 0.75 22.95H5.475C5.925 22.95 6.225 22.575 6.225 22.2V21.45H19.275C20.55 21.45 21.6 20.4 21.6 19.125C21.6 18.675 21.525 18.3 21.3 18C21.975 17.55 22.35 16.875 22.35 16.05C22.35 15.6 22.275 15.225 22.05 14.925C22.725 14.475 23.1 13.8 23.1 12.975C23.1 12.525 23.025 12.15 22.8 11.85C23.55 11.25 24 10.5 24 9.675ZM4.725 21.375H1.575V8.85H4.725V9.6V20.55V21.375ZM21.675 10.425H20.925H19.35C18.9 10.425 18.6 10.8 18.6 11.175C18.6 11.625 18.975 11.925 19.35 11.925H20.925C21.375 11.925 21.675 12.3 21.675 12.675C21.675 13.125 21.3 13.425 20.925 13.425H20.175H18.6C18.15 13.425 17.85 13.8 17.85 14.175C17.85 14.625 18.225 14.925 18.6 14.925H20.175C20.625 14.925 20.925 15.3 20.925 15.675C20.925 16.125 20.55 16.425 20.175 16.425H19.425C19.35 16.425 19.35 16.425 19.275 16.425H17.775C17.325 16.425 17.025 16.8 17.025 17.175C17.025 17.625 17.4 17.925 17.775 17.925H19.35H19.425C19.8 17.925 20.175 18.3 20.175 18.675C20.175 19.125 19.8 19.425 19.425 19.425H6.225V10.425H6.975C7.2 10.425 7.35 10.35 7.5 10.2L12.3 5.325C13.275 4.275 13.95 2.925 14.1 1.5C14.475 1.5 14.85 1.725 15 2.1C15.375 2.925 15.45 3.75 15.225 4.5L14.025 7.8C13.95 8.025 13.95 8.325 14.1 8.55C14.25 8.775 14.475 8.85 14.775 8.85H21.525C21.975 8.85 22.275 9.225 22.275 9.6C22.275 9.975 22.05 10.425 21.675 10.425Z" fill="#617882"/>
</g>
<defs>
<clipPath id="clip0">
<rect width="24" height="22.95" fill="white"/>
</clipPath>
</defs>
</svg>
