<svg width="18" height="24" viewBox="0 0 18 24" fill="none" xmlns="http://www.w3.org/2000/svg">
<g clip-path="url(#clip0)">
<path d="M6.10098 9C6.10098 9.21428 6.31502 9.21429 6.52906 9.21429L9.95368 8.57143C9.95368 8.78571 9.95368 9.21429 9.95368 9.42857C9.95368 12.2143 9.31156 12.8571 9.31156 13.0714C8.88349 13.2857 8.45541 13.2857 7.59925 13.5C6.31502 13.5 4.6027 13.5 3.10443 15C1.8202 16.0714 1.17808 17.7857 0.964039 20.5714C0.75 22.2857 0.75 24 0.75 24L4.81674 23.7857C4.81674 21.4286 5.03078 18.6429 5.6729 18C6.10098 17.5714 6.74309 17.5714 7.81329 17.5714C8.88349 17.5714 10.1677 17.3571 11.666 16.5C13.1643 15.4286 14.0204 13.5 14.0204 9.85714C14.0204 9.42857 14.0204 9 14.0204 8.57143L17.017 9C17.231 9 17.231 9 17.4451 8.78571C17.4451 8.57143 17.4451 8.35714 17.4451 8.35714L12.3081 0.214286C12.0941 0 12.0941 0 11.88 0C11.666 0 11.666 0 11.452 0.214286L6.10098 8.57143C6.10098 8.57143 6.10098 8.78571 6.10098 9Z" fill="white"/>
</g>
<defs>
<clipPath id="clip0">
<rect width="16.9091" height="24" fill="white" transform="translate(0.75)"/>
</clipPath>
</defs>
</svg>
