<svg width="93" height="79" viewBox="0 0 93 79" fill="none" xmlns="http://www.w3.org/2000/svg">
<g clip-path="url(#clip0)">
<path d="M65.3659 34.6499C65.3659 34.6499 61.6611 39.9374 59.079 42.1874C56.4969 44.3249 52.4553 47.5874 49.0873 48.8249C45.7193 50.0624 43.2495 49.1624 41.2287 48.0374C39.2079 47.0249 35.5031 44.9999 31.1247 40.3874C26.7464 35.7749 24.2765 31.2749 23.7152 29.1374C23.1538 26.9999 23.4906 24.7499 24.8378 22.1624C26.2973 19.5749 28.8794 15.2999 32.0229 12.4874C35.1663 9.67493 37.2994 7.98743 38.3098 7.42493C38.3098 7.42493 35.9522 5.84993 36.289 3.48743C36.289 3.48743 30.2266 6.86243 26.2973 12.0374C22.368 17.2124 17.8773 23.6249 19.1123 28.9124C20.4595 34.1999 24.7256 39.9374 24.7256 39.9374C24.7256 39.9374 22.4802 46.3499 22.0312 47.6999C21.5821 49.0499 20.5717 50.6249 21.4698 51.2999C22.368 51.9749 22.368 51.7499 24.9501 50.8499C27.5322 49.9499 32.8087 47.9249 32.8087 47.9249C32.8087 47.9249 36.738 50.8499 39.657 52.1999C42.4636 53.5499 47.5156 55.5749 54.1393 51.1874C60.763 46.7999 65.0291 43.4249 69.2952 36.4499C69.4075 36.5624 67.3867 37.3499 65.3659 34.6499Z" fill="#0F8E70"/>
<path d="M72.8877 26.325C72.6632 22.95 71.4282 21.15 69.7443 17.8875C68.0603 14.625 61.3243 7.42496 57.9563 5.06246C54.5883 2.81246 51.1081 0.562462 48.1892 0.112462C45.158 -0.337538 42.2391 0.337462 40.5551 1.12496C38.8711 1.91246 37.6361 2.81246 37.7484 4.61246C37.7484 4.61246 37.8607 5.06246 38.422 5.73746C39.0956 6.41246 43.1372 10.4625 43.1372 10.4625C43.1372 10.4625 44.8212 12.2625 46.5052 10.8C48.0769 9.33746 49.7609 7.64996 49.9854 7.42496C50.21 7.19996 51.5571 6.41246 52.5675 6.97496C53.5779 7.42496 56.0478 8.99996 58.6299 11.3625C61.212 13.725 64.58 17.775 65.4781 19.575C66.3763 21.2625 65.8149 22.5 65.2536 23.175C64.58 23.85 62.6715 25.7625 62.447 26.1C62.1102 26.4375 60.763 28.0125 61.9979 29.3625C63.2328 30.7125 66.9376 34.4249 67.2744 34.6499C67.6112 34.875 69.4075 36 70.6424 34.4249C71.765 33.075 73.2245 29.5875 72.8877 26.325Z" fill="#0F8E70"/>
<path d="M48.5259 14.625L46.1683 13.8375V24.75L48.5259 23.85V14.625Z" fill="#0F8E70"/>
<path d="M58.5176 37.125H55.7109V25.425L49.9854 23.2875V38.1375L50.8835 37.125L54.3637 40.8375L55.7109 42.3L55.8232 42.4125V43.2C56.3845 42.75 56.8336 42.3 57.2827 41.85C58.2931 40.8375 59.3034 39.825 60.2016 38.925L58.5176 37.125Z" fill="#0F8E70"/>
<path d="M50.2099 41.9625H48.3014V43.875H50.2099V41.9625Z" fill="#0F8E70"/>
<path d="M52.9043 41.9625H50.9957V43.875H52.9043V41.9625Z" fill="#0F8E70"/>
<path d="M50.2099 44.5499H48.3014V46.4624H50.2099V44.5499Z" fill="#0F8E70"/>
<path d="M50.9957 46.4624C51.6693 46.1249 52.3429 45.7874 52.9043 45.3374V44.5499H50.9957V46.4624Z" fill="#0F8E70"/>
<path d="M37.0747 14.625V30.7125L42.0144 32.4V47.025C42.688 47.3625 43.4739 47.8125 44.372 48.0375V25.425L44.9333 25.2V13.3875L42.8003 12.6L37.0747 14.625Z" fill="#0F8E70"/>
<path d="M30.5634 37.7999C32.2473 39.8249 33.1455 40.7249 35.1663 42.4124C35.5031 42.7499 35.8399 42.9749 36.1767 43.1999V30.4874L30.5634 32.3999V37.7999Z" fill="#0F8E70"/>
</g>
<path d="M13.6005 64.8408C12.3473 64.8408 11.3769 65.3135 10.6894 66.2588C10.0019 67.1969 9.65816 68.5075 9.65816 70.1904C9.65816 73.6924 10.9723 75.4434 13.6005 75.4434C14.7034 75.4434 16.039 75.1676 17.6074 74.6162V77.4092C16.3183 77.9463 14.8789 78.2148 13.289 78.2148C11.0045 78.2148 9.25712 77.5238 8.04684 76.1416C6.83655 74.7523 6.23141 72.7614 6.23141 70.1689C6.23141 68.5361 6.52861 67.1074 7.12301 65.8828C7.71741 64.651 8.56962 63.7093 9.67965 63.0576C10.7968 62.3988 12.1038 62.0693 13.6005 62.0693C15.1259 62.0693 16.6585 62.4382 18.1982 63.1758L17.124 65.8828C16.5367 65.6035 15.9459 65.36 15.3515 65.1523C14.7571 64.9447 14.1735 64.8408 13.6005 64.8408ZM20.1215 62.8857C20.1215 61.8187 20.7159 61.2852 21.9047 61.2852C23.0935 61.2852 23.6879 61.8187 23.6879 62.8857C23.6879 63.3942 23.5375 63.7917 23.2367 64.0781C22.9431 64.3574 22.4991 64.4971 21.9047 64.4971C20.7159 64.4971 20.1215 63.96 20.1215 62.8857ZM23.5375 78H20.2611V65.9902H23.5375V78ZM31.6053 75.6045C32.1782 75.6045 32.8657 75.4792 33.6678 75.2285V77.667C32.8514 78.0322 31.8488 78.2148 30.66 78.2148C29.3495 78.2148 28.3934 77.8854 27.7918 77.2266C27.1974 76.5605 26.9002 75.5651 26.9002 74.2402V68.4502H25.3319V67.0645L27.1366 65.9688L28.0819 63.4336H30.1766V65.9902H33.5389V68.4502H30.1766V74.2402C30.1766 74.7057 30.3055 75.0495 30.5633 75.2715C30.8283 75.4935 31.1756 75.6045 31.6053 75.6045ZM35.5266 62.8857C35.5266 61.8187 36.121 61.2852 37.3098 61.2852C38.4986 61.2852 39.093 61.8187 39.093 62.8857C39.093 63.3942 38.9427 63.7917 38.6419 64.0781C38.3483 64.3574 37.9042 64.4971 37.3098 64.4971C36.121 64.4971 35.5266 63.96 35.5266 62.8857ZM38.9427 78H35.6663V65.9902H38.9427V78ZM50.3083 78H40.823V76.0664L46.3874 68.4932H41.156V65.9902H50.115V68.1172L44.7009 75.4971H50.3083V78ZM57.2267 68.0957C56.5321 68.0957 55.9878 68.3177 55.5939 68.7617C55.2 69.1986 54.9744 69.8216 54.9171 70.6309H59.5148C59.5005 69.8216 59.2892 69.1986 58.881 68.7617C58.4728 68.3177 57.9214 68.0957 57.2267 68.0957ZM57.6886 78.2148C55.755 78.2148 54.244 77.6813 53.1554 76.6143C52.0669 75.5472 51.5226 74.0361 51.5226 72.0811C51.5226 70.0687 52.0239 68.5146 53.0265 67.4189C54.0363 66.3161 55.4292 65.7646 57.2052 65.7646C58.9025 65.7646 60.2238 66.248 61.1691 67.2148C62.1144 68.1816 62.5871 69.5173 62.5871 71.2217V72.8115H54.842C54.8778 73.7425 55.1535 74.4694 55.6691 74.9922C56.1847 75.515 56.908 75.7764 57.839 75.7764C58.5623 75.7764 59.2463 75.7012 59.8908 75.5508C60.5353 75.4004 61.2085 75.1605 61.9103 74.8311V77.3662C61.3374 77.6527 60.7251 77.8639 60.0734 78C59.4217 78.1432 58.6268 78.2148 57.6886 78.2148ZM75.8971 78H72.6207V70.9854C72.6207 70.1188 72.4667 69.4707 72.1588 69.041C71.8508 68.6042 71.3603 68.3857 70.6871 68.3857C69.7704 68.3857 69.108 68.6937 68.6998 69.3096C68.2916 69.9183 68.0875 70.9316 68.0875 72.3496V78H64.8111V65.9902H67.3141L67.7545 67.5264H67.9371C68.3023 66.9463 68.8036 66.5094 69.441 66.2158C70.0855 65.915 70.816 65.7646 71.6324 65.7646C73.0289 65.7646 74.0888 66.1442 74.8121 66.9033C75.5354 67.6553 75.8971 68.7438 75.8971 70.1689V78ZM87.209 74.4336C87.209 75.6654 86.7793 76.6035 85.92 77.248C85.0677 77.8926 83.7894 78.2148 82.085 78.2148C81.2113 78.2148 80.4665 78.154 79.8506 78.0322C79.2347 77.9176 78.6582 77.7458 78.1211 77.5166V74.8096C78.7299 75.096 79.4138 75.3359 80.1729 75.5293C80.9392 75.7227 81.6123 75.8193 82.1924 75.8193C83.3812 75.8193 83.9756 75.4756 83.9756 74.7881C83.9756 74.5303 83.8968 74.3226 83.7393 74.165C83.5817 74.0003 83.3096 73.8177 82.9229 73.6172C82.5362 73.4095 82.0205 73.1696 81.376 72.8975C80.4522 72.5107 79.7718 72.1527 79.335 71.8232C78.9053 71.4938 78.5902 71.1178 78.3897 70.6953C78.1963 70.2656 78.0996 69.7393 78.0996 69.1162C78.0996 68.0492 78.5114 67.2256 79.335 66.6455C80.1657 66.0583 81.3402 65.7646 82.8584 65.7646C84.3051 65.7646 85.7123 66.0798 87.0801 66.71L86.0918 69.0732C85.4903 68.8154 84.9281 68.6042 84.4053 68.4395C83.8825 68.2747 83.349 68.1924 82.8047 68.1924C81.8379 68.1924 81.3545 68.4538 81.3545 68.9766C81.3545 69.2702 81.5085 69.5244 81.8164 69.7393C82.1315 69.9541 82.8155 70.2728 83.8682 70.6953C84.8064 71.0749 85.4939 71.4294 85.9307 71.7588C86.3676 72.0882 86.6898 72.4678 86.8975 72.8975C87.1052 73.3271 87.209 73.8392 87.209 74.4336Z" fill="#0F8E70"/>
<defs>
<clipPath id="clip0">
<rect width="54" height="54" fill="white" transform="translate(19)"/>
</clipPath>
</defs>
</svg>
