<svg width="375" height="812" viewBox="0 0 375 812" fill="none" xmlns="http://www.w3.org/2000/svg">
<g clip-path="url(#clip0)">
<rect width="375" height="812" fill="white"/>
<path d="M-44 298.867C-44 298.867 14.427 360.2 102.98 336.689C191.534 313.178 213.444 282.511 273.697 276.378C333.949 270.244 396.028 273.311 454.455 326.467C512.882 379.622 606 -400.333 606 -400.333L-12.9607 -477L-44 298.867Z" fill="#0F8E70"/>
<path opacity="0.38" d="M489.146 397C458.107 370.422 410.635 330.556 369.553 317.267C328.472 303.978 280.087 296.822 244.483 301.933C208.879 307.044 173.275 320.333 111.197 323.4C49.1179 326.467 179.666 97.4888 179.666 97.4888L567.657 186.422L489.146 397Z" fill="#0F8E70"/>
<path d="M100.259 761.638C99.8864 759.305 98.0593 757.942 95.7528 757.942C92.9297 757.942 90.8469 760.056 90.8469 763.545C90.8469 767.034 92.919 769.149 95.7528 769.149C98.1499 769.149 99.9023 767.647 100.259 765.49L98.5973 765.484C98.315 766.88 97.1431 767.647 95.7635 767.647C93.8938 767.647 92.4822 766.214 92.4822 763.545C92.4822 760.898 93.8885 759.444 95.7688 759.444C97.1591 759.444 98.3256 760.227 98.5973 761.638H100.259ZM103.385 764.142C103.385 762.837 104.211 762.091 105.345 762.091C106.443 762.091 107.098 762.789 107.098 763.988V769H108.691V763.796C108.691 761.756 107.572 760.712 105.889 760.712C104.616 760.712 103.849 761.266 103.465 762.15H103.364V758.091H101.792V769H103.385V764.142ZM118.306 760.424C118.3 761.431 118.252 761.942 117.304 762.054V760.818H115.706V765.607C115.712 766.997 114.678 767.658 113.783 767.658C112.798 767.658 112.116 766.944 112.116 765.831V760.818H110.523V766.022C110.523 768.052 111.637 769.107 113.208 769.107C114.438 769.107 115.275 768.457 115.653 767.583H115.738V769H117.304V762.981C118.971 762.858 119.478 761.99 119.483 760.424H118.306ZM122.35 769.181C123.703 769.181 124.465 768.494 124.769 767.881H124.833V769H126.388V763.567C126.388 761.186 124.513 760.712 123.213 760.712C121.732 760.712 120.369 761.308 119.836 762.8L121.333 763.141C121.567 762.56 122.164 762.001 123.235 762.001C124.263 762.001 124.79 762.539 124.79 763.466V763.503C124.79 764.083 124.193 764.073 122.723 764.243C121.173 764.424 119.586 764.829 119.586 766.688C119.586 768.297 120.795 769.181 122.35 769.181ZM122.697 767.903C121.796 767.903 121.147 767.498 121.147 766.71C121.147 765.857 121.903 765.554 122.824 765.431C123.341 765.362 124.566 765.223 124.795 764.994V766.049C124.795 767.018 124.023 767.903 122.697 767.903ZM135.308 769.165C137.242 769.165 138.494 768.004 138.67 766.411H137.12C136.917 767.295 136.23 767.817 135.319 767.817C133.971 767.817 133.103 766.694 133.103 764.909C133.103 763.157 133.987 762.054 135.319 762.054C136.331 762.054 136.949 762.693 137.12 763.46H138.67C138.499 761.809 137.152 760.712 135.292 760.712C132.986 760.712 131.495 762.448 131.495 764.946C131.495 767.413 132.933 769.165 135.308 769.165ZM143.511 769.165C145.817 769.165 147.325 767.477 147.325 764.946C147.325 762.4 145.817 760.712 143.511 760.712C141.204 760.712 139.697 762.4 139.697 764.946C139.697 767.477 141.204 769.165 143.511 769.165ZM143.516 767.828C142.009 767.828 141.305 766.512 141.305 764.941C141.305 763.375 142.009 762.043 143.516 762.043C145.013 762.043 145.716 763.375 145.716 764.941C145.716 766.512 145.013 767.828 143.516 767.828ZM142.856 759.726H144.129L145.78 757.271H144.102L142.856 759.726ZM156.274 760.818H154.596V758.858H153.004V760.818H151.805V762.097H153.004V766.928C152.998 768.414 154.133 769.133 155.39 769.107C155.896 769.101 156.237 769.005 156.424 768.936L156.136 767.62C156.029 767.642 155.832 767.69 155.577 767.69C155.06 767.69 154.596 767.519 154.596 766.598V762.097H156.274V760.818ZM160.109 769.181C161.462 769.181 162.223 768.494 162.527 767.881H162.591V769H164.146V763.567C164.146 761.186 162.271 760.712 160.972 760.712C159.491 760.712 158.127 761.308 157.594 762.8L159.091 763.141C159.326 762.56 159.922 762.001 160.993 762.001C162.021 762.001 162.548 762.539 162.548 763.466V763.503C162.548 764.083 161.952 764.073 160.482 764.243C158.931 764.424 157.344 764.829 157.344 766.688C157.344 768.297 158.553 769.181 160.109 769.181ZM160.455 767.903C159.555 767.903 158.905 767.498 158.905 766.71C158.905 765.857 159.661 765.554 160.583 765.431C161.099 765.362 162.325 765.223 162.554 764.994V766.049C162.554 767.018 161.781 767.903 160.455 767.903ZM160.434 759.726H161.707L160.466 757.271H158.788L160.434 759.726ZM165.959 769H167.552V760.818H165.959V769ZM166.764 759.556C167.312 759.556 167.77 759.13 167.77 758.608C167.77 758.086 167.312 757.654 166.764 757.654C166.21 757.654 165.757 758.086 165.757 758.608C165.757 759.13 166.21 759.556 166.764 759.556ZM173.047 769H174.64V766.097L175.434 765.303L178.214 769H180.169L176.632 764.328L179.945 760.818H178.038L174.778 764.281H174.64V758.091H173.047V769ZM182.681 764.142C182.681 762.837 183.507 762.091 184.641 762.091C185.739 762.091 186.394 762.789 186.394 763.988V769H187.986V763.796C187.986 761.756 186.868 760.712 185.185 760.712C183.911 760.712 183.144 761.266 182.761 762.15H182.66V758.091H181.088V769H182.681V764.142ZM193.25 769.165C195.556 769.165 197.064 767.477 197.064 764.946C197.064 762.4 195.556 760.712 193.25 760.712C190.943 760.712 189.436 762.4 189.436 764.946C189.436 767.477 190.943 769.165 193.25 769.165ZM193.255 767.828C191.747 767.828 191.044 766.512 191.044 764.941C191.044 763.375 191.747 762.043 193.255 762.043C194.752 762.043 195.455 763.375 195.455 764.941C195.455 766.512 194.752 767.828 193.255 767.828ZM200.914 769.181C202.267 769.181 203.029 768.494 203.332 767.881H203.396V769H204.952V763.567C204.952 761.186 203.077 760.712 201.777 760.712C200.296 760.712 198.932 761.308 198.4 762.8L199.896 763.141C200.131 762.56 200.727 762.001 201.798 762.001C202.826 762.001 203.353 762.539 203.353 763.466V763.503C203.353 764.083 202.757 764.073 201.287 764.243C199.737 764.424 198.149 764.829 198.149 766.688C198.149 768.297 199.358 769.181 200.914 769.181ZM201.26 767.903C200.36 767.903 199.71 767.498 199.71 766.71C199.71 765.857 200.466 765.554 201.388 765.431C201.905 765.362 203.13 765.223 203.359 764.994V766.049C203.359 767.018 202.586 767.903 201.26 767.903ZM202.512 759.689V759.178C203.071 759.092 203.63 758.789 203.625 758.091C203.63 757.223 202.778 756.674 201.17 756.674L201.122 757.553C201.75 757.553 202.246 757.702 202.24 758.086C202.246 758.405 201.963 758.565 201.212 758.602L201.255 759.689H202.512ZM208.357 764.142C208.357 762.837 209.156 762.091 210.264 762.091C211.345 762.091 212.001 762.8 212.001 763.988V769H213.593V763.796C213.593 761.772 212.48 760.712 210.807 760.712C209.577 760.712 208.773 761.282 208.394 762.15H208.293V760.818H206.764V769H208.357V764.142ZM217.163 765.863H218.686V765.761C218.707 764.536 219.059 763.988 219.964 763.428C220.918 762.853 221.504 762.043 221.504 760.845C221.504 759.114 220.193 757.942 218.239 757.942C216.443 757.942 215.005 758.991 214.936 760.909H216.555C216.619 759.779 217.424 759.284 218.239 759.284C219.144 759.284 219.879 759.886 219.879 760.829C219.879 761.623 219.384 762.182 218.75 762.576C217.759 763.183 217.173 763.785 217.163 765.761V765.863ZM217.967 769.101C218.547 769.101 219.032 768.627 219.032 768.036C219.032 767.455 218.547 766.976 217.967 766.976C217.381 766.976 216.902 767.455 216.902 768.036C216.902 768.627 217.381 769.101 217.967 769.101Z" fill="white"/>
<path d="M231.815 768C235.139 768 237.153 765.944 237.153 762.535C237.153 759.136 235.139 757.091 231.847 757.091H227.948V761.581H226.43V762.918H227.948V768H231.815ZM230.255 766.024V762.918H231.746V761.581H230.255V759.067H231.725C233.77 759.067 234.852 760.111 234.852 762.535C234.852 764.969 233.77 766.024 231.719 766.024H230.255ZM240.843 768.154C242.052 768.154 242.835 767.627 243.235 766.865H243.299V768H245.451V762.482C245.451 760.532 243.8 759.712 241.978 759.712C240.018 759.712 238.729 760.649 238.414 762.141L240.513 762.311C240.667 761.768 241.152 761.368 241.967 761.368C242.74 761.368 243.182 761.757 243.182 762.428V762.46C243.182 762.988 242.622 763.057 241.2 763.195C239.581 763.344 238.127 763.888 238.127 765.715C238.127 767.334 239.282 768.154 240.843 768.154ZM243.118 756.963C243.118 757.464 242.819 757.917 242.063 757.917C241.285 757.917 240.998 757.453 241.003 756.963H239.432C239.432 758.252 240.449 759.115 242.063 759.115C243.677 759.115 244.694 758.252 244.7 756.963H243.118ZM241.493 766.588C240.795 766.588 240.295 766.263 240.295 765.64C240.295 765.001 240.822 764.687 241.621 764.575C242.116 764.506 242.926 764.388 243.198 764.207V765.076C243.198 765.933 242.489 766.588 241.493 766.588ZM249.172 763.27C249.177 762.215 249.806 761.597 250.722 761.597C251.633 761.597 252.182 762.194 252.176 763.195V768H254.445V762.79C254.445 760.884 253.327 759.712 251.622 759.712C250.408 759.712 249.529 760.308 249.161 761.262H249.065V759.818H246.903V768H249.172V763.27ZM259.611 771.239C261.95 771.239 263.612 770.173 263.612 768.08V759.818H261.359V761.192H261.273C260.97 760.527 260.304 759.712 258.935 759.712C257.14 759.712 255.622 761.107 255.622 763.893C255.622 766.615 257.097 767.883 258.94 767.883C260.245 767.883 260.975 767.228 261.273 766.551H261.369V768.048C261.369 769.172 260.65 769.609 259.665 769.609C258.663 769.609 258.157 769.172 257.971 768.676L255.872 768.959C256.144 770.248 257.406 771.239 259.611 771.239ZM259.659 766.178C258.546 766.178 257.939 765.294 257.939 763.882C257.939 762.492 258.535 761.517 259.659 761.517C260.762 761.517 261.38 762.45 261.38 763.882C261.38 765.326 260.751 766.178 259.659 766.178ZM268.272 768H270.541V765.401L271.154 764.703L273.386 768H276.044L272.853 763.36L275.889 759.818H273.285L270.664 762.924H270.541V757.091H268.272V768ZM278.227 771.068C279.915 771.068 280.81 770.205 281.274 768.884L284.454 759.829L282.051 759.818L280.342 765.827H280.256L278.562 759.818H276.176L279.111 768.234L278.978 768.581C278.68 769.348 278.11 769.385 277.311 769.14L276.799 770.834C277.124 770.972 277.652 771.068 278.227 771.068ZM279.484 758.763H281.087L282.712 756.34H280.613L279.484 758.763Z" fill="white"/>
<rect x="49" y="400" width="101" height="24" fill="white"/>
<path d="M29 47L20 55.5L29 64" stroke="#0F8E70" stroke-width="2"/>
</g>
<defs>
<clipPath id="clip0">
<rect width="375" height="812" fill="white"/>
</clipPath>
</defs>
</svg>
