<svg width="32" height="32" viewBox="0 0 32 32" fill="none" xmlns="http://www.w3.org/2000/svg">
<circle cx="16" cy="16" r="16" fill="#0F8E70"/>
<g clip-path="url(#clip0)">
<path d="M22.1 13.3002L22.6 12.8002C23.2 12.2002 23.2 11.3002 22.6 10.7002L21.3 9.4002C20.7 8.8002 19.8 8.8002 19.2 9.4002L18.7 9.9002L22.1 13.3002Z" fill="white"/>
<path d="M9.6 19.3003L9 22.5003C9 22.6003 9 22.8003 9.1 22.9003C9.2 23.0003 9.4 23.0003 9.5 23.0003L12.7 22.4003L9.6 19.3003Z" fill="white"/>
<path d="M18.1 10.5L10 18.6L13.4 22L21.5 13.9L18.1 10.5Z" fill="white"/>
</g>
<defs>
<clipPath id="clip0">
<rect width="14" height="14" fill="white" transform="translate(9 9)"/>
</clipPath>
</defs>
</svg>
