<svg width="96" height="96" viewBox="0 0 96 96" fill="none" xmlns="http://www.w3.org/2000/svg">
<path opacity="0.1" d="M80 96H16C7.2 96 0 88.8 0 80V16C0 7.2 7.2 0 16 0H80C88.8 0 96 7.2 96 16V80C96 88.8 88.8 96 80 96Z" fill="url(#paint0_linear)"/>
<path d="M51.7002 47.2C54.8002 46.8 57.8002 48.1 59.8002 50.5C59.9002 50.7 60.2002 50.7 60.4002 50.6C61.3002 50 62.1002 49.1 62.6002 48.2C66.3002 42.4 62.2002 34.5 55.1002 34.5C50.5002 34.5 46.7002 38 46.2002 42.6C46.2002 42.8 46.3002 43 46.5002 43C48.4002 43.9 50.1002 45.3 51.2002 47.1C51.4002 47.1 51.6002 47.2 51.7002 47.2Z" fill="url(#paint1_linear)"/>
<path d="M55.2001 33.1001C56.0001 33.1001 56.6 32.5001 56.6 31.7001V29.0001C56.6 28.2001 56.0001 27.6001 55.2001 27.6001C54.4001 27.6001 53.8 28.2001 53.8 29.0001V31.7001C53.8 32.4001 54.4001 33.1001 55.2001 33.1001Z" fill="url(#paint2_linear)"/>
<path d="M69.6 42H66.9C66.1 42 65.5 42.6 65.5 43.4C65.5 44.2 66.1 44.8 66.9 44.8H69.6C70.4 44.8 71 44.2 71 43.4C71 42.6 70.3 42 69.6 42Z" fill="url(#paint3_linear)"/>
<path d="M64.4 50.6001C63.9 50.1001 63 50.1001 62.5 50.6001C62 51.1001 62 52.0001 62.5 52.5001L64.4 54.4001C64.7 54.7001 65 54.8001 65.4 54.8001C66.6 54.8001 67.2 53.3001 66.4 52.5001L64.4 50.6001Z" fill="url(#paint4_linear)"/>
<path d="M46.0001 36.1002C46.5001 36.6002 47.4001 36.6002 47.9001 36.1002C48.4001 35.6002 48.4001 34.7002 47.9001 34.2002L46.0001 32.2002C45.5001 31.7002 44.6001 31.7002 44.1001 32.2002C43.6001 32.7002 43.6001 33.6002 44.1001 34.1002L46.0001 36.1002Z" fill="url(#paint5_linear)"/>
<path d="M63.4 36.5003C63.7 36.5003 64.1 36.4003 64.4 36.1003L66.3 34.2003C66.8 33.7003 66.8 32.8003 66.3 32.3003C65.8 31.8003 64.9 31.8003 64.4 32.3003L62.5 34.2003C61.6 35.0003 62.2 36.5003 63.4 36.5003Z" fill="url(#paint6_linear)"/>
<path d="M59.6 56.2001C60.7 51.0001 55.2 47.0001 50.6 49.4001C49.6 46.1001 46.5 43.6001 42.8 43.6001C38 43.6001 34.3001 47.7001 34.7001 52.5001C30.8001 52.8001 27.8 56.0001 27.8 60.0001C27.8 64.1001 31.2 67.5001 35.3 67.5001H59.7001C62.8 67.5001 65.3001 65.0001 65.3001 61.9001C65.4001 58.9001 63 56.2001 59.6 56.2001Z" fill="url(#paint7_linear)"/>
<defs>
<linearGradient id="paint0_linear" x1="-5.518" y1="64.4835" x2="101.518" y2="31.5165" gradientUnits="userSpaceOnUse">
<stop stop-color="#01A7A3"/>
<stop offset="1" stop-color="#73D483"/>
</linearGradient>
<linearGradient id="paint1_linear" x1="55.2151" y1="47.6892" x2="55.2151" y2="29.3051" gradientUnits="userSpaceOnUse">
<stop stop-color="#FFD400"/>
<stop offset="1" stop-color="#ECAF11"/>
</linearGradient>
<linearGradient id="paint2_linear" x1="55.1954" y1="47.6893" x2="55.1954" y2="29.3052" gradientUnits="userSpaceOnUse">
<stop stop-color="#FFD400"/>
<stop offset="1" stop-color="#ECAF11"/>
</linearGradient>
<linearGradient id="paint3_linear" x1="68.1898" y1="47.6892" x2="68.1898" y2="29.3051" gradientUnits="userSpaceOnUse">
<stop stop-color="#FFD400"/>
<stop offset="1" stop-color="#ECAF11"/>
</linearGradient>
<linearGradient id="paint4_linear" x1="64.3845" y1="47.6893" x2="64.3845" y2="29.3052" gradientUnits="userSpaceOnUse">
<stop stop-color="#FFD400"/>
<stop offset="1" stop-color="#ECAF11"/>
</linearGradient>
<linearGradient id="paint5_linear" x1="46.0071" y1="47.6894" x2="46.0071" y2="29.3053" gradientUnits="userSpaceOnUse">
<stop stop-color="#FFD400"/>
<stop offset="1" stop-color="#ECAF11"/>
</linearGradient>
<linearGradient id="paint6_linear" x1="64.3831" y1="47.6895" x2="64.3831" y2="29.3054" gradientUnits="userSpaceOnUse">
<stop stop-color="#FFD400"/>
<stop offset="1" stop-color="#ECAF11"/>
</linearGradient>
<linearGradient id="paint7_linear" x1="46.5702" y1="63.1777" x2="46.5702" y2="35.7176" gradientUnits="userSpaceOnUse">
<stop stop-color="#01A7A3"/>
<stop offset="1" stop-color="#73D483"/>
</linearGradient>
</defs>
</svg>
