<svg width="96" height="96" viewBox="0 0 96 96" fill="none" xmlns="http://www.w3.org/2000/svg">
<path opacity="0.1" d="M80 96H16C7.2 96 0 88.8 0 80V16C0 7.2 7.2 0 16 0H80C88.8 0 96 7.2 96 16V80C96 88.8 88.8 96 80 96Z" fill="url(#paint0_linear)"/>
<path d="M39.9999 35.6V28H39.8999C39.5999 28 39.2999 28.1 39.0999 28.4L31.2999 36C31.0999 36.2 30.8999 36.5 30.8999 36.8V37H38.4999C39.3999 37 39.9999 36.3 39.9999 35.6Z" fill="url(#paint1_linear)"/>
<path d="M57.9 27.8999H42.4V35.4999C42.4 37.5999 40.7 39.2999 38.6 39.2999H31V65.0999C31 67.1999 32.7 68.8999 34.8 68.8999H54.4C52.7 67.2999 51.6 64.9999 51.6 62.3999C51.6 57.4999 55.6 53.4999 60.5 53.4999C60.9 53.4999 61.3 53.4999 61.7 53.5999V31.6999C61.7 29.5999 60 27.8999 57.9 27.8999ZM46.3 61.1999H38.6C37.9 61.1999 37.4 60.6999 37.4 59.9999C37.4 59.2999 37.9 58.7999 38.6 58.7999H46.3C47 58.7999 47.5 59.2999 47.5 59.9999C47.5 60.6999 47 61.1999 46.3 61.1999ZM46.3 56.0999H38.6C37.9 56.0999 37.4 55.5999 37.4 54.8999C37.4 54.1999 37.9 53.6999 38.6 53.6999H46.3C47 53.6999 47.5 54.1999 47.5 54.8999C47.5 55.4999 47 56.0999 46.3 56.0999ZM54.1 50.8999H38.6C37.9 50.8999 37.4 50.3999 37.4 49.6999C37.4 48.9999 37.9 48.4999 38.6 48.4999H54C54.7 48.4999 55.2 48.9999 55.2 49.6999C55.3 50.3999 54.7 50.8999 54.1 50.8999ZM54.1 45.7999H38.6C37.9 45.7999 37.4 45.2999 37.4 44.5999C37.4 43.8999 37.9 43.3999 38.6 43.3999H54C54.7 43.3999 55.2 43.8999 55.2 44.5999C55.3 45.2999 54.7 45.7999 54.1 45.7999Z" fill="url(#paint2_linear)"/>
<path d="M60.5 55.8999C56.9 55.8999 54 58.7999 54 62.3999C54 65.9999 56.9 68.8999 60.5 68.8999C64.1 68.8999 67 65.9999 67 62.3999C67 58.7999 64.1 55.8999 60.5 55.8999ZM60.5 66.7999C59.8 66.7999 59.3 66.2999 59.3 65.5999C59.3 64.8999 59.8 64.3999 60.5 64.3999C61.2 64.3999 61.7 64.8999 61.7 65.5999C61.7 66.1999 61.2 66.7999 60.5 66.7999ZM61.7 61.6999C61.7 62.3999 61.2 62.8999 60.5 62.8999C59.8 62.8999 59.3 62.3999 59.3 61.6999V59.2999C59.3 58.5999 59.8 58.0999 60.5 58.0999C61.2 58.0999 61.7 58.5999 61.7 59.2999V61.6999Z" fill="url(#paint3_linear)"/>
<defs>
<linearGradient id="paint0_linear" x1="-5.518" y1="64.4835" x2="101.518" y2="31.5165" gradientUnits="userSpaceOnUse">
<stop stop-color="#01A7A3"/>
<stop offset="1" stop-color="#73D483"/>
</linearGradient>
<linearGradient id="paint1_linear" x1="35.4908" y1="52" x2="35.4908" y2="23" gradientUnits="userSpaceOnUse">
<stop stop-color="#01A7A3"/>
<stop offset="1" stop-color="#73D483"/>
</linearGradient>
<linearGradient id="paint2_linear" x1="46.3414" y1="51.9999" x2="46.3414" y2="22.9999" gradientUnits="userSpaceOnUse">
<stop stop-color="#01A7A3"/>
<stop offset="1" stop-color="#73D483"/>
</linearGradient>
<linearGradient id="paint3_linear" x1="60.4938" y1="63.9999" x2="60.4938" y2="52.9545" gradientUnits="userSpaceOnUse">
<stop stop-color="#FFD400"/>
<stop offset="1" stop-color="#ECAF11"/>
</linearGradient>
</defs>
</svg>
