<svg width="96" height="96" viewBox="0 0 96 96" fill="none" xmlns="http://www.w3.org/2000/svg">
<path opacity="0.1" d="M80 96H16C7.2 96 0 88.8 0 80V16C0 7.2 7.2 0 16 0H80C88.8 0 96 7.2 96 16V80C96 88.8 88.8 96 80 96Z" fill="url(#paint0_linear)"/>
<path d="M38.5001 62.2C33.7001 62.2 29.8001 58.3 29.8001 53.5C29.8001 48.9 33.5001 45.1 38.1001 44.9H44.7001C46.1001 44.8 47.1001 43.7 47.1001 42.3V38C47.1001 36.1 45.5001 34.5 43.6001 34.5H33.3001C31.4001 34.5 29.8001 36.1 29.8001 38V42.8C26.6001 45.3 24.6001 49.2 24.6001 53.6C24.6001 61.3 30.8001 67.5 38.5001 67.5C40.8001 67.5 42.9001 66.9 44.8001 66C43.8001 64.6 43.1001 63 42.6001 61.3C41.3001 61.7 40.0001 62.2 38.5001 62.2ZM38.5001 37.9C39.5001 37.9 40.2001 38.7 40.2001 39.6C40.2001 40.5 39.4001 41.3 38.5001 41.3C37.5001 41.3 36.8001 40.5 36.8001 39.6C36.8001 38.7 37.5001 37.9 38.5001 37.9ZM38.5001 65.6C38.0001 65.6 37.6001 65.2 37.6001 64.7C37.6001 64.2 38.0001 63.8 38.5001 63.8C39.0001 63.8 39.4001 64.2 39.4001 64.7C39.3001 65.2 38.9001 65.6 38.5001 65.6Z" fill="url(#paint1_linear)"/>
<path d="M57.5 29.0001H54.6C54.5 26.9001 52.7 25.1001 50.6 25.1001H47.1C46.1 25.1001 45.2 25.4001 44.5 26.1001C43.8 25.5001 42.8001 25.1001 41.9001 25.1001H38.4001C36.2001 25.1001 34.3 26.9001 34.3 29.2001C34.3 31.5001 36.1001 33.3001 38.4001 33.3001H41.9001C42.9001 33.3001 43.8 33.0001 44.5 32.3001C45.2 32.9001 46.1 33.3001 47.1 33.3001H50C50.1 35.5001 51.9 37.2001 54 37.2001H57.5C59.7001 37.2001 61.6 35.4001 61.6 33.1001C61.6 30.8001 59.8 29.0001 57.5 29.0001ZM58.7001 33.1001C58.7001 33.7001 58.2 34.2001 57.6 34.2001H54.1C53.5 34.2001 53 33.7001 53 33.1001C53 32.5001 53.5 32.0001 54.1 32.0001H57.6C58.2 31.9001 58.7001 32.5001 58.7001 33.1001ZM51.7001 29.2001C51.7001 29.8001 51.2 30.3001 50.6 30.3001H47.1C46.5 30.3001 46 29.8001 46 29.2001C46 28.6001 46.5 28.1001 47.1 28.1001H50.6C51.2 28.1001 51.7001 28.6001 51.7001 29.2001ZM43.1 29.2001C43.1 29.8001 42.6 30.3001 42 30.3001H38.5C37.9 30.3001 37.4001 29.8001 37.4001 29.2001C37.4001 28.6001 37.9 28.1001 38.5 28.1001H42C42.6 28.1001 43.1 28.6001 43.1 29.2001Z" fill="url(#paint2_linear)"/>
<path d="M67.6001 47.3999C66.9001 48.8999 65.4001 49.9999 63.6001 49.9999H62.7001C64.8001 51.5999 66.2001 54.0999 66.2001 56.8999C66.2001 61.6999 62.3001 65.5999 57.5001 65.5999C52.7001 65.5999 48.8001 61.6999 48.8001 56.8999C48.8001 52.2999 52.5001 48.4999 57.1001 48.2999H63.7001C65.1001 48.1999 66.1001 47.0999 66.1001 45.6999V41.3999C66.1001 39.4999 64.5001 37.8999 62.6001 37.8999H52.3001C50.4001 37.8999 48.8001 39.4999 48.8001 41.3999V46.1999C45.6001 48.6999 43.6001 52.5999 43.6001 56.9999C43.6001 64.6999 49.8001 70.8999 57.5001 70.8999C65.2001 70.8999 71.4001 64.5999 71.4001 56.9999C71.4001 53.2999 69.9001 49.8999 67.6001 47.3999ZM57.5001 41.3999C58.5001 41.3999 59.2001 42.1999 59.2001 43.0999C59.2001 43.9999 58.4001 44.7999 57.5001 44.7999C56.5001 44.7999 55.8001 43.9999 55.8001 43.0999C55.8001 42.1999 56.6001 41.3999 57.5001 41.3999ZM57.5001 69.0999C57.0001 69.0999 56.6001 68.6999 56.6001 68.1999C56.6001 67.6999 57.0001 67.2999 57.5001 67.2999C58.0001 67.2999 58.4001 67.6999 58.4001 68.1999C58.4001 68.6999 58.0001 69.0999 57.5001 69.0999Z" fill="url(#paint3_linear)"/>
<defs>
<linearGradient id="paint0_linear" x1="-5.518" y1="64.4835" x2="101.518" y2="31.5165" gradientUnits="userSpaceOnUse">
<stop stop-color="#01A7A3"/>
<stop offset="1" stop-color="#73D483"/>
</linearGradient>
<linearGradient id="paint1_linear" x1="35.8666" y1="58.2687" x2="35.8666" y2="36.6238" gradientUnits="userSpaceOnUse">
<stop stop-color="#01A7A3"/>
<stop offset="1" stop-color="#73D483"/>
</linearGradient>
<linearGradient id="paint2_linear" x1="34.4065" y1="31.1577" x2="61.5855" y2="31.1577" gradientUnits="userSpaceOnUse">
<stop stop-color="#FFD400"/>
<stop offset="1" stop-color="#ECAF11"/>
</linearGradient>
<linearGradient id="paint3_linear" x1="57.5336" y1="58.2686" x2="57.5336" y2="36.6237" gradientUnits="userSpaceOnUse">
<stop stop-color="#01A7A3"/>
<stop offset="1" stop-color="#73D483"/>
</linearGradient>
</defs>
</svg>
