<svg width="96" height="96" viewBox="0 0 96 96" fill="none" xmlns="http://www.w3.org/2000/svg">
<path opacity="0.1" d="M80 96H16C7.2 96 0 88.8 0 80V16C0 7.2 7.2 0 16 0H80C88.8 0 96 7.2 96 16V80C96 88.8 88.8 96 80 96Z" fill="url(#paint0_linear)"/>
<path d="M73.3001 46.2C72.4001 46.2 71.5 46.7 71.1 47.5H68.8001C68.5001 44.8 67.5001 42.3 65.8001 40.3L67.4001 38.7C68.2001 38.9 69.2001 38.7 69.8001 38C70.8001 37 70.8001 35.4 69.8001 34.4C68.8001 33.4 67.2 33.4 66.2 34.4C65.5 35.1 65.3 36 65.5 36.8L64 38.5C62 36.9 59.5 35.8 56.8 35.5V33.2C57.6 32.8 58.1 31.9 58.1 31C58.1 29.6 57 28.5 55.6 28.5C54.2 28.5 53.1 29.6 53.1 31C53.1 31.9 53.6001 32.8 54.4001 33.2V35.5C51.7001 35.8 49.2001 36.8 47.2001 38.5L45.6 36.9C45.8 36.1 45.6001 35.1 44.9001 34.5C43.9001 33.5 42.3 33.5 41.3 34.5C40.3 35.5 40.3 37.1 41.3 38.1C42 38.8 42.9001 39 43.7001 38.8L45.3 40.4C43.7 42.4 42.6 44.9 42.3 47.6H40C39.6 46.8 38.7 46.3 37.8 46.3C36.4 46.3 35.3 47.4 35.3 48.8C35.3 50.2 36.4 51.3 37.8 51.3C38.7 51.3 39.6 50.8 40 50H42.3C42.6 52.7 43.6 55.2 45.3 57.2L43.7001 58.8C42.9001 58.6 41.9 58.8 41.3 59.5C40.3 60.5 40.3 62.1 41.3 63.1C42.3 64.1 43.9001 64.1 44.9001 63.1C45.6001 62.4 45.8 61.5 45.6 60.7L47.2001 59.1C49.2001 60.7 51.7001 61.8 54.4001 62.1V64.4C53.6001 64.8 53.1 65.7 53.1 66.6C53.1 68 54.2 69.1 55.6 69.1C57 69.1 58.1 68 58.1 66.6C58.1 65.7 57.6 64.8 56.8 64.4V62C59.5 61.7 62 60.7 64 59L65.6 60.6C65.4 61.4 65.6001 62.4 66.3001 63C67.3001 64 68.9001 64 69.9001 63C70.9001 62 70.9001 60.4 69.9001 59.4C69.2001 58.7 68.3 58.5 67.5 58.7L65.9001 57.1C67.5 55.1 68.6001 52.6 68.9001 49.9H71.2C71.6 50.7 72.5 51.2 73.4001 51.2C74.8001 51.2 75.9001 50.1 75.9001 48.7C75.8001 47.3 74.7001 46.2 73.3001 46.2ZM51.4001 48.1C50.2001 48.1 49.2001 47.1 49.2001 45.9C49.2001 44.7 50.2001 43.7 51.4001 43.7C52.6001 43.7 53.6 44.7 53.6 45.9C53.6 47.1 52.6001 48.1 51.4001 48.1ZM56.8 55.7C55.4 55.7 54.3 54.6 54.3 53.2C54.3 51.8 55.4 50.7 56.8 50.7C58.2 50.7 59.3 51.8 59.3 53.2C59.4 54.6 58.2 55.7 56.8 55.7ZM61.3 46.8C60.3 46.8 59.4001 45.9 59.4001 44.9C59.4001 43.9 60.3 43 61.3 43C62.3 43 63.2001 43.9 63.2001 44.9C63.2001 46 62.3 46.8 61.3 46.8Z" fill="url(#paint1_linear)"/>
<path d="M35.5999 30.9999C35.1999 31.2999 34.9999 31.7999 34.9999 32.2999L33.9999 32.9999C32.9999 31.8999 31.7999 31.0999 30.3999 30.6999L30.5999 29.4999C30.9999 29.2999 31.3999 28.9999 31.4999 28.3999C31.5999 27.5999 31.0999 26.8999 30.3999 26.7999C29.5999 26.6999 28.8999 27.1999 28.7999 27.8999C28.6999 28.3999 28.8999 28.8999 29.2999 29.1999L29.0999 30.3999C27.6999 30.2999 26.1999 30.5999 24.8999 31.2999L24.1999 30.2999C24.3999 29.8999 24.3999 29.2999 24.0999 28.8999C23.6999 28.2999 22.7999 28.0999 22.1999 28.4999C21.5999 28.8999 21.3999 29.7999 21.7999 30.3999C22.0999 30.7999 22.5999 30.9999 23.0999 30.9999L23.7999 31.9999C22.6999 32.9999 21.8999 34.1999 21.4999 35.5999L20.2999 35.3999C20.0999 34.8999 19.7999 34.5999 19.1999 34.4999C18.3999 34.3999 17.6999 34.8999 17.5999 35.5999C17.4999 36.3999 17.9999 37.0999 18.6999 37.1999C19.1999 37.2999 19.6999 37.0999 19.9999 36.6999L21.1999 36.8999C21.0999 38.2999 21.3999 39.7999 22.0999 41.0999L21.0999 41.7999C20.6999 41.5999 20.0999 41.5999 19.6999 41.8999C19.0999 42.2999 18.8999 43.1999 19.2999 43.7999C19.6999 44.3999 20.5999 44.5999 21.1999 44.1999C21.5999 43.8999 21.7999 43.3999 21.7999 42.8999L22.7999 42.1999C23.7999 43.2999 24.9999 44.0999 26.3999 44.4999L26.1999 45.6999C25.6999 45.8999 25.3999 46.1999 25.2999 46.7999C25.1999 47.5998 25.6999 48.2999 26.3999 48.3999C27.1999 48.4999 27.8999 47.9999 27.9999 47.2999C28.0999 46.7999 27.8999 46.2999 27.4999 45.9999L27.6999 44.7999C29.0999 44.8999 30.5999 44.5999 31.8999 43.8999L32.5999 44.8999C32.3999 45.2999 32.3999 45.8999 32.6999 46.2999C33.0999 46.8999 33.9999 47.0999 34.5999 46.6999C35.1999 46.2999 35.3999 45.3999 34.9999 44.7999C34.6999 44.3999 34.1999 44.1999 33.6999 44.1999L32.9999 43.1999C34.0999 42.1999 34.8999 40.9999 35.2999 39.5999L36.4999 39.7999C36.6999 40.2999 36.9999 40.5999 37.5999 40.6999C38.3999 40.7999 39.0999 40.2999 39.1999 39.5999C39.2999 38.7999 38.7999 38.0999 38.0999 37.9999C37.5999 37.8999 37.0999 38.0999 36.7999 38.4999L35.5999 38.2999C35.6999 36.8999 35.3999 35.3998 34.6999 34.0999L35.6999 33.3999C36.0999 33.5999 36.6999 33.5999 37.0999 33.2999C37.6999 32.8999 37.8999 31.9999 37.4999 31.3999C37.0999 30.6999 36.2999 30.4999 35.5999 30.9999ZM26.2999 38.5999C25.6999 38.9999 24.9999 38.7999 24.5999 38.2999C24.1999 37.7999 24.3999 36.9999 24.8999 36.5999C25.4999 36.1999 26.1999 36.3999 26.5999 36.8999C26.9999 37.3999 26.8999 38.1999 26.2999 38.5999ZM31.0999 40.2999C30.4999 40.6999 29.5999 40.5999 29.1999 39.8999C28.7999 39.2999 28.8999 38.3999 29.5999 37.9999C30.1999 37.5999 31.0999 37.6999 31.4999 38.3999C31.8999 38.9999 31.7999 39.8999 31.0999 40.2999ZM30.3999 34.9999C29.8999 35.2999 29.2999 35.1999 28.9999 34.6999C28.6999 34.1999 28.7999 33.5999 29.2999 33.2999C29.7999 32.9999 30.3999 33.0999 30.6999 33.5999C30.9999 33.9999 30.8999 34.5999 30.3999 34.9999Z" fill="url(#paint2_linear)"/>
<defs>
<linearGradient id="paint0_linear" x1="-5.518" y1="64.4835" x2="101.518" y2="31.5165" gradientUnits="userSpaceOnUse">
<stop stop-color="#01A7A3"/>
<stop offset="1" stop-color="#73D483"/>
</linearGradient>
<linearGradient id="paint1_linear" x1="35.295" y1="48.74" x2="75.8221" y2="48.74" gradientUnits="userSpaceOnUse">
<stop stop-color="#01A7A3"/>
<stop offset="1" stop-color="#73D483"/>
</linearGradient>
<linearGradient id="paint2_linear" x1="17.4711" y1="37.5868" x2="39.3464" y2="37.5868" gradientUnits="userSpaceOnUse">
<stop stop-color="#FFD400"/>
<stop offset="1" stop-color="#ECAF11"/>
</linearGradient>
</defs>
</svg>
