<svg width="96" height="96" viewBox="0 0 96 96" fill="none" xmlns="http://www.w3.org/2000/svg">
<path opacity="0.1" d="M80 96H16C7.2 96 0 88.8 0 80V16C0 7.2 7.2 0 16 0H80C88.8 0 96 7.2 96 16V80C96 88.8 88.8 96 80 96Z" fill="url(#paint0_linear)"/>
<path d="M57.2001 29.1C56.8001 28.4 56.1001 28 55.3001 28H47.9001V37H61.7001L57.2001 29.1Z" fill="url(#paint1_linear)"/>
<path d="M45.4 28H37.9C37.1 28 36.4 28.4 36 29.1L31.5 37H45.4V28Z" fill="url(#paint2_linear)"/>
<path d="M59.5001 49.8C60.6001 49.8 61.6001 49.9 62.6001 50.2V39.5H30.6001V61.6C30.6001 63.3 32.0001 64.7 33.7001 64.7H48.0001C47.7001 63.7 47.6001 62.7 47.6001 61.6C47.6001 55.1 53.0001 49.8 59.5001 49.8Z" fill="url(#paint3_linear)"/>
<path d="M59.5 70.9999C64.6 70.9999 68.8 66.7999 68.8 61.6999C68.8 56.5999 64.6 52.3999 59.5 52.3999C54.4 52.3999 50.2 56.5999 50.2 61.6999C50.2 66.7999 54.4 70.9999 59.5 70.9999ZM58.2999 58.0999C58.2999 57.3999 58.8999 56.7999 59.5999 56.7999C60.2999 56.7999 60.9 57.3999 60.9 58.0999V61.6999C60.9 62.3999 60.2999 62.9999 59.5999 62.9999C58.8999 62.9999 58.2999 62.3999 58.2999 61.6999V58.0999ZM58.2999 65.0999V64.9999V64.8999V64.7999C58.2999 64.7999 58.3 64.6999 58.4 64.6999C58.4 64.6999 58.4 64.5999 58.5 64.5999C58.5 64.5999 58.4999 64.4999 58.5999 64.4999C58.6999 64.4999 58.7 64.3999 58.7 64.3999C58.9 64.1999 59.2999 63.9999 59.5999 63.9999H59.7H59.7999H59.9H60C60 63.9999 60.0999 63.9999 60.0999 64.0999C60.0999 64.0999 60.2 64.0999 60.2 64.1999C60.2 64.1999 60.2999 64.1999 60.2999 64.2999L60.4 64.3999L60.5 64.4999L60.5999 64.5999C60.5999 64.5999 60.6 64.6999 60.7 64.6999C60.7 64.6999 60.6999 64.7999 60.7999 64.7999V64.8999V64.9999V65.0999V65.1999V65.2999V65.3999V65.4999V65.5999C60.7999 65.5999 60.8 65.6999 60.7 65.6999C60.7 65.6999 60.6999 65.7999 60.5999 65.7999C60.5999 65.7999 60.6 65.8999 60.5 65.8999L60.4 65.9999L60.2999 66.0999L60.2 66.1999C60.2 66.1999 60.0999 66.1999 60.0999 66.2999C60.0999 66.2999 60 66.2999 60 66.3999H59.9H59.7999H59.7C59.3 66.3999 58.9 66.2999 58.7 65.9999L58.5999 65.8999L58.5 65.7999C58.5 65.7999 58.5 65.6999 58.4 65.6999C58.4 65.6999 58.4 65.5999 58.2999 65.5999V65.4999V65.3999V65.2999V65.1999V65.0999Z" fill="url(#paint4_linear)"/>
<defs>
<linearGradient id="paint0_linear" x1="-5.518" y1="64.4835" x2="101.518" y2="31.5165" gradientUnits="userSpaceOnUse">
<stop stop-color="#01A7A3"/>
<stop offset="1" stop-color="#73D483"/>
</linearGradient>
<linearGradient id="paint1_linear" x1="54.8051" y1="49" x2="54.8051" y2="33" gradientUnits="userSpaceOnUse">
<stop stop-color="#01A7A3"/>
<stop offset="1" stop-color="#73D483"/>
</linearGradient>
<linearGradient id="paint2_linear" x1="38.436" y1="49" x2="38.436" y2="33" gradientUnits="userSpaceOnUse">
<stop stop-color="#01A7A3"/>
<stop offset="1" stop-color="#73D483"/>
</linearGradient>
<linearGradient id="paint3_linear" x1="46.591" y1="49" x2="46.591" y2="33" gradientUnits="userSpaceOnUse">
<stop stop-color="#01A7A3"/>
<stop offset="1" stop-color="#73D483"/>
</linearGradient>
<linearGradient id="paint4_linear" x1="50.2287" y1="61.657" x2="68.822" y2="61.657" gradientUnits="userSpaceOnUse">
<stop stop-color="#FFD400"/>
<stop offset="1" stop-color="#ECAF11"/>
</linearGradient>
</defs>
</svg>
