<svg width="96" height="96" viewBox="0 0 96 96" fill="none" xmlns="http://www.w3.org/2000/svg">
<path opacity="0.1" d="M80 96H16C7.2 96 0 88.8 0 80V16C0 7.2 7.2 0 16 0H80C88.8 0 96 7.2 96 16V80C96 88.8 88.8 96 80 96Z" fill="url(#paint0_linear)"/>
<path d="M66.9001 69.3002H29.1001C27.1001 69.3002 25.2001 68.2002 24.2001 66.4002C23.2001 64.6002 23.2001 62.5002 24.3001 60.7002L43.2001 29.4002C44.2001 27.7002 46.1001 26.7002 48.0001 26.7002C49.9001 26.7002 51.8001 27.7002 52.8001 29.4002L71.7001 60.7002C72.7001 62.4002 72.8001 64.6002 71.8001 66.4002C70.8001 68.2002 68.9001 69.3002 66.9001 69.3002ZM29.8001 63.3002H66.2001L48.0001 33.1002L29.8001 63.3002Z" fill="url(#paint1_linear)"/>
<path d="M69.1001 62.3002L50.3001 31.0002C49.8001 30.2002 49.0001 29.7002 48.0001 29.7002C47.0001 29.7002 46.2001 30.2002 45.7001 31.0002L26.9001 62.3002C26.4001 63.1002 26.4001 64.1002 26.9001 65.0002C27.4001 65.8002 28.2001 66.3002 29.2001 66.3002H66.9001C67.9001 66.3002 68.7001 65.8002 69.2001 65.0002C69.6001 64.1002 69.6001 63.1002 69.1001 62.3002ZM48.0001 40.5002C49.1001 40.5002 50.0001 41.1002 50.0001 42.2002C50.0001 45.5002 49.6001 50.3002 49.6001 53.6002C49.6001 54.5002 48.7001 54.8002 48.0001 54.8002C47.1001 54.8002 46.4001 54.4002 46.4001 53.6002C46.4001 50.3002 46.0001 45.5002 46.0001 42.2002C46.0001 41.2002 46.9001 40.5002 48.0001 40.5002ZM48.0001 61.0002C46.8001 61.0002 45.9001 60.0002 45.9001 58.9002C45.9001 57.7002 46.8001 56.8002 48.0001 56.8002C49.1001 56.8002 50.1001 57.8002 50.1001 58.9002C50.2001 60.0002 49.2001 61.0002 48.0001 61.0002Z" fill="url(#paint2_linear)"/>
<defs>
<linearGradient id="paint0_linear" x1="-5.518" y1="64.4835" x2="101.518" y2="31.5165" gradientUnits="userSpaceOnUse">
<stop stop-color="#01A7A3"/>
<stop offset="1" stop-color="#73D483"/>
</linearGradient>
<linearGradient id="paint1_linear" x1="23.5011" y1="48.0002" x2="72.4991" y2="48.0002" gradientUnits="userSpaceOnUse">
<stop stop-color="#FFD400"/>
<stop offset="1" stop-color="#ECAF11"/>
</linearGradient>
<linearGradient id="paint2_linear" x1="26.5006" y1="48.0002" x2="69.5006" y2="48.0002" gradientUnits="userSpaceOnUse">
<stop stop-color="#01A7A3"/>
<stop offset="1" stop-color="#73D483"/>
</linearGradient>
</defs>
</svg>
